M48
;DRILL file {KiCad (2018-02-14 revision 6afdf1cf8)-makepkg} date 02/15/18 17:48:44
;FORMAT={2:4/ absolute / inch / suppress leading zeros}
FMAT,2
INCH,TZ
T1C0.0157
T2C0.0320
T3C0.0394
T4C0.0400
T5C0.0551
%
G90
G05
M72
T1
X16000Y-43400
X16500Y-42900
X17000Y-43400
X17875Y-23000
X17875Y-43400
X19600Y-23600
X19600Y-39000
X19600Y-39500
X19600Y-41300
X23650Y-23000
X23650Y-24650
X23650Y-26000
X23650Y-29525
X23650Y-33850
X23650Y-35433
X23650Y-40000
X23650Y-43425
X25500Y-23600
X25500Y-37000
X25500Y-37500
X25500Y-41300
X29575Y-40000
X29600Y-23000
X29600Y-26025
X29600Y-29528
X29600Y-33850
X29600Y-35425
X29600Y-43425
X31400Y-23600
X31400Y-34200
X31400Y-34700
X31400Y-41300
X35475Y-29525
X35475Y-40000
X35525Y-23000
X35525Y-26000
X35525Y-33850
X35525Y-35475
X35525Y-43400
X37300Y-23600
X37300Y-33000
X37300Y-33500
X37300Y-41300
X41225Y-29575
X41250Y-23000
X41250Y-35450
X41250Y-40000
X41250Y-43400
X41275Y-26000
X43100Y-31000
X43100Y-31500
X43200Y-23600
X43200Y-41300
X47200Y-23000
X47225Y-26050
X47225Y-29575
X47225Y-35450
X47225Y-40000
X47225Y-43400
X49100Y-23600
X49100Y-28300
X49100Y-28800
X49100Y-41300
X53125Y-26000
X53125Y-35433
X53150Y-23000
X53150Y-29550
X53150Y-40000
X53150Y-43400
X55000Y-23600
X55000Y-27000
X55000Y-27500
X55000Y-41300
X59125Y-23000
X59125Y-26000
X59150Y-29528
X59150Y-35450
X59150Y-40000
X59150Y-43450
X60900Y-23600
X60900Y-25000
X60900Y-25500
X60900Y-41300
X64000Y-25975
X64000Y-29525
X64000Y-35500
X64000Y-40000
X64000Y-43400
X64025Y-24650
X64050Y-22825
X66200Y-32500
X66200Y-42900
X67250Y-29500
X67250Y-35500
X67250Y-40000
X67250Y-43500
X72750Y-29500
X72750Y-35500
T2
X16000Y-23000
T3
X68000Y-22000
X69000Y-22000
X70000Y-22000
X71000Y-22000
X71490Y-41080
X72000Y-22000
X72490Y-41080
X73000Y-22000
X73490Y-41080
X74000Y-22000
X74490Y-41080
X75000Y-22000
X75490Y-41080
X76000Y-22000
X76490Y-41080
X77000Y-22000
X77490Y-41080
X78490Y-41080
X78510Y-22000
X79510Y-22000
X80480Y-41080
X80510Y-22000
X81480Y-41080
X81510Y-22000
X82480Y-41080
X82510Y-22000
X83480Y-41080
X83510Y-22000
X84480Y-41080
X84510Y-22000
X85480Y-41080
X85510Y-22000
X85510Y-30400
X85510Y-31400
X85510Y-32400
X86510Y-30400
X86510Y-31400
X86510Y-32400
T4
X16000Y-24000
X16000Y-25000
X16000Y-26000
X16000Y-27000
X16000Y-42000
X17000Y-37000
X17000Y-42000
X85510Y-25400
X16000Y-39000
X16000Y-40000
X16000Y-41000
X17000Y-35000
X17000Y-36000
X17000Y-38000
X17000Y-39000
X17000Y-40000
X17000Y-41000
X85510Y-27400
X16000Y-28000
X16000Y-29000
X16000Y-30000
X16000Y-31000
X85510Y-26400
X16000Y-32000
X16000Y-33000
X16000Y-34000
X16000Y-38000
X86510Y-27400
X16000Y-35000
X85510Y-28400
X86510Y-26400
X16000Y-36000
X86510Y-25400
X86510Y-28400
X16000Y-37000
X85510Y-29400
X86510Y-29400
X17000Y-23000
X17000Y-24000
X17000Y-25000
X17000Y-26000
X17000Y-27000
X17000Y-28000
X17000Y-29000
X17000Y-30000
X17000Y-31000
X17000Y-32000
X17000Y-33000
X17000Y-34000
T5
X27559Y-35433
X33465Y-41339
X45276Y-35433
X51181Y-35433
X39370Y-29528
X57087Y-35433
X21654Y-29528
X21654Y-35433
X68898Y-32480
X62992Y-41339
X51181Y-23622
X39370Y-23622
X21654Y-41339
X21654Y-23622
X33465Y-23622
X27559Y-23622
X39370Y-35433
X33465Y-35433
X62992Y-29528
X57087Y-41339
X39370Y-41339
X57087Y-23622
X62992Y-23622
X45276Y-23622
X57087Y-29528
X51181Y-29528
X45276Y-29528
X33465Y-29528
X27559Y-29528
X62992Y-35433
X51181Y-41339
X45276Y-41339
X27559Y-41339
T0
M30
