G04 #@! TF.GenerationSoftware,KiCad,Pcbnew,(2018-02-14 revision 6afdf1cf8)-makepkg*
G04 #@! TF.CreationDate,2018-02-15T17:47:45+13:00*
G04 #@! TF.ProjectId,arduino-ads129x,61726475696E6F2D616473313239782E,rev?*
G04 #@! TF.SameCoordinates,Original*
G04 #@! TF.FileFunction,Soldermask,Bot*
G04 #@! TF.FilePolarity,Negative*
%FSLAX46Y46*%
G04 Gerber Fmt 4.6, Leading zero omitted, Abs format (unit mm)*
G04 Created by KiCad (PCBNEW (2018-02-14 revision 6afdf1cf8)-makepkg) date 02/15/18 17:47:45*
%MOMM*%
%LPD*%
G01*
G04 APERTURE LIST*
%ADD10R,1.501140X1.501140*%
%ADD11C,1.501140*%
%ADD12R,1.524000X1.524000*%
%ADD13C,1.524000*%
%ADD14C,2.700020*%
%ADD15C,3.797300*%
G04 APERTURE END LIST*
D10*
X183515000Y-115570000D03*
D11*
X180975000Y-115570000D03*
X173355000Y-115570000D03*
X170815000Y-115570000D03*
X168275000Y-115570000D03*
D12*
X88900000Y-60960000D03*
D13*
X91440000Y-60960000D03*
X88900000Y-63500000D03*
X91440000Y-63500000D03*
X88900000Y-66040000D03*
X91440000Y-66040000D03*
X88900000Y-68580000D03*
X91440000Y-68580000D03*
X88900000Y-71120000D03*
X91440000Y-71120000D03*
X181584600Y-104343200D03*
X184124600Y-104343200D03*
X186664600Y-104343200D03*
X189204600Y-104343200D03*
X191744600Y-104343200D03*
X194284600Y-104343200D03*
X196824600Y-104343200D03*
X199364600Y-104343200D03*
X204419200Y-104343200D03*
X206959200Y-104343200D03*
X209499200Y-104343200D03*
X212039200Y-104343200D03*
X214579200Y-104343200D03*
X217119200Y-104343200D03*
X217195400Y-77216000D03*
X217195400Y-79756000D03*
X217195400Y-82296000D03*
X219735400Y-82296000D03*
X219735400Y-79756000D03*
X219735400Y-77216000D03*
X217195400Y-55880000D03*
X214655400Y-55880000D03*
X212115400Y-55880000D03*
X209575400Y-55880000D03*
X207035400Y-55880000D03*
X204495400Y-55880000D03*
X201955400Y-55880000D03*
X199415400Y-55880000D03*
X195580000Y-55880000D03*
X193040000Y-55880000D03*
X190500000Y-55880000D03*
X187960000Y-55880000D03*
X185420000Y-55880000D03*
X182880000Y-55880000D03*
X180340000Y-55880000D03*
X177800000Y-55880000D03*
X175260000Y-55880000D03*
X172720000Y-55880000D03*
D12*
X40640000Y-58420000D03*
D13*
X43180000Y-58420000D03*
X40640000Y-71120000D03*
X43180000Y-60960000D03*
X40640000Y-73660000D03*
X43180000Y-63500000D03*
X40640000Y-76200000D03*
X43180000Y-66040000D03*
X40640000Y-78740000D03*
X43180000Y-68580000D03*
X40640000Y-81280000D03*
X43180000Y-71120000D03*
X40640000Y-83820000D03*
X43180000Y-73660000D03*
X40640000Y-86360000D03*
X43180000Y-76200000D03*
X40640000Y-88900000D03*
X43180000Y-78740000D03*
X40640000Y-91440000D03*
X43180000Y-81280000D03*
X40640000Y-93980000D03*
X43180000Y-83820000D03*
X40640000Y-96520000D03*
X43180000Y-86360000D03*
X43180000Y-88900000D03*
X40640000Y-99060000D03*
X43180000Y-91440000D03*
X43180000Y-96520000D03*
X43180000Y-99060000D03*
X43180000Y-101600000D03*
X43180000Y-104140000D03*
X40640000Y-101600000D03*
X40640000Y-104140000D03*
X40640000Y-60960000D03*
X40640000Y-63500000D03*
X40640000Y-66040000D03*
X40640000Y-68580000D03*
X40640000Y-106680000D03*
X43180000Y-106680000D03*
X43180000Y-93980000D03*
D12*
X231140000Y-106680000D03*
D13*
X231140000Y-104140000D03*
X231140000Y-101600000D03*
X231140000Y-99060000D03*
D12*
X231140000Y-81280000D03*
D13*
X231140000Y-83820000D03*
X231140000Y-86360000D03*
X231140000Y-88900000D03*
X231140000Y-91440000D03*
X231140000Y-93980000D03*
D10*
X137795000Y-115570000D03*
D11*
X135255000Y-115570000D03*
X127635000Y-115570000D03*
X125095000Y-115570000D03*
X122555000Y-115570000D03*
D12*
X198120000Y-111760000D03*
D13*
X198120000Y-109220000D03*
D12*
X96520000Y-109220000D03*
D13*
X96520000Y-106680000D03*
X99060000Y-109220000D03*
X99060000Y-106680000D03*
X226441000Y-68580000D03*
X226441000Y-71120000D03*
X228439980Y-71120000D03*
X228439980Y-68580000D03*
D14*
X231140000Y-63850520D03*
X231140000Y-75849480D03*
D12*
X76200000Y-81280000D03*
D13*
X78740000Y-81280000D03*
X76200000Y-83820000D03*
X78740000Y-83820000D03*
X76200000Y-86360000D03*
X78740000Y-86360000D03*
X76200000Y-88900000D03*
X78740000Y-88900000D03*
X76200000Y-91440000D03*
X78740000Y-91440000D03*
X76200000Y-93980000D03*
X78740000Y-93980000D03*
X76200000Y-96520000D03*
X78740000Y-96520000D03*
X76200000Y-99060000D03*
X78740000Y-99060000D03*
D12*
X76200000Y-60960000D03*
D13*
X78740000Y-60960000D03*
X76200000Y-63500000D03*
X78740000Y-63500000D03*
X76200000Y-66040000D03*
X78740000Y-66040000D03*
X76200000Y-68580000D03*
X78740000Y-68580000D03*
X76200000Y-71120000D03*
X78740000Y-71120000D03*
X76200000Y-73660000D03*
X78740000Y-73660000D03*
X76200000Y-76200000D03*
X78740000Y-76200000D03*
X76200000Y-78740000D03*
X78740000Y-78740000D03*
D12*
X217195400Y-64516000D03*
D13*
X219735400Y-64516000D03*
X217195400Y-67056000D03*
X219735400Y-67056000D03*
X217195400Y-69596000D03*
X219735400Y-69596000D03*
X217195400Y-72136000D03*
X219735400Y-72136000D03*
X217195400Y-74676000D03*
X219735400Y-74676000D03*
D15*
X47500540Y-52499260D03*
X47500540Y-112499140D03*
X227500180Y-52499260D03*
X227500180Y-112499140D03*
X152499060Y-112499140D03*
X152499060Y-52499260D03*
X107500420Y-112499140D03*
X107500420Y-52499260D03*
M02*
