M48
;DRILL file {KiCad (2018-02-14 revision 6afdf1cf8)-makepkg} date 02/15/18 17:47:51
;FORMAT={2:4/ absolute / inch / suppress leading zeros}
FMAT,2
INCH,TZ
T1C0.0157
T2C0.0200
T3C0.0320
T4C0.0394
T5C0.0400
T6C0.0906
%
G90
G05
M72
T1
X23250Y-24000
X23250Y-25000
X23250Y-26000
X23250Y-27000
X23250Y-28000
X23250Y-29000
X23250Y-30000
X23250Y-31000
X23250Y-32000
X23250Y-33000
X23250Y-34000
X23250Y-35000
X23250Y-36000
X23250Y-37000
X23250Y-38000
X23250Y-39000
X23250Y-40000
X23750Y-41750
X24150Y-41200
X24600Y-41750
X25400Y-21000
X25400Y-22000
X28000Y-21000
X28500Y-24000
X28500Y-25000
X28500Y-26000
X28500Y-27000
X28500Y-28000
X28500Y-29000
X28500Y-30000
X28500Y-31000
X28500Y-32000
X28500Y-33000
X28500Y-34000
X28500Y-35000
X28500Y-36000
X28500Y-37000
X28500Y-38000
X28500Y-39000
X28550Y-40000
X29000Y-41750
X29500Y-41200
X30000Y-41750
X32550Y-46575
X34400Y-23550
X34665Y-38839
X35000Y-21000
X35000Y-22000
X36500Y-36800
X36550Y-29200
X36575Y-37480
X36600Y-34000
X36969Y-26713
X37000Y-27500
X37100Y-34050
X37402Y-37953
X37500Y-21000
X37500Y-26300
X37500Y-36750
X37550Y-38875
X38500Y-26300
X38500Y-36750
X38700Y-23850
X38785Y-27725
X39050Y-38875
X39252Y-34941
X39500Y-36750
X40500Y-38875
X40551Y-23543
X40650Y-34250
X41700Y-26300
X41750Y-23550
X41800Y-28100
X42150Y-33400
X42450Y-26250
X42650Y-27700
X42650Y-28550
X42670Y-26990
X42800Y-32800
X43450Y-32850
X43750Y-32150
X44600Y-31200
X44800Y-29100
X44800Y-30100
X45500Y-38150
X45600Y-29600
X45750Y-30900
X46600Y-26700
X46700Y-25000
X47250Y-38150
X48000Y-26000
X48750Y-23000
X48750Y-25500
X49250Y-28000
X49300Y-36750
X49300Y-37750
X49750Y-33000
X50000Y-27750
X51250Y-24000
X51250Y-25500
X51250Y-29500
X51250Y-33250
X51400Y-38000
X51500Y-22500
X51500Y-28500
X51550Y-36050
X52000Y-35250
X52000Y-39500
X52250Y-29000
X56800Y-29500
X56900Y-26000
X56900Y-33400
X56950Y-23000
X57000Y-35500
X57000Y-38500
X57100Y-31500
X57400Y-30100
X57700Y-29300
X58250Y-46750
X59000Y-38000
X59050Y-35300
X59100Y-31000
X59400Y-28800
X59500Y-36250
X59750Y-27250
X60000Y-33800
X61000Y-23250
X61450Y-32850
X62000Y-39250
X62000Y-46750
X62250Y-33500
X62500Y-36000
X62750Y-23500
X62750Y-26000
X63100Y-34150
X63200Y-32000
X63325Y-34725
X63800Y-26450
X63850Y-28000
X63900Y-28700
X64000Y-34500
X64050Y-29950
X64100Y-31000
X64400Y-26750
X65250Y-32250
X65550Y-36750
X65800Y-32850
X66000Y-25000
X66000Y-35700
X66300Y-39750
X66500Y-24500
X66500Y-32500
X66500Y-33950
X66550Y-33150
X66700Y-35600
X66750Y-36600
X66850Y-27250
X66850Y-28350
X66850Y-30150
X67000Y-24000
X67500Y-25500
X67950Y-26500
X68500Y-29350
X68650Y-26000
X68700Y-25250
X68750Y-27900
X68800Y-35250
X68900Y-36150
X68950Y-37200
X69100Y-39400
X69380Y-23000
X69750Y-25250
X69800Y-40850
X69900Y-38150
X70300Y-40500
X70400Y-35300
X70500Y-25850
X70700Y-27300
X70750Y-23400
X71175Y-25675
X71400Y-24900
X71425Y-24025
X71450Y-38050
X71500Y-27600
X71700Y-34400
X71750Y-23350
X71800Y-35500
X72025Y-25675
X72050Y-25050
X72200Y-27950
X72350Y-29400
X72350Y-34750
X72500Y-23550
X72825Y-25800
X72850Y-39750
X73000Y-22880
X73000Y-25100
X73000Y-29300
X73000Y-32050
X73000Y-35050
X73075Y-38050
X73150Y-27800
X73350Y-32850
X73500Y-23550
X73650Y-35300
X74000Y-29950
X74000Y-32500
X74050Y-39400
X74200Y-25050
X74250Y-23500
X74250Y-25800
X74300Y-36550
X74350Y-35550
X74600Y-29250
X74600Y-33200
X74650Y-24050
X74750Y-36200
X74950Y-30000
X75200Y-39750
X75400Y-29350
X75450Y-26950
X75450Y-38700
X75650Y-30100
X75750Y-23550
X75800Y-25550
X75800Y-42950
X75950Y-27450
X76150Y-29500
X76350Y-30100
X76500Y-25150
X76550Y-38850
X76775Y-33225
X76840Y-29480
X76900Y-24050
X76900Y-42560
X77010Y-30110
X77200Y-26650
X77350Y-42280
X77400Y-25850
X77450Y-23450
X77500Y-29500
X77700Y-30100
X77800Y-45350
X78250Y-24950
X78250Y-26200
X78700Y-23300
X78950Y-32150
X79000Y-35000
X79125Y-36100
X79150Y-31450
X79370Y-24150
X79400Y-23350
X79450Y-25825
X79450Y-37125
X79650Y-32550
X79650Y-34950
X79750Y-29950
X80330Y-23370
X80450Y-31850
X80700Y-24600
X80850Y-46000
X80950Y-23900
X81000Y-25400
X81100Y-29900
X81100Y-34250
X81100Y-35000
X81100Y-36700
X81200Y-33150
X81300Y-28900
X81300Y-32300
X81350Y-36100
X81500Y-23300
X81500Y-30700
X81750Y-33900
X81800Y-29850
X82100Y-34600
X82150Y-23420
X82150Y-26700
X82150Y-30700
X82400Y-33800
X82500Y-35850
X83050Y-27150
X83225Y-23375
X83250Y-31250
X83250Y-32250
X83250Y-32750
X83250Y-33300
X83550Y-26700
X84000Y-27600
X84050Y-33850
X84200Y-26900
X84250Y-45750
X84750Y-33500
X85050Y-35900
X85400Y-33200
X85800Y-34700
X86100Y-23550
X87250Y-42500
X88100Y-39700
X88189Y-37402
X89500Y-36000
X89500Y-39750
T2
X21977Y-44323
X21977Y-44677
X22213Y-44500
X22449Y-44323
X22449Y-44677
X27264Y-44323
X27264Y-44677
X27500Y-44500
X27736Y-44323
X27736Y-44677
T3
X16000Y-23000
X89150Y-27000
X89150Y-28000
X89937Y-27000
X89937Y-28000
T4
X66250Y-45500
X67250Y-45500
X68250Y-45500
X71250Y-45500
X72250Y-45500
X68000Y-22000
X69000Y-22000
X70000Y-22000
X71000Y-22000
X71490Y-41080
X72000Y-22000
X72490Y-41080
X48250Y-45500
X49250Y-45500
X50250Y-45500
X53250Y-45500
X54250Y-45500
X73000Y-22000
X73490Y-41080
X74000Y-22000
X74490Y-41080
X75000Y-22000
X75490Y-41080
X76000Y-22000
X76490Y-41080
X77000Y-22000
X77490Y-41080
X78490Y-41080
X78510Y-22000
X79510Y-22000
X80480Y-41080
X80510Y-22000
X81480Y-41080
X81510Y-22000
X82480Y-41080
X82510Y-22000
X83480Y-41080
X83510Y-22000
X84480Y-41080
X84510Y-22000
X85480Y-41080
X85510Y-22000
X85510Y-30400
X85510Y-31400
X85510Y-32400
X86510Y-30400
X86510Y-31400
X86510Y-32400
T5
X38000Y-42000
X38000Y-43000
X39000Y-42000
X39000Y-43000
X16000Y-24000
X16000Y-25000
X16000Y-26000
X16000Y-27000
X16000Y-28000
X16000Y-29000
X16000Y-30000
X16000Y-31000
X16000Y-32000
X31000Y-31000
X16000Y-33000
X16000Y-34000
X30000Y-31000
X31000Y-30000
X16000Y-35000
X16000Y-36000
X16000Y-37000
X16000Y-38000
X16000Y-39000
X16000Y-40000
X16000Y-41000
X16000Y-42000
X17000Y-23000
X17000Y-24000
X17000Y-25000
X17000Y-26000
X17000Y-27000
X17000Y-28000
X17000Y-29000
X17000Y-30000
X17000Y-31000
X17000Y-32000
X17000Y-33000
X17000Y-34000
X30000Y-24000
X30000Y-25000
X31000Y-24000
X31000Y-25000
X17000Y-35000
X30000Y-26000
X30000Y-27000
X30000Y-28000
X30000Y-29000
X30000Y-30000
X31000Y-26000
X31000Y-27000
X31000Y-28000
X31000Y-29000
X17000Y-36000
X91000Y-39000
X91000Y-40000
X91000Y-41000
X91000Y-42000
X91000Y-32000
X30000Y-36000
X91000Y-33000
X17000Y-38000
X17000Y-39000
X17000Y-40000
X17000Y-41000
X17000Y-42000
X91000Y-35000
X91000Y-36000
X30000Y-37000
X30000Y-38000
X30000Y-39000
X31000Y-36000
X31000Y-37000
X31000Y-38000
X31000Y-39000
X91000Y-34000
X30000Y-35000
X91000Y-37000
X17000Y-37000
X30000Y-32000
X30000Y-33000
X30000Y-34000
X31000Y-32000
X31000Y-33000
X31000Y-34000
X31000Y-35000
X85510Y-25400
X85510Y-26400
X85510Y-27400
X85510Y-28400
X85510Y-29400
X86510Y-25400
X86510Y-26400
X86510Y-27400
X86510Y-28400
X86510Y-29400
X35000Y-24000
X35000Y-25000
X35000Y-26000
X35000Y-27000
X35000Y-28000
X36000Y-24000
X36000Y-25000
X36000Y-26000
X36000Y-27000
X36000Y-28000
X78000Y-43000
X78000Y-44000
T6
X91000Y-25138
X91000Y-29862
T0
M30
