G04 #@! TF.GenerationSoftware,KiCad,Pcbnew,(2018-02-14 revision 6afdf1cf8)-makepkg*
G04 #@! TF.CreationDate,2018-02-15T17:49:41+13:00*
G04 #@! TF.ProjectId,patch-shield-digital,70617463682D736869656C642D646967,rev?*
G04 #@! TF.SameCoordinates,Original*
G04 #@! TF.FileFunction,Soldermask,Bot*
G04 #@! TF.FilePolarity,Negative*
%FSLAX46Y46*%
G04 Gerber Fmt 4.6, Leading zero omitted, Abs format (unit mm)*
G04 Created by KiCad (PCBNEW (2018-02-14 revision 6afdf1cf8)-makepkg) date 02/15/18 17:49:41*
%MOMM*%
%LPD*%
G01*
G04 APERTURE LIST*
%ADD10C,7.929880*%
%ADD11C,3.797300*%
%ADD12R,1.524000X1.524000*%
%ADD13C,1.524000*%
G04 APERTURE END LIST*
D10*
X55001160Y-59999880D03*
X69999860Y-59999880D03*
X85001100Y-59999880D03*
X99999800Y-59999880D03*
X115001040Y-59999880D03*
X129999740Y-59999880D03*
X145000980Y-59999880D03*
X159999680Y-59999880D03*
X55001160Y-75001120D03*
X69999860Y-75001120D03*
X85001100Y-75001120D03*
X99999800Y-75001120D03*
X115001040Y-75001120D03*
X129999740Y-75001120D03*
X145000980Y-75001120D03*
X159999680Y-75001120D03*
X159999680Y-89999820D03*
X145000980Y-89999820D03*
X129999740Y-89999820D03*
X115001040Y-89999820D03*
X99999800Y-89999820D03*
X85001100Y-89999820D03*
X69999860Y-89999820D03*
X55001160Y-89999820D03*
X55001160Y-105001060D03*
X69999860Y-105001060D03*
X85001100Y-105001060D03*
X99999800Y-105001060D03*
X115001040Y-105001060D03*
X129999740Y-105001060D03*
X145000980Y-105001060D03*
X159999680Y-105001060D03*
D11*
X47500540Y-52499260D03*
X107500420Y-52499260D03*
X152499060Y-52499260D03*
X227500180Y-52499260D03*
X227500180Y-112499140D03*
X152499060Y-112499140D03*
X107500420Y-112499140D03*
X47500540Y-112499140D03*
D10*
X175000920Y-82499200D03*
D12*
X217195400Y-64516000D03*
D13*
X219735400Y-64516000D03*
X217195400Y-67056000D03*
X219735400Y-67056000D03*
X217195400Y-69596000D03*
X219735400Y-69596000D03*
X217195400Y-72136000D03*
X219735400Y-72136000D03*
X217195400Y-74676000D03*
X219735400Y-74676000D03*
X181584600Y-104343200D03*
X184124600Y-104343200D03*
X186664600Y-104343200D03*
X189204600Y-104343200D03*
X191744600Y-104343200D03*
X194284600Y-104343200D03*
X196824600Y-104343200D03*
X199364600Y-104343200D03*
X204419200Y-104343200D03*
X206959200Y-104343200D03*
X209499200Y-104343200D03*
X212039200Y-104343200D03*
X214579200Y-104343200D03*
X217119200Y-104343200D03*
X217195400Y-77216000D03*
X217195400Y-79756000D03*
X217195400Y-82296000D03*
X219735400Y-82296000D03*
X219735400Y-79756000D03*
X219735400Y-77216000D03*
X217195400Y-55880000D03*
X214655400Y-55880000D03*
X212115400Y-55880000D03*
X209575400Y-55880000D03*
X207035400Y-55880000D03*
X204495400Y-55880000D03*
X201955400Y-55880000D03*
X199415400Y-55880000D03*
X195580000Y-55880000D03*
X193040000Y-55880000D03*
X190500000Y-55880000D03*
X187960000Y-55880000D03*
X185420000Y-55880000D03*
X182880000Y-55880000D03*
X180340000Y-55880000D03*
X177800000Y-55880000D03*
X175260000Y-55880000D03*
X172720000Y-55880000D03*
M02*
