M48
;DRILL file {KiCad (2018-02-14 revision 6afdf1cf8)-makepkg} date 02/15/18 17:49:49
;FORMAT={2:4/ absolute / inch / suppress leading zeros}
FMAT,2
INCH,TZ
T1C0.0157
T2C0.0394
T3C0.0400
%
G90
G05
M72
T1
X18661Y-39409
X18779Y-25590
X19724Y-46417
X23780Y-21240
X23780Y-32795
X23780Y-44094
X23819Y-32283
X24331Y-45276
X24370Y-33031
X24449Y-31693
X24488Y-20079
X25314Y-25590
X25314Y-28307
X25314Y-33818
X25314Y-39448
X25393Y-46181
X29724Y-31457
X29724Y-33150
X29724Y-44094
X29764Y-21220
X30354Y-20079
X30354Y-31260
X30512Y-33307
X30512Y-45276
X31181Y-25590
X31220Y-28346
X31259Y-33897
X31259Y-39488
X31692Y-46141
X35591Y-33465
X35591Y-44094
X35630Y-21260
X35630Y-31102
X36220Y-20079
X36220Y-27717
X36575Y-37598
X36575Y-45276
X37047Y-25590
X37047Y-28346
X37047Y-34055
X37047Y-37007
X37440Y-39567
X37598Y-46141
X41535Y-22717
X41535Y-27323
X41535Y-37953
X41535Y-42205
X42165Y-38150
X42165Y-42205
X42244Y-22717
X42244Y-27047
X42952Y-37204
X43149Y-34055
X43149Y-39567
X43189Y-28228
X43346Y-46259
X43464Y-25590
X47362Y-38386
X47362Y-44055
X47441Y-21260
X47441Y-26850
X48228Y-20079
X48228Y-26654
X48307Y-38583
X48307Y-45276
X48858Y-37204
X49055Y-33858
X49055Y-39567
X49094Y-28267
X49409Y-46220
X49488Y-25590
X53228Y-38780
X53228Y-44094
X53346Y-21260
X53346Y-26378
X54094Y-20079
X54094Y-26299
X54173Y-39055
X54173Y-45276
X54763Y-33858
X54763Y-37204
X54763Y-39567
X54842Y-25590
X54842Y-28149
X55314Y-46220
X59134Y-39291
X59134Y-42283
X59291Y-23110
X59291Y-26102
X59843Y-42323
X59882Y-22677
X59882Y-25945
X59882Y-39528
X60472Y-33858
X60472Y-37204
X60669Y-39960
X60669Y-41929
X61023Y-28189
X61023Y-46259
X61181Y-25590
X65157Y-21260
X65157Y-23858
X65196Y-30708
X65196Y-33858
X65196Y-37204
X65393Y-39960
X65590Y-43228
X65630Y-20079
X65630Y-23465
X66456Y-25393
X66456Y-28504
X69767Y-30303
X70354Y-26299
X71023Y-36378
X71024Y-30980
X71614Y-35708
X71615Y-30318
X72283Y-29724
X72283Y-35354
X72283Y-37519
X72283Y-38385
X72874Y-35433
X72874Y-37086
X72874Y-38818
X73031Y-32638
X73031Y-33504
X73267Y-31496
X73464Y-36653
X73464Y-39252
X73622Y-32205
X73622Y-33937
X74055Y-36220
X74055Y-39685
X74212Y-31764
X74212Y-34370
X74645Y-35787
X74645Y-40118
X74724Y-26299
X74803Y-34804
X74804Y-31338
X74850Y-30649
X75236Y-35354
X75236Y-44015
X75342Y-30149
X75433Y-34252
X75826Y-34921
X76417Y-45275
X76500Y-26500
X76500Y-31000
X76500Y-35000
X76500Y-38500
X76500Y-40000
X78516Y-27126
X80130Y-27677
X80500Y-31000
X80500Y-35500
X80500Y-40000
X81011Y-29900
X81011Y-35900
X81500Y-32000
X81500Y-38500
X82000Y-24000
X82000Y-34000
X82500Y-25500
X82500Y-29500
X82500Y-33500
X82500Y-37500
X82511Y-27400
X83000Y-25000
X83000Y-29000
X83000Y-33000
X83000Y-37000
X83500Y-24500
X83500Y-28500
X83500Y-32500
X83500Y-36500
X83511Y-25900
X84000Y-24000
X84000Y-28000
X84000Y-32000
X84000Y-36000
X84011Y-26400
X84500Y-23500
X84500Y-25500
X84500Y-27000
X84500Y-30500
X84500Y-34500
X84500Y-39000
X84500Y-40000
X86500Y-23000
X87000Y-21000
X87500Y-20500
X87500Y-34000
X88000Y-34500
X88000Y-35500
X88500Y-32500
X88500Y-35000
T2
X68000Y-22000
X69000Y-22000
X70000Y-22000
X71000Y-22000
X71490Y-41080
X72000Y-22000
X72490Y-41080
X73000Y-22000
X73490Y-41080
X74000Y-22000
X74490Y-41080
X75000Y-22000
X75490Y-41080
X76000Y-22000
X76490Y-41080
X77000Y-22000
X77490Y-41080
X78490Y-41080
X78510Y-22000
X79510Y-22000
X80480Y-41080
X80510Y-22000
X81480Y-41080
X81510Y-22000
X82480Y-41080
X82510Y-22000
X83480Y-41080
X83510Y-22000
X84480Y-41080
X84510Y-22000
X85480Y-41080
X85510Y-22000
X85510Y-30400
X85510Y-31400
X85510Y-32400
X86510Y-30400
X86510Y-31400
X86510Y-32400
T3
X85510Y-25400
X85510Y-26400
X85510Y-27400
X85510Y-28400
X85510Y-29400
X86510Y-25400
X86510Y-26400
X86510Y-27400
X86510Y-28400
X86510Y-29400
T0
M30
