G04 #@! TF.GenerationSoftware,KiCad,Pcbnew,(2018-02-14 revision 6afdf1cf8)-makepkg*
G04 #@! TF.CreationDate,2018-02-15T17:48:32+13:00*
G04 #@! TF.ProjectId,patch-shield-analog,70617463682D736869656C642D616E61,rev?*
G04 #@! TF.SameCoordinates,Original*
G04 #@! TF.FileFunction,Legend,Top*
G04 #@! TF.FilePolarity,Positive*
%FSLAX46Y46*%
G04 Gerber Fmt 4.6, Leading zero omitted, Abs format (unit mm)*
G04 Created by KiCad (PCBNEW (2018-02-14 revision 6afdf1cf8)-makepkg) date 02/15/18 17:48:32*
%MOMM*%
%LPD*%
G01*
G04 APERTURE LIST*
%ADD10C,0.203200*%
%ADD11C,0.304800*%
%ADD12C,0.381000*%
%ADD13C,0.002540*%
%ADD14C,0.160020*%
%ADD15C,0.127000*%
%ADD16C,0.254000*%
%ADD17C,0.066040*%
%ADD18C,0.101600*%
%ADD19C,0.190500*%
%ADD20C,0.114300*%
G04 APERTURE END LIST*
D10*
X221724824Y-66540500D02*
X221773205Y-66492120D01*
X221869967Y-66443739D01*
X222111872Y-66443739D01*
X222208634Y-66492120D01*
X222257015Y-66540500D01*
X222305396Y-66637262D01*
X222305396Y-66734024D01*
X222257015Y-66879167D01*
X221676443Y-67459739D01*
X222305396Y-67459739D01*
X222789205Y-67459739D02*
X222982729Y-67459739D01*
X223079491Y-67411358D01*
X223127872Y-67362977D01*
X223224634Y-67217834D01*
X223273015Y-67024310D01*
X223273015Y-66637262D01*
X223224634Y-66540500D01*
X223176253Y-66492120D01*
X223079491Y-66443739D01*
X222885967Y-66443739D01*
X222789205Y-66492120D01*
X222740824Y-66540500D01*
X222692443Y-66637262D01*
X222692443Y-66879167D01*
X222740824Y-66975929D01*
X222789205Y-67024310D01*
X222885967Y-67072691D01*
X223079491Y-67072691D01*
X223176253Y-67024310D01*
X223224634Y-66975929D01*
X223273015Y-66879167D01*
X221724824Y-69540240D02*
X221773205Y-69491860D01*
X221869967Y-69443479D01*
X222111872Y-69443479D01*
X222208634Y-69491860D01*
X222257015Y-69540240D01*
X222305396Y-69637002D01*
X222305396Y-69733764D01*
X222257015Y-69878907D01*
X221676443Y-70459479D01*
X222305396Y-70459479D01*
X222644062Y-69443479D02*
X223321396Y-69443479D01*
X222885967Y-70459479D01*
X221724824Y-74541500D02*
X221773205Y-74493120D01*
X221869967Y-74444739D01*
X222111872Y-74444739D01*
X222208634Y-74493120D01*
X222257015Y-74541500D01*
X222305396Y-74638262D01*
X222305396Y-74735024D01*
X222257015Y-74880167D01*
X221676443Y-75460739D01*
X222305396Y-75460739D01*
X223224634Y-74444739D02*
X222740824Y-74444739D01*
X222692443Y-74928548D01*
X222740824Y-74880167D01*
X222837586Y-74831786D01*
X223079491Y-74831786D01*
X223176253Y-74880167D01*
X223224634Y-74928548D01*
X223273015Y-75025310D01*
X223273015Y-75267215D01*
X223224634Y-75363977D01*
X223176253Y-75412358D01*
X223079491Y-75460739D01*
X222837586Y-75460739D01*
X222740824Y-75412358D01*
X222692443Y-75363977D01*
X221724824Y-72039600D02*
X221773205Y-71991220D01*
X221869967Y-71942839D01*
X222111872Y-71942839D01*
X222208634Y-71991220D01*
X222257015Y-72039600D01*
X222305396Y-72136362D01*
X222305396Y-72233124D01*
X222257015Y-72378267D01*
X221676443Y-72958839D01*
X222305396Y-72958839D01*
X223176253Y-71942839D02*
X222982729Y-71942839D01*
X222885967Y-71991220D01*
X222837586Y-72039600D01*
X222740824Y-72184743D01*
X222692443Y-72378267D01*
X222692443Y-72765315D01*
X222740824Y-72862077D01*
X222789205Y-72910458D01*
X222885967Y-72958839D01*
X223079491Y-72958839D01*
X223176253Y-72910458D01*
X223224634Y-72862077D01*
X223273015Y-72765315D01*
X223273015Y-72523410D01*
X223224634Y-72426648D01*
X223176253Y-72378267D01*
X223079491Y-72329886D01*
X222885967Y-72329886D01*
X222789205Y-72378267D01*
X222740824Y-72426648D01*
X222692443Y-72523410D01*
X221724824Y-64041140D02*
X221773205Y-63992760D01*
X221869967Y-63944379D01*
X222111872Y-63944379D01*
X222208634Y-63992760D01*
X222257015Y-64041140D01*
X222305396Y-64137902D01*
X222305396Y-64234664D01*
X222257015Y-64379807D01*
X221676443Y-64960379D01*
X222305396Y-64960379D01*
X222885967Y-64379807D02*
X222789205Y-64331426D01*
X222740824Y-64283045D01*
X222692443Y-64186283D01*
X222692443Y-64137902D01*
X222740824Y-64041140D01*
X222789205Y-63992760D01*
X222885967Y-63944379D01*
X223079491Y-63944379D01*
X223176253Y-63992760D01*
X223224634Y-64041140D01*
X223273015Y-64137902D01*
X223273015Y-64186283D01*
X223224634Y-64283045D01*
X223176253Y-64331426D01*
X223079491Y-64379807D01*
X222885967Y-64379807D01*
X222789205Y-64428188D01*
X222740824Y-64476569D01*
X222692443Y-64573331D01*
X222692443Y-64766855D01*
X222740824Y-64863617D01*
X222789205Y-64911998D01*
X222885967Y-64960379D01*
X223079491Y-64960379D01*
X223176253Y-64911998D01*
X223224634Y-64863617D01*
X223273015Y-64766855D01*
X223273015Y-64573331D01*
X223224634Y-64476569D01*
X223176253Y-64428188D01*
X223079491Y-64379807D01*
X211999890Y-63944379D02*
X212628842Y-63944379D01*
X212290176Y-64331426D01*
X212435319Y-64331426D01*
X212532080Y-64379807D01*
X212580461Y-64428188D01*
X212628842Y-64524950D01*
X212628842Y-64766855D01*
X212580461Y-64863617D01*
X212532080Y-64911998D01*
X212435319Y-64960379D01*
X212145033Y-64960379D01*
X212048271Y-64911998D01*
X211999890Y-64863617D01*
X213064271Y-64863617D02*
X213112652Y-64911998D01*
X213064271Y-64960379D01*
X213015890Y-64911998D01*
X213064271Y-64863617D01*
X213064271Y-64960379D01*
X213451319Y-63944379D02*
X214080271Y-63944379D01*
X213741604Y-64331426D01*
X213886747Y-64331426D01*
X213983509Y-64379807D01*
X214031890Y-64428188D01*
X214080271Y-64524950D01*
X214080271Y-64766855D01*
X214031890Y-64863617D01*
X213983509Y-64911998D01*
X213886747Y-64960379D01*
X213596461Y-64960379D01*
X213499700Y-64911998D01*
X213451319Y-64863617D01*
X214370557Y-63944379D02*
X214709223Y-64960379D01*
X215047890Y-63944379D01*
X214161793Y-71442459D02*
X214790745Y-71442459D01*
X214452079Y-71829506D01*
X214597221Y-71829506D01*
X214693983Y-71877887D01*
X214742364Y-71926268D01*
X214790745Y-72023030D01*
X214790745Y-72264935D01*
X214742364Y-72361697D01*
X214693983Y-72410078D01*
X214597221Y-72458459D01*
X214306936Y-72458459D01*
X214210174Y-72410078D01*
X214161793Y-72361697D01*
X214693983Y-74283025D02*
X214693983Y-74960359D01*
X214452079Y-73895978D02*
X214210174Y-74621692D01*
X214839126Y-74621692D01*
X214210174Y-69039860D02*
X214258555Y-68991480D01*
X214355317Y-68943099D01*
X214597221Y-68943099D01*
X214693983Y-68991480D01*
X214742364Y-69039860D01*
X214790745Y-69136622D01*
X214790745Y-69233384D01*
X214742364Y-69378527D01*
X214161793Y-69959099D01*
X214790745Y-69959099D01*
X214790745Y-67459739D02*
X214210174Y-67459739D01*
X214500460Y-67459739D02*
X214500460Y-66443739D01*
X214403698Y-66588881D01*
X214306936Y-66685643D01*
X214210174Y-66734024D01*
X212491320Y-72016620D02*
X212442939Y-72113381D01*
X212442939Y-72258524D01*
X212491320Y-72403667D01*
X212588081Y-72500429D01*
X212684843Y-72548810D01*
X212878367Y-72597191D01*
X213023510Y-72597191D01*
X213217034Y-72548810D01*
X213313796Y-72500429D01*
X213410558Y-72403667D01*
X213458939Y-72258524D01*
X213458939Y-72161762D01*
X213410558Y-72016620D01*
X213362177Y-71968239D01*
X213023510Y-71968239D01*
X213023510Y-72161762D01*
X213458939Y-71532810D02*
X212442939Y-71532810D01*
X212442939Y-71145762D01*
X212491320Y-71049000D01*
X212539700Y-71000620D01*
X212636462Y-70952239D01*
X212781605Y-70952239D01*
X212878367Y-71000620D01*
X212926748Y-71049000D01*
X212975129Y-71145762D01*
X212975129Y-71532810D01*
X213458939Y-70516810D02*
X212442939Y-70516810D01*
X212442939Y-69839477D02*
X212442939Y-69645953D01*
X212491320Y-69549191D01*
X212588081Y-69452429D01*
X212781605Y-69404048D01*
X213120272Y-69404048D01*
X213313796Y-69452429D01*
X213410558Y-69549191D01*
X213458939Y-69645953D01*
X213458939Y-69839477D01*
X213410558Y-69936239D01*
X213313796Y-70033000D01*
X213120272Y-70081381D01*
X212781605Y-70081381D01*
X212588081Y-70033000D01*
X212491320Y-69936239D01*
X212442939Y-69839477D01*
D11*
X202379580Y-114243878D02*
X201653865Y-114243878D01*
X201653865Y-112211878D01*
X202887580Y-114243878D02*
X202887580Y-112889211D01*
X202887580Y-112211878D02*
X202815008Y-112308640D01*
X202887580Y-112405401D01*
X202960151Y-112308640D01*
X202887580Y-112211878D01*
X202887580Y-112405401D01*
X204266437Y-114147116D02*
X204121294Y-114243878D01*
X203831008Y-114243878D01*
X203685865Y-114147116D01*
X203613294Y-114050354D01*
X203540722Y-113856830D01*
X203540722Y-113276259D01*
X203613294Y-113082735D01*
X203685865Y-112985973D01*
X203831008Y-112889211D01*
X204121294Y-112889211D01*
X204266437Y-112985973D01*
X205500151Y-114147116D02*
X205355008Y-114243878D01*
X205064722Y-114243878D01*
X204919580Y-114147116D01*
X204847008Y-113953592D01*
X204847008Y-113179497D01*
X204919580Y-112985973D01*
X205064722Y-112889211D01*
X205355008Y-112889211D01*
X205500151Y-112985973D01*
X205572722Y-113179497D01*
X205572722Y-113373020D01*
X204847008Y-113566544D01*
X206225865Y-112889211D02*
X206225865Y-114243878D01*
X206225865Y-113082735D02*
X206298437Y-112985973D01*
X206443580Y-112889211D01*
X206661294Y-112889211D01*
X206806437Y-112985973D01*
X206879008Y-113179497D01*
X206879008Y-114243878D01*
X207532151Y-114147116D02*
X207677294Y-114243878D01*
X207967580Y-114243878D01*
X208112722Y-114147116D01*
X208185294Y-113953592D01*
X208185294Y-113856830D01*
X208112722Y-113663306D01*
X207967580Y-113566544D01*
X207749865Y-113566544D01*
X207604722Y-113469782D01*
X207532151Y-113276259D01*
X207532151Y-113179497D01*
X207604722Y-112985973D01*
X207749865Y-112889211D01*
X207967580Y-112889211D01*
X208112722Y-112985973D01*
X209419008Y-114147116D02*
X209273865Y-114243878D01*
X208983580Y-114243878D01*
X208838437Y-114147116D01*
X208765865Y-113953592D01*
X208765865Y-113179497D01*
X208838437Y-112985973D01*
X208983580Y-112889211D01*
X209273865Y-112889211D01*
X209419008Y-112985973D01*
X209491580Y-113179497D01*
X209491580Y-113373020D01*
X208765865Y-113566544D01*
X210797865Y-114243878D02*
X210797865Y-112211878D01*
X210797865Y-114147116D02*
X210652722Y-114243878D01*
X210362437Y-114243878D01*
X210217294Y-114147116D01*
X210144722Y-114050354D01*
X210072151Y-113856830D01*
X210072151Y-113276259D01*
X210144722Y-113082735D01*
X210217294Y-112985973D01*
X210362437Y-112889211D01*
X210652722Y-112889211D01*
X210797865Y-112985973D01*
X213337865Y-112889211D02*
X213337865Y-114243878D01*
X212684722Y-112889211D02*
X212684722Y-113953592D01*
X212757294Y-114147116D01*
X212902437Y-114243878D01*
X213120151Y-114243878D01*
X213265294Y-114147116D01*
X213337865Y-114050354D01*
X214063580Y-112889211D02*
X214063580Y-114243878D01*
X214063580Y-113082735D02*
X214136151Y-112985973D01*
X214281294Y-112889211D01*
X214499008Y-112889211D01*
X214644151Y-112985973D01*
X214716722Y-113179497D01*
X214716722Y-114243878D01*
X216095580Y-114243878D02*
X216095580Y-112211878D01*
X216095580Y-114147116D02*
X215950437Y-114243878D01*
X215660151Y-114243878D01*
X215515008Y-114147116D01*
X215442437Y-114050354D01*
X215369865Y-113856830D01*
X215369865Y-113276259D01*
X215442437Y-113082735D01*
X215515008Y-112985973D01*
X215660151Y-112889211D01*
X215950437Y-112889211D01*
X216095580Y-112985973D01*
X217401865Y-114147116D02*
X217256722Y-114243878D01*
X216966437Y-114243878D01*
X216821294Y-114147116D01*
X216748722Y-113953592D01*
X216748722Y-113179497D01*
X216821294Y-112985973D01*
X216966437Y-112889211D01*
X217256722Y-112889211D01*
X217401865Y-112985973D01*
X217474437Y-113179497D01*
X217474437Y-113373020D01*
X216748722Y-113566544D01*
X218127580Y-114243878D02*
X218127580Y-112889211D01*
X218127580Y-113276259D02*
X218200151Y-113082735D01*
X218272722Y-112985973D01*
X218417865Y-112889211D01*
X218563008Y-112889211D01*
X202452151Y-117403154D02*
X202379580Y-117499916D01*
X202161865Y-117596678D01*
X202016722Y-117596678D01*
X201799008Y-117499916D01*
X201653865Y-117306392D01*
X201581294Y-117112868D01*
X201508722Y-116725820D01*
X201508722Y-116435535D01*
X201581294Y-116048487D01*
X201653865Y-115854963D01*
X201799008Y-115661440D01*
X202016722Y-115564678D01*
X202161865Y-115564678D01*
X202379580Y-115661440D01*
X202452151Y-115758201D01*
X203105294Y-116532297D02*
X203613294Y-116532297D01*
X203831008Y-117596678D02*
X203105294Y-117596678D01*
X203105294Y-115564678D01*
X203831008Y-115564678D01*
X205355008Y-117596678D02*
X204847008Y-116629059D01*
X204484151Y-117596678D02*
X204484151Y-115564678D01*
X205064722Y-115564678D01*
X205209865Y-115661440D01*
X205282437Y-115758201D01*
X205355008Y-115951725D01*
X205355008Y-116242011D01*
X205282437Y-116435535D01*
X205209865Y-116532297D01*
X205064722Y-116629059D01*
X204484151Y-116629059D01*
X206008151Y-117596678D02*
X206008151Y-115564678D01*
X206879008Y-117596678D01*
X206879008Y-115564678D01*
X209056151Y-115564678D02*
X209346437Y-115564678D01*
X209491580Y-115661440D01*
X209636722Y-115854963D01*
X209709294Y-116242011D01*
X209709294Y-116919344D01*
X209636722Y-117306392D01*
X209491580Y-117499916D01*
X209346437Y-117596678D01*
X209056151Y-117596678D01*
X208911008Y-117499916D01*
X208765865Y-117306392D01*
X208693294Y-116919344D01*
X208693294Y-116242011D01*
X208765865Y-115854963D01*
X208911008Y-115661440D01*
X209056151Y-115564678D01*
X210362437Y-117596678D02*
X210362437Y-115564678D01*
X210362437Y-116532297D02*
X211233294Y-116532297D01*
X211233294Y-117596678D02*
X211233294Y-115564678D01*
X212684722Y-117596678D02*
X211959008Y-117596678D01*
X211959008Y-115564678D01*
X214208722Y-116242011D02*
X214571580Y-117596678D01*
X214934437Y-116242011D01*
X216313294Y-117596678D02*
X215442437Y-117596678D01*
X215877865Y-117596678D02*
X215877865Y-115564678D01*
X215732722Y-115854963D01*
X215587580Y-116048487D01*
X215442437Y-116145249D01*
X216966437Y-117403154D02*
X217039008Y-117499916D01*
X216966437Y-117596678D01*
X216893865Y-117499916D01*
X216966437Y-117403154D01*
X216966437Y-117596678D01*
X218490437Y-117596678D02*
X217619580Y-117596678D01*
X218055008Y-117596678D02*
X218055008Y-115564678D01*
X217909865Y-115854963D01*
X217764722Y-116048487D01*
X217619580Y-116145249D01*
X181005117Y-114243878D02*
X180859974Y-114147116D01*
X180787402Y-114050354D01*
X180714831Y-113856830D01*
X180714831Y-113276259D01*
X180787402Y-113082735D01*
X180859974Y-112985973D01*
X181005117Y-112889211D01*
X181222831Y-112889211D01*
X181367974Y-112985973D01*
X181440545Y-113082735D01*
X181513117Y-113276259D01*
X181513117Y-113856830D01*
X181440545Y-114050354D01*
X181367974Y-114147116D01*
X181222831Y-114243878D01*
X181005117Y-114243878D01*
X182166260Y-112889211D02*
X182166260Y-114921211D01*
X182166260Y-112985973D02*
X182311402Y-112889211D01*
X182601688Y-112889211D01*
X182746831Y-112985973D01*
X182819402Y-113082735D01*
X182891974Y-113276259D01*
X182891974Y-113856830D01*
X182819402Y-114050354D01*
X182746831Y-114147116D01*
X182601688Y-114243878D01*
X182311402Y-114243878D01*
X182166260Y-114147116D01*
X184125688Y-114147116D02*
X183980545Y-114243878D01*
X183690260Y-114243878D01*
X183545117Y-114147116D01*
X183472545Y-113953592D01*
X183472545Y-113179497D01*
X183545117Y-112985973D01*
X183690260Y-112889211D01*
X183980545Y-112889211D01*
X184125688Y-112985973D01*
X184198260Y-113179497D01*
X184198260Y-113373020D01*
X183472545Y-113566544D01*
X184851402Y-112889211D02*
X184851402Y-114243878D01*
X184851402Y-113082735D02*
X184923974Y-112985973D01*
X185069117Y-112889211D01*
X185286831Y-112889211D01*
X185431974Y-112985973D01*
X185504545Y-113179497D01*
X185504545Y-114243878D01*
X187318831Y-114147116D02*
X187463974Y-114243878D01*
X187754260Y-114243878D01*
X187899402Y-114147116D01*
X187971974Y-113953592D01*
X187971974Y-113856830D01*
X187899402Y-113663306D01*
X187754260Y-113566544D01*
X187536545Y-113566544D01*
X187391402Y-113469782D01*
X187318831Y-113276259D01*
X187318831Y-113179497D01*
X187391402Y-112985973D01*
X187536545Y-112889211D01*
X187754260Y-112889211D01*
X187899402Y-112985973D01*
X188842831Y-114243878D02*
X188697688Y-114147116D01*
X188625117Y-114050354D01*
X188552545Y-113856830D01*
X188552545Y-113276259D01*
X188625117Y-113082735D01*
X188697688Y-112985973D01*
X188842831Y-112889211D01*
X189060545Y-112889211D01*
X189205688Y-112985973D01*
X189278260Y-113082735D01*
X189350831Y-113276259D01*
X189350831Y-113856830D01*
X189278260Y-114050354D01*
X189205688Y-114147116D01*
X189060545Y-114243878D01*
X188842831Y-114243878D01*
X190657117Y-112889211D02*
X190657117Y-114243878D01*
X190003974Y-112889211D02*
X190003974Y-113953592D01*
X190076545Y-114147116D01*
X190221688Y-114243878D01*
X190439402Y-114243878D01*
X190584545Y-114147116D01*
X190657117Y-114050354D01*
X191382831Y-114243878D02*
X191382831Y-112889211D01*
X191382831Y-113276259D02*
X191455402Y-113082735D01*
X191527974Y-112985973D01*
X191673117Y-112889211D01*
X191818260Y-112889211D01*
X192979402Y-114147116D02*
X192834260Y-114243878D01*
X192543974Y-114243878D01*
X192398831Y-114147116D01*
X192326260Y-114050354D01*
X192253688Y-113856830D01*
X192253688Y-113276259D01*
X192326260Y-113082735D01*
X192398831Y-112985973D01*
X192543974Y-112889211D01*
X192834260Y-112889211D01*
X192979402Y-112985973D01*
X194213117Y-114147116D02*
X194067974Y-114243878D01*
X193777688Y-114243878D01*
X193632545Y-114147116D01*
X193559974Y-113953592D01*
X193559974Y-113179497D01*
X193632545Y-112985973D01*
X193777688Y-112889211D01*
X194067974Y-112889211D01*
X194213117Y-112985973D01*
X194285688Y-113179497D01*
X194285688Y-113373020D01*
X193559974Y-113566544D01*
X182710545Y-117596678D02*
X182710545Y-115564678D01*
X183363688Y-117596678D02*
X183363688Y-116532297D01*
X183291117Y-116338773D01*
X183145974Y-116242011D01*
X182928260Y-116242011D01*
X182783117Y-116338773D01*
X182710545Y-116435535D01*
X184742545Y-117596678D02*
X184742545Y-116532297D01*
X184669974Y-116338773D01*
X184524831Y-116242011D01*
X184234545Y-116242011D01*
X184089402Y-116338773D01*
X184742545Y-117499916D02*
X184597402Y-117596678D01*
X184234545Y-117596678D01*
X184089402Y-117499916D01*
X184016831Y-117306392D01*
X184016831Y-117112868D01*
X184089402Y-116919344D01*
X184234545Y-116822582D01*
X184597402Y-116822582D01*
X184742545Y-116725820D01*
X185468260Y-117596678D02*
X185468260Y-116242011D01*
X185468260Y-116629059D02*
X185540831Y-116435535D01*
X185613402Y-116338773D01*
X185758545Y-116242011D01*
X185903688Y-116242011D01*
X187064831Y-117596678D02*
X187064831Y-115564678D01*
X187064831Y-117499916D02*
X186919688Y-117596678D01*
X186629402Y-117596678D01*
X186484260Y-117499916D01*
X186411688Y-117403154D01*
X186339117Y-117209630D01*
X186339117Y-116629059D01*
X186411688Y-116435535D01*
X186484260Y-116338773D01*
X186629402Y-116242011D01*
X186919688Y-116242011D01*
X187064831Y-116338773D01*
X187645402Y-116242011D02*
X187935688Y-117596678D01*
X188225974Y-116629059D01*
X188516260Y-117596678D01*
X188806545Y-116242011D01*
X190040260Y-117596678D02*
X190040260Y-116532297D01*
X189967688Y-116338773D01*
X189822545Y-116242011D01*
X189532260Y-116242011D01*
X189387117Y-116338773D01*
X190040260Y-117499916D02*
X189895117Y-117596678D01*
X189532260Y-117596678D01*
X189387117Y-117499916D01*
X189314545Y-117306392D01*
X189314545Y-117112868D01*
X189387117Y-116919344D01*
X189532260Y-116822582D01*
X189895117Y-116822582D01*
X190040260Y-116725820D01*
X190765974Y-117596678D02*
X190765974Y-116242011D01*
X190765974Y-116629059D02*
X190838545Y-116435535D01*
X190911117Y-116338773D01*
X191056260Y-116242011D01*
X191201402Y-116242011D01*
X192289974Y-117499916D02*
X192144831Y-117596678D01*
X191854545Y-117596678D01*
X191709402Y-117499916D01*
X191636831Y-117306392D01*
X191636831Y-116532297D01*
X191709402Y-116338773D01*
X191854545Y-116242011D01*
X192144831Y-116242011D01*
X192289974Y-116338773D01*
X192362545Y-116532297D01*
X192362545Y-116725820D01*
X191636831Y-116919344D01*
X71880548Y-118419638D02*
X71880548Y-116387638D01*
X72533691Y-118419638D02*
X72533691Y-117355257D01*
X72461120Y-117161733D01*
X72315977Y-117064971D01*
X72098262Y-117064971D01*
X71953120Y-117161733D01*
X71880548Y-117258495D01*
X73041691Y-117064971D02*
X73622262Y-117064971D01*
X73259405Y-116387638D02*
X73259405Y-118129352D01*
X73331977Y-118322876D01*
X73477120Y-118419638D01*
X73622262Y-118419638D01*
X73912548Y-117064971D02*
X74493120Y-117064971D01*
X74130262Y-116387638D02*
X74130262Y-118129352D01*
X74202834Y-118322876D01*
X74347977Y-118419638D01*
X74493120Y-118419638D01*
X75001120Y-117064971D02*
X75001120Y-119096971D01*
X75001120Y-117161733D02*
X75146262Y-117064971D01*
X75436548Y-117064971D01*
X75581691Y-117161733D01*
X75654262Y-117258495D01*
X75726834Y-117452019D01*
X75726834Y-118032590D01*
X75654262Y-118226114D01*
X75581691Y-118322876D01*
X75436548Y-118419638D01*
X75146262Y-118419638D01*
X75001120Y-118322876D01*
X76307405Y-118322876D02*
X76452548Y-118419638D01*
X76742834Y-118419638D01*
X76887977Y-118322876D01*
X76960548Y-118129352D01*
X76960548Y-118032590D01*
X76887977Y-117839066D01*
X76742834Y-117742304D01*
X76525120Y-117742304D01*
X76379977Y-117645542D01*
X76307405Y-117452019D01*
X76307405Y-117355257D01*
X76379977Y-117161733D01*
X76525120Y-117064971D01*
X76742834Y-117064971D01*
X76887977Y-117161733D01*
X77613691Y-118226114D02*
X77686262Y-118322876D01*
X77613691Y-118419638D01*
X77541120Y-118322876D01*
X77613691Y-118226114D01*
X77613691Y-118419638D01*
X77613691Y-117161733D02*
X77686262Y-117258495D01*
X77613691Y-117355257D01*
X77541120Y-117258495D01*
X77613691Y-117161733D01*
X77613691Y-117355257D01*
X79427977Y-116290876D02*
X78121691Y-118903447D01*
X81024548Y-116290876D02*
X79718262Y-118903447D01*
X82185691Y-117064971D02*
X82185691Y-118709923D01*
X82113120Y-118903447D01*
X82040548Y-119000209D01*
X81895405Y-119096971D01*
X81677691Y-119096971D01*
X81532548Y-119000209D01*
X82185691Y-118322876D02*
X82040548Y-118419638D01*
X81750262Y-118419638D01*
X81605120Y-118322876D01*
X81532548Y-118226114D01*
X81459977Y-118032590D01*
X81459977Y-117452019D01*
X81532548Y-117258495D01*
X81605120Y-117161733D01*
X81750262Y-117064971D01*
X82040548Y-117064971D01*
X82185691Y-117161733D01*
X82911405Y-118419638D02*
X82911405Y-117064971D01*
X82911405Y-116387638D02*
X82838834Y-116484400D01*
X82911405Y-116581161D01*
X82983977Y-116484400D01*
X82911405Y-116387638D01*
X82911405Y-116581161D01*
X83419405Y-117064971D02*
X83999977Y-117064971D01*
X83637120Y-116387638D02*
X83637120Y-118129352D01*
X83709691Y-118322876D01*
X83854834Y-118419638D01*
X83999977Y-118419638D01*
X84507977Y-118419638D02*
X84507977Y-116387638D01*
X85161120Y-118419638D02*
X85161120Y-117355257D01*
X85088548Y-117161733D01*
X84943405Y-117064971D01*
X84725691Y-117064971D01*
X84580548Y-117161733D01*
X84507977Y-117258495D01*
X86539977Y-117064971D02*
X86539977Y-118419638D01*
X85886834Y-117064971D02*
X85886834Y-118129352D01*
X85959405Y-118322876D01*
X86104548Y-118419638D01*
X86322262Y-118419638D01*
X86467405Y-118322876D01*
X86539977Y-118226114D01*
X87265691Y-118419638D02*
X87265691Y-116387638D01*
X87265691Y-117161733D02*
X87410834Y-117064971D01*
X87701120Y-117064971D01*
X87846262Y-117161733D01*
X87918834Y-117258495D01*
X87991405Y-117452019D01*
X87991405Y-118032590D01*
X87918834Y-118226114D01*
X87846262Y-118322876D01*
X87701120Y-118419638D01*
X87410834Y-118419638D01*
X87265691Y-118322876D01*
X88644548Y-118226114D02*
X88717120Y-118322876D01*
X88644548Y-118419638D01*
X88571977Y-118322876D01*
X88644548Y-118226114D01*
X88644548Y-118419638D01*
X90023405Y-118322876D02*
X89878262Y-118419638D01*
X89587977Y-118419638D01*
X89442834Y-118322876D01*
X89370262Y-118226114D01*
X89297691Y-118032590D01*
X89297691Y-117452019D01*
X89370262Y-117258495D01*
X89442834Y-117161733D01*
X89587977Y-117064971D01*
X89878262Y-117064971D01*
X90023405Y-117161733D01*
X90894262Y-118419638D02*
X90749120Y-118322876D01*
X90676548Y-118226114D01*
X90603977Y-118032590D01*
X90603977Y-117452019D01*
X90676548Y-117258495D01*
X90749120Y-117161733D01*
X90894262Y-117064971D01*
X91111977Y-117064971D01*
X91257120Y-117161733D01*
X91329691Y-117258495D01*
X91402262Y-117452019D01*
X91402262Y-118032590D01*
X91329691Y-118226114D01*
X91257120Y-118322876D01*
X91111977Y-118419638D01*
X90894262Y-118419638D01*
X92055405Y-118419638D02*
X92055405Y-117064971D01*
X92055405Y-117258495D02*
X92127977Y-117161733D01*
X92273120Y-117064971D01*
X92490834Y-117064971D01*
X92635977Y-117161733D01*
X92708548Y-117355257D01*
X92708548Y-118419638D01*
X92708548Y-117355257D02*
X92781120Y-117161733D01*
X92926262Y-117064971D01*
X93143977Y-117064971D01*
X93289120Y-117161733D01*
X93361691Y-117355257D01*
X93361691Y-118419638D01*
X95175977Y-116290876D02*
X93869691Y-118903447D01*
X95974262Y-116387638D02*
X96264548Y-116387638D01*
X96409691Y-116484400D01*
X96554834Y-116677923D01*
X96627405Y-117064971D01*
X96627405Y-117742304D01*
X96554834Y-118129352D01*
X96409691Y-118322876D01*
X96264548Y-118419638D01*
X95974262Y-118419638D01*
X95829120Y-118322876D01*
X95683977Y-118129352D01*
X95611405Y-117742304D01*
X95611405Y-117064971D01*
X95683977Y-116677923D01*
X95829120Y-116484400D01*
X95974262Y-116387638D01*
X97280548Y-117064971D02*
X97280548Y-119096971D01*
X97280548Y-117161733D02*
X97425691Y-117064971D01*
X97715977Y-117064971D01*
X97861120Y-117161733D01*
X97933691Y-117258495D01*
X98006262Y-117452019D01*
X98006262Y-118032590D01*
X97933691Y-118226114D01*
X97861120Y-118322876D01*
X97715977Y-118419638D01*
X97425691Y-118419638D01*
X97280548Y-118322876D01*
X99239977Y-118322876D02*
X99094834Y-118419638D01*
X98804548Y-118419638D01*
X98659405Y-118322876D01*
X98586834Y-118129352D01*
X98586834Y-117355257D01*
X98659405Y-117161733D01*
X98804548Y-117064971D01*
X99094834Y-117064971D01*
X99239977Y-117161733D01*
X99312548Y-117355257D01*
X99312548Y-117548780D01*
X98586834Y-117742304D01*
X99965691Y-117064971D02*
X99965691Y-118419638D01*
X99965691Y-117258495D02*
X100038262Y-117161733D01*
X100183405Y-117064971D01*
X100401120Y-117064971D01*
X100546262Y-117161733D01*
X100618834Y-117355257D01*
X100618834Y-118419638D01*
X101344548Y-117355257D02*
X101852548Y-117355257D01*
X102070262Y-118419638D02*
X101344548Y-118419638D01*
X101344548Y-116387638D01*
X102070262Y-116387638D01*
X102941120Y-118419638D02*
X102795977Y-118322876D01*
X102723405Y-118129352D01*
X102723405Y-116387638D01*
X104102262Y-118322876D02*
X103957120Y-118419638D01*
X103666834Y-118419638D01*
X103521691Y-118322876D01*
X103449120Y-118129352D01*
X103449120Y-117355257D01*
X103521691Y-117161733D01*
X103666834Y-117064971D01*
X103957120Y-117064971D01*
X104102262Y-117161733D01*
X104174834Y-117355257D01*
X104174834Y-117548780D01*
X103449120Y-117742304D01*
X105481120Y-118322876D02*
X105335977Y-118419638D01*
X105045691Y-118419638D01*
X104900548Y-118322876D01*
X104827977Y-118226114D01*
X104755405Y-118032590D01*
X104755405Y-117452019D01*
X104827977Y-117258495D01*
X104900548Y-117161733D01*
X105045691Y-117064971D01*
X105335977Y-117064971D01*
X105481120Y-117161733D01*
X105916548Y-117064971D02*
X106497120Y-117064971D01*
X106134262Y-116387638D02*
X106134262Y-118129352D01*
X106206834Y-118322876D01*
X106351977Y-118419638D01*
X106497120Y-118419638D01*
X107005120Y-118419638D02*
X107005120Y-117064971D01*
X107005120Y-117452019D02*
X107077691Y-117258495D01*
X107150262Y-117161733D01*
X107295405Y-117064971D01*
X107440548Y-117064971D01*
X108166262Y-118419638D02*
X108021120Y-118322876D01*
X107948548Y-118226114D01*
X107875977Y-118032590D01*
X107875977Y-117452019D01*
X107948548Y-117258495D01*
X108021120Y-117161733D01*
X108166262Y-117064971D01*
X108383977Y-117064971D01*
X108529120Y-117161733D01*
X108601691Y-117258495D01*
X108674262Y-117452019D01*
X108674262Y-118032590D01*
X108601691Y-118226114D01*
X108529120Y-118322876D01*
X108383977Y-118419638D01*
X108166262Y-118419638D01*
X109327405Y-117064971D02*
X109327405Y-118419638D01*
X109327405Y-117258495D02*
X109399977Y-117161733D01*
X109545120Y-117064971D01*
X109762834Y-117064971D01*
X109907977Y-117161733D01*
X109980548Y-117355257D01*
X109980548Y-118419638D01*
X110706262Y-118419638D02*
X110706262Y-117064971D01*
X110706262Y-116387638D02*
X110633691Y-116484400D01*
X110706262Y-116581161D01*
X110778834Y-116484400D01*
X110706262Y-116387638D01*
X110706262Y-116581161D01*
X112085120Y-118322876D02*
X111939977Y-118419638D01*
X111649691Y-118419638D01*
X111504548Y-118322876D01*
X111431977Y-118226114D01*
X111359405Y-118032590D01*
X111359405Y-117452019D01*
X111431977Y-117258495D01*
X111504548Y-117161733D01*
X111649691Y-117064971D01*
X111939977Y-117064971D01*
X112085120Y-117161733D01*
X112665691Y-118322876D02*
X112810834Y-118419638D01*
X113101120Y-118419638D01*
X113246262Y-118322876D01*
X113318834Y-118129352D01*
X113318834Y-118032590D01*
X113246262Y-117839066D01*
X113101120Y-117742304D01*
X112883405Y-117742304D01*
X112738262Y-117645542D01*
X112665691Y-117452019D01*
X112665691Y-117355257D01*
X112738262Y-117161733D01*
X112883405Y-117064971D01*
X113101120Y-117064971D01*
X113246262Y-117161733D01*
X114697691Y-118419638D02*
X113971977Y-118419638D01*
X113971977Y-116387638D01*
X115858834Y-118419638D02*
X115858834Y-117355257D01*
X115786262Y-117161733D01*
X115641120Y-117064971D01*
X115350834Y-117064971D01*
X115205691Y-117161733D01*
X115858834Y-118322876D02*
X115713691Y-118419638D01*
X115350834Y-118419638D01*
X115205691Y-118322876D01*
X115133120Y-118129352D01*
X115133120Y-117935828D01*
X115205691Y-117742304D01*
X115350834Y-117645542D01*
X115713691Y-117645542D01*
X115858834Y-117548780D01*
X116584548Y-118419638D02*
X116584548Y-116387638D01*
X116584548Y-117161733D02*
X116729691Y-117064971D01*
X117019977Y-117064971D01*
X117165120Y-117161733D01*
X117237691Y-117258495D01*
X117310262Y-117452019D01*
X117310262Y-118032590D01*
X117237691Y-118226114D01*
X117165120Y-118322876D01*
X117019977Y-118419638D01*
X116729691Y-118419638D01*
X116584548Y-118322876D01*
X119051977Y-116290876D02*
X117745691Y-118903447D01*
X119850262Y-116387638D02*
X120140548Y-116387638D01*
X120285691Y-116484400D01*
X120430834Y-116677923D01*
X120503405Y-117064971D01*
X120503405Y-117742304D01*
X120430834Y-118129352D01*
X120285691Y-118322876D01*
X120140548Y-118419638D01*
X119850262Y-118419638D01*
X119705119Y-118322876D01*
X119559977Y-118129352D01*
X119487405Y-117742304D01*
X119487405Y-117064971D01*
X119559977Y-116677923D01*
X119705119Y-116484400D01*
X119850262Y-116387638D01*
X121156548Y-117064971D02*
X121156548Y-119096971D01*
X121156548Y-117161733D02*
X121301691Y-117064971D01*
X121591977Y-117064971D01*
X121737119Y-117161733D01*
X121809691Y-117258495D01*
X121882262Y-117452019D01*
X121882262Y-118032590D01*
X121809691Y-118226114D01*
X121737119Y-118322876D01*
X121591977Y-118419638D01*
X121301691Y-118419638D01*
X121156548Y-118322876D01*
X123115977Y-118322876D02*
X122970834Y-118419638D01*
X122680548Y-118419638D01*
X122535405Y-118322876D01*
X122462834Y-118129352D01*
X122462834Y-117355257D01*
X122535405Y-117161733D01*
X122680548Y-117064971D01*
X122970834Y-117064971D01*
X123115977Y-117161733D01*
X123188548Y-117355257D01*
X123188548Y-117548780D01*
X122462834Y-117742304D01*
X123841691Y-117064971D02*
X123841691Y-118419638D01*
X123841691Y-117258495D02*
X123914262Y-117161733D01*
X124059405Y-117064971D01*
X124277119Y-117064971D01*
X124422262Y-117161733D01*
X124494834Y-117355257D01*
X124494834Y-118419638D01*
X125220548Y-118419638D02*
X125220548Y-116387638D01*
X125220548Y-117355257D02*
X126091405Y-117355257D01*
X126091405Y-118419638D02*
X126091405Y-116387638D01*
X127470262Y-118419638D02*
X127470262Y-117355257D01*
X127397691Y-117161733D01*
X127252548Y-117064971D01*
X126962262Y-117064971D01*
X126817119Y-117161733D01*
X127470262Y-118322876D02*
X127325119Y-118419638D01*
X126962262Y-118419638D01*
X126817119Y-118322876D01*
X126744548Y-118129352D01*
X126744548Y-117935828D01*
X126817119Y-117742304D01*
X126962262Y-117645542D01*
X127325119Y-117645542D01*
X127470262Y-117548780D01*
X128195977Y-118419638D02*
X128195977Y-117064971D01*
X128195977Y-117452019D02*
X128268548Y-117258495D01*
X128341119Y-117161733D01*
X128486262Y-117064971D01*
X128631405Y-117064971D01*
X129792548Y-118419638D02*
X129792548Y-116387638D01*
X129792548Y-118322876D02*
X129647405Y-118419638D01*
X129357119Y-118419638D01*
X129211977Y-118322876D01*
X129139405Y-118226114D01*
X129066834Y-118032590D01*
X129066834Y-117452019D01*
X129139405Y-117258495D01*
X129211977Y-117161733D01*
X129357119Y-117064971D01*
X129647405Y-117064971D01*
X129792548Y-117161733D01*
X130373119Y-117064971D02*
X130663405Y-118419638D01*
X130953691Y-117452019D01*
X131243977Y-118419638D01*
X131534262Y-117064971D01*
X132767977Y-118419638D02*
X132767977Y-117355257D01*
X132695405Y-117161733D01*
X132550262Y-117064971D01*
X132259977Y-117064971D01*
X132114834Y-117161733D01*
X132767977Y-118322876D02*
X132622834Y-118419638D01*
X132259977Y-118419638D01*
X132114834Y-118322876D01*
X132042262Y-118129352D01*
X132042262Y-117935828D01*
X132114834Y-117742304D01*
X132259977Y-117645542D01*
X132622834Y-117645542D01*
X132767977Y-117548780D01*
X133493691Y-118419638D02*
X133493691Y-117064971D01*
X133493691Y-117452019D02*
X133566262Y-117258495D01*
X133638834Y-117161733D01*
X133783977Y-117064971D01*
X133929119Y-117064971D01*
X135017691Y-118322876D02*
X134872548Y-118419638D01*
X134582262Y-118419638D01*
X134437119Y-118322876D01*
X134364548Y-118129352D01*
X134364548Y-117355257D01*
X134437119Y-117161733D01*
X134582262Y-117064971D01*
X134872548Y-117064971D01*
X135017691Y-117161733D01*
X135090262Y-117355257D01*
X135090262Y-117548780D01*
X134364548Y-117742304D01*
X135743405Y-117355257D02*
X136251405Y-117355257D01*
X136469119Y-118419638D02*
X135743405Y-118419638D01*
X135743405Y-116387638D01*
X136469119Y-116387638D01*
X136977119Y-118419638D02*
X137775405Y-117064971D01*
X136977119Y-117064971D02*
X137775405Y-118419638D01*
X139154262Y-116484400D02*
X139009119Y-116387638D01*
X138791405Y-116387638D01*
X138573691Y-116484400D01*
X138428548Y-116677923D01*
X138355977Y-116871447D01*
X138283405Y-117258495D01*
X138283405Y-117548780D01*
X138355977Y-117935828D01*
X138428548Y-118129352D01*
X138573691Y-118322876D01*
X138791405Y-118419638D01*
X138936548Y-118419638D01*
X139154262Y-118322876D01*
X139226834Y-118226114D01*
X139226834Y-117548780D01*
X138936548Y-117548780D01*
X141041119Y-117064971D02*
X141041119Y-119096971D01*
X141041119Y-117161733D02*
X141186262Y-117064971D01*
X141476548Y-117064971D01*
X141621691Y-117161733D01*
X141694262Y-117258495D01*
X141766834Y-117452019D01*
X141766834Y-118032590D01*
X141694262Y-118226114D01*
X141621691Y-118322876D01*
X141476548Y-118419638D01*
X141186262Y-118419638D01*
X141041119Y-118322876D01*
X143073119Y-118419638D02*
X143073119Y-117355257D01*
X143000548Y-117161733D01*
X142855405Y-117064971D01*
X142565119Y-117064971D01*
X142419977Y-117161733D01*
X143073119Y-118322876D02*
X142927977Y-118419638D01*
X142565119Y-118419638D01*
X142419977Y-118322876D01*
X142347405Y-118129352D01*
X142347405Y-117935828D01*
X142419977Y-117742304D01*
X142565119Y-117645542D01*
X142927977Y-117645542D01*
X143073119Y-117548780D01*
X143581119Y-117064971D02*
X144161691Y-117064971D01*
X143798834Y-116387638D02*
X143798834Y-118129352D01*
X143871405Y-118322876D01*
X144016548Y-118419638D01*
X144161691Y-118419638D01*
X145322834Y-118322876D02*
X145177691Y-118419638D01*
X144887405Y-118419638D01*
X144742262Y-118322876D01*
X144669691Y-118226114D01*
X144597120Y-118032590D01*
X144597120Y-117452019D01*
X144669691Y-117258495D01*
X144742262Y-117161733D01*
X144887405Y-117064971D01*
X145177691Y-117064971D01*
X145322834Y-117161733D01*
X145975977Y-118419638D02*
X145975977Y-116387638D01*
X146629120Y-118419638D02*
X146629120Y-117355257D01*
X146556548Y-117161733D01*
X146411405Y-117064971D01*
X146193691Y-117064971D01*
X146048548Y-117161733D01*
X145975977Y-117258495D01*
X147354834Y-117645542D02*
X148515977Y-117645542D01*
X149169120Y-118322876D02*
X149314262Y-118419638D01*
X149604548Y-118419638D01*
X149749691Y-118322876D01*
X149822262Y-118129352D01*
X149822262Y-118032590D01*
X149749691Y-117839066D01*
X149604548Y-117742304D01*
X149386834Y-117742304D01*
X149241691Y-117645542D01*
X149169120Y-117452019D01*
X149169120Y-117355257D01*
X149241691Y-117161733D01*
X149386834Y-117064971D01*
X149604548Y-117064971D01*
X149749691Y-117161733D01*
X150475405Y-118419638D02*
X150475405Y-116387638D01*
X151128548Y-118419638D02*
X151128548Y-117355257D01*
X151055977Y-117161733D01*
X150910834Y-117064971D01*
X150693120Y-117064971D01*
X150547977Y-117161733D01*
X150475405Y-117258495D01*
X151854262Y-118419638D02*
X151854262Y-117064971D01*
X151854262Y-116387638D02*
X151781691Y-116484400D01*
X151854262Y-116581161D01*
X151926834Y-116484400D01*
X151854262Y-116387638D01*
X151854262Y-116581161D01*
X153160548Y-118322876D02*
X153015405Y-118419638D01*
X152725120Y-118419638D01*
X152579977Y-118322876D01*
X152507405Y-118129352D01*
X152507405Y-117355257D01*
X152579977Y-117161733D01*
X152725120Y-117064971D01*
X153015405Y-117064971D01*
X153160548Y-117161733D01*
X153233120Y-117355257D01*
X153233120Y-117548780D01*
X152507405Y-117742304D01*
X154103977Y-118419638D02*
X153958834Y-118322876D01*
X153886262Y-118129352D01*
X153886262Y-116387638D01*
X155337691Y-118419638D02*
X155337691Y-116387638D01*
X155337691Y-118322876D02*
X155192548Y-118419638D01*
X154902262Y-118419638D01*
X154757120Y-118322876D01*
X154684548Y-118226114D01*
X154611977Y-118032590D01*
X154611977Y-117452019D01*
X154684548Y-117258495D01*
X154757120Y-117161733D01*
X154902262Y-117064971D01*
X155192548Y-117064971D01*
X155337691Y-117161733D01*
X156063405Y-117645542D02*
X157224548Y-117645542D01*
X158603405Y-118419638D02*
X158603405Y-117355257D01*
X158530834Y-117161733D01*
X158385691Y-117064971D01*
X158095405Y-117064971D01*
X157950262Y-117161733D01*
X158603405Y-118322876D02*
X158458262Y-118419638D01*
X158095405Y-118419638D01*
X157950262Y-118322876D01*
X157877691Y-118129352D01*
X157877691Y-117935828D01*
X157950262Y-117742304D01*
X158095405Y-117645542D01*
X158458262Y-117645542D01*
X158603405Y-117548780D01*
X159329120Y-117064971D02*
X159329120Y-118419638D01*
X159329120Y-117258495D02*
X159401691Y-117161733D01*
X159546834Y-117064971D01*
X159764548Y-117064971D01*
X159909691Y-117161733D01*
X159982262Y-117355257D01*
X159982262Y-118419638D01*
X161361120Y-118419638D02*
X161361120Y-117355257D01*
X161288548Y-117161733D01*
X161143405Y-117064971D01*
X160853120Y-117064971D01*
X160707977Y-117161733D01*
X161361120Y-118322876D02*
X161215977Y-118419638D01*
X160853120Y-118419638D01*
X160707977Y-118322876D01*
X160635405Y-118129352D01*
X160635405Y-117935828D01*
X160707977Y-117742304D01*
X160853120Y-117645542D01*
X161215977Y-117645542D01*
X161361120Y-117548780D01*
X162304548Y-118419638D02*
X162159405Y-118322876D01*
X162086834Y-118129352D01*
X162086834Y-116387638D01*
X163102834Y-118419638D02*
X162957691Y-118322876D01*
X162885120Y-118226114D01*
X162812548Y-118032590D01*
X162812548Y-117452019D01*
X162885120Y-117258495D01*
X162957691Y-117161733D01*
X163102834Y-117064971D01*
X163320548Y-117064971D01*
X163465691Y-117161733D01*
X163538262Y-117258495D01*
X163610834Y-117452019D01*
X163610834Y-118032590D01*
X163538262Y-118226114D01*
X163465691Y-118322876D01*
X163320548Y-118419638D01*
X163102834Y-118419638D01*
X164917120Y-117064971D02*
X164917120Y-118709923D01*
X164844548Y-118903447D01*
X164771977Y-119000209D01*
X164626834Y-119096971D01*
X164409120Y-119096971D01*
X164263977Y-119000209D01*
X164917120Y-118322876D02*
X164771977Y-118419638D01*
X164481691Y-118419638D01*
X164336548Y-118322876D01*
X164263977Y-118226114D01*
X164191405Y-118032590D01*
X164191405Y-117452019D01*
X164263977Y-117258495D01*
X164336548Y-117161733D01*
X164481691Y-117064971D01*
X164771977Y-117064971D01*
X164917120Y-117161733D01*
X166803977Y-118419638D02*
X166803977Y-117064971D01*
X166803977Y-117452019D02*
X166876548Y-117258495D01*
X166949120Y-117161733D01*
X167094262Y-117064971D01*
X167239405Y-117064971D01*
X168327977Y-118322876D02*
X168182834Y-118419638D01*
X167892548Y-118419638D01*
X167747405Y-118322876D01*
X167674834Y-118129352D01*
X167674834Y-117355257D01*
X167747405Y-117161733D01*
X167892548Y-117064971D01*
X168182834Y-117064971D01*
X168327977Y-117161733D01*
X168400548Y-117355257D01*
X168400548Y-117548780D01*
X167674834Y-117742304D01*
X168908548Y-117064971D02*
X169271405Y-118419638D01*
X169634262Y-117064971D01*
X171013120Y-118419638D02*
X170142262Y-118419638D01*
X170577691Y-118419638D02*
X170577691Y-116387638D01*
X170432548Y-116677923D01*
X170287405Y-116871447D01*
X170142262Y-116968209D01*
X171666262Y-118226114D02*
X171738834Y-118322876D01*
X171666262Y-118419638D01*
X171593691Y-118322876D01*
X171666262Y-118226114D01*
X171666262Y-118419638D01*
X172682262Y-116387638D02*
X172827405Y-116387638D01*
X172972548Y-116484400D01*
X173045120Y-116581161D01*
X173117691Y-116774685D01*
X173190262Y-117161733D01*
X173190262Y-117645542D01*
X173117691Y-118032590D01*
X173045120Y-118226114D01*
X172972548Y-118322876D01*
X172827405Y-118419638D01*
X172682262Y-118419638D01*
X172537120Y-118322876D01*
X172464548Y-118226114D01*
X172391977Y-118032590D01*
X172319405Y-117645542D01*
X172319405Y-117161733D01*
X172391977Y-116774685D01*
X172464548Y-116581161D01*
X172537120Y-116484400D01*
X172682262Y-116387638D01*
D12*
X179999640Y-102999540D02*
X179999640Y-118999000D01*
X172001180Y-95001080D02*
X172001180Y-118999000D01*
X171500800Y-55001160D02*
X171500800Y-49499520D01*
X163499800Y-55001160D02*
X163499800Y-49499520D01*
X207500220Y-95001080D02*
X172001180Y-95001080D01*
X207500220Y-65498980D02*
X207500220Y-95001080D01*
X163499800Y-65498980D02*
X207500220Y-65498980D01*
X163499800Y-55001160D02*
X163499800Y-65498980D01*
X215501220Y-102999540D02*
X179999640Y-102999540D01*
X215501220Y-57500520D02*
X215501220Y-102999540D01*
X171500800Y-57500520D02*
X215501220Y-57500520D01*
X171500800Y-55001160D02*
X171500800Y-57500520D01*
D13*
G36*
X185379360Y-113144300D02*
X185414920Y-113123980D01*
X185498740Y-113073180D01*
X185615580Y-112996980D01*
X185752740Y-112903000D01*
X185892440Y-112809020D01*
X186004200Y-112732820D01*
X186085480Y-112682020D01*
X186118500Y-112664240D01*
X186136280Y-112669320D01*
X186202320Y-112702340D01*
X186298840Y-112750600D01*
X186352180Y-112781080D01*
X186441080Y-112819180D01*
X186484260Y-112826800D01*
X186491880Y-112814100D01*
X186524900Y-112745520D01*
X186575700Y-112631220D01*
X186641740Y-112481360D01*
X186715400Y-112303560D01*
X186796680Y-112110520D01*
X186877960Y-111914940D01*
X186956700Y-111729520D01*
X187025280Y-111561880D01*
X187078620Y-111424720D01*
X187116720Y-111330740D01*
X187129420Y-111290100D01*
X187124340Y-111282480D01*
X187081160Y-111239300D01*
X187004960Y-111180880D01*
X186839860Y-111046260D01*
X186674760Y-110843060D01*
X186575700Y-110611920D01*
X186542680Y-110352840D01*
X186570620Y-110114080D01*
X186664600Y-109885480D01*
X186824620Y-109679740D01*
X187017660Y-109527340D01*
X187246260Y-109428280D01*
X187500260Y-109397800D01*
X187744100Y-109425740D01*
X187977780Y-109517180D01*
X188183520Y-109674660D01*
X188272420Y-109776260D01*
X188391800Y-109984540D01*
X188460380Y-110208060D01*
X188468000Y-110263940D01*
X188457840Y-110510320D01*
X188384180Y-110746540D01*
X188254640Y-110957360D01*
X188074300Y-111130080D01*
X188051440Y-111145320D01*
X187967620Y-111208820D01*
X187911740Y-111252000D01*
X187868560Y-111287560D01*
X188180980Y-112039400D01*
X188231780Y-112161320D01*
X188318140Y-112367060D01*
X188394340Y-112544860D01*
X188452760Y-112684560D01*
X188495940Y-112778540D01*
X188513720Y-112816640D01*
X188516260Y-112819180D01*
X188544200Y-112824260D01*
X188600080Y-112803940D01*
X188706760Y-112753140D01*
X188775340Y-112717580D01*
X188856620Y-112676940D01*
X188892180Y-112664240D01*
X188922660Y-112679480D01*
X188998860Y-112730280D01*
X189110620Y-112803940D01*
X189245240Y-112895380D01*
X189374780Y-112984280D01*
X189491620Y-113060480D01*
X189577980Y-113116360D01*
X189618620Y-113139220D01*
X189626240Y-113139220D01*
X189664340Y-113118900D01*
X189730380Y-113060480D01*
X189834520Y-112963960D01*
X189979300Y-112821720D01*
X190002160Y-112798860D01*
X190121540Y-112676940D01*
X190218060Y-112575340D01*
X190281560Y-112504220D01*
X190306960Y-112471200D01*
X190284100Y-112430560D01*
X190230760Y-112344200D01*
X190152020Y-112224820D01*
X190055500Y-112085120D01*
X189806580Y-111721900D01*
X189943740Y-111379000D01*
X189986920Y-111274860D01*
X190040260Y-111147860D01*
X190078360Y-111056420D01*
X190098680Y-111018320D01*
X190136780Y-111003080D01*
X190230760Y-110982760D01*
X190365380Y-110954820D01*
X190527940Y-110924340D01*
X190682880Y-110893860D01*
X190822580Y-110868460D01*
X190921640Y-110848140D01*
X190967360Y-110840520D01*
X190977520Y-110832900D01*
X190987680Y-110812580D01*
X190992760Y-110764320D01*
X190997840Y-110680500D01*
X190997840Y-110545880D01*
X190997840Y-110352840D01*
X190997840Y-110332520D01*
X190997840Y-110147100D01*
X190992760Y-110002320D01*
X190987680Y-109905800D01*
X190982600Y-109867700D01*
X190939420Y-109857540D01*
X190840360Y-109837220D01*
X190700660Y-109809280D01*
X190535560Y-109778800D01*
X190525400Y-109776260D01*
X190357760Y-109743240D01*
X190220600Y-109715300D01*
X190124080Y-109692440D01*
X190080900Y-109679740D01*
X190073280Y-109669580D01*
X190040260Y-109603540D01*
X189992000Y-109501940D01*
X189938660Y-109374940D01*
X189882780Y-109245400D01*
X189837060Y-109128560D01*
X189806580Y-109042200D01*
X189796420Y-109001560D01*
X189821820Y-108960920D01*
X189877700Y-108877100D01*
X189958980Y-108757720D01*
X190055500Y-108615480D01*
X190063120Y-108605320D01*
X190157100Y-108465620D01*
X190235840Y-108346240D01*
X190286640Y-108262420D01*
X190306960Y-108224320D01*
X190304420Y-108221780D01*
X190273940Y-108181140D01*
X190202820Y-108099860D01*
X190101220Y-107993180D01*
X189976760Y-107871260D01*
X189938660Y-107833160D01*
X189804040Y-107698540D01*
X189707520Y-107612180D01*
X189649100Y-107566460D01*
X189621160Y-107556300D01*
X189577980Y-107581700D01*
X189489080Y-107640120D01*
X189369700Y-107721400D01*
X189227460Y-107817920D01*
X189217300Y-107823000D01*
X189077600Y-107919520D01*
X188960760Y-107998260D01*
X188879480Y-108054140D01*
X188843920Y-108074460D01*
X188836300Y-108074460D01*
X188780420Y-108059220D01*
X188681360Y-108023660D01*
X188556900Y-107975400D01*
X188427360Y-107924600D01*
X188310520Y-107873800D01*
X188221620Y-107833160D01*
X188180980Y-107810300D01*
X188178440Y-107807760D01*
X188165740Y-107756960D01*
X188140340Y-107652820D01*
X188109860Y-107508040D01*
X188079380Y-107337860D01*
X188074300Y-107309920D01*
X188041280Y-107144820D01*
X188015880Y-107005120D01*
X187995560Y-106911140D01*
X187985400Y-106870500D01*
X187962540Y-106865420D01*
X187881260Y-106860340D01*
X187756800Y-106857800D01*
X187604400Y-106855260D01*
X187446920Y-106855260D01*
X187291980Y-106860340D01*
X187159900Y-106865420D01*
X187065920Y-106870500D01*
X187027820Y-106878120D01*
X187025280Y-106880660D01*
X187010040Y-106931460D01*
X186987180Y-107038140D01*
X186959240Y-107182920D01*
X186926220Y-107353100D01*
X186921140Y-107383580D01*
X186888120Y-107551220D01*
X186860180Y-107688380D01*
X186839860Y-107779820D01*
X186829700Y-107817920D01*
X186814460Y-107825540D01*
X186745880Y-107856020D01*
X186634120Y-107901740D01*
X186496960Y-107957620D01*
X186176920Y-108087160D01*
X185783220Y-107817920D01*
X185747660Y-107795060D01*
X185605420Y-107698540D01*
X185491120Y-107619800D01*
X185409840Y-107569000D01*
X185376820Y-107548680D01*
X185374280Y-107551220D01*
X185333640Y-107584240D01*
X185254900Y-107657900D01*
X185150760Y-107762040D01*
X185026300Y-107883960D01*
X184934860Y-107975400D01*
X184825640Y-108087160D01*
X184757060Y-108160820D01*
X184721500Y-108209080D01*
X184706260Y-108237020D01*
X184711340Y-108254800D01*
X184736740Y-108295440D01*
X184792620Y-108381800D01*
X184873900Y-108501180D01*
X184970420Y-108640880D01*
X185049160Y-108757720D01*
X185132980Y-108889800D01*
X185188860Y-108983780D01*
X185209180Y-109029500D01*
X185204100Y-109047280D01*
X185176160Y-109126020D01*
X185130440Y-109240320D01*
X185069480Y-109380020D01*
X184934860Y-109689900D01*
X184729120Y-109730540D01*
X184607200Y-109753400D01*
X184434480Y-109786420D01*
X184269380Y-109819440D01*
X184010300Y-109867700D01*
X184000140Y-110815120D01*
X184040780Y-110832900D01*
X184078880Y-110843060D01*
X184175400Y-110863380D01*
X184312560Y-110891320D01*
X184472580Y-110921800D01*
X184609740Y-110947200D01*
X184746900Y-110975140D01*
X184845960Y-110992920D01*
X184891680Y-111003080D01*
X184901840Y-111018320D01*
X184937400Y-111084360D01*
X184985660Y-111191040D01*
X185041540Y-111318040D01*
X185097420Y-111452660D01*
X185145680Y-111574580D01*
X185178700Y-111668560D01*
X185191400Y-111716820D01*
X185173620Y-111752380D01*
X185120280Y-111833660D01*
X185044080Y-111950500D01*
X184950100Y-112087660D01*
X184856120Y-112224820D01*
X184777380Y-112341660D01*
X184721500Y-112425480D01*
X184698640Y-112463580D01*
X184711340Y-112491520D01*
X184764680Y-112557560D01*
X184868820Y-112664240D01*
X185023760Y-112816640D01*
X185049160Y-112842040D01*
X185171080Y-112958880D01*
X185275220Y-113055400D01*
X185346340Y-113118900D01*
X185379360Y-113144300D01*
X185379360Y-113144300D01*
G37*
X185379360Y-113144300D02*
X185414920Y-113123980D01*
X185498740Y-113073180D01*
X185615580Y-112996980D01*
X185752740Y-112903000D01*
X185892440Y-112809020D01*
X186004200Y-112732820D01*
X186085480Y-112682020D01*
X186118500Y-112664240D01*
X186136280Y-112669320D01*
X186202320Y-112702340D01*
X186298840Y-112750600D01*
X186352180Y-112781080D01*
X186441080Y-112819180D01*
X186484260Y-112826800D01*
X186491880Y-112814100D01*
X186524900Y-112745520D01*
X186575700Y-112631220D01*
X186641740Y-112481360D01*
X186715400Y-112303560D01*
X186796680Y-112110520D01*
X186877960Y-111914940D01*
X186956700Y-111729520D01*
X187025280Y-111561880D01*
X187078620Y-111424720D01*
X187116720Y-111330740D01*
X187129420Y-111290100D01*
X187124340Y-111282480D01*
X187081160Y-111239300D01*
X187004960Y-111180880D01*
X186839860Y-111046260D01*
X186674760Y-110843060D01*
X186575700Y-110611920D01*
X186542680Y-110352840D01*
X186570620Y-110114080D01*
X186664600Y-109885480D01*
X186824620Y-109679740D01*
X187017660Y-109527340D01*
X187246260Y-109428280D01*
X187500260Y-109397800D01*
X187744100Y-109425740D01*
X187977780Y-109517180D01*
X188183520Y-109674660D01*
X188272420Y-109776260D01*
X188391800Y-109984540D01*
X188460380Y-110208060D01*
X188468000Y-110263940D01*
X188457840Y-110510320D01*
X188384180Y-110746540D01*
X188254640Y-110957360D01*
X188074300Y-111130080D01*
X188051440Y-111145320D01*
X187967620Y-111208820D01*
X187911740Y-111252000D01*
X187868560Y-111287560D01*
X188180980Y-112039400D01*
X188231780Y-112161320D01*
X188318140Y-112367060D01*
X188394340Y-112544860D01*
X188452760Y-112684560D01*
X188495940Y-112778540D01*
X188513720Y-112816640D01*
X188516260Y-112819180D01*
X188544200Y-112824260D01*
X188600080Y-112803940D01*
X188706760Y-112753140D01*
X188775340Y-112717580D01*
X188856620Y-112676940D01*
X188892180Y-112664240D01*
X188922660Y-112679480D01*
X188998860Y-112730280D01*
X189110620Y-112803940D01*
X189245240Y-112895380D01*
X189374780Y-112984280D01*
X189491620Y-113060480D01*
X189577980Y-113116360D01*
X189618620Y-113139220D01*
X189626240Y-113139220D01*
X189664340Y-113118900D01*
X189730380Y-113060480D01*
X189834520Y-112963960D01*
X189979300Y-112821720D01*
X190002160Y-112798860D01*
X190121540Y-112676940D01*
X190218060Y-112575340D01*
X190281560Y-112504220D01*
X190306960Y-112471200D01*
X190284100Y-112430560D01*
X190230760Y-112344200D01*
X190152020Y-112224820D01*
X190055500Y-112085120D01*
X189806580Y-111721900D01*
X189943740Y-111379000D01*
X189986920Y-111274860D01*
X190040260Y-111147860D01*
X190078360Y-111056420D01*
X190098680Y-111018320D01*
X190136780Y-111003080D01*
X190230760Y-110982760D01*
X190365380Y-110954820D01*
X190527940Y-110924340D01*
X190682880Y-110893860D01*
X190822580Y-110868460D01*
X190921640Y-110848140D01*
X190967360Y-110840520D01*
X190977520Y-110832900D01*
X190987680Y-110812580D01*
X190992760Y-110764320D01*
X190997840Y-110680500D01*
X190997840Y-110545880D01*
X190997840Y-110352840D01*
X190997840Y-110332520D01*
X190997840Y-110147100D01*
X190992760Y-110002320D01*
X190987680Y-109905800D01*
X190982600Y-109867700D01*
X190939420Y-109857540D01*
X190840360Y-109837220D01*
X190700660Y-109809280D01*
X190535560Y-109778800D01*
X190525400Y-109776260D01*
X190357760Y-109743240D01*
X190220600Y-109715300D01*
X190124080Y-109692440D01*
X190080900Y-109679740D01*
X190073280Y-109669580D01*
X190040260Y-109603540D01*
X189992000Y-109501940D01*
X189938660Y-109374940D01*
X189882780Y-109245400D01*
X189837060Y-109128560D01*
X189806580Y-109042200D01*
X189796420Y-109001560D01*
X189821820Y-108960920D01*
X189877700Y-108877100D01*
X189958980Y-108757720D01*
X190055500Y-108615480D01*
X190063120Y-108605320D01*
X190157100Y-108465620D01*
X190235840Y-108346240D01*
X190286640Y-108262420D01*
X190306960Y-108224320D01*
X190304420Y-108221780D01*
X190273940Y-108181140D01*
X190202820Y-108099860D01*
X190101220Y-107993180D01*
X189976760Y-107871260D01*
X189938660Y-107833160D01*
X189804040Y-107698540D01*
X189707520Y-107612180D01*
X189649100Y-107566460D01*
X189621160Y-107556300D01*
X189577980Y-107581700D01*
X189489080Y-107640120D01*
X189369700Y-107721400D01*
X189227460Y-107817920D01*
X189217300Y-107823000D01*
X189077600Y-107919520D01*
X188960760Y-107998260D01*
X188879480Y-108054140D01*
X188843920Y-108074460D01*
X188836300Y-108074460D01*
X188780420Y-108059220D01*
X188681360Y-108023660D01*
X188556900Y-107975400D01*
X188427360Y-107924600D01*
X188310520Y-107873800D01*
X188221620Y-107833160D01*
X188180980Y-107810300D01*
X188178440Y-107807760D01*
X188165740Y-107756960D01*
X188140340Y-107652820D01*
X188109860Y-107508040D01*
X188079380Y-107337860D01*
X188074300Y-107309920D01*
X188041280Y-107144820D01*
X188015880Y-107005120D01*
X187995560Y-106911140D01*
X187985400Y-106870500D01*
X187962540Y-106865420D01*
X187881260Y-106860340D01*
X187756800Y-106857800D01*
X187604400Y-106855260D01*
X187446920Y-106855260D01*
X187291980Y-106860340D01*
X187159900Y-106865420D01*
X187065920Y-106870500D01*
X187027820Y-106878120D01*
X187025280Y-106880660D01*
X187010040Y-106931460D01*
X186987180Y-107038140D01*
X186959240Y-107182920D01*
X186926220Y-107353100D01*
X186921140Y-107383580D01*
X186888120Y-107551220D01*
X186860180Y-107688380D01*
X186839860Y-107779820D01*
X186829700Y-107817920D01*
X186814460Y-107825540D01*
X186745880Y-107856020D01*
X186634120Y-107901740D01*
X186496960Y-107957620D01*
X186176920Y-108087160D01*
X185783220Y-107817920D01*
X185747660Y-107795060D01*
X185605420Y-107698540D01*
X185491120Y-107619800D01*
X185409840Y-107569000D01*
X185376820Y-107548680D01*
X185374280Y-107551220D01*
X185333640Y-107584240D01*
X185254900Y-107657900D01*
X185150760Y-107762040D01*
X185026300Y-107883960D01*
X184934860Y-107975400D01*
X184825640Y-108087160D01*
X184757060Y-108160820D01*
X184721500Y-108209080D01*
X184706260Y-108237020D01*
X184711340Y-108254800D01*
X184736740Y-108295440D01*
X184792620Y-108381800D01*
X184873900Y-108501180D01*
X184970420Y-108640880D01*
X185049160Y-108757720D01*
X185132980Y-108889800D01*
X185188860Y-108983780D01*
X185209180Y-109029500D01*
X185204100Y-109047280D01*
X185176160Y-109126020D01*
X185130440Y-109240320D01*
X185069480Y-109380020D01*
X184934860Y-109689900D01*
X184729120Y-109730540D01*
X184607200Y-109753400D01*
X184434480Y-109786420D01*
X184269380Y-109819440D01*
X184010300Y-109867700D01*
X184000140Y-110815120D01*
X184040780Y-110832900D01*
X184078880Y-110843060D01*
X184175400Y-110863380D01*
X184312560Y-110891320D01*
X184472580Y-110921800D01*
X184609740Y-110947200D01*
X184746900Y-110975140D01*
X184845960Y-110992920D01*
X184891680Y-111003080D01*
X184901840Y-111018320D01*
X184937400Y-111084360D01*
X184985660Y-111191040D01*
X185041540Y-111318040D01*
X185097420Y-111452660D01*
X185145680Y-111574580D01*
X185178700Y-111668560D01*
X185191400Y-111716820D01*
X185173620Y-111752380D01*
X185120280Y-111833660D01*
X185044080Y-111950500D01*
X184950100Y-112087660D01*
X184856120Y-112224820D01*
X184777380Y-112341660D01*
X184721500Y-112425480D01*
X184698640Y-112463580D01*
X184711340Y-112491520D01*
X184764680Y-112557560D01*
X184868820Y-112664240D01*
X185023760Y-112816640D01*
X185049160Y-112842040D01*
X185171080Y-112958880D01*
X185275220Y-113055400D01*
X185346340Y-113118900D01*
X185379360Y-113144300D01*
D14*
X164365352Y-89999820D02*
G75*
G03X164365352Y-89999820I-4365672J0D01*
G01*
D12*
X163781965Y-89999820D02*
G75*
G03X163781965Y-89999820I-3782285J0D01*
G01*
D14*
X164365352Y-59999880D02*
G75*
G03X164365352Y-59999880I-4365672J0D01*
G01*
D12*
X163781965Y-59999880D02*
G75*
G03X163781965Y-59999880I-3782285J0D01*
G01*
D14*
X149366652Y-59999880D02*
G75*
G03X149366652Y-59999880I-4365672J0D01*
G01*
D12*
X148783265Y-59999880D02*
G75*
G03X148783265Y-59999880I-3782285J0D01*
G01*
D14*
X134365412Y-59999880D02*
G75*
G03X134365412Y-59999880I-4365672J0D01*
G01*
D12*
X133782025Y-59999880D02*
G75*
G03X133782025Y-59999880I-3782285J0D01*
G01*
D14*
X119366712Y-59999880D02*
G75*
G03X119366712Y-59999880I-4365672J0D01*
G01*
D12*
X118783325Y-59999880D02*
G75*
G03X118783325Y-59999880I-3782285J0D01*
G01*
D14*
X104365472Y-59999880D02*
G75*
G03X104365472Y-59999880I-4365672J0D01*
G01*
D12*
X103782085Y-59999880D02*
G75*
G03X103782085Y-59999880I-3782285J0D01*
G01*
D14*
X89366772Y-59999880D02*
G75*
G03X89366772Y-59999880I-4365672J0D01*
G01*
D12*
X88783385Y-59999880D02*
G75*
G03X88783385Y-59999880I-3782285J0D01*
G01*
D14*
X74365532Y-59999880D02*
G75*
G03X74365532Y-59999880I-4365672J0D01*
G01*
D12*
X73782145Y-59999880D02*
G75*
G03X73782145Y-59999880I-3782285J0D01*
G01*
D14*
X59366832Y-59999880D02*
G75*
G03X59366832Y-59999880I-4365672J0D01*
G01*
D12*
X58783445Y-59999880D02*
G75*
G03X58783445Y-59999880I-3782285J0D01*
G01*
D14*
X59366832Y-105001060D02*
G75*
G03X59366832Y-105001060I-4365672J0D01*
G01*
D12*
X58783445Y-105001060D02*
G75*
G03X58783445Y-105001060I-3782285J0D01*
G01*
D14*
X149366652Y-89999820D02*
G75*
G03X149366652Y-89999820I-4365672J0D01*
G01*
D12*
X148783265Y-89999820D02*
G75*
G03X148783265Y-89999820I-3782285J0D01*
G01*
D14*
X134365412Y-89999820D02*
G75*
G03X134365412Y-89999820I-4365672J0D01*
G01*
D12*
X133782025Y-89999820D02*
G75*
G03X133782025Y-89999820I-3782285J0D01*
G01*
D14*
X119366712Y-89999820D02*
G75*
G03X119366712Y-89999820I-4365672J0D01*
G01*
D12*
X118783325Y-89999820D02*
G75*
G03X118783325Y-89999820I-3782285J0D01*
G01*
D14*
X104365472Y-89999820D02*
G75*
G03X104365472Y-89999820I-4365672J0D01*
G01*
D12*
X103782085Y-89999820D02*
G75*
G03X103782085Y-89999820I-3782285J0D01*
G01*
D14*
X89366772Y-89999820D02*
G75*
G03X89366772Y-89999820I-4365672J0D01*
G01*
D12*
X88783385Y-89999820D02*
G75*
G03X88783385Y-89999820I-3782285J0D01*
G01*
D14*
X74365532Y-89999820D02*
G75*
G03X74365532Y-89999820I-4365672J0D01*
G01*
D12*
X73782145Y-89999820D02*
G75*
G03X73782145Y-89999820I-3782285J0D01*
G01*
D14*
X59366832Y-89999820D02*
G75*
G03X59366832Y-89999820I-4365672J0D01*
G01*
D12*
X58783445Y-89999820D02*
G75*
G03X58783445Y-89999820I-3782285J0D01*
G01*
D14*
X59366832Y-75001120D02*
G75*
G03X59366832Y-75001120I-4365672J0D01*
G01*
D12*
X58783445Y-75001120D02*
G75*
G03X58783445Y-75001120I-3782285J0D01*
G01*
D14*
X179366592Y-82499200D02*
G75*
G03X179366592Y-82499200I-4365672J0D01*
G01*
D12*
X178783205Y-82499200D02*
G75*
G03X178783205Y-82499200I-3782285J0D01*
G01*
D14*
X164365352Y-75001120D02*
G75*
G03X164365352Y-75001120I-4365672J0D01*
G01*
D12*
X163781965Y-75001120D02*
G75*
G03X163781965Y-75001120I-3782285J0D01*
G01*
D14*
X149366652Y-75001120D02*
G75*
G03X149366652Y-75001120I-4365672J0D01*
G01*
D12*
X148783265Y-75001120D02*
G75*
G03X148783265Y-75001120I-3782285J0D01*
G01*
D14*
X134365412Y-75001120D02*
G75*
G03X134365412Y-75001120I-4365672J0D01*
G01*
D12*
X133782025Y-75001120D02*
G75*
G03X133782025Y-75001120I-3782285J0D01*
G01*
D14*
X119366712Y-75001120D02*
G75*
G03X119366712Y-75001120I-4365672J0D01*
G01*
D12*
X118783325Y-75001120D02*
G75*
G03X118783325Y-75001120I-3782285J0D01*
G01*
D14*
X104365472Y-75001120D02*
G75*
G03X104365472Y-75001120I-4365672J0D01*
G01*
D12*
X103782085Y-75001120D02*
G75*
G03X103782085Y-75001120I-3782285J0D01*
G01*
D14*
X89366772Y-75001120D02*
G75*
G03X89366772Y-75001120I-4365672J0D01*
G01*
D12*
X88783385Y-75001120D02*
G75*
G03X88783385Y-75001120I-3782285J0D01*
G01*
D14*
X74365532Y-75001120D02*
G75*
G03X74365532Y-75001120I-4365672J0D01*
G01*
D12*
X73782145Y-75001120D02*
G75*
G03X73782145Y-75001120I-3782285J0D01*
G01*
D14*
X164365352Y-105001060D02*
G75*
G03X164365352Y-105001060I-4365672J0D01*
G01*
D12*
X163781965Y-105001060D02*
G75*
G03X163781965Y-105001060I-3782285J0D01*
G01*
D14*
X149366652Y-105001060D02*
G75*
G03X149366652Y-105001060I-4365672J0D01*
G01*
D12*
X148783265Y-105001060D02*
G75*
G03X148783265Y-105001060I-3782285J0D01*
G01*
D14*
X134365412Y-105001060D02*
G75*
G03X134365412Y-105001060I-4365672J0D01*
G01*
D12*
X133782025Y-105001060D02*
G75*
G03X133782025Y-105001060I-3782285J0D01*
G01*
D14*
X119366712Y-105001060D02*
G75*
G03X119366712Y-105001060I-4365672J0D01*
G01*
D12*
X118783325Y-105001060D02*
G75*
G03X118783325Y-105001060I-3782285J0D01*
G01*
D14*
X104365472Y-105001060D02*
G75*
G03X104365472Y-105001060I-4365672J0D01*
G01*
D12*
X103782085Y-105001060D02*
G75*
G03X103782085Y-105001060I-3782285J0D01*
G01*
D14*
X89366772Y-105001060D02*
G75*
G03X89366772Y-105001060I-4365672J0D01*
G01*
D12*
X88783385Y-105001060D02*
G75*
G03X88783385Y-105001060I-3782285J0D01*
G01*
D14*
X74365532Y-105001060D02*
G75*
G03X74365532Y-105001060I-4365672J0D01*
G01*
D12*
X73782145Y-105001060D02*
G75*
G03X73782145Y-105001060I-3782285J0D01*
G01*
D15*
X40132000Y-53975000D02*
X42418000Y-53975000D01*
X42418000Y-53975000D02*
X42418000Y-55245000D01*
X42418000Y-55245000D02*
X40132000Y-55245000D01*
X40132000Y-55245000D02*
X40132000Y-53975000D01*
D11*
X39370000Y-107950000D02*
X39370000Y-57150000D01*
X44450000Y-107950000D02*
X44450000Y-57150000D01*
X44450000Y-107950000D02*
X39370000Y-107950000D01*
X44450000Y-57150000D02*
X39370000Y-57150000D01*
D16*
X215925400Y-75946000D02*
X221005400Y-75946000D01*
X221005400Y-75946000D02*
X221005400Y-83566000D01*
X221005400Y-83566000D02*
X215925400Y-83566000D01*
X215925400Y-83566000D02*
X215925400Y-75946000D01*
X203174600Y-104343200D02*
X203174600Y-105613200D01*
X203174600Y-105613200D02*
X218414600Y-105613200D01*
X218414600Y-105613200D02*
X218414600Y-103073200D01*
X218414600Y-103073200D02*
X203174600Y-103073200D01*
X203174600Y-103073200D02*
X203174600Y-104343200D01*
X200634600Y-103073200D02*
X200634600Y-105613200D01*
X200634600Y-105613200D02*
X180314600Y-105613200D01*
X180314600Y-105613200D02*
X180314600Y-103073200D01*
X180314600Y-103073200D02*
X200634600Y-103073200D01*
X196850000Y-55880000D02*
X196850000Y-57150000D01*
X196850000Y-57150000D02*
X171450000Y-57150000D01*
X171450000Y-57150000D02*
X171450000Y-54610000D01*
X171450000Y-54610000D02*
X196850000Y-54610000D01*
X196850000Y-54610000D02*
X196850000Y-55880000D01*
X218460320Y-55880000D02*
X218460320Y-57150000D01*
X218460320Y-57150000D02*
X198140320Y-57150000D01*
X198140320Y-57150000D02*
X198140320Y-54610000D01*
X198140320Y-54610000D02*
X218460320Y-54610000D01*
X218460320Y-54610000D02*
X218460320Y-55930800D01*
D11*
X215925400Y-75946000D02*
X215925400Y-63246000D01*
X215925400Y-63246000D02*
X221005400Y-63246000D01*
X221005400Y-63246000D02*
X221005400Y-75946000D01*
X221005400Y-75946000D02*
X215925400Y-75946000D01*
D12*
X50675540Y-52499260D02*
G75*
G03X50675540Y-52499260I-3175000J0D01*
G01*
X50675540Y-112499140D02*
G75*
G03X50675540Y-112499140I-3175000J0D01*
G01*
X155674060Y-52499260D02*
G75*
G03X155674060Y-52499260I-3175000J0D01*
G01*
X155674060Y-112499140D02*
G75*
G03X155674060Y-112499140I-3175000J0D01*
G01*
X230675180Y-52499260D02*
G75*
G03X230675180Y-52499260I-3175000J0D01*
G01*
X230675180Y-112499140D02*
G75*
G03X230675180Y-112499140I-3175000J0D01*
G01*
X110675420Y-52499260D02*
G75*
G03X110675420Y-52499260I-3175000J0D01*
G01*
X110675420Y-112499140D02*
G75*
G03X110675420Y-112499140I-3175000J0D01*
G01*
D17*
X40825420Y-51884580D02*
X40825420Y-50985420D01*
X40825420Y-50985420D02*
X40426640Y-50985420D01*
X40426640Y-51884580D02*
X40426640Y-50985420D01*
X40825420Y-51884580D02*
X40426640Y-51884580D01*
X42123360Y-51884580D02*
X42123360Y-50985420D01*
X42123360Y-50985420D02*
X41724580Y-50985420D01*
X41724580Y-51884580D02*
X41724580Y-50985420D01*
X42123360Y-51884580D02*
X41724580Y-51884580D01*
X41275000Y-51884580D02*
X41275000Y-51734720D01*
X41275000Y-51734720D02*
X40975280Y-51734720D01*
X40975280Y-51884580D02*
X40975280Y-51734720D01*
X41275000Y-51884580D02*
X40975280Y-51884580D01*
X41275000Y-51135280D02*
X41275000Y-50985420D01*
X41275000Y-50985420D02*
X40975280Y-50985420D01*
X40975280Y-51135280D02*
X40975280Y-50985420D01*
X41275000Y-51135280D02*
X40975280Y-51135280D01*
X41275000Y-51584860D02*
X41275000Y-51285140D01*
X41275000Y-51285140D02*
X40975280Y-51285140D01*
X40975280Y-51584860D02*
X40975280Y-51285140D01*
X41275000Y-51584860D02*
X40975280Y-51584860D01*
D18*
X40825420Y-51833780D02*
X41724580Y-51833780D01*
X40825420Y-51036220D02*
X41724580Y-51036220D01*
D19*
X159074394Y-85264534D02*
X159074394Y-84502534D01*
X159364680Y-84502534D01*
X159437251Y-84538820D01*
X159473537Y-84575105D01*
X159509822Y-84647677D01*
X159509822Y-84756534D01*
X159473537Y-84829105D01*
X159437251Y-84865391D01*
X159364680Y-84901677D01*
X159074394Y-84901677D01*
X159800108Y-84575105D02*
X159836394Y-84538820D01*
X159908965Y-84502534D01*
X160090394Y-84502534D01*
X160162965Y-84538820D01*
X160199251Y-84575105D01*
X160235537Y-84647677D01*
X160235537Y-84720248D01*
X160199251Y-84829105D01*
X159763822Y-85264534D01*
X160235537Y-85264534D01*
X160489537Y-84502534D02*
X160997537Y-84502534D01*
X160670965Y-85264534D01*
X159074394Y-55264594D02*
X159074394Y-54502594D01*
X159364680Y-54502594D01*
X159437251Y-54538880D01*
X159473537Y-54575165D01*
X159509822Y-54647737D01*
X159509822Y-54756594D01*
X159473537Y-54829165D01*
X159437251Y-54865451D01*
X159364680Y-54901737D01*
X159074394Y-54901737D01*
X160235537Y-55264594D02*
X159800108Y-55264594D01*
X160017822Y-55264594D02*
X160017822Y-54502594D01*
X159945251Y-54611451D01*
X159872680Y-54684022D01*
X159800108Y-54720308D01*
X160598394Y-55264594D02*
X160743537Y-55264594D01*
X160816108Y-55228308D01*
X160852394Y-55192022D01*
X160924965Y-55083165D01*
X160961251Y-54938022D01*
X160961251Y-54647737D01*
X160924965Y-54575165D01*
X160888680Y-54538880D01*
X160816108Y-54502594D01*
X160670965Y-54502594D01*
X160598394Y-54538880D01*
X160562108Y-54575165D01*
X160525822Y-54647737D01*
X160525822Y-54829165D01*
X160562108Y-54901737D01*
X160598394Y-54938022D01*
X160670965Y-54974308D01*
X160816108Y-54974308D01*
X160888680Y-54938022D01*
X160924965Y-54901737D01*
X160961251Y-54829165D01*
X144075694Y-55264594D02*
X144075694Y-54502594D01*
X144365980Y-54502594D01*
X144438551Y-54538880D01*
X144474837Y-54575165D01*
X144511122Y-54647737D01*
X144511122Y-54756594D01*
X144474837Y-54829165D01*
X144438551Y-54865451D01*
X144365980Y-54901737D01*
X144075694Y-54901737D01*
X144801408Y-54575165D02*
X144837694Y-54538880D01*
X144910265Y-54502594D01*
X145091694Y-54502594D01*
X145164265Y-54538880D01*
X145200551Y-54575165D01*
X145236837Y-54647737D01*
X145236837Y-54720308D01*
X145200551Y-54829165D01*
X144765122Y-55264594D01*
X145236837Y-55264594D01*
X145708551Y-54502594D02*
X145781122Y-54502594D01*
X145853694Y-54538880D01*
X145889980Y-54575165D01*
X145926265Y-54647737D01*
X145962551Y-54792880D01*
X145962551Y-54974308D01*
X145926265Y-55119451D01*
X145889980Y-55192022D01*
X145853694Y-55228308D01*
X145781122Y-55264594D01*
X145708551Y-55264594D01*
X145635980Y-55228308D01*
X145599694Y-55192022D01*
X145563408Y-55119451D01*
X145527122Y-54974308D01*
X145527122Y-54792880D01*
X145563408Y-54647737D01*
X145599694Y-54575165D01*
X145635980Y-54538880D01*
X145708551Y-54502594D01*
X129074454Y-55264594D02*
X129074454Y-54502594D01*
X129364740Y-54502594D01*
X129437311Y-54538880D01*
X129473597Y-54575165D01*
X129509882Y-54647737D01*
X129509882Y-54756594D01*
X129473597Y-54829165D01*
X129437311Y-54865451D01*
X129364740Y-54901737D01*
X129074454Y-54901737D01*
X129800168Y-54575165D02*
X129836454Y-54538880D01*
X129909025Y-54502594D01*
X130090454Y-54502594D01*
X130163025Y-54538880D01*
X130199311Y-54575165D01*
X130235597Y-54647737D01*
X130235597Y-54720308D01*
X130199311Y-54829165D01*
X129763882Y-55264594D01*
X130235597Y-55264594D01*
X130961311Y-55264594D02*
X130525882Y-55264594D01*
X130743597Y-55264594D02*
X130743597Y-54502594D01*
X130671025Y-54611451D01*
X130598454Y-54684022D01*
X130525882Y-54720308D01*
X114075754Y-55264594D02*
X114075754Y-54502594D01*
X114366040Y-54502594D01*
X114438611Y-54538880D01*
X114474897Y-54575165D01*
X114511182Y-54647737D01*
X114511182Y-54756594D01*
X114474897Y-54829165D01*
X114438611Y-54865451D01*
X114366040Y-54901737D01*
X114075754Y-54901737D01*
X114801468Y-54575165D02*
X114837754Y-54538880D01*
X114910325Y-54502594D01*
X115091754Y-54502594D01*
X115164325Y-54538880D01*
X115200611Y-54575165D01*
X115236897Y-54647737D01*
X115236897Y-54720308D01*
X115200611Y-54829165D01*
X114765182Y-55264594D01*
X115236897Y-55264594D01*
X115527182Y-54575165D02*
X115563468Y-54538880D01*
X115636040Y-54502594D01*
X115817468Y-54502594D01*
X115890040Y-54538880D01*
X115926325Y-54575165D01*
X115962611Y-54647737D01*
X115962611Y-54720308D01*
X115926325Y-54829165D01*
X115490897Y-55264594D01*
X115962611Y-55264594D01*
X99074514Y-55264594D02*
X99074514Y-54502594D01*
X99364800Y-54502594D01*
X99437371Y-54538880D01*
X99473657Y-54575165D01*
X99509942Y-54647737D01*
X99509942Y-54756594D01*
X99473657Y-54829165D01*
X99437371Y-54865451D01*
X99364800Y-54901737D01*
X99074514Y-54901737D01*
X99800228Y-54575165D02*
X99836514Y-54538880D01*
X99909085Y-54502594D01*
X100090514Y-54502594D01*
X100163085Y-54538880D01*
X100199371Y-54575165D01*
X100235657Y-54647737D01*
X100235657Y-54720308D01*
X100199371Y-54829165D01*
X99763942Y-55264594D01*
X100235657Y-55264594D01*
X100489657Y-54502594D02*
X100961371Y-54502594D01*
X100707371Y-54792880D01*
X100816228Y-54792880D01*
X100888800Y-54829165D01*
X100925085Y-54865451D01*
X100961371Y-54938022D01*
X100961371Y-55119451D01*
X100925085Y-55192022D01*
X100888800Y-55228308D01*
X100816228Y-55264594D01*
X100598514Y-55264594D01*
X100525942Y-55228308D01*
X100489657Y-55192022D01*
X84075814Y-55264594D02*
X84075814Y-54502594D01*
X84366100Y-54502594D01*
X84438671Y-54538880D01*
X84474957Y-54575165D01*
X84511242Y-54647737D01*
X84511242Y-54756594D01*
X84474957Y-54829165D01*
X84438671Y-54865451D01*
X84366100Y-54901737D01*
X84075814Y-54901737D01*
X84801528Y-54575165D02*
X84837814Y-54538880D01*
X84910385Y-54502594D01*
X85091814Y-54502594D01*
X85164385Y-54538880D01*
X85200671Y-54575165D01*
X85236957Y-54647737D01*
X85236957Y-54720308D01*
X85200671Y-54829165D01*
X84765242Y-55264594D01*
X85236957Y-55264594D01*
X85890100Y-54756594D02*
X85890100Y-55264594D01*
X85708671Y-54466308D02*
X85527242Y-55010594D01*
X85998957Y-55010594D01*
X69074574Y-55264594D02*
X69074574Y-54502594D01*
X69364860Y-54502594D01*
X69437431Y-54538880D01*
X69473717Y-54575165D01*
X69510002Y-54647737D01*
X69510002Y-54756594D01*
X69473717Y-54829165D01*
X69437431Y-54865451D01*
X69364860Y-54901737D01*
X69074574Y-54901737D01*
X69800288Y-54575165D02*
X69836574Y-54538880D01*
X69909145Y-54502594D01*
X70090574Y-54502594D01*
X70163145Y-54538880D01*
X70199431Y-54575165D01*
X70235717Y-54647737D01*
X70235717Y-54720308D01*
X70199431Y-54829165D01*
X69764002Y-55264594D01*
X70235717Y-55264594D01*
X70925145Y-54502594D02*
X70562288Y-54502594D01*
X70526002Y-54865451D01*
X70562288Y-54829165D01*
X70634860Y-54792880D01*
X70816288Y-54792880D01*
X70888860Y-54829165D01*
X70925145Y-54865451D01*
X70961431Y-54938022D01*
X70961431Y-55119451D01*
X70925145Y-55192022D01*
X70888860Y-55228308D01*
X70816288Y-55264594D01*
X70634860Y-55264594D01*
X70562288Y-55228308D01*
X70526002Y-55192022D01*
X54075874Y-55264594D02*
X54075874Y-54502594D01*
X54366160Y-54502594D01*
X54438731Y-54538880D01*
X54475017Y-54575165D01*
X54511302Y-54647737D01*
X54511302Y-54756594D01*
X54475017Y-54829165D01*
X54438731Y-54865451D01*
X54366160Y-54901737D01*
X54075874Y-54901737D01*
X54801588Y-54575165D02*
X54837874Y-54538880D01*
X54910445Y-54502594D01*
X55091874Y-54502594D01*
X55164445Y-54538880D01*
X55200731Y-54575165D01*
X55237017Y-54647737D01*
X55237017Y-54720308D01*
X55200731Y-54829165D01*
X54765302Y-55264594D01*
X55237017Y-55264594D01*
X55890160Y-54502594D02*
X55745017Y-54502594D01*
X55672445Y-54538880D01*
X55636160Y-54575165D01*
X55563588Y-54684022D01*
X55527302Y-54829165D01*
X55527302Y-55119451D01*
X55563588Y-55192022D01*
X55599874Y-55228308D01*
X55672445Y-55264594D01*
X55817588Y-55264594D01*
X55890160Y-55228308D01*
X55926445Y-55192022D01*
X55962731Y-55119451D01*
X55962731Y-54938022D01*
X55926445Y-54865451D01*
X55890160Y-54829165D01*
X55817588Y-54792880D01*
X55672445Y-54792880D01*
X55599874Y-54829165D01*
X55563588Y-54865451D01*
X55527302Y-54938022D01*
X54075874Y-100265774D02*
X54075874Y-99503774D01*
X54366160Y-99503774D01*
X54438731Y-99540060D01*
X54475017Y-99576345D01*
X54511302Y-99648917D01*
X54511302Y-99757774D01*
X54475017Y-99830345D01*
X54438731Y-99866631D01*
X54366160Y-99902917D01*
X54075874Y-99902917D01*
X55237017Y-100265774D02*
X54801588Y-100265774D01*
X55019302Y-100265774D02*
X55019302Y-99503774D01*
X54946731Y-99612631D01*
X54874160Y-99685202D01*
X54801588Y-99721488D01*
X55491017Y-99503774D02*
X55999017Y-99503774D01*
X55672445Y-100265774D01*
X144075694Y-85264534D02*
X144075694Y-84502534D01*
X144365980Y-84502534D01*
X144438551Y-84538820D01*
X144474837Y-84575105D01*
X144511122Y-84647677D01*
X144511122Y-84756534D01*
X144474837Y-84829105D01*
X144438551Y-84865391D01*
X144365980Y-84901677D01*
X144075694Y-84901677D01*
X144801408Y-84575105D02*
X144837694Y-84538820D01*
X144910265Y-84502534D01*
X145091694Y-84502534D01*
X145164265Y-84538820D01*
X145200551Y-84575105D01*
X145236837Y-84647677D01*
X145236837Y-84720248D01*
X145200551Y-84829105D01*
X144765122Y-85264534D01*
X145236837Y-85264534D01*
X145672265Y-84829105D02*
X145599694Y-84792820D01*
X145563408Y-84756534D01*
X145527122Y-84683962D01*
X145527122Y-84647677D01*
X145563408Y-84575105D01*
X145599694Y-84538820D01*
X145672265Y-84502534D01*
X145817408Y-84502534D01*
X145889980Y-84538820D01*
X145926265Y-84575105D01*
X145962551Y-84647677D01*
X145962551Y-84683962D01*
X145926265Y-84756534D01*
X145889980Y-84792820D01*
X145817408Y-84829105D01*
X145672265Y-84829105D01*
X145599694Y-84865391D01*
X145563408Y-84901677D01*
X145527122Y-84974248D01*
X145527122Y-85119391D01*
X145563408Y-85191962D01*
X145599694Y-85228248D01*
X145672265Y-85264534D01*
X145817408Y-85264534D01*
X145889980Y-85228248D01*
X145926265Y-85191962D01*
X145962551Y-85119391D01*
X145962551Y-84974248D01*
X145926265Y-84901677D01*
X145889980Y-84865391D01*
X145817408Y-84829105D01*
X129074454Y-85264534D02*
X129074454Y-84502534D01*
X129364740Y-84502534D01*
X129437311Y-84538820D01*
X129473597Y-84575105D01*
X129509882Y-84647677D01*
X129509882Y-84756534D01*
X129473597Y-84829105D01*
X129437311Y-84865391D01*
X129364740Y-84901677D01*
X129074454Y-84901677D01*
X129800168Y-84575105D02*
X129836454Y-84538820D01*
X129909025Y-84502534D01*
X130090454Y-84502534D01*
X130163025Y-84538820D01*
X130199311Y-84575105D01*
X130235597Y-84647677D01*
X130235597Y-84720248D01*
X130199311Y-84829105D01*
X129763882Y-85264534D01*
X130235597Y-85264534D01*
X130598454Y-85264534D02*
X130743597Y-85264534D01*
X130816168Y-85228248D01*
X130852454Y-85191962D01*
X130925025Y-85083105D01*
X130961311Y-84937962D01*
X130961311Y-84647677D01*
X130925025Y-84575105D01*
X130888740Y-84538820D01*
X130816168Y-84502534D01*
X130671025Y-84502534D01*
X130598454Y-84538820D01*
X130562168Y-84575105D01*
X130525882Y-84647677D01*
X130525882Y-84829105D01*
X130562168Y-84901677D01*
X130598454Y-84937962D01*
X130671025Y-84974248D01*
X130816168Y-84974248D01*
X130888740Y-84937962D01*
X130925025Y-84901677D01*
X130961311Y-84829105D01*
X114075754Y-85264534D02*
X114075754Y-84502534D01*
X114366040Y-84502534D01*
X114438611Y-84538820D01*
X114474897Y-84575105D01*
X114511182Y-84647677D01*
X114511182Y-84756534D01*
X114474897Y-84829105D01*
X114438611Y-84865391D01*
X114366040Y-84901677D01*
X114075754Y-84901677D01*
X114765182Y-84502534D02*
X115236897Y-84502534D01*
X114982897Y-84792820D01*
X115091754Y-84792820D01*
X115164325Y-84829105D01*
X115200611Y-84865391D01*
X115236897Y-84937962D01*
X115236897Y-85119391D01*
X115200611Y-85191962D01*
X115164325Y-85228248D01*
X115091754Y-85264534D01*
X114874040Y-85264534D01*
X114801468Y-85228248D01*
X114765182Y-85191962D01*
X115708611Y-84502534D02*
X115781182Y-84502534D01*
X115853754Y-84538820D01*
X115890040Y-84575105D01*
X115926325Y-84647677D01*
X115962611Y-84792820D01*
X115962611Y-84974248D01*
X115926325Y-85119391D01*
X115890040Y-85191962D01*
X115853754Y-85228248D01*
X115781182Y-85264534D01*
X115708611Y-85264534D01*
X115636040Y-85228248D01*
X115599754Y-85191962D01*
X115563468Y-85119391D01*
X115527182Y-84974248D01*
X115527182Y-84792820D01*
X115563468Y-84647677D01*
X115599754Y-84575105D01*
X115636040Y-84538820D01*
X115708611Y-84502534D01*
X99074514Y-85264534D02*
X99074514Y-84502534D01*
X99364800Y-84502534D01*
X99437371Y-84538820D01*
X99473657Y-84575105D01*
X99509942Y-84647677D01*
X99509942Y-84756534D01*
X99473657Y-84829105D01*
X99437371Y-84865391D01*
X99364800Y-84901677D01*
X99074514Y-84901677D01*
X99763942Y-84502534D02*
X100235657Y-84502534D01*
X99981657Y-84792820D01*
X100090514Y-84792820D01*
X100163085Y-84829105D01*
X100199371Y-84865391D01*
X100235657Y-84937962D01*
X100235657Y-85119391D01*
X100199371Y-85191962D01*
X100163085Y-85228248D01*
X100090514Y-85264534D01*
X99872800Y-85264534D01*
X99800228Y-85228248D01*
X99763942Y-85191962D01*
X100961371Y-85264534D02*
X100525942Y-85264534D01*
X100743657Y-85264534D02*
X100743657Y-84502534D01*
X100671085Y-84611391D01*
X100598514Y-84683962D01*
X100525942Y-84720248D01*
X84075814Y-85264534D02*
X84075814Y-84502534D01*
X84366100Y-84502534D01*
X84438671Y-84538820D01*
X84474957Y-84575105D01*
X84511242Y-84647677D01*
X84511242Y-84756534D01*
X84474957Y-84829105D01*
X84438671Y-84865391D01*
X84366100Y-84901677D01*
X84075814Y-84901677D01*
X84765242Y-84502534D02*
X85236957Y-84502534D01*
X84982957Y-84792820D01*
X85091814Y-84792820D01*
X85164385Y-84829105D01*
X85200671Y-84865391D01*
X85236957Y-84937962D01*
X85236957Y-85119391D01*
X85200671Y-85191962D01*
X85164385Y-85228248D01*
X85091814Y-85264534D01*
X84874100Y-85264534D01*
X84801528Y-85228248D01*
X84765242Y-85191962D01*
X85527242Y-84575105D02*
X85563528Y-84538820D01*
X85636100Y-84502534D01*
X85817528Y-84502534D01*
X85890100Y-84538820D01*
X85926385Y-84575105D01*
X85962671Y-84647677D01*
X85962671Y-84720248D01*
X85926385Y-84829105D01*
X85490957Y-85264534D01*
X85962671Y-85264534D01*
X69074574Y-85264534D02*
X69074574Y-84502534D01*
X69364860Y-84502534D01*
X69437431Y-84538820D01*
X69473717Y-84575105D01*
X69510002Y-84647677D01*
X69510002Y-84756534D01*
X69473717Y-84829105D01*
X69437431Y-84865391D01*
X69364860Y-84901677D01*
X69074574Y-84901677D01*
X69764002Y-84502534D02*
X70235717Y-84502534D01*
X69981717Y-84792820D01*
X70090574Y-84792820D01*
X70163145Y-84829105D01*
X70199431Y-84865391D01*
X70235717Y-84937962D01*
X70235717Y-85119391D01*
X70199431Y-85191962D01*
X70163145Y-85228248D01*
X70090574Y-85264534D01*
X69872860Y-85264534D01*
X69800288Y-85228248D01*
X69764002Y-85191962D01*
X70489717Y-84502534D02*
X70961431Y-84502534D01*
X70707431Y-84792820D01*
X70816288Y-84792820D01*
X70888860Y-84829105D01*
X70925145Y-84865391D01*
X70961431Y-84937962D01*
X70961431Y-85119391D01*
X70925145Y-85191962D01*
X70888860Y-85228248D01*
X70816288Y-85264534D01*
X70598574Y-85264534D01*
X70526002Y-85228248D01*
X70489717Y-85191962D01*
X54075874Y-85264534D02*
X54075874Y-84502534D01*
X54366160Y-84502534D01*
X54438731Y-84538820D01*
X54475017Y-84575105D01*
X54511302Y-84647677D01*
X54511302Y-84756534D01*
X54475017Y-84829105D01*
X54438731Y-84865391D01*
X54366160Y-84901677D01*
X54075874Y-84901677D01*
X54765302Y-84502534D02*
X55237017Y-84502534D01*
X54983017Y-84792820D01*
X55091874Y-84792820D01*
X55164445Y-84829105D01*
X55200731Y-84865391D01*
X55237017Y-84937962D01*
X55237017Y-85119391D01*
X55200731Y-85191962D01*
X55164445Y-85228248D01*
X55091874Y-85264534D01*
X54874160Y-85264534D01*
X54801588Y-85228248D01*
X54765302Y-85191962D01*
X55890160Y-84756534D02*
X55890160Y-85264534D01*
X55708731Y-84466248D02*
X55527302Y-85010534D01*
X55999017Y-85010534D01*
X54438731Y-70265834D02*
X54438731Y-69503834D01*
X54729017Y-69503834D01*
X54801588Y-69540120D01*
X54837874Y-69576405D01*
X54874160Y-69648977D01*
X54874160Y-69757834D01*
X54837874Y-69830405D01*
X54801588Y-69866691D01*
X54729017Y-69902977D01*
X54438731Y-69902977D01*
X55237017Y-70265834D02*
X55382160Y-70265834D01*
X55454731Y-70229548D01*
X55491017Y-70193262D01*
X55563588Y-70084405D01*
X55599874Y-69939262D01*
X55599874Y-69648977D01*
X55563588Y-69576405D01*
X55527302Y-69540120D01*
X55454731Y-69503834D01*
X55309588Y-69503834D01*
X55237017Y-69540120D01*
X55200731Y-69576405D01*
X55164445Y-69648977D01*
X55164445Y-69830405D01*
X55200731Y-69902977D01*
X55237017Y-69939262D01*
X55309588Y-69975548D01*
X55454731Y-69975548D01*
X55527302Y-69939262D01*
X55563588Y-69902977D01*
X55599874Y-69830405D01*
X174438491Y-77763914D02*
X174438491Y-77001914D01*
X174728777Y-77001914D01*
X174801348Y-77038200D01*
X174837634Y-77074485D01*
X174873920Y-77147057D01*
X174873920Y-77255914D01*
X174837634Y-77328485D01*
X174801348Y-77364771D01*
X174728777Y-77401057D01*
X174438491Y-77401057D01*
X175599634Y-77763914D02*
X175164205Y-77763914D01*
X175381920Y-77763914D02*
X175381920Y-77001914D01*
X175309348Y-77110771D01*
X175236777Y-77183342D01*
X175164205Y-77219628D01*
X159437251Y-70265834D02*
X159437251Y-69503834D01*
X159727537Y-69503834D01*
X159800108Y-69540120D01*
X159836394Y-69576405D01*
X159872680Y-69648977D01*
X159872680Y-69757834D01*
X159836394Y-69830405D01*
X159800108Y-69866691D01*
X159727537Y-69902977D01*
X159437251Y-69902977D01*
X160162965Y-69576405D02*
X160199251Y-69540120D01*
X160271822Y-69503834D01*
X160453251Y-69503834D01*
X160525822Y-69540120D01*
X160562108Y-69576405D01*
X160598394Y-69648977D01*
X160598394Y-69721548D01*
X160562108Y-69830405D01*
X160126680Y-70265834D01*
X160598394Y-70265834D01*
X144438551Y-70265834D02*
X144438551Y-69503834D01*
X144728837Y-69503834D01*
X144801408Y-69540120D01*
X144837694Y-69576405D01*
X144873980Y-69648977D01*
X144873980Y-69757834D01*
X144837694Y-69830405D01*
X144801408Y-69866691D01*
X144728837Y-69902977D01*
X144438551Y-69902977D01*
X145127980Y-69503834D02*
X145599694Y-69503834D01*
X145345694Y-69794120D01*
X145454551Y-69794120D01*
X145527122Y-69830405D01*
X145563408Y-69866691D01*
X145599694Y-69939262D01*
X145599694Y-70120691D01*
X145563408Y-70193262D01*
X145527122Y-70229548D01*
X145454551Y-70265834D01*
X145236837Y-70265834D01*
X145164265Y-70229548D01*
X145127980Y-70193262D01*
X129437311Y-70265834D02*
X129437311Y-69503834D01*
X129727597Y-69503834D01*
X129800168Y-69540120D01*
X129836454Y-69576405D01*
X129872740Y-69648977D01*
X129872740Y-69757834D01*
X129836454Y-69830405D01*
X129800168Y-69866691D01*
X129727597Y-69902977D01*
X129437311Y-69902977D01*
X130525882Y-69757834D02*
X130525882Y-70265834D01*
X130344454Y-69467548D02*
X130163025Y-70011834D01*
X130634740Y-70011834D01*
X114438611Y-70265834D02*
X114438611Y-69503834D01*
X114728897Y-69503834D01*
X114801468Y-69540120D01*
X114837754Y-69576405D01*
X114874040Y-69648977D01*
X114874040Y-69757834D01*
X114837754Y-69830405D01*
X114801468Y-69866691D01*
X114728897Y-69902977D01*
X114438611Y-69902977D01*
X115563468Y-69503834D02*
X115200611Y-69503834D01*
X115164325Y-69866691D01*
X115200611Y-69830405D01*
X115273182Y-69794120D01*
X115454611Y-69794120D01*
X115527182Y-69830405D01*
X115563468Y-69866691D01*
X115599754Y-69939262D01*
X115599754Y-70120691D01*
X115563468Y-70193262D01*
X115527182Y-70229548D01*
X115454611Y-70265834D01*
X115273182Y-70265834D01*
X115200611Y-70229548D01*
X115164325Y-70193262D01*
X99437371Y-70265834D02*
X99437371Y-69503834D01*
X99727657Y-69503834D01*
X99800228Y-69540120D01*
X99836514Y-69576405D01*
X99872800Y-69648977D01*
X99872800Y-69757834D01*
X99836514Y-69830405D01*
X99800228Y-69866691D01*
X99727657Y-69902977D01*
X99437371Y-69902977D01*
X100525942Y-69503834D02*
X100380800Y-69503834D01*
X100308228Y-69540120D01*
X100271942Y-69576405D01*
X100199371Y-69685262D01*
X100163085Y-69830405D01*
X100163085Y-70120691D01*
X100199371Y-70193262D01*
X100235657Y-70229548D01*
X100308228Y-70265834D01*
X100453371Y-70265834D01*
X100525942Y-70229548D01*
X100562228Y-70193262D01*
X100598514Y-70120691D01*
X100598514Y-69939262D01*
X100562228Y-69866691D01*
X100525942Y-69830405D01*
X100453371Y-69794120D01*
X100308228Y-69794120D01*
X100235657Y-69830405D01*
X100199371Y-69866691D01*
X100163085Y-69939262D01*
X84438671Y-70265834D02*
X84438671Y-69503834D01*
X84728957Y-69503834D01*
X84801528Y-69540120D01*
X84837814Y-69576405D01*
X84874100Y-69648977D01*
X84874100Y-69757834D01*
X84837814Y-69830405D01*
X84801528Y-69866691D01*
X84728957Y-69902977D01*
X84438671Y-69902977D01*
X85128100Y-69503834D02*
X85636100Y-69503834D01*
X85309528Y-70265834D01*
X69437431Y-70265834D02*
X69437431Y-69503834D01*
X69727717Y-69503834D01*
X69800288Y-69540120D01*
X69836574Y-69576405D01*
X69872860Y-69648977D01*
X69872860Y-69757834D01*
X69836574Y-69830405D01*
X69800288Y-69866691D01*
X69727717Y-69902977D01*
X69437431Y-69902977D01*
X70308288Y-69830405D02*
X70235717Y-69794120D01*
X70199431Y-69757834D01*
X70163145Y-69685262D01*
X70163145Y-69648977D01*
X70199431Y-69576405D01*
X70235717Y-69540120D01*
X70308288Y-69503834D01*
X70453431Y-69503834D01*
X70526002Y-69540120D01*
X70562288Y-69576405D01*
X70598574Y-69648977D01*
X70598574Y-69685262D01*
X70562288Y-69757834D01*
X70526002Y-69794120D01*
X70453431Y-69830405D01*
X70308288Y-69830405D01*
X70235717Y-69866691D01*
X70199431Y-69902977D01*
X70163145Y-69975548D01*
X70163145Y-70120691D01*
X70199431Y-70193262D01*
X70235717Y-70229548D01*
X70308288Y-70265834D01*
X70453431Y-70265834D01*
X70526002Y-70229548D01*
X70562288Y-70193262D01*
X70598574Y-70120691D01*
X70598574Y-69975548D01*
X70562288Y-69902977D01*
X70526002Y-69866691D01*
X70453431Y-69830405D01*
X159074394Y-100265774D02*
X159074394Y-99503774D01*
X159364680Y-99503774D01*
X159437251Y-99540060D01*
X159473537Y-99576345D01*
X159509822Y-99648917D01*
X159509822Y-99757774D01*
X159473537Y-99830345D01*
X159437251Y-99866631D01*
X159364680Y-99902917D01*
X159074394Y-99902917D01*
X160235537Y-100265774D02*
X159800108Y-100265774D01*
X160017822Y-100265774D02*
X160017822Y-99503774D01*
X159945251Y-99612631D01*
X159872680Y-99685202D01*
X159800108Y-99721488D01*
X160707251Y-99503774D02*
X160779822Y-99503774D01*
X160852394Y-99540060D01*
X160888680Y-99576345D01*
X160924965Y-99648917D01*
X160961251Y-99794060D01*
X160961251Y-99975488D01*
X160924965Y-100120631D01*
X160888680Y-100193202D01*
X160852394Y-100229488D01*
X160779822Y-100265774D01*
X160707251Y-100265774D01*
X160634680Y-100229488D01*
X160598394Y-100193202D01*
X160562108Y-100120631D01*
X160525822Y-99975488D01*
X160525822Y-99794060D01*
X160562108Y-99648917D01*
X160598394Y-99576345D01*
X160634680Y-99540060D01*
X160707251Y-99503774D01*
X144075694Y-100265774D02*
X144075694Y-99503774D01*
X144365980Y-99503774D01*
X144438551Y-99540060D01*
X144474837Y-99576345D01*
X144511122Y-99648917D01*
X144511122Y-99757774D01*
X144474837Y-99830345D01*
X144438551Y-99866631D01*
X144365980Y-99902917D01*
X144075694Y-99902917D01*
X145236837Y-100265774D02*
X144801408Y-100265774D01*
X145019122Y-100265774D02*
X145019122Y-99503774D01*
X144946551Y-99612631D01*
X144873980Y-99685202D01*
X144801408Y-99721488D01*
X145962551Y-100265774D02*
X145527122Y-100265774D01*
X145744837Y-100265774D02*
X145744837Y-99503774D01*
X145672265Y-99612631D01*
X145599694Y-99685202D01*
X145527122Y-99721488D01*
X129074454Y-100265774D02*
X129074454Y-99503774D01*
X129364740Y-99503774D01*
X129437311Y-99540060D01*
X129473597Y-99576345D01*
X129509882Y-99648917D01*
X129509882Y-99757774D01*
X129473597Y-99830345D01*
X129437311Y-99866631D01*
X129364740Y-99902917D01*
X129074454Y-99902917D01*
X130235597Y-100265774D02*
X129800168Y-100265774D01*
X130017882Y-100265774D02*
X130017882Y-99503774D01*
X129945311Y-99612631D01*
X129872740Y-99685202D01*
X129800168Y-99721488D01*
X130525882Y-99576345D02*
X130562168Y-99540060D01*
X130634740Y-99503774D01*
X130816168Y-99503774D01*
X130888740Y-99540060D01*
X130925025Y-99576345D01*
X130961311Y-99648917D01*
X130961311Y-99721488D01*
X130925025Y-99830345D01*
X130489597Y-100265774D01*
X130961311Y-100265774D01*
X114075754Y-100265774D02*
X114075754Y-99503774D01*
X114366040Y-99503774D01*
X114438611Y-99540060D01*
X114474897Y-99576345D01*
X114511182Y-99648917D01*
X114511182Y-99757774D01*
X114474897Y-99830345D01*
X114438611Y-99866631D01*
X114366040Y-99902917D01*
X114075754Y-99902917D01*
X115236897Y-100265774D02*
X114801468Y-100265774D01*
X115019182Y-100265774D02*
X115019182Y-99503774D01*
X114946611Y-99612631D01*
X114874040Y-99685202D01*
X114801468Y-99721488D01*
X115490897Y-99503774D02*
X115962611Y-99503774D01*
X115708611Y-99794060D01*
X115817468Y-99794060D01*
X115890040Y-99830345D01*
X115926325Y-99866631D01*
X115962611Y-99939202D01*
X115962611Y-100120631D01*
X115926325Y-100193202D01*
X115890040Y-100229488D01*
X115817468Y-100265774D01*
X115599754Y-100265774D01*
X115527182Y-100229488D01*
X115490897Y-100193202D01*
X99074514Y-100265774D02*
X99074514Y-99503774D01*
X99364800Y-99503774D01*
X99437371Y-99540060D01*
X99473657Y-99576345D01*
X99509942Y-99648917D01*
X99509942Y-99757774D01*
X99473657Y-99830345D01*
X99437371Y-99866631D01*
X99364800Y-99902917D01*
X99074514Y-99902917D01*
X100235657Y-100265774D02*
X99800228Y-100265774D01*
X100017942Y-100265774D02*
X100017942Y-99503774D01*
X99945371Y-99612631D01*
X99872800Y-99685202D01*
X99800228Y-99721488D01*
X100888800Y-99757774D02*
X100888800Y-100265774D01*
X100707371Y-99467488D02*
X100525942Y-100011774D01*
X100997657Y-100011774D01*
X84075814Y-100265774D02*
X84075814Y-99503774D01*
X84366100Y-99503774D01*
X84438671Y-99540060D01*
X84474957Y-99576345D01*
X84511242Y-99648917D01*
X84511242Y-99757774D01*
X84474957Y-99830345D01*
X84438671Y-99866631D01*
X84366100Y-99902917D01*
X84075814Y-99902917D01*
X85236957Y-100265774D02*
X84801528Y-100265774D01*
X85019242Y-100265774D02*
X85019242Y-99503774D01*
X84946671Y-99612631D01*
X84874100Y-99685202D01*
X84801528Y-99721488D01*
X85926385Y-99503774D02*
X85563528Y-99503774D01*
X85527242Y-99866631D01*
X85563528Y-99830345D01*
X85636100Y-99794060D01*
X85817528Y-99794060D01*
X85890100Y-99830345D01*
X85926385Y-99866631D01*
X85962671Y-99939202D01*
X85962671Y-100120631D01*
X85926385Y-100193202D01*
X85890100Y-100229488D01*
X85817528Y-100265774D01*
X85636100Y-100265774D01*
X85563528Y-100229488D01*
X85527242Y-100193202D01*
X69074574Y-100265774D02*
X69074574Y-99503774D01*
X69364860Y-99503774D01*
X69437431Y-99540060D01*
X69473717Y-99576345D01*
X69510002Y-99648917D01*
X69510002Y-99757774D01*
X69473717Y-99830345D01*
X69437431Y-99866631D01*
X69364860Y-99902917D01*
X69074574Y-99902917D01*
X70235717Y-100265774D02*
X69800288Y-100265774D01*
X70018002Y-100265774D02*
X70018002Y-99503774D01*
X69945431Y-99612631D01*
X69872860Y-99685202D01*
X69800288Y-99721488D01*
X70888860Y-99503774D02*
X70743717Y-99503774D01*
X70671145Y-99540060D01*
X70634860Y-99576345D01*
X70562288Y-99685202D01*
X70526002Y-99830345D01*
X70526002Y-100120631D01*
X70562288Y-100193202D01*
X70598574Y-100229488D01*
X70671145Y-100265774D01*
X70816288Y-100265774D01*
X70888860Y-100229488D01*
X70925145Y-100193202D01*
X70961431Y-100120631D01*
X70961431Y-99939202D01*
X70925145Y-99866631D01*
X70888860Y-99830345D01*
X70816288Y-99794060D01*
X70671145Y-99794060D01*
X70598574Y-99830345D01*
X70562288Y-99866631D01*
X70526002Y-99939202D01*
D20*
X41424860Y-56229189D02*
X41272460Y-55987284D01*
X41163602Y-56229189D02*
X41163602Y-55721189D01*
X41337774Y-55721189D01*
X41381317Y-55745380D01*
X41403088Y-55769570D01*
X41424860Y-55817951D01*
X41424860Y-55890522D01*
X41403088Y-55938903D01*
X41381317Y-55963094D01*
X41337774Y-55987284D01*
X41163602Y-55987284D01*
X41860288Y-56229189D02*
X41599031Y-56229189D01*
X41729660Y-56229189D02*
X41729660Y-55721189D01*
X41686117Y-55793760D01*
X41642574Y-55842141D01*
X41599031Y-55866332D01*
D16*
X46179619Y-83783714D02*
X45163619Y-83783714D01*
X45163619Y-83396666D01*
X45212000Y-83299904D01*
X45260380Y-83251523D01*
X45357142Y-83203142D01*
X45502285Y-83203142D01*
X45599047Y-83251523D01*
X45647428Y-83299904D01*
X45695809Y-83396666D01*
X45695809Y-83783714D01*
X46179619Y-82235523D02*
X46179619Y-82816095D01*
X46179619Y-82525809D02*
X45163619Y-82525809D01*
X45308761Y-82622571D01*
X45405523Y-82719333D01*
X45453904Y-82816095D01*
X45599047Y-81654952D02*
X45550666Y-81751714D01*
X45502285Y-81800095D01*
X45405523Y-81848476D01*
X45357142Y-81848476D01*
X45260380Y-81800095D01*
X45212000Y-81751714D01*
X45163619Y-81654952D01*
X45163619Y-81461428D01*
X45212000Y-81364666D01*
X45260380Y-81316285D01*
X45357142Y-81267904D01*
X45405523Y-81267904D01*
X45502285Y-81316285D01*
X45550666Y-81364666D01*
X45599047Y-81461428D01*
X45599047Y-81654952D01*
X45647428Y-81751714D01*
X45695809Y-81800095D01*
X45792571Y-81848476D01*
X45986095Y-81848476D01*
X46082857Y-81800095D01*
X46131238Y-81751714D01*
X46179619Y-81654952D01*
X46179619Y-81461428D01*
X46131238Y-81364666D01*
X46082857Y-81316285D01*
X45986095Y-81267904D01*
X45792571Y-81267904D01*
X45695809Y-81316285D01*
X45647428Y-81364666D01*
X45599047Y-81461428D01*
D10*
X38462857Y-86154380D02*
X38511238Y-86202761D01*
X38559619Y-86347904D01*
X38559619Y-86444666D01*
X38511238Y-86589809D01*
X38414476Y-86686571D01*
X38317714Y-86734952D01*
X38124190Y-86783333D01*
X37979047Y-86783333D01*
X37785523Y-86734952D01*
X37688761Y-86686571D01*
X37592000Y-86589809D01*
X37543619Y-86444666D01*
X37543619Y-86347904D01*
X37592000Y-86202761D01*
X37640380Y-86154380D01*
X37543619Y-85525428D02*
X37543619Y-85331904D01*
X37592000Y-85235142D01*
X37688761Y-85138380D01*
X37882285Y-85090000D01*
X38220952Y-85090000D01*
X38414476Y-85138380D01*
X38511238Y-85235142D01*
X38559619Y-85331904D01*
X38559619Y-85525428D01*
X38511238Y-85622190D01*
X38414476Y-85718952D01*
X38220952Y-85767333D01*
X37882285Y-85767333D01*
X37688761Y-85718952D01*
X37592000Y-85622190D01*
X37543619Y-85525428D01*
X38559619Y-84654571D02*
X37543619Y-84654571D01*
X38559619Y-84074000D01*
X37543619Y-84074000D01*
X38559619Y-83590190D02*
X37543619Y-83590190D01*
X38559619Y-83009619D01*
X37543619Y-83009619D01*
X38656380Y-82767714D02*
X38656380Y-81993619D01*
X37640380Y-81800095D02*
X37592000Y-81751714D01*
X37543619Y-81654952D01*
X37543619Y-81413047D01*
X37592000Y-81316285D01*
X37640380Y-81267904D01*
X37737142Y-81219523D01*
X37833904Y-81219523D01*
X37979047Y-81267904D01*
X38559619Y-81848476D01*
X38559619Y-81219523D01*
X37543619Y-80590571D02*
X37543619Y-80493809D01*
X37592000Y-80397047D01*
X37640380Y-80348666D01*
X37737142Y-80300285D01*
X37930666Y-80251904D01*
X38172571Y-80251904D01*
X38366095Y-80300285D01*
X38462857Y-80348666D01*
X38511238Y-80397047D01*
X38559619Y-80493809D01*
X38559619Y-80590571D01*
X38511238Y-80687333D01*
X38462857Y-80735714D01*
X38366095Y-80784095D01*
X38172571Y-80832476D01*
X37930666Y-80832476D01*
X37737142Y-80784095D01*
X37640380Y-80735714D01*
X37592000Y-80687333D01*
X37543619Y-80590571D01*
X37543619Y-79913238D02*
X38559619Y-79235904D01*
X37543619Y-79235904D02*
X38559619Y-79913238D01*
X37640380Y-78897238D02*
X37592000Y-78848857D01*
X37543619Y-78752095D01*
X37543619Y-78510190D01*
X37592000Y-78413428D01*
X37640380Y-78365047D01*
X37737142Y-78316666D01*
X37833904Y-78316666D01*
X37979047Y-78365047D01*
X38559619Y-78945619D01*
X38559619Y-78316666D01*
X181993419Y-100215941D02*
X181509609Y-100554608D01*
X181993419Y-100796513D02*
X180977419Y-100796513D01*
X180977419Y-100409465D01*
X181025800Y-100312703D01*
X181074180Y-100264322D01*
X181170942Y-100215941D01*
X181316085Y-100215941D01*
X181412847Y-100264322D01*
X181461228Y-100312703D01*
X181509609Y-100409465D01*
X181509609Y-100796513D01*
X181945038Y-99828894D02*
X181993419Y-99683751D01*
X181993419Y-99441846D01*
X181945038Y-99345084D01*
X181896657Y-99296703D01*
X181799895Y-99248322D01*
X181703133Y-99248322D01*
X181606371Y-99296703D01*
X181557990Y-99345084D01*
X181509609Y-99441846D01*
X181461228Y-99635370D01*
X181412847Y-99732132D01*
X181364466Y-99780513D01*
X181267704Y-99828894D01*
X181170942Y-99828894D01*
X181074180Y-99780513D01*
X181025800Y-99732132D01*
X180977419Y-99635370D01*
X180977419Y-99393465D01*
X181025800Y-99248322D01*
X180977419Y-98958037D02*
X181993419Y-98619370D01*
X180977419Y-98280703D01*
X181993419Y-97942037D02*
X180977419Y-97942037D01*
X180977419Y-97700132D01*
X181025800Y-97554989D01*
X181122561Y-97458227D01*
X181219323Y-97409846D01*
X181412847Y-97361465D01*
X181557990Y-97361465D01*
X181751514Y-97409846D01*
X181848276Y-97458227D01*
X181945038Y-97554989D01*
X181993419Y-97700132D01*
X181993419Y-97942037D01*
X184533419Y-100530418D02*
X183517419Y-100530418D01*
X183517419Y-99853084D02*
X183517419Y-99659560D01*
X183565800Y-99562799D01*
X183662561Y-99466037D01*
X183856085Y-99417656D01*
X184194752Y-99417656D01*
X184388276Y-99466037D01*
X184485038Y-99562799D01*
X184533419Y-99659560D01*
X184533419Y-99853084D01*
X184485038Y-99949846D01*
X184388276Y-100046608D01*
X184194752Y-100094989D01*
X183856085Y-100094989D01*
X183662561Y-100046608D01*
X183565800Y-99949846D01*
X183517419Y-99853084D01*
X184533419Y-98401656D02*
X184049609Y-98740322D01*
X184533419Y-98982227D02*
X183517419Y-98982227D01*
X183517419Y-98595180D01*
X183565800Y-98498418D01*
X183614180Y-98450037D01*
X183710942Y-98401656D01*
X183856085Y-98401656D01*
X183952847Y-98450037D01*
X184001228Y-98498418D01*
X184049609Y-98595180D01*
X184049609Y-98982227D01*
X184001228Y-97966227D02*
X184001228Y-97627560D01*
X184533419Y-97482418D02*
X184533419Y-97966227D01*
X183517419Y-97966227D01*
X183517419Y-97482418D01*
X184001228Y-96708322D02*
X184001228Y-97046989D01*
X184533419Y-97046989D02*
X183517419Y-97046989D01*
X183517419Y-96563180D01*
X187073419Y-100070799D02*
X186589609Y-100409465D01*
X187073419Y-100651370D02*
X186057419Y-100651370D01*
X186057419Y-100264322D01*
X186105800Y-100167560D01*
X186154180Y-100119180D01*
X186250942Y-100070799D01*
X186396085Y-100070799D01*
X186492847Y-100119180D01*
X186541228Y-100167560D01*
X186589609Y-100264322D01*
X186589609Y-100651370D01*
X186541228Y-99635370D02*
X186541228Y-99296703D01*
X187073419Y-99151560D02*
X187073419Y-99635370D01*
X186057419Y-99635370D01*
X186057419Y-99151560D01*
X187025038Y-98764513D02*
X187073419Y-98619370D01*
X187073419Y-98377465D01*
X187025038Y-98280703D01*
X186976657Y-98232322D01*
X186879895Y-98183941D01*
X186783133Y-98183941D01*
X186686371Y-98232322D01*
X186637990Y-98280703D01*
X186589609Y-98377465D01*
X186541228Y-98570989D01*
X186492847Y-98667751D01*
X186444466Y-98716132D01*
X186347704Y-98764513D01*
X186250942Y-98764513D01*
X186154180Y-98716132D01*
X186105800Y-98667751D01*
X186057419Y-98570989D01*
X186057419Y-98329084D01*
X186105800Y-98183941D01*
X186541228Y-97748513D02*
X186541228Y-97409846D01*
X187073419Y-97264703D02*
X187073419Y-97748513D01*
X186057419Y-97748513D01*
X186057419Y-97264703D01*
X186057419Y-96974418D02*
X186057419Y-96393846D01*
X187073419Y-96684132D02*
X186057419Y-96684132D01*
X188597419Y-100602989D02*
X188597419Y-99974037D01*
X188984466Y-100312703D01*
X188984466Y-100167560D01*
X189032847Y-100070799D01*
X189081228Y-100022418D01*
X189177990Y-99974037D01*
X189419895Y-99974037D01*
X189516657Y-100022418D01*
X189565038Y-100070799D01*
X189613419Y-100167560D01*
X189613419Y-100457846D01*
X189565038Y-100554608D01*
X189516657Y-100602989D01*
X189516657Y-99538608D02*
X189565038Y-99490227D01*
X189613419Y-99538608D01*
X189565038Y-99586989D01*
X189516657Y-99538608D01*
X189613419Y-99538608D01*
X188597419Y-99151560D02*
X188597419Y-98522608D01*
X188984466Y-98861275D01*
X188984466Y-98716132D01*
X189032847Y-98619370D01*
X189081228Y-98570989D01*
X189177990Y-98522608D01*
X189419895Y-98522608D01*
X189516657Y-98570989D01*
X189565038Y-98619370D01*
X189613419Y-98716132D01*
X189613419Y-99006418D01*
X189565038Y-99103180D01*
X189516657Y-99151560D01*
X188597419Y-98232322D02*
X189613419Y-97893656D01*
X188597419Y-97554989D01*
X191137419Y-100312703D02*
X191137419Y-100796513D01*
X191621228Y-100844894D01*
X191572847Y-100796513D01*
X191524466Y-100699751D01*
X191524466Y-100457846D01*
X191572847Y-100361084D01*
X191621228Y-100312703D01*
X191717990Y-100264322D01*
X191959895Y-100264322D01*
X192056657Y-100312703D01*
X192105038Y-100361084D01*
X192153419Y-100457846D01*
X192153419Y-100699751D01*
X192105038Y-100796513D01*
X192056657Y-100844894D01*
X191137419Y-99974037D02*
X192153419Y-99635370D01*
X191137419Y-99296703D01*
X193725800Y-100385275D02*
X193677419Y-100482037D01*
X193677419Y-100627180D01*
X193725800Y-100772322D01*
X193822561Y-100869084D01*
X193919323Y-100917465D01*
X194112847Y-100965846D01*
X194257990Y-100965846D01*
X194451514Y-100917465D01*
X194548276Y-100869084D01*
X194645038Y-100772322D01*
X194693419Y-100627180D01*
X194693419Y-100530418D01*
X194645038Y-100385275D01*
X194596657Y-100336894D01*
X194257990Y-100336894D01*
X194257990Y-100530418D01*
X194693419Y-99901465D02*
X193677419Y-99901465D01*
X194693419Y-99320894D01*
X193677419Y-99320894D01*
X194693419Y-98837084D02*
X193677419Y-98837084D01*
X193677419Y-98595180D01*
X193725800Y-98450037D01*
X193822561Y-98353275D01*
X193919323Y-98304894D01*
X194112847Y-98256513D01*
X194257990Y-98256513D01*
X194451514Y-98304894D01*
X194548276Y-98353275D01*
X194645038Y-98450037D01*
X194693419Y-98595180D01*
X194693419Y-98837084D01*
X196265800Y-100385275D02*
X196217419Y-100482037D01*
X196217419Y-100627180D01*
X196265800Y-100772322D01*
X196362561Y-100869084D01*
X196459323Y-100917465D01*
X196652847Y-100965846D01*
X196797990Y-100965846D01*
X196991514Y-100917465D01*
X197088276Y-100869084D01*
X197185038Y-100772322D01*
X197233419Y-100627180D01*
X197233419Y-100530418D01*
X197185038Y-100385275D01*
X197136657Y-100336894D01*
X196797990Y-100336894D01*
X196797990Y-100530418D01*
X197233419Y-99901465D02*
X196217419Y-99901465D01*
X197233419Y-99320894D01*
X196217419Y-99320894D01*
X197233419Y-98837084D02*
X196217419Y-98837084D01*
X196217419Y-98595180D01*
X196265800Y-98450037D01*
X196362561Y-98353275D01*
X196459323Y-98304894D01*
X196652847Y-98256513D01*
X196797990Y-98256513D01*
X196991514Y-98304894D01*
X197088276Y-98353275D01*
X197185038Y-98450037D01*
X197233419Y-98595180D01*
X197233419Y-98837084D01*
X198757419Y-100723941D02*
X199773419Y-100385275D01*
X198757419Y-100046608D01*
X199773419Y-99707941D02*
X198757419Y-99707941D01*
X199773419Y-99224132D02*
X198757419Y-99224132D01*
X199773419Y-98643560D01*
X198757419Y-98643560D01*
X204537733Y-100844894D02*
X204537733Y-100361084D01*
X204828019Y-100941656D02*
X203812019Y-100602989D01*
X204828019Y-100264322D01*
X203812019Y-99732132D02*
X203812019Y-99635370D01*
X203860400Y-99538608D01*
X203908780Y-99490227D01*
X204005542Y-99441846D01*
X204199066Y-99393465D01*
X204440971Y-99393465D01*
X204634495Y-99441846D01*
X204731257Y-99490227D01*
X204779638Y-99538608D01*
X204828019Y-99635370D01*
X204828019Y-99732132D01*
X204779638Y-99828894D01*
X204731257Y-99877275D01*
X204634495Y-99925656D01*
X204440971Y-99974037D01*
X204199066Y-99974037D01*
X204005542Y-99925656D01*
X203908780Y-99877275D01*
X203860400Y-99828894D01*
X203812019Y-99732132D01*
X207077733Y-100844894D02*
X207077733Y-100361084D01*
X207368019Y-100941656D02*
X206352019Y-100602989D01*
X207368019Y-100264322D01*
X207368019Y-99393465D02*
X207368019Y-99974037D01*
X207368019Y-99683751D02*
X206352019Y-99683751D01*
X206497161Y-99780513D01*
X206593923Y-99877275D01*
X206642304Y-99974037D01*
X209617733Y-100844894D02*
X209617733Y-100361084D01*
X209908019Y-100941656D02*
X208892019Y-100602989D01*
X209908019Y-100264322D01*
X208988780Y-99974037D02*
X208940400Y-99925656D01*
X208892019Y-99828894D01*
X208892019Y-99586989D01*
X208940400Y-99490227D01*
X208988780Y-99441846D01*
X209085542Y-99393465D01*
X209182304Y-99393465D01*
X209327447Y-99441846D01*
X209908019Y-100022418D01*
X209908019Y-99393465D01*
X212157733Y-100844894D02*
X212157733Y-100361084D01*
X212448019Y-100941656D02*
X211432019Y-100602989D01*
X212448019Y-100264322D01*
X211432019Y-100022418D02*
X211432019Y-99393465D01*
X211819066Y-99732132D01*
X211819066Y-99586989D01*
X211867447Y-99490227D01*
X211915828Y-99441846D01*
X212012590Y-99393465D01*
X212254495Y-99393465D01*
X212351257Y-99441846D01*
X212399638Y-99490227D01*
X212448019Y-99586989D01*
X212448019Y-99877275D01*
X212399638Y-99974037D01*
X212351257Y-100022418D01*
X214697733Y-100844894D02*
X214697733Y-100361084D01*
X214988019Y-100941656D02*
X213972019Y-100602989D01*
X214988019Y-100264322D01*
X214310685Y-99490227D02*
X214988019Y-99490227D01*
X213923638Y-99732132D02*
X214649352Y-99974037D01*
X214649352Y-99345084D01*
X217237733Y-100844894D02*
X217237733Y-100361084D01*
X217528019Y-100941656D02*
X216512019Y-100602989D01*
X217528019Y-100264322D01*
X216512019Y-99441846D02*
X216512019Y-99925656D01*
X216995828Y-99974037D01*
X216947447Y-99925656D01*
X216899066Y-99828894D01*
X216899066Y-99586989D01*
X216947447Y-99490227D01*
X216995828Y-99441846D01*
X217092590Y-99393465D01*
X217334495Y-99393465D01*
X217431257Y-99441846D01*
X217479638Y-99490227D01*
X217528019Y-99586989D01*
X217528019Y-99828894D01*
X217479638Y-99925656D01*
X217431257Y-99974037D01*
X211402748Y-77960099D02*
X211402748Y-76944099D01*
X211741415Y-77669813D01*
X212080081Y-76944099D01*
X212080081Y-77960099D01*
X212563891Y-77960099D02*
X212563891Y-76944099D01*
X212999320Y-77911718D02*
X213144462Y-77960099D01*
X213386367Y-77960099D01*
X213483129Y-77911718D01*
X213531510Y-77863337D01*
X213579891Y-77766575D01*
X213579891Y-77669813D01*
X213531510Y-77573051D01*
X213483129Y-77524670D01*
X213386367Y-77476289D01*
X213192843Y-77427908D01*
X213096081Y-77379527D01*
X213047700Y-77331146D01*
X212999320Y-77234384D01*
X212999320Y-77137622D01*
X213047700Y-77040860D01*
X213096081Y-76992480D01*
X213192843Y-76944099D01*
X213434748Y-76944099D01*
X213579891Y-76992480D01*
X214208843Y-76944099D02*
X214402367Y-76944099D01*
X214499129Y-76992480D01*
X214595891Y-77089241D01*
X214644272Y-77282765D01*
X214644272Y-77621432D01*
X214595891Y-77814956D01*
X214499129Y-77911718D01*
X214402367Y-77960099D01*
X214208843Y-77960099D01*
X214112081Y-77911718D01*
X214015320Y-77814956D01*
X213966939Y-77621432D01*
X213966939Y-77282765D01*
X214015320Y-77089241D01*
X214112081Y-76992480D01*
X214208843Y-76944099D01*
X211281796Y-80411078D02*
X211426939Y-80459459D01*
X211668843Y-80459459D01*
X211765605Y-80411078D01*
X211813986Y-80362697D01*
X211862367Y-80265935D01*
X211862367Y-80169173D01*
X211813986Y-80072411D01*
X211765605Y-80024030D01*
X211668843Y-79975649D01*
X211475320Y-79927268D01*
X211378558Y-79878887D01*
X211330177Y-79830506D01*
X211281796Y-79733744D01*
X211281796Y-79636982D01*
X211330177Y-79540220D01*
X211378558Y-79491840D01*
X211475320Y-79443459D01*
X211717224Y-79443459D01*
X211862367Y-79491840D01*
X212878367Y-80362697D02*
X212829986Y-80411078D01*
X212684843Y-80459459D01*
X212588081Y-80459459D01*
X212442939Y-80411078D01*
X212346177Y-80314316D01*
X212297796Y-80217554D01*
X212249415Y-80024030D01*
X212249415Y-79878887D01*
X212297796Y-79685363D01*
X212346177Y-79588601D01*
X212442939Y-79491840D01*
X212588081Y-79443459D01*
X212684843Y-79443459D01*
X212829986Y-79491840D01*
X212878367Y-79540220D01*
X213797605Y-80459459D02*
X213313796Y-80459459D01*
X213313796Y-79443459D01*
X214136272Y-80459459D02*
X214136272Y-79443459D01*
X214716843Y-80459459D02*
X214281415Y-79878887D01*
X214716843Y-79443459D02*
X214136272Y-80024030D01*
X211023320Y-82958819D02*
X210684654Y-82475009D01*
X210442749Y-82958819D02*
X210442749Y-81942819D01*
X210829797Y-81942819D01*
X210926559Y-81991200D01*
X210974940Y-82039580D01*
X211023320Y-82136342D01*
X211023320Y-82281485D01*
X210974940Y-82378247D01*
X210926559Y-82426628D01*
X210829797Y-82475009D01*
X210442749Y-82475009D01*
X211458749Y-82426628D02*
X211797416Y-82426628D01*
X211942559Y-82958819D02*
X211458749Y-82958819D01*
X211458749Y-81942819D01*
X211942559Y-81942819D01*
X212329606Y-82910438D02*
X212474749Y-82958819D01*
X212716654Y-82958819D01*
X212813416Y-82910438D01*
X212861797Y-82862057D01*
X212910178Y-82765295D01*
X212910178Y-82668533D01*
X212861797Y-82571771D01*
X212813416Y-82523390D01*
X212716654Y-82475009D01*
X212523130Y-82426628D01*
X212426368Y-82378247D01*
X212377987Y-82329866D01*
X212329606Y-82233104D01*
X212329606Y-82136342D01*
X212377987Y-82039580D01*
X212426368Y-81991200D01*
X212523130Y-81942819D01*
X212765035Y-81942819D01*
X212910178Y-81991200D01*
X213345606Y-82426628D02*
X213684273Y-82426628D01*
X213829416Y-82958819D02*
X213345606Y-82958819D01*
X213345606Y-81942819D01*
X213829416Y-81942819D01*
X214119701Y-81942819D02*
X214700273Y-81942819D01*
X214409987Y-82958819D02*
X214409987Y-81942819D01*
X222305396Y-76944099D02*
X221821586Y-76944099D01*
X221773205Y-77427908D01*
X221821586Y-77379527D01*
X221918348Y-77331146D01*
X222160253Y-77331146D01*
X222257015Y-77379527D01*
X222305396Y-77427908D01*
X222353777Y-77524670D01*
X222353777Y-77766575D01*
X222305396Y-77863337D01*
X222257015Y-77911718D01*
X222160253Y-77960099D01*
X221918348Y-77960099D01*
X221821586Y-77911718D01*
X221773205Y-77863337D01*
X222644062Y-76944099D02*
X222982729Y-77960099D01*
X223321396Y-76944099D01*
X221903108Y-80459459D02*
X221903108Y-79443459D01*
X222241775Y-80169173D01*
X222580441Y-79443459D01*
X222580441Y-80459459D01*
X223257775Y-79443459D02*
X223451299Y-79443459D01*
X223548060Y-79491840D01*
X223644822Y-79588601D01*
X223693203Y-79782125D01*
X223693203Y-80120792D01*
X223644822Y-80314316D01*
X223548060Y-80411078D01*
X223451299Y-80459459D01*
X223257775Y-80459459D01*
X223161013Y-80411078D01*
X223064251Y-80314316D01*
X223015870Y-80120792D01*
X223015870Y-79782125D01*
X223064251Y-79588601D01*
X223161013Y-79491840D01*
X223257775Y-79443459D01*
X224080251Y-80411078D02*
X224225394Y-80459459D01*
X224467299Y-80459459D01*
X224564060Y-80411078D01*
X224612441Y-80362697D01*
X224660822Y-80265935D01*
X224660822Y-80169173D01*
X224612441Y-80072411D01*
X224564060Y-80024030D01*
X224467299Y-79975649D01*
X224273775Y-79927268D01*
X224177013Y-79878887D01*
X224128632Y-79830506D01*
X224080251Y-79733744D01*
X224080251Y-79636982D01*
X224128632Y-79540220D01*
X224177013Y-79491840D01*
X224273775Y-79443459D01*
X224515680Y-79443459D01*
X224660822Y-79491840D01*
X225096251Y-80459459D02*
X225096251Y-79443459D01*
X222225204Y-81991200D02*
X222128442Y-81942819D01*
X221983300Y-81942819D01*
X221838157Y-81991200D01*
X221741395Y-82087961D01*
X221693014Y-82184723D01*
X221644633Y-82378247D01*
X221644633Y-82523390D01*
X221693014Y-82716914D01*
X221741395Y-82813676D01*
X221838157Y-82910438D01*
X221983300Y-82958819D01*
X222080061Y-82958819D01*
X222225204Y-82910438D01*
X222273585Y-82862057D01*
X222273585Y-82523390D01*
X222080061Y-82523390D01*
X222709014Y-82958819D02*
X222709014Y-81942819D01*
X223289585Y-82958819D01*
X223289585Y-81942819D01*
X223773395Y-82958819D02*
X223773395Y-81942819D01*
X224015300Y-81942819D01*
X224160442Y-81991200D01*
X224257204Y-82087961D01*
X224305585Y-82184723D01*
X224353966Y-82378247D01*
X224353966Y-82523390D01*
X224305585Y-82716914D01*
X224257204Y-82813676D01*
X224160442Y-82910438D01*
X224015300Y-82958819D01*
X223773395Y-82958819D01*
X216588219Y-59273560D02*
X216588219Y-59176799D01*
X216636600Y-59080037D01*
X216684980Y-59031656D01*
X216781742Y-58983275D01*
X216975266Y-58934894D01*
X217217171Y-58934894D01*
X217410695Y-58983275D01*
X217507457Y-59031656D01*
X217555838Y-59080037D01*
X217604219Y-59176799D01*
X217604219Y-59273560D01*
X217555838Y-59370322D01*
X217507457Y-59418703D01*
X217410695Y-59467084D01*
X217217171Y-59515465D01*
X216975266Y-59515465D01*
X216781742Y-59467084D01*
X216684980Y-59418703D01*
X216636600Y-59370322D01*
X216588219Y-59273560D01*
X215064219Y-58934894D02*
X215064219Y-59515465D01*
X215064219Y-59225180D02*
X214048219Y-59225180D01*
X214193361Y-59321941D01*
X214290123Y-59418703D01*
X214338504Y-59515465D01*
X211604980Y-59515465D02*
X211556600Y-59467084D01*
X211508219Y-59370322D01*
X211508219Y-59128418D01*
X211556600Y-59031656D01*
X211604980Y-58983275D01*
X211701742Y-58934894D01*
X211798504Y-58934894D01*
X211943647Y-58983275D01*
X212524219Y-59563846D01*
X212524219Y-58934894D01*
X208968219Y-59563846D02*
X208968219Y-58934894D01*
X209355266Y-59273560D01*
X209355266Y-59128418D01*
X209403647Y-59031656D01*
X209452028Y-58983275D01*
X209548790Y-58934894D01*
X209790695Y-58934894D01*
X209887457Y-58983275D01*
X209935838Y-59031656D01*
X209984219Y-59128418D01*
X209984219Y-59418703D01*
X209935838Y-59515465D01*
X209887457Y-59563846D01*
X206766885Y-59031656D02*
X207444219Y-59031656D01*
X206379838Y-59273560D02*
X207105552Y-59515465D01*
X207105552Y-58886513D01*
X203888219Y-58983275D02*
X203888219Y-59467084D01*
X204372028Y-59515465D01*
X204323647Y-59467084D01*
X204275266Y-59370322D01*
X204275266Y-59128418D01*
X204323647Y-59031656D01*
X204372028Y-58983275D01*
X204468790Y-58934894D01*
X204710695Y-58934894D01*
X204807457Y-58983275D01*
X204855838Y-59031656D01*
X204904219Y-59128418D01*
X204904219Y-59370322D01*
X204855838Y-59467084D01*
X204807457Y-59515465D01*
X201348219Y-59031656D02*
X201348219Y-59225180D01*
X201396600Y-59321941D01*
X201444980Y-59370322D01*
X201590123Y-59467084D01*
X201783647Y-59515465D01*
X202170695Y-59515465D01*
X202267457Y-59467084D01*
X202315838Y-59418703D01*
X202364219Y-59321941D01*
X202364219Y-59128418D01*
X202315838Y-59031656D01*
X202267457Y-58983275D01*
X202170695Y-58934894D01*
X201928790Y-58934894D01*
X201832028Y-58983275D01*
X201783647Y-59031656D01*
X201735266Y-59128418D01*
X201735266Y-59321941D01*
X201783647Y-59418703D01*
X201832028Y-59467084D01*
X201928790Y-59515465D01*
X198808219Y-59563846D02*
X198808219Y-58886513D01*
X199824219Y-59321941D01*
X195408247Y-59321941D02*
X195359866Y-59418703D01*
X195311485Y-59467084D01*
X195214723Y-59515465D01*
X195166342Y-59515465D01*
X195069580Y-59467084D01*
X195021200Y-59418703D01*
X194972819Y-59321941D01*
X194972819Y-59128418D01*
X195021200Y-59031656D01*
X195069580Y-58983275D01*
X195166342Y-58934894D01*
X195214723Y-58934894D01*
X195311485Y-58983275D01*
X195359866Y-59031656D01*
X195408247Y-59128418D01*
X195408247Y-59321941D01*
X195456628Y-59418703D01*
X195505009Y-59467084D01*
X195601771Y-59515465D01*
X195795295Y-59515465D01*
X195892057Y-59467084D01*
X195940438Y-59418703D01*
X195988819Y-59321941D01*
X195988819Y-59128418D01*
X195940438Y-59031656D01*
X195892057Y-58983275D01*
X195795295Y-58934894D01*
X195601771Y-58934894D01*
X195505009Y-58983275D01*
X195456628Y-59031656D01*
X195408247Y-59128418D01*
X193448819Y-59418703D02*
X193448819Y-59225180D01*
X193400438Y-59128418D01*
X193352057Y-59080037D01*
X193206914Y-58983275D01*
X193013390Y-58934894D01*
X192626342Y-58934894D01*
X192529580Y-58983275D01*
X192481200Y-59031656D01*
X192432819Y-59128418D01*
X192432819Y-59321941D01*
X192481200Y-59418703D01*
X192529580Y-59467084D01*
X192626342Y-59515465D01*
X192868247Y-59515465D01*
X192965009Y-59467084D01*
X193013390Y-59418703D01*
X193061771Y-59321941D01*
X193061771Y-59128418D01*
X193013390Y-59031656D01*
X192965009Y-58983275D01*
X192868247Y-58934894D01*
X190908819Y-59926703D02*
X190908819Y-60507275D01*
X190908819Y-60216989D02*
X189892819Y-60216989D01*
X190037961Y-60313751D01*
X190134723Y-60410513D01*
X190183104Y-60507275D01*
X189892819Y-59297751D02*
X189892819Y-59200989D01*
X189941200Y-59104227D01*
X189989580Y-59055846D01*
X190086342Y-59007465D01*
X190279866Y-58959084D01*
X190521771Y-58959084D01*
X190715295Y-59007465D01*
X190812057Y-59055846D01*
X190860438Y-59104227D01*
X190908819Y-59200989D01*
X190908819Y-59297751D01*
X190860438Y-59394513D01*
X190812057Y-59442894D01*
X190715295Y-59491275D01*
X190521771Y-59539656D01*
X190279866Y-59539656D01*
X190086342Y-59491275D01*
X189989580Y-59442894D01*
X189941200Y-59394513D01*
X189892819Y-59297751D01*
X188368819Y-59926703D02*
X188368819Y-60507275D01*
X188368819Y-60216989D02*
X187352819Y-60216989D01*
X187497961Y-60313751D01*
X187594723Y-60410513D01*
X187643104Y-60507275D01*
X188368819Y-58959084D02*
X188368819Y-59539656D01*
X188368819Y-59249370D02*
X187352819Y-59249370D01*
X187497961Y-59346132D01*
X187594723Y-59442894D01*
X187643104Y-59539656D01*
X185828819Y-59926703D02*
X185828819Y-60507275D01*
X185828819Y-60216989D02*
X184812819Y-60216989D01*
X184957961Y-60313751D01*
X185054723Y-60410513D01*
X185103104Y-60507275D01*
X184909580Y-59539656D02*
X184861200Y-59491275D01*
X184812819Y-59394513D01*
X184812819Y-59152608D01*
X184861200Y-59055846D01*
X184909580Y-59007465D01*
X185006342Y-58959084D01*
X185103104Y-58959084D01*
X185248247Y-59007465D01*
X185828819Y-59588037D01*
X185828819Y-58959084D01*
X183288819Y-59926703D02*
X183288819Y-60507275D01*
X183288819Y-60216989D02*
X182272819Y-60216989D01*
X182417961Y-60313751D01*
X182514723Y-60410513D01*
X182563104Y-60507275D01*
X182272819Y-59588037D02*
X182272819Y-58959084D01*
X182659866Y-59297751D01*
X182659866Y-59152608D01*
X182708247Y-59055846D01*
X182756628Y-59007465D01*
X182853390Y-58959084D01*
X183095295Y-58959084D01*
X183192057Y-59007465D01*
X183240438Y-59055846D01*
X183288819Y-59152608D01*
X183288819Y-59442894D01*
X183240438Y-59539656D01*
X183192057Y-59588037D01*
X179781200Y-61015275D02*
X179732819Y-61112037D01*
X179732819Y-61257180D01*
X179781200Y-61402322D01*
X179877961Y-61499084D01*
X179974723Y-61547465D01*
X180168247Y-61595846D01*
X180313390Y-61595846D01*
X180506914Y-61547465D01*
X180603676Y-61499084D01*
X180700438Y-61402322D01*
X180748819Y-61257180D01*
X180748819Y-61160418D01*
X180700438Y-61015275D01*
X180652057Y-60966894D01*
X180313390Y-60966894D01*
X180313390Y-61160418D01*
X180748819Y-60531465D02*
X179732819Y-60531465D01*
X180748819Y-59950894D01*
X179732819Y-59950894D01*
X180748819Y-59467084D02*
X179732819Y-59467084D01*
X179732819Y-59225180D01*
X179781200Y-59080037D01*
X179877961Y-58983275D01*
X179974723Y-58934894D01*
X180168247Y-58886513D01*
X180313390Y-58886513D01*
X180506914Y-58934894D01*
X180603676Y-58983275D01*
X180700438Y-59080037D01*
X180748819Y-59225180D01*
X180748819Y-59467084D01*
X177918533Y-62394132D02*
X177918533Y-61910322D01*
X178208819Y-62490894D02*
X177192819Y-62152227D01*
X178208819Y-61813560D01*
X178208819Y-60894322D02*
X177725009Y-61232989D01*
X178208819Y-61474894D02*
X177192819Y-61474894D01*
X177192819Y-61087846D01*
X177241200Y-60991084D01*
X177289580Y-60942703D01*
X177386342Y-60894322D01*
X177531485Y-60894322D01*
X177628247Y-60942703D01*
X177676628Y-60991084D01*
X177725009Y-61087846D01*
X177725009Y-61474894D01*
X177676628Y-60458894D02*
X177676628Y-60120227D01*
X178208819Y-59975084D02*
X178208819Y-60458894D01*
X177192819Y-60458894D01*
X177192819Y-59975084D01*
X177676628Y-59200989D02*
X177676628Y-59539656D01*
X178208819Y-59539656D02*
X177192819Y-59539656D01*
X177192819Y-59055846D01*
X175620438Y-62466703D02*
X175668819Y-62321560D01*
X175668819Y-62079656D01*
X175620438Y-61982894D01*
X175572057Y-61934513D01*
X175475295Y-61886132D01*
X175378533Y-61886132D01*
X175281771Y-61934513D01*
X175233390Y-61982894D01*
X175185009Y-62079656D01*
X175136628Y-62273180D01*
X175088247Y-62369941D01*
X175039866Y-62418322D01*
X174943104Y-62466703D01*
X174846342Y-62466703D01*
X174749580Y-62418322D01*
X174701200Y-62369941D01*
X174652819Y-62273180D01*
X174652819Y-62031275D01*
X174701200Y-61886132D01*
X175668819Y-61450703D02*
X174652819Y-61450703D01*
X174652819Y-61208799D01*
X174701200Y-61063656D01*
X174797961Y-60966894D01*
X174894723Y-60918513D01*
X175088247Y-60870132D01*
X175233390Y-60870132D01*
X175426914Y-60918513D01*
X175523676Y-60966894D01*
X175620438Y-61063656D01*
X175668819Y-61208799D01*
X175668819Y-61450703D01*
X175378533Y-60483084D02*
X175378533Y-59999275D01*
X175668819Y-60579846D02*
X174652819Y-60241180D01*
X175668819Y-59902513D01*
X175668819Y-59031656D02*
X175668819Y-59612227D01*
X175668819Y-59321941D02*
X174652819Y-59321941D01*
X174797961Y-59418703D01*
X174894723Y-59515465D01*
X174943104Y-59612227D01*
X173080438Y-62442513D02*
X173128819Y-62297370D01*
X173128819Y-62055465D01*
X173080438Y-61958703D01*
X173032057Y-61910322D01*
X172935295Y-61861941D01*
X172838533Y-61861941D01*
X172741771Y-61910322D01*
X172693390Y-61958703D01*
X172645009Y-62055465D01*
X172596628Y-62248989D01*
X172548247Y-62345751D01*
X172499866Y-62394132D01*
X172403104Y-62442513D01*
X172306342Y-62442513D01*
X172209580Y-62394132D01*
X172161200Y-62345751D01*
X172112819Y-62248989D01*
X172112819Y-62007084D01*
X172161200Y-61861941D01*
X173032057Y-60845941D02*
X173080438Y-60894322D01*
X173128819Y-61039465D01*
X173128819Y-61136227D01*
X173080438Y-61281370D01*
X172983676Y-61378132D01*
X172886914Y-61426513D01*
X172693390Y-61474894D01*
X172548247Y-61474894D01*
X172354723Y-61426513D01*
X172257961Y-61378132D01*
X172161200Y-61281370D01*
X172112819Y-61136227D01*
X172112819Y-61039465D01*
X172161200Y-60894322D01*
X172209580Y-60845941D01*
X173128819Y-59926703D02*
X173128819Y-60410513D01*
X172112819Y-60410513D01*
X173128819Y-59055846D02*
X173128819Y-59636418D01*
X173128819Y-59346132D02*
X172112819Y-59346132D01*
X172257961Y-59442894D01*
X172354723Y-59539656D01*
X172403104Y-59636418D01*
X216766865Y-62458479D02*
X216766865Y-61442479D01*
X217153913Y-61442479D01*
X217250675Y-61490860D01*
X217299056Y-61539240D01*
X217347437Y-61636002D01*
X217347437Y-61781145D01*
X217299056Y-61877907D01*
X217250675Y-61926288D01*
X217153913Y-61974669D01*
X216766865Y-61974669D01*
X217686103Y-61442479D02*
X218315056Y-61442479D01*
X217976389Y-61829526D01*
X218121532Y-61829526D01*
X218218294Y-61877907D01*
X218266675Y-61926288D01*
X218315056Y-62023050D01*
X218315056Y-62264955D01*
X218266675Y-62361717D01*
X218218294Y-62410098D01*
X218121532Y-62458479D01*
X217831246Y-62458479D01*
X217734484Y-62410098D01*
X217686103Y-62361717D01*
X219234294Y-61442479D02*
X218750484Y-61442479D01*
X218702103Y-61926288D01*
X218750484Y-61877907D01*
X218847246Y-61829526D01*
X219089151Y-61829526D01*
X219185913Y-61877907D01*
X219234294Y-61926288D01*
X219282675Y-62023050D01*
X219282675Y-62264955D01*
X219234294Y-62361717D01*
X219185913Y-62410098D01*
X219089151Y-62458479D01*
X218847246Y-62458479D01*
X218750484Y-62410098D01*
X218702103Y-62361717D01*
D15*
X40900047Y-52680809D02*
X40900047Y-52172809D01*
X41021000Y-52172809D01*
X41093571Y-52197000D01*
X41141952Y-52245380D01*
X41166142Y-52293761D01*
X41190333Y-52390523D01*
X41190333Y-52463095D01*
X41166142Y-52559857D01*
X41141952Y-52608238D01*
X41093571Y-52656619D01*
X41021000Y-52680809D01*
X40900047Y-52680809D01*
X41674142Y-52680809D02*
X41383857Y-52680809D01*
X41529000Y-52680809D02*
X41529000Y-52172809D01*
X41480619Y-52245380D01*
X41432238Y-52293761D01*
X41383857Y-52317952D01*
X40948428Y-50648809D02*
X40706523Y-50648809D01*
X40706523Y-50140809D01*
X41117761Y-50382714D02*
X41287095Y-50382714D01*
X41359666Y-50648809D02*
X41117761Y-50648809D01*
X41117761Y-50140809D01*
X41359666Y-50140809D01*
X41577380Y-50648809D02*
X41577380Y-50140809D01*
X41698333Y-50140809D01*
X41770904Y-50165000D01*
X41819285Y-50213380D01*
X41843476Y-50261761D01*
X41867666Y-50358523D01*
X41867666Y-50431095D01*
X41843476Y-50527857D01*
X41819285Y-50576238D01*
X41770904Y-50624619D01*
X41698333Y-50648809D01*
X41577380Y-50648809D01*
M02*
