G04 #@! TF.GenerationSoftware,KiCad,Pcbnew,(2018-02-14 revision 6afdf1cf8)-makepkg*
G04 #@! TF.CreationDate,2018-02-15T17:49:41+13:00*
G04 #@! TF.ProjectId,patch-shield-digital,70617463682D736869656C642D646967,rev?*
G04 #@! TF.SameCoordinates,Original*
G04 #@! TF.FileFunction,Copper,L2,Bot,Signal*
G04 #@! TF.FilePolarity,Positive*
%FSLAX46Y46*%
G04 Gerber Fmt 4.6, Leading zero omitted, Abs format (unit mm)*
G04 Created by KiCad (PCBNEW (2018-02-14 revision 6afdf1cf8)-makepkg) date 02/15/18 17:49:41*
%MOMM*%
%LPD*%
G01*
G04 APERTURE LIST*
%ADD10R,1.524000X1.524000*%
%ADD11C,1.524000*%
%ADD12C,0.889000*%
%ADD13C,0.203200*%
G04 APERTURE END LIST*
D10*
X217195400Y-64516000D03*
D11*
X219735400Y-64516000D03*
X217195400Y-67056000D03*
X219735400Y-67056000D03*
X217195400Y-69596000D03*
X219735400Y-69596000D03*
X217195400Y-72136000D03*
X219735400Y-72136000D03*
X217195400Y-74676000D03*
X219735400Y-74676000D03*
X181584600Y-104343200D03*
X184124600Y-104343200D03*
X186664600Y-104343200D03*
X189204600Y-104343200D03*
X191744600Y-104343200D03*
X194284600Y-104343200D03*
X196824600Y-104343200D03*
X199364600Y-104343200D03*
X204419200Y-104343200D03*
X206959200Y-104343200D03*
X209499200Y-104343200D03*
X212039200Y-104343200D03*
X214579200Y-104343200D03*
X217119200Y-104343200D03*
X217195400Y-77216000D03*
X217195400Y-79756000D03*
X217195400Y-82296000D03*
X219735400Y-82296000D03*
X219735400Y-79756000D03*
X219735400Y-77216000D03*
X217195400Y-55880000D03*
X214655400Y-55880000D03*
X212115400Y-55880000D03*
X209575400Y-55880000D03*
X207035400Y-55880000D03*
X204495400Y-55880000D03*
X201955400Y-55880000D03*
X199415400Y-55880000D03*
X195580000Y-55880000D03*
X193040000Y-55880000D03*
X190500000Y-55880000D03*
X187960000Y-55880000D03*
X185420000Y-55880000D03*
X182880000Y-55880000D03*
X180340000Y-55880000D03*
X177800000Y-55880000D03*
X175260000Y-55880000D03*
X172720000Y-55880000D03*
D12*
X214630000Y-99060000D03*
X214630000Y-68580000D03*
X214630000Y-59690000D03*
X214630000Y-77470000D03*
X214630000Y-64770000D03*
X214630000Y-87630000D03*
X185498740Y-85100160D03*
X185498740Y-82900520D03*
X61800740Y-115001040D03*
X61899800Y-83898740D03*
X62199520Y-51000660D03*
X62100460Y-80500220D03*
X188498480Y-87299800D03*
X77500480Y-84599780D03*
X77500480Y-115001040D03*
X188498480Y-80680560D03*
X77099160Y-51000660D03*
X77099160Y-79400400D03*
X92900500Y-115001040D03*
X92900500Y-95498920D03*
X180400960Y-78689200D03*
X180398420Y-92400120D03*
X91998800Y-70401180D03*
X91998800Y-51000660D03*
X107099100Y-107200700D03*
X183598820Y-75498960D03*
X183598820Y-89799160D03*
X107099100Y-96901000D03*
X107299760Y-57701180D03*
X107299760Y-68699380D03*
X122699780Y-98000820D03*
X122699780Y-115001040D03*
X183598820Y-97497900D03*
X183598820Y-95298260D03*
X122499120Y-51000660D03*
X122499120Y-67701160D03*
X137599420Y-99199700D03*
X186598560Y-93098620D03*
X186598560Y-99700080D03*
X137599420Y-115001040D03*
X137398760Y-51000660D03*
X137398760Y-66799460D03*
X189598300Y-90898980D03*
X152100280Y-100401120D03*
X152001220Y-107500420D03*
X189598300Y-101899720D03*
X152100280Y-65900300D03*
X152100280Y-57599580D03*
X192598040Y-88699340D03*
X194099180Y-114998500D03*
X166700200Y-51000660D03*
X166700200Y-59601100D03*
X212117940Y-65786000D03*
X212090000Y-92710000D03*
X212090000Y-82550000D03*
X212090000Y-62230000D03*
X212090000Y-72390000D03*
X213360000Y-71120000D03*
X213360000Y-60960000D03*
X213387940Y-67056000D03*
X213360000Y-91440000D03*
X213360000Y-81280000D03*
X205767940Y-75946000D03*
X205767940Y-91186000D03*
X209550000Y-95250000D03*
X209550000Y-85090000D03*
X209550000Y-74930000D03*
X209577940Y-69596000D03*
X209550000Y-64770000D03*
X210820000Y-83820000D03*
X210820000Y-63500000D03*
X210820000Y-93980000D03*
X210820000Y-73660000D03*
X220980000Y-53340000D03*
X222250000Y-86360000D03*
X222250000Y-52070000D03*
X223520000Y-87630000D03*
X60401200Y-83299300D03*
X60401200Y-111998760D03*
X60500260Y-81998820D03*
X60401200Y-53949600D03*
X75498960Y-111998760D03*
X186999880Y-81800700D03*
X186999880Y-86199980D03*
X75498960Y-84201000D03*
X75498960Y-79900780D03*
X75600560Y-53898800D03*
X90401140Y-85001100D03*
X90401140Y-111998760D03*
X190002160Y-79598520D03*
X189999620Y-88402160D03*
X90500200Y-78999080D03*
X90500200Y-54000400D03*
X181899560Y-90698320D03*
X105498900Y-107200700D03*
X105498900Y-96400620D03*
X181902100Y-77007720D03*
X105498900Y-69400420D03*
X105498900Y-57701180D03*
X120299480Y-111899700D03*
X120299480Y-97500440D03*
X120500140Y-54000400D03*
X120500140Y-68199000D03*
X135199120Y-98501200D03*
X185099960Y-98597720D03*
X185099960Y-94198440D03*
X135199120Y-111998760D03*
X135498840Y-54000400D03*
X135498840Y-67000120D03*
X150200360Y-107398820D03*
X150200360Y-99799140D03*
X188099700Y-91998800D03*
X188099700Y-100799900D03*
X150599140Y-66299080D03*
X150599140Y-58699400D03*
X191099440Y-89799160D03*
X191099440Y-111798100D03*
X165498780Y-60599320D03*
X165498780Y-54000400D03*
X166098220Y-101498400D03*
X124698760Y-71798180D03*
X219710000Y-58420000D03*
X79298800Y-71998840D03*
X94099380Y-71998840D03*
X204470000Y-101600000D03*
X64297560Y-71899780D03*
X139298680Y-71498460D03*
X204470000Y-90170000D03*
X109700060Y-71699120D03*
X203530200Y-70299580D03*
X223520000Y-90170000D03*
X124599700Y-85999320D03*
X204470000Y-78740000D03*
X214630000Y-101600000D03*
X64297560Y-85897720D03*
X224790000Y-82550000D03*
X79397860Y-100299520D03*
X95097600Y-100500180D03*
X139098020Y-85999320D03*
X124599700Y-100500180D03*
X109098080Y-94498160D03*
X124099320Y-94498160D03*
X125498860Y-117398800D03*
X47698660Y-64998600D03*
X64297560Y-100197920D03*
X186098180Y-79999840D03*
X165597840Y-77998320D03*
X165597840Y-85999320D03*
X165597840Y-94498160D03*
X109598460Y-100500180D03*
X94099380Y-86499700D03*
X191599820Y-87000080D03*
X185099960Y-89999820D03*
X154099260Y-101498400D03*
X139098020Y-100500180D03*
X153598880Y-85999320D03*
X139098020Y-94498160D03*
X109598460Y-86499700D03*
X153598880Y-94498160D03*
X166598600Y-109799120D03*
X79397860Y-86098380D03*
X94099380Y-93997780D03*
X154099260Y-106499660D03*
X64297560Y-64998600D03*
X178699160Y-66799460D03*
X168798240Y-64498220D03*
X154998420Y-71600060D03*
X168798240Y-72400160D03*
X154998420Y-117497860D03*
X110398560Y-64998600D03*
X94099380Y-64998600D03*
X140497560Y-117398800D03*
X139298680Y-64998600D03*
X189798960Y-66799460D03*
X194310000Y-67310000D03*
X125699520Y-64998600D03*
X155399740Y-64998600D03*
X194310000Y-97790000D03*
X47398940Y-100098860D03*
X194310000Y-101600000D03*
X64498220Y-117299740D03*
X80497680Y-117198140D03*
X79199740Y-64998600D03*
X177208180Y-76969620D03*
X199430640Y-68900040D03*
X50098960Y-117899180D03*
X110098840Y-117497860D03*
X194310000Y-78740000D03*
X224790000Y-88900000D03*
X95498920Y-117198140D03*
X190119000Y-77848460D03*
X191368680Y-76578460D03*
X194310000Y-88900000D03*
X208280000Y-86360000D03*
X208280000Y-60960000D03*
X207010000Y-81280000D03*
X207010000Y-97790000D03*
D13*
X214630000Y-64770000D02*
X214630000Y-59690000D01*
X214630000Y-77470000D02*
X214630000Y-87630000D01*
X214630000Y-87630000D02*
X214630000Y-99060000D01*
X214630000Y-68580000D02*
X214630000Y-77470000D01*
X214630000Y-64770000D02*
X214630000Y-68580000D01*
X61899800Y-114901980D02*
X61899800Y-83898740D01*
X185498740Y-82900520D02*
X185498740Y-85100160D01*
X61800740Y-115001040D02*
X61899800Y-114901980D01*
X62100460Y-80500220D02*
X62199520Y-80401160D01*
X62199520Y-80401160D02*
X62199520Y-51000660D01*
X77500480Y-115001040D02*
X77500480Y-84599780D01*
X188498480Y-80680560D02*
X188498480Y-87299800D01*
X77099160Y-79400400D02*
X77099160Y-51000660D01*
X180400960Y-91897200D02*
X180398420Y-91899740D01*
X92900500Y-115001040D02*
X92900500Y-95498920D01*
X180398420Y-91899740D02*
X180398420Y-92400120D01*
X180400960Y-78689200D02*
X180400960Y-91897200D01*
X92100400Y-51102260D02*
X92100400Y-67000120D01*
X91998800Y-51000660D02*
X92100400Y-51102260D01*
X91998800Y-70401180D02*
X92100400Y-70299580D01*
X92100400Y-70299580D02*
X92100400Y-67000120D01*
X92100400Y-67000120D02*
X92100400Y-67299840D01*
X107099100Y-107200700D02*
X107099100Y-96901000D01*
X183598820Y-89799160D02*
X183598820Y-75498960D01*
X107299760Y-57701180D02*
X107299760Y-68699380D01*
X183598820Y-97497900D02*
X183598820Y-95298260D01*
X122699780Y-115001040D02*
X122699780Y-98000820D01*
X122499120Y-67701160D02*
X122499120Y-51000660D01*
X186598560Y-93098620D02*
X186598560Y-99700080D01*
X137599420Y-115001040D02*
X137599420Y-99199700D01*
X137398760Y-66799460D02*
X137398760Y-51000660D01*
X189598300Y-90898980D02*
X189598300Y-101899720D01*
X152001220Y-107500420D02*
X152100280Y-107401360D01*
X152100280Y-107401360D02*
X152100280Y-100401120D01*
X152100280Y-65900300D02*
X152100280Y-57599580D01*
X192999360Y-106299000D02*
X194099180Y-107398820D01*
X192999360Y-103098600D02*
X192999360Y-106299000D01*
X192598040Y-88699340D02*
X192598040Y-102697280D01*
X192598040Y-102697280D02*
X192999360Y-103098600D01*
X194099180Y-107398820D02*
X194099180Y-114998500D01*
X166700200Y-59601100D02*
X166700200Y-51000660D01*
X212090000Y-72390000D02*
X212090000Y-65786000D01*
X212090000Y-82550000D02*
X212090000Y-72390000D01*
X212090000Y-92710000D02*
X212090000Y-82550000D01*
X212090000Y-65786000D02*
X212090000Y-62230000D01*
X212090000Y-65786000D02*
X212117940Y-65786000D01*
X213360000Y-81280000D02*
X213360000Y-91440000D01*
X213360000Y-67056000D02*
X213360000Y-71120000D01*
X213360000Y-60960000D02*
X213360000Y-67056000D01*
X213387940Y-67056000D02*
X213360000Y-67056000D01*
X213360000Y-71120000D02*
X213360000Y-81280000D01*
X205767940Y-91186000D02*
X205767940Y-75946000D01*
X209577940Y-69596000D02*
X209550000Y-69596000D01*
X209550000Y-95250000D02*
X209550000Y-85090000D01*
X209550000Y-74930000D02*
X209550000Y-69596000D01*
X209550000Y-85090000D02*
X209550000Y-74930000D01*
X209550000Y-69596000D02*
X209550000Y-64770000D01*
X210820000Y-73660000D02*
X210820000Y-63500000D01*
X210820000Y-93980000D02*
X210820000Y-83820000D01*
X210820000Y-83820000D02*
X210820000Y-73660000D01*
X220980000Y-53340000D02*
X222250000Y-54610000D01*
X222250000Y-54610000D02*
X222250000Y-86360000D01*
X223520000Y-53340000D02*
X223520000Y-87630000D01*
X222250000Y-52070000D02*
X223520000Y-53340000D01*
X60401200Y-111998760D02*
X60401200Y-83200240D01*
X60401200Y-83200240D02*
X60401200Y-83299300D01*
X60401200Y-53949600D02*
X60500260Y-54048660D01*
X60500260Y-54048660D02*
X60500260Y-81998820D01*
X75498960Y-111998760D02*
X75498960Y-84201000D01*
X186999880Y-81800700D02*
X186999880Y-86199980D01*
X75600560Y-53898800D02*
X75498960Y-54000400D01*
X75498960Y-54000400D02*
X75498960Y-79900780D01*
X190002160Y-79598520D02*
X190002160Y-88399620D01*
X190002160Y-88399620D02*
X189999620Y-88402160D01*
X90401140Y-111998760D02*
X90401140Y-85001100D01*
X90500200Y-54000400D02*
X90500200Y-78999080D01*
X181902100Y-77007720D02*
X181902100Y-90695780D01*
X181902100Y-90695780D02*
X181899560Y-90698320D01*
X105498900Y-107200700D02*
X105498900Y-96400620D01*
X105498900Y-69400420D02*
X105498900Y-57701180D01*
X120299480Y-111899700D02*
X120299480Y-97500440D01*
X120500140Y-54000400D02*
X120500140Y-68199000D01*
X185099960Y-98597720D02*
X185099960Y-94198440D01*
X135199120Y-111998760D02*
X135199120Y-98501200D01*
X135498840Y-54000400D02*
X135498840Y-67000120D01*
X150200360Y-107398820D02*
X150200360Y-99799140D01*
X188099700Y-91998800D02*
X188099700Y-100799900D01*
X150599140Y-58699400D02*
X150599140Y-66299080D01*
X190599060Y-103200200D02*
X190599060Y-106098340D01*
X191099440Y-102699820D02*
X190599060Y-103200200D01*
X191099440Y-89799160D02*
X191099440Y-102699820D01*
X191099440Y-106598720D02*
X191099440Y-111798100D01*
X190599060Y-106098340D02*
X191099440Y-106598720D01*
X165498780Y-54000400D02*
X165498780Y-60599320D01*
X78399640Y-118999000D02*
X67500500Y-118999000D01*
X204470000Y-90170000D02*
X204470000Y-101600000D01*
X166098220Y-94998540D02*
X166098220Y-101498400D01*
X125699520Y-70797420D02*
X124698760Y-71798180D01*
X79199740Y-64998600D02*
X79199740Y-71899780D01*
X79199740Y-71899780D02*
X79298800Y-71998840D01*
X94099380Y-64998600D02*
X94099380Y-71998840D01*
X110398560Y-64998600D02*
X110398560Y-71000620D01*
X110398560Y-71000620D02*
X109700060Y-71699120D01*
X125699520Y-64998600D02*
X125699520Y-70797420D01*
X38999160Y-118501160D02*
X38999160Y-109098080D01*
X139298680Y-64998600D02*
X139298680Y-71498460D01*
X194310000Y-78740000D02*
X194310000Y-88900000D01*
X194310000Y-67310000D02*
X194310000Y-78740000D01*
X224790000Y-82550000D02*
X224790000Y-88900000D01*
X124599700Y-94998540D02*
X124599700Y-100500180D01*
X38999160Y-109098080D02*
X38999160Y-63599060D01*
X200830180Y-70299580D02*
X203530200Y-70299580D01*
X181000400Y-49999900D02*
X233499660Y-49999900D01*
X64297560Y-64998600D02*
X64297560Y-71899780D01*
X82499200Y-118999000D02*
X78399640Y-118999000D01*
X64297560Y-71899780D02*
X64297560Y-85897720D01*
X139298680Y-85798660D02*
X139098020Y-85999320D01*
X109700060Y-71699120D02*
X109700060Y-86398100D01*
X125498860Y-117398800D02*
X123898660Y-118999000D01*
X123898660Y-118999000D02*
X123499880Y-118999000D01*
X79298800Y-71998840D02*
X79298800Y-85999320D01*
X185099960Y-89999820D02*
X184599580Y-89499440D01*
X165597840Y-94498160D02*
X166098220Y-94998540D01*
X124698760Y-71798180D02*
X124698760Y-85900260D01*
X64297560Y-85897720D02*
X64297560Y-100197920D01*
X165597840Y-77998320D02*
X165597840Y-85999320D01*
X109598460Y-94998540D02*
X109598460Y-100500180D01*
X94099380Y-71998840D02*
X94099380Y-86499700D01*
X199430640Y-68900040D02*
X200830180Y-70299580D01*
X184599580Y-81498440D02*
X186098180Y-79999840D01*
X153598880Y-94498160D02*
X154099260Y-94998540D01*
X154099260Y-94998540D02*
X154099260Y-101498400D01*
X139098020Y-94498160D02*
X139098020Y-100500180D01*
X184599580Y-89499440D02*
X184599580Y-81498440D01*
X153598880Y-72999600D02*
X153598880Y-85999320D01*
X124698760Y-85900260D02*
X124599700Y-85999320D01*
X109098080Y-94498160D02*
X109598460Y-94998540D01*
X124099320Y-94498160D02*
X124599700Y-94998540D01*
X154998420Y-71600060D02*
X153598880Y-72999600D01*
X166598600Y-109799120D02*
X166598600Y-109999780D01*
X38999160Y-63599060D02*
X38999160Y-51000660D01*
X109700060Y-86398100D02*
X109598460Y-86499700D01*
X79298800Y-85999320D02*
X79397860Y-86098380D01*
X94099380Y-93997780D02*
X95097600Y-94996000D01*
X95097600Y-94996000D02*
X95097600Y-100500180D01*
X139298680Y-71498460D02*
X139298680Y-85798660D01*
X78696820Y-118999000D02*
X78399640Y-118999000D01*
X155399740Y-71198740D02*
X154998420Y-71600060D01*
X172199300Y-49999900D02*
X171396660Y-49999900D01*
X154998420Y-117497860D02*
X153497280Y-118999000D01*
X168798240Y-64498220D02*
X168798240Y-72400160D01*
X153497280Y-118999000D02*
X152999440Y-118999000D01*
X171396660Y-49999900D02*
X168798240Y-52598320D01*
X168798240Y-52598320D02*
X168798240Y-64498220D01*
X140497560Y-117398800D02*
X138897360Y-118999000D01*
X138897360Y-118999000D02*
X138399520Y-118999000D01*
X47398940Y-100098860D02*
X38999160Y-108498640D01*
X40299640Y-64899540D02*
X38999160Y-63599060D01*
X47698660Y-64998600D02*
X47599600Y-64899540D01*
X47599600Y-64899540D02*
X40299640Y-64899540D01*
X194310000Y-88900000D02*
X194310000Y-97790000D01*
X67500500Y-118999000D02*
X62598300Y-118999000D01*
X204470000Y-78740000D02*
X204470000Y-90170000D01*
X232999280Y-118999000D02*
X172001180Y-118999000D01*
X234000040Y-117998240D02*
X232999280Y-118999000D01*
X172001180Y-118999000D02*
X152999440Y-118999000D01*
X152999440Y-118999000D02*
X142499080Y-118999000D01*
X142499080Y-118999000D02*
X138399520Y-118999000D01*
X138399520Y-118999000D02*
X128000760Y-118999000D01*
X38999160Y-108498640D02*
X38999160Y-109098080D01*
X64498220Y-117299740D02*
X62798960Y-118999000D01*
X62798960Y-118999000D02*
X62598300Y-118999000D01*
X155399740Y-64998600D02*
X155399740Y-71198740D01*
X79999840Y-49999900D02*
X91000580Y-49999900D01*
X64500760Y-49999900D02*
X79999840Y-49999900D01*
X188249560Y-77848460D02*
X190119000Y-77848460D01*
X186098180Y-79999840D02*
X188249560Y-77848460D01*
X38999160Y-51000660D02*
X39999920Y-49999900D01*
X50098960Y-117899180D02*
X48999140Y-118999000D01*
X48999140Y-118999000D02*
X48900080Y-118999000D01*
X39497000Y-118999000D02*
X38999160Y-118501160D01*
X124500640Y-49999900D02*
X135999220Y-49999900D01*
X39999920Y-49999900D02*
X64500760Y-49999900D01*
X91000580Y-49999900D02*
X124500640Y-49999900D01*
X62598300Y-118999000D02*
X48900080Y-118999000D01*
X172199300Y-49999900D02*
X181000400Y-49999900D01*
X80497680Y-117198140D02*
X78696820Y-118999000D01*
X234000040Y-50500280D02*
X234000040Y-117998240D01*
X128000760Y-118999000D02*
X123499880Y-118999000D01*
X123499880Y-118999000D02*
X107998260Y-118999000D01*
X107998260Y-118999000D02*
X97500440Y-118999000D01*
X233499660Y-49999900D02*
X234000040Y-50500280D01*
X97500440Y-118999000D02*
X93499940Y-118999000D01*
X93499940Y-118999000D02*
X82499200Y-118999000D01*
X194310000Y-97790000D02*
X194310000Y-101600000D01*
X180340000Y-50660300D02*
X181000400Y-49999900D01*
X180340000Y-55880000D02*
X180340000Y-50660300D01*
X110098840Y-117497860D02*
X108597700Y-118999000D01*
X108597700Y-118999000D02*
X107998260Y-118999000D01*
X95498920Y-117198140D02*
X93698060Y-118999000D01*
X93698060Y-118999000D02*
X93499940Y-118999000D01*
X135999220Y-49999900D02*
X169499280Y-49999900D01*
X169499280Y-49999900D02*
X172199300Y-49999900D01*
X190119000Y-77848460D02*
X191368680Y-76598780D01*
X191368680Y-76598780D02*
X191368680Y-76578460D01*
X48900080Y-118999000D02*
X39497000Y-118999000D01*
X208280000Y-60960000D02*
X208280000Y-86360000D01*
X207010000Y-81280000D02*
X207010000Y-97790000D01*
G36*
X234505500Y-119504460D02*
X229704900Y-119504460D01*
X229704900Y-112938560D01*
X229704900Y-112062260D01*
X229704900Y-52938680D01*
X229704900Y-52062380D01*
X229369620Y-51252120D01*
X228749860Y-50632360D01*
X227939600Y-50294540D01*
X227063300Y-50294540D01*
X226253040Y-50629820D01*
X225633280Y-51249580D01*
X225295460Y-52059840D01*
X225295460Y-52936140D01*
X225630740Y-53746400D01*
X226250500Y-54366160D01*
X227060760Y-54703980D01*
X227937060Y-54703980D01*
X228747320Y-54368700D01*
X229367080Y-53748940D01*
X229704900Y-52938680D01*
X229704900Y-112062260D01*
X229369620Y-111252000D01*
X228749860Y-110632240D01*
X227939600Y-110294420D01*
X227063300Y-110294420D01*
X226253040Y-110629700D01*
X225633280Y-111249460D01*
X225295460Y-112059720D01*
X225295460Y-112936020D01*
X225630740Y-113746280D01*
X226250500Y-114366040D01*
X227060760Y-114703860D01*
X227937060Y-114703860D01*
X228747320Y-114368580D01*
X229367080Y-113748820D01*
X229704900Y-112938560D01*
X229704900Y-119504460D01*
X224320100Y-119504460D01*
X224320100Y-87790020D01*
X224320100Y-87472520D01*
X224198180Y-87177880D01*
X223977200Y-86954360D01*
X223977200Y-53340000D01*
X223941640Y-53164740D01*
X223842580Y-53017420D01*
X223050100Y-52224940D01*
X223050100Y-51912520D01*
X222928180Y-51617880D01*
X222704660Y-51391820D01*
X222410020Y-51269900D01*
X222092520Y-51269900D01*
X221797880Y-51391820D01*
X221571820Y-51615340D01*
X221449900Y-51909980D01*
X221449900Y-52227480D01*
X221571820Y-52522120D01*
X221795340Y-52748180D01*
X222089980Y-52870100D01*
X222404940Y-52870100D01*
X223062800Y-53527960D01*
X223062800Y-86954360D01*
X223050100Y-86967060D01*
X223050100Y-86520020D01*
X223050100Y-86202520D01*
X222928180Y-85907880D01*
X222707200Y-85684360D01*
X222707200Y-54610000D01*
X222671640Y-54434740D01*
X222572580Y-54287420D01*
X221780100Y-53494940D01*
X221780100Y-53182520D01*
X221658180Y-52887880D01*
X221434660Y-52661820D01*
X221140020Y-52539900D01*
X220822520Y-52539900D01*
X220527880Y-52661820D01*
X220301820Y-52885340D01*
X220179900Y-53179980D01*
X220179900Y-53497480D01*
X220301820Y-53792120D01*
X220525340Y-54018180D01*
X220819980Y-54140100D01*
X221134940Y-54140100D01*
X221792800Y-54797960D01*
X221792800Y-85684360D01*
X221571820Y-85905340D01*
X221449900Y-86199980D01*
X221449900Y-86517480D01*
X221571820Y-86812120D01*
X221795340Y-87038180D01*
X222089980Y-87160100D01*
X222407480Y-87160100D01*
X222702120Y-87038180D01*
X222928180Y-86814660D01*
X223050100Y-86520020D01*
X223050100Y-86967060D01*
X222841820Y-87175340D01*
X222719900Y-87469980D01*
X222719900Y-87787480D01*
X222841820Y-88082120D01*
X223065340Y-88308180D01*
X223359980Y-88430100D01*
X223677480Y-88430100D01*
X223972120Y-88308180D01*
X224198180Y-88084660D01*
X224320100Y-87790020D01*
X224320100Y-119504460D01*
X221094300Y-119504460D01*
X221094300Y-82466180D01*
X221056200Y-81932780D01*
X220926660Y-81617820D01*
X220850460Y-81594960D01*
X220850460Y-79979520D01*
X220850460Y-79535020D01*
X220850460Y-77439520D01*
X220850460Y-76995020D01*
X220850460Y-74899520D01*
X220850460Y-74455020D01*
X220850460Y-72359520D01*
X220850460Y-71915020D01*
X220850460Y-69819520D01*
X220850460Y-69375020D01*
X220850460Y-67279520D01*
X220850460Y-66835020D01*
X220850460Y-64739520D01*
X220850460Y-64295020D01*
X220680280Y-63886080D01*
X220367860Y-63571120D01*
X219958920Y-63400940D01*
X219514420Y-63400940D01*
X219105480Y-63571120D01*
X218790520Y-63883540D01*
X218620340Y-64292480D01*
X218620340Y-64736980D01*
X218790520Y-65145920D01*
X219102940Y-65460880D01*
X219511880Y-65631060D01*
X219956380Y-65631060D01*
X220365320Y-65460880D01*
X220680280Y-65148460D01*
X220850460Y-64739520D01*
X220850460Y-66835020D01*
X220680280Y-66426080D01*
X220367860Y-66111120D01*
X219958920Y-65940940D01*
X219514420Y-65940940D01*
X219105480Y-66111120D01*
X218790520Y-66423540D01*
X218620340Y-66832480D01*
X218620340Y-67276980D01*
X218790520Y-67685920D01*
X219102940Y-68000880D01*
X219511880Y-68171060D01*
X219956380Y-68171060D01*
X220365320Y-68000880D01*
X220680280Y-67688460D01*
X220850460Y-67279520D01*
X220850460Y-69375020D01*
X220680280Y-68966080D01*
X220367860Y-68651120D01*
X219958920Y-68480940D01*
X219514420Y-68480940D01*
X219105480Y-68651120D01*
X218790520Y-68963540D01*
X218620340Y-69372480D01*
X218620340Y-69816980D01*
X218790520Y-70225920D01*
X219102940Y-70540880D01*
X219511880Y-70711060D01*
X219956380Y-70711060D01*
X220365320Y-70540880D01*
X220680280Y-70228460D01*
X220850460Y-69819520D01*
X220850460Y-71915020D01*
X220680280Y-71506080D01*
X220367860Y-71191120D01*
X219958920Y-71020940D01*
X219514420Y-71020940D01*
X219105480Y-71191120D01*
X218790520Y-71503540D01*
X218620340Y-71912480D01*
X218620340Y-72356980D01*
X218790520Y-72765920D01*
X219102940Y-73080880D01*
X219511880Y-73251060D01*
X219956380Y-73251060D01*
X220365320Y-73080880D01*
X220680280Y-72768460D01*
X220850460Y-72359520D01*
X220850460Y-74455020D01*
X220680280Y-74046080D01*
X220367860Y-73731120D01*
X219958920Y-73560940D01*
X219514420Y-73560940D01*
X219105480Y-73731120D01*
X218790520Y-74043540D01*
X218620340Y-74452480D01*
X218620340Y-74896980D01*
X218790520Y-75305920D01*
X219102940Y-75620880D01*
X219511880Y-75791060D01*
X219956380Y-75791060D01*
X220365320Y-75620880D01*
X220680280Y-75308460D01*
X220850460Y-74899520D01*
X220850460Y-76995020D01*
X220680280Y-76586080D01*
X220367860Y-76271120D01*
X219958920Y-76100940D01*
X219514420Y-76100940D01*
X219105480Y-76271120D01*
X218790520Y-76583540D01*
X218620340Y-76992480D01*
X218620340Y-77436980D01*
X218790520Y-77845920D01*
X219102940Y-78160880D01*
X219511880Y-78331060D01*
X219956380Y-78331060D01*
X220365320Y-78160880D01*
X220680280Y-77848460D01*
X220850460Y-77439520D01*
X220850460Y-79535020D01*
X220680280Y-79126080D01*
X220367860Y-78811120D01*
X219958920Y-78640940D01*
X219514420Y-78640940D01*
X219105480Y-78811120D01*
X218790520Y-79123540D01*
X218620340Y-79532480D01*
X218620340Y-79976980D01*
X218790520Y-80385920D01*
X219102940Y-80700880D01*
X219511880Y-80871060D01*
X219956380Y-80871060D01*
X220365320Y-80700880D01*
X220680280Y-80388460D01*
X220850460Y-79979520D01*
X220850460Y-81594960D01*
X220698060Y-81549240D01*
X220482160Y-81765140D01*
X220482160Y-81333340D01*
X220413580Y-81104740D01*
X219905580Y-80937100D01*
X219372180Y-80975200D01*
X219057220Y-81104740D01*
X218988640Y-81333340D01*
X219735400Y-82080100D01*
X220482160Y-81333340D01*
X220482160Y-81765140D01*
X219951300Y-82296000D01*
X220698060Y-83042760D01*
X220926660Y-82974180D01*
X221094300Y-82466180D01*
X221094300Y-119504460D01*
X220482160Y-119504460D01*
X220482160Y-83258660D01*
X219735400Y-82511900D01*
X219519500Y-82727800D01*
X219519500Y-82296000D01*
X218772740Y-81549240D01*
X218544140Y-81617820D01*
X218376500Y-82125820D01*
X218414600Y-82659220D01*
X218544140Y-82974180D01*
X218772740Y-83042760D01*
X219519500Y-82296000D01*
X219519500Y-82727800D01*
X218988640Y-83258660D01*
X219057220Y-83487260D01*
X219565220Y-83654900D01*
X220098620Y-83616800D01*
X220413580Y-83487260D01*
X220482160Y-83258660D01*
X220482160Y-119504460D01*
X218310460Y-119504460D01*
X218310460Y-82519520D01*
X218310460Y-82075020D01*
X218310460Y-79979520D01*
X218310460Y-79535020D01*
X218310460Y-77439520D01*
X218310460Y-76995020D01*
X218310460Y-74899520D01*
X218310460Y-74455020D01*
X218310460Y-72359520D01*
X218310460Y-71915020D01*
X218310460Y-69819520D01*
X218310460Y-69375020D01*
X218310460Y-67279520D01*
X218310460Y-66835020D01*
X218310460Y-65346580D01*
X218310460Y-65206880D01*
X218310460Y-63682880D01*
X218310460Y-56103520D01*
X218310460Y-55659020D01*
X218140280Y-55250080D01*
X217827860Y-54935120D01*
X217418920Y-54764940D01*
X216974420Y-54764940D01*
X216565480Y-54935120D01*
X216250520Y-55247540D01*
X216080340Y-55656480D01*
X216080340Y-56100980D01*
X216250520Y-56509920D01*
X216562940Y-56824880D01*
X216971880Y-56995060D01*
X217416380Y-56995060D01*
X217825320Y-56824880D01*
X218140280Y-56512460D01*
X218310460Y-56103520D01*
X218310460Y-63682880D01*
X218257120Y-63553340D01*
X218155520Y-63454280D01*
X218025980Y-63400940D01*
X217886280Y-63400940D01*
X216362280Y-63400940D01*
X216232740Y-63454280D01*
X216133680Y-63555880D01*
X216080340Y-63685420D01*
X216080340Y-63825120D01*
X216080340Y-65349120D01*
X216133680Y-65478660D01*
X216235280Y-65577720D01*
X216364820Y-65631060D01*
X216504520Y-65631060D01*
X218028520Y-65631060D01*
X218158060Y-65577720D01*
X218257120Y-65476120D01*
X218310460Y-65346580D01*
X218310460Y-66835020D01*
X218140280Y-66426080D01*
X217827860Y-66111120D01*
X217418920Y-65940940D01*
X216974420Y-65940940D01*
X216565480Y-66111120D01*
X216250520Y-66423540D01*
X216080340Y-66832480D01*
X216080340Y-67276980D01*
X216250520Y-67685920D01*
X216562940Y-68000880D01*
X216971880Y-68171060D01*
X217416380Y-68171060D01*
X217825320Y-68000880D01*
X218140280Y-67688460D01*
X218310460Y-67279520D01*
X218310460Y-69375020D01*
X218140280Y-68966080D01*
X217827860Y-68651120D01*
X217418920Y-68480940D01*
X216974420Y-68480940D01*
X216565480Y-68651120D01*
X216250520Y-68963540D01*
X216080340Y-69372480D01*
X216080340Y-69816980D01*
X216250520Y-70225920D01*
X216562940Y-70540880D01*
X216971880Y-70711060D01*
X217416380Y-70711060D01*
X217825320Y-70540880D01*
X218140280Y-70228460D01*
X218310460Y-69819520D01*
X218310460Y-71915020D01*
X218140280Y-71506080D01*
X217827860Y-71191120D01*
X217418920Y-71020940D01*
X216974420Y-71020940D01*
X216565480Y-71191120D01*
X216250520Y-71503540D01*
X216080340Y-71912480D01*
X216080340Y-72356980D01*
X216250520Y-72765920D01*
X216562940Y-73080880D01*
X216971880Y-73251060D01*
X217416380Y-73251060D01*
X217825320Y-73080880D01*
X218140280Y-72768460D01*
X218310460Y-72359520D01*
X218310460Y-74455020D01*
X218140280Y-74046080D01*
X217827860Y-73731120D01*
X217418920Y-73560940D01*
X216974420Y-73560940D01*
X216565480Y-73731120D01*
X216250520Y-74043540D01*
X216080340Y-74452480D01*
X216080340Y-74896980D01*
X216250520Y-75305920D01*
X216562940Y-75620880D01*
X216971880Y-75791060D01*
X217416380Y-75791060D01*
X217825320Y-75620880D01*
X218140280Y-75308460D01*
X218310460Y-74899520D01*
X218310460Y-76995020D01*
X218140280Y-76586080D01*
X217827860Y-76271120D01*
X217418920Y-76100940D01*
X216974420Y-76100940D01*
X216565480Y-76271120D01*
X216250520Y-76583540D01*
X216080340Y-76992480D01*
X216080340Y-77436980D01*
X216250520Y-77845920D01*
X216562940Y-78160880D01*
X216971880Y-78331060D01*
X217416380Y-78331060D01*
X217825320Y-78160880D01*
X218140280Y-77848460D01*
X218310460Y-77439520D01*
X218310460Y-79535020D01*
X218140280Y-79126080D01*
X217827860Y-78811120D01*
X217418920Y-78640940D01*
X216974420Y-78640940D01*
X216565480Y-78811120D01*
X216250520Y-79123540D01*
X216080340Y-79532480D01*
X216080340Y-79976980D01*
X216250520Y-80385920D01*
X216562940Y-80700880D01*
X216971880Y-80871060D01*
X217416380Y-80871060D01*
X217825320Y-80700880D01*
X218140280Y-80388460D01*
X218310460Y-79979520D01*
X218310460Y-82075020D01*
X218140280Y-81666080D01*
X217827860Y-81351120D01*
X217418920Y-81180940D01*
X216974420Y-81180940D01*
X216565480Y-81351120D01*
X216250520Y-81663540D01*
X216080340Y-82072480D01*
X216080340Y-82516980D01*
X216250520Y-82925920D01*
X216562940Y-83240880D01*
X216971880Y-83411060D01*
X217416380Y-83411060D01*
X217825320Y-83240880D01*
X218140280Y-82928460D01*
X218310460Y-82519520D01*
X218310460Y-119504460D01*
X218234260Y-119504460D01*
X218234260Y-104566720D01*
X218234260Y-104122220D01*
X218064080Y-103713280D01*
X217751660Y-103398320D01*
X217342720Y-103228140D01*
X216898220Y-103228140D01*
X216489280Y-103398320D01*
X216174320Y-103710740D01*
X216004140Y-104119680D01*
X216004140Y-104564180D01*
X216174320Y-104973120D01*
X216486740Y-105288080D01*
X216895680Y-105458260D01*
X217340180Y-105458260D01*
X217749120Y-105288080D01*
X218064080Y-104975660D01*
X218234260Y-104566720D01*
X218234260Y-119504460D01*
X215770460Y-119504460D01*
X215770460Y-56103520D01*
X215770460Y-55659020D01*
X215600280Y-55250080D01*
X215287860Y-54935120D01*
X214878920Y-54764940D01*
X214434420Y-54764940D01*
X214025480Y-54935120D01*
X213710520Y-55247540D01*
X213540340Y-55656480D01*
X213540340Y-56100980D01*
X213710520Y-56509920D01*
X214022940Y-56824880D01*
X214431880Y-56995060D01*
X214876380Y-56995060D01*
X215285320Y-56824880D01*
X215600280Y-56512460D01*
X215770460Y-56103520D01*
X215770460Y-119504460D01*
X215694260Y-119504460D01*
X215694260Y-104566720D01*
X215694260Y-104122220D01*
X215524080Y-103713280D01*
X215430100Y-103616760D01*
X215430100Y-99220020D01*
X215430100Y-98902520D01*
X215308180Y-98607880D01*
X215087200Y-98384360D01*
X215087200Y-88303100D01*
X215308180Y-88084660D01*
X215430100Y-87790020D01*
X215430100Y-87472520D01*
X215308180Y-87177880D01*
X215087200Y-86954360D01*
X215087200Y-78143100D01*
X215308180Y-77924660D01*
X215430100Y-77630020D01*
X215430100Y-77312520D01*
X215308180Y-77017880D01*
X215087200Y-76794360D01*
X215087200Y-69253100D01*
X215308180Y-69034660D01*
X215430100Y-68740020D01*
X215430100Y-68422520D01*
X215308180Y-68127880D01*
X215087200Y-67904360D01*
X215087200Y-65443100D01*
X215308180Y-65224660D01*
X215430100Y-64930020D01*
X215430100Y-64612520D01*
X215308180Y-64317880D01*
X215087200Y-64094360D01*
X215087200Y-60363100D01*
X215308180Y-60144660D01*
X215430100Y-59850020D01*
X215430100Y-59532520D01*
X215308180Y-59237880D01*
X215084660Y-59011820D01*
X214790020Y-58889900D01*
X214472520Y-58889900D01*
X214177880Y-59011820D01*
X213951820Y-59235340D01*
X213829900Y-59529980D01*
X213829900Y-59847480D01*
X213951820Y-60142120D01*
X214172800Y-60363100D01*
X214172800Y-64094360D01*
X213951820Y-64315340D01*
X213829900Y-64609980D01*
X213829900Y-64927480D01*
X213951820Y-65222120D01*
X214172800Y-65443100D01*
X214172800Y-66860420D01*
X214066120Y-66603880D01*
X213842600Y-66377820D01*
X213817200Y-66365120D01*
X213817200Y-61633100D01*
X214038180Y-61414660D01*
X214160100Y-61120020D01*
X214160100Y-60802520D01*
X214038180Y-60507880D01*
X213814660Y-60281820D01*
X213520020Y-60159900D01*
X213230460Y-60159900D01*
X213230460Y-56103520D01*
X213230460Y-55659020D01*
X213060280Y-55250080D01*
X212747860Y-54935120D01*
X212338920Y-54764940D01*
X211894420Y-54764940D01*
X211485480Y-54935120D01*
X211170520Y-55247540D01*
X211000340Y-55656480D01*
X211000340Y-56100980D01*
X211170520Y-56509920D01*
X211482940Y-56824880D01*
X211891880Y-56995060D01*
X212336380Y-56995060D01*
X212745320Y-56824880D01*
X213060280Y-56512460D01*
X213230460Y-56103520D01*
X213230460Y-60159900D01*
X213202520Y-60159900D01*
X212907880Y-60281820D01*
X212681820Y-60505340D01*
X212559900Y-60799980D01*
X212559900Y-61117480D01*
X212681820Y-61412120D01*
X212902800Y-61633100D01*
X212902800Y-65590420D01*
X212796120Y-65333880D01*
X212572600Y-65107820D01*
X212547200Y-65095120D01*
X212547200Y-62903100D01*
X212768180Y-62684660D01*
X212890100Y-62390020D01*
X212890100Y-62072520D01*
X212768180Y-61777880D01*
X212544660Y-61551820D01*
X212250020Y-61429900D01*
X211932520Y-61429900D01*
X211637880Y-61551820D01*
X211411820Y-61775340D01*
X211289900Y-62069980D01*
X211289900Y-62387480D01*
X211411820Y-62682120D01*
X211632800Y-62903100D01*
X211632800Y-65138300D01*
X211439760Y-65331340D01*
X211317840Y-65625980D01*
X211317840Y-65943480D01*
X211439760Y-66238120D01*
X211632800Y-66431160D01*
X211632800Y-71714360D01*
X211411820Y-71935340D01*
X211289900Y-72229980D01*
X211289900Y-72547480D01*
X211411820Y-72842120D01*
X211632800Y-73063100D01*
X211632800Y-81874360D01*
X211411820Y-82095340D01*
X211289900Y-82389980D01*
X211289900Y-82707480D01*
X211411820Y-83002120D01*
X211632800Y-83223100D01*
X211632800Y-92034360D01*
X211411820Y-92255340D01*
X211289900Y-92549980D01*
X211289900Y-92867480D01*
X211411820Y-93162120D01*
X211635340Y-93388180D01*
X211929980Y-93510100D01*
X212247480Y-93510100D01*
X212542120Y-93388180D01*
X212768180Y-93164660D01*
X212890100Y-92870020D01*
X212890100Y-92552520D01*
X212768180Y-92257880D01*
X212547200Y-92034360D01*
X212547200Y-83223100D01*
X212768180Y-83004660D01*
X212890100Y-82710020D01*
X212890100Y-82392520D01*
X212768180Y-82097880D01*
X212547200Y-81874360D01*
X212547200Y-73063100D01*
X212768180Y-72844660D01*
X212890100Y-72550020D01*
X212890100Y-72232520D01*
X212768180Y-71937880D01*
X212547200Y-71714360D01*
X212547200Y-66471800D01*
X212570060Y-66464180D01*
X212796120Y-66240660D01*
X212902800Y-65981580D01*
X212902800Y-66408300D01*
X212709760Y-66601340D01*
X212587840Y-66895980D01*
X212587840Y-67213480D01*
X212709760Y-67508120D01*
X212902800Y-67701160D01*
X212902800Y-70444360D01*
X212681820Y-70665340D01*
X212559900Y-70959980D01*
X212559900Y-71277480D01*
X212681820Y-71572120D01*
X212902800Y-71793100D01*
X212902800Y-80604360D01*
X212681820Y-80825340D01*
X212559900Y-81119980D01*
X212559900Y-81437480D01*
X212681820Y-81732120D01*
X212902800Y-81953100D01*
X212902800Y-90764360D01*
X212681820Y-90985340D01*
X212559900Y-91279980D01*
X212559900Y-91597480D01*
X212681820Y-91892120D01*
X212905340Y-92118180D01*
X213199980Y-92240100D01*
X213517480Y-92240100D01*
X213812120Y-92118180D01*
X214038180Y-91894660D01*
X214160100Y-91600020D01*
X214160100Y-91282520D01*
X214038180Y-90987880D01*
X213817200Y-90764360D01*
X213817200Y-81953100D01*
X214038180Y-81734660D01*
X214160100Y-81440020D01*
X214160100Y-81122520D01*
X214038180Y-80827880D01*
X213817200Y-80604360D01*
X213817200Y-71793100D01*
X214038180Y-71574660D01*
X214160100Y-71280020D01*
X214160100Y-70962520D01*
X214038180Y-70667880D01*
X213817200Y-70444360D01*
X213817200Y-67741800D01*
X213840060Y-67734180D01*
X214066120Y-67510660D01*
X214172800Y-67251580D01*
X214172800Y-67904360D01*
X213951820Y-68125340D01*
X213829900Y-68419980D01*
X213829900Y-68737480D01*
X213951820Y-69032120D01*
X214172800Y-69253100D01*
X214172800Y-76794360D01*
X213951820Y-77015340D01*
X213829900Y-77309980D01*
X213829900Y-77627480D01*
X213951820Y-77922120D01*
X214172800Y-78143100D01*
X214172800Y-86954360D01*
X213951820Y-87175340D01*
X213829900Y-87469980D01*
X213829900Y-87787480D01*
X213951820Y-88082120D01*
X214172800Y-88303100D01*
X214172800Y-98384360D01*
X213951820Y-98605340D01*
X213829900Y-98899980D01*
X213829900Y-99217480D01*
X213951820Y-99512120D01*
X214175340Y-99738180D01*
X214469980Y-99860100D01*
X214787480Y-99860100D01*
X215082120Y-99738180D01*
X215308180Y-99514660D01*
X215430100Y-99220020D01*
X215430100Y-103616760D01*
X215211660Y-103398320D01*
X214802720Y-103228140D01*
X214358220Y-103228140D01*
X213949280Y-103398320D01*
X213634320Y-103710740D01*
X213464140Y-104119680D01*
X213464140Y-104564180D01*
X213634320Y-104973120D01*
X213946740Y-105288080D01*
X214355680Y-105458260D01*
X214800180Y-105458260D01*
X215209120Y-105288080D01*
X215524080Y-104975660D01*
X215694260Y-104566720D01*
X215694260Y-119504460D01*
X213154260Y-119504460D01*
X213154260Y-104566720D01*
X213154260Y-104122220D01*
X212984080Y-103713280D01*
X212671660Y-103398320D01*
X212262720Y-103228140D01*
X211818220Y-103228140D01*
X211620100Y-103309420D01*
X211620100Y-94140020D01*
X211620100Y-93822520D01*
X211498180Y-93527880D01*
X211277200Y-93304360D01*
X211277200Y-84493100D01*
X211498180Y-84274660D01*
X211620100Y-83980020D01*
X211620100Y-83662520D01*
X211498180Y-83367880D01*
X211277200Y-83144360D01*
X211277200Y-74333100D01*
X211498180Y-74114660D01*
X211620100Y-73820020D01*
X211620100Y-73502520D01*
X211498180Y-73207880D01*
X211277200Y-72984360D01*
X211277200Y-64173100D01*
X211498180Y-63954660D01*
X211620100Y-63660020D01*
X211620100Y-63342520D01*
X211498180Y-63047880D01*
X211274660Y-62821820D01*
X210980020Y-62699900D01*
X210690460Y-62699900D01*
X210690460Y-56103520D01*
X210690460Y-55659020D01*
X210520280Y-55250080D01*
X210207860Y-54935120D01*
X209798920Y-54764940D01*
X209354420Y-54764940D01*
X208945480Y-54935120D01*
X208630520Y-55247540D01*
X208460340Y-55656480D01*
X208460340Y-56100980D01*
X208630520Y-56509920D01*
X208942940Y-56824880D01*
X209351880Y-56995060D01*
X209796380Y-56995060D01*
X210205320Y-56824880D01*
X210520280Y-56512460D01*
X210690460Y-56103520D01*
X210690460Y-62699900D01*
X210662520Y-62699900D01*
X210367880Y-62821820D01*
X210141820Y-63045340D01*
X210019900Y-63339980D01*
X210019900Y-63657480D01*
X210141820Y-63952120D01*
X210362800Y-64173100D01*
X210362800Y-69400420D01*
X210256120Y-69143880D01*
X210032600Y-68917820D01*
X210007200Y-68905120D01*
X210007200Y-65443100D01*
X210228180Y-65224660D01*
X210350100Y-64930020D01*
X210350100Y-64612520D01*
X210228180Y-64317880D01*
X210004660Y-64091820D01*
X209710020Y-63969900D01*
X209392520Y-63969900D01*
X209097880Y-64091820D01*
X208871820Y-64315340D01*
X208749900Y-64609980D01*
X208749900Y-64927480D01*
X208871820Y-65222120D01*
X209092800Y-65443100D01*
X209092800Y-68948300D01*
X208899760Y-69141340D01*
X208777840Y-69435980D01*
X208777840Y-69753480D01*
X208899760Y-70048120D01*
X209092800Y-70241160D01*
X209092800Y-74254360D01*
X208871820Y-74475340D01*
X208749900Y-74769980D01*
X208749900Y-75087480D01*
X208871820Y-75382120D01*
X209092800Y-75603100D01*
X209092800Y-84414360D01*
X208871820Y-84635340D01*
X208749900Y-84929980D01*
X208749900Y-85247480D01*
X208871820Y-85542120D01*
X209092800Y-85763100D01*
X209092800Y-94574360D01*
X209080100Y-94587060D01*
X209080100Y-86520020D01*
X209080100Y-86202520D01*
X208958180Y-85907880D01*
X208737200Y-85684360D01*
X208737200Y-61633100D01*
X208958180Y-61414660D01*
X209080100Y-61120020D01*
X209080100Y-60802520D01*
X208958180Y-60507880D01*
X208734660Y-60281820D01*
X208440020Y-60159900D01*
X208150460Y-60159900D01*
X208150460Y-56103520D01*
X208150460Y-55659020D01*
X207980280Y-55250080D01*
X207667860Y-54935120D01*
X207258920Y-54764940D01*
X206814420Y-54764940D01*
X206405480Y-54935120D01*
X206090520Y-55247540D01*
X205920340Y-55656480D01*
X205920340Y-56100980D01*
X206090520Y-56509920D01*
X206402940Y-56824880D01*
X206811880Y-56995060D01*
X207256380Y-56995060D01*
X207665320Y-56824880D01*
X207980280Y-56512460D01*
X208150460Y-56103520D01*
X208150460Y-60159900D01*
X208122520Y-60159900D01*
X207827880Y-60281820D01*
X207601820Y-60505340D01*
X207479900Y-60799980D01*
X207479900Y-61117480D01*
X207601820Y-61412120D01*
X207822800Y-61633100D01*
X207822800Y-85684360D01*
X207601820Y-85905340D01*
X207479900Y-86199980D01*
X207479900Y-86517480D01*
X207601820Y-86812120D01*
X207825340Y-87038180D01*
X208119980Y-87160100D01*
X208437480Y-87160100D01*
X208732120Y-87038180D01*
X208958180Y-86814660D01*
X209080100Y-86520020D01*
X209080100Y-94587060D01*
X208871820Y-94795340D01*
X208749900Y-95089980D01*
X208749900Y-95407480D01*
X208871820Y-95702120D01*
X209095340Y-95928180D01*
X209389980Y-96050100D01*
X209707480Y-96050100D01*
X210002120Y-95928180D01*
X210228180Y-95704660D01*
X210350100Y-95410020D01*
X210350100Y-95092520D01*
X210228180Y-94797880D01*
X210007200Y-94574360D01*
X210007200Y-85763100D01*
X210228180Y-85544660D01*
X210350100Y-85250020D01*
X210350100Y-84932520D01*
X210228180Y-84637880D01*
X210007200Y-84414360D01*
X210007200Y-75603100D01*
X210228180Y-75384660D01*
X210350100Y-75090020D01*
X210350100Y-74772520D01*
X210228180Y-74477880D01*
X210007200Y-74254360D01*
X210007200Y-70281800D01*
X210030060Y-70274180D01*
X210256120Y-70050660D01*
X210362800Y-69791580D01*
X210362800Y-72984360D01*
X210141820Y-73205340D01*
X210019900Y-73499980D01*
X210019900Y-73817480D01*
X210141820Y-74112120D01*
X210362800Y-74333100D01*
X210362800Y-83144360D01*
X210141820Y-83365340D01*
X210019900Y-83659980D01*
X210019900Y-83977480D01*
X210141820Y-84272120D01*
X210362800Y-84493100D01*
X210362800Y-93304360D01*
X210141820Y-93525340D01*
X210019900Y-93819980D01*
X210019900Y-94137480D01*
X210141820Y-94432120D01*
X210365340Y-94658180D01*
X210659980Y-94780100D01*
X210977480Y-94780100D01*
X211272120Y-94658180D01*
X211498180Y-94434660D01*
X211620100Y-94140020D01*
X211620100Y-103309420D01*
X211409280Y-103398320D01*
X211094320Y-103710740D01*
X210924140Y-104119680D01*
X210924140Y-104564180D01*
X211094320Y-104973120D01*
X211406740Y-105288080D01*
X211815680Y-105458260D01*
X212260180Y-105458260D01*
X212669120Y-105288080D01*
X212984080Y-104975660D01*
X213154260Y-104566720D01*
X213154260Y-119504460D01*
X210614260Y-119504460D01*
X210614260Y-104566720D01*
X210614260Y-104122220D01*
X210444080Y-103713280D01*
X210131660Y-103398320D01*
X209722720Y-103228140D01*
X209278220Y-103228140D01*
X208869280Y-103398320D01*
X208554320Y-103710740D01*
X208384140Y-104119680D01*
X208384140Y-104564180D01*
X208554320Y-104973120D01*
X208866740Y-105288080D01*
X209275680Y-105458260D01*
X209720180Y-105458260D01*
X210129120Y-105288080D01*
X210444080Y-104975660D01*
X210614260Y-104566720D01*
X210614260Y-119504460D01*
X208074260Y-119504460D01*
X208074260Y-104566720D01*
X208074260Y-104122220D01*
X207904080Y-103713280D01*
X207810100Y-103616760D01*
X207810100Y-97950020D01*
X207810100Y-97632520D01*
X207688180Y-97337880D01*
X207467200Y-97114360D01*
X207467200Y-81953100D01*
X207688180Y-81734660D01*
X207810100Y-81440020D01*
X207810100Y-81122520D01*
X207688180Y-80827880D01*
X207464660Y-80601820D01*
X207170020Y-80479900D01*
X206852520Y-80479900D01*
X206557880Y-80601820D01*
X206331820Y-80825340D01*
X206225140Y-81081880D01*
X206225140Y-76619100D01*
X206446120Y-76400660D01*
X206568040Y-76106020D01*
X206568040Y-75788520D01*
X206446120Y-75493880D01*
X206222600Y-75267820D01*
X205927960Y-75145900D01*
X205610460Y-75145900D01*
X205610460Y-56103520D01*
X205610460Y-55659020D01*
X205440280Y-55250080D01*
X205127860Y-54935120D01*
X204718920Y-54764940D01*
X204274420Y-54764940D01*
X203865480Y-54935120D01*
X203550520Y-55247540D01*
X203380340Y-55656480D01*
X203380340Y-56100980D01*
X203550520Y-56509920D01*
X203862940Y-56824880D01*
X204271880Y-56995060D01*
X204716380Y-56995060D01*
X205125320Y-56824880D01*
X205440280Y-56512460D01*
X205610460Y-56103520D01*
X205610460Y-75145900D01*
X205315820Y-75267820D01*
X205089760Y-75491340D01*
X204967840Y-75785980D01*
X204967840Y-76103480D01*
X205089760Y-76398120D01*
X205310740Y-76619100D01*
X205310740Y-90510360D01*
X205089760Y-90731340D01*
X204967840Y-91025980D01*
X204967840Y-91343480D01*
X205089760Y-91638120D01*
X205313280Y-91864180D01*
X205607920Y-91986100D01*
X205925420Y-91986100D01*
X206220060Y-91864180D01*
X206446120Y-91640660D01*
X206552800Y-91381580D01*
X206552800Y-97114360D01*
X206331820Y-97335340D01*
X206209900Y-97629980D01*
X206209900Y-97947480D01*
X206331820Y-98242120D01*
X206555340Y-98468180D01*
X206849980Y-98590100D01*
X207167480Y-98590100D01*
X207462120Y-98468180D01*
X207688180Y-98244660D01*
X207810100Y-97950020D01*
X207810100Y-103616760D01*
X207591660Y-103398320D01*
X207182720Y-103228140D01*
X206738220Y-103228140D01*
X206329280Y-103398320D01*
X206014320Y-103710740D01*
X205844140Y-104119680D01*
X205844140Y-104564180D01*
X206014320Y-104973120D01*
X206326740Y-105288080D01*
X206735680Y-105458260D01*
X207180180Y-105458260D01*
X207589120Y-105288080D01*
X207904080Y-104975660D01*
X208074260Y-104566720D01*
X208074260Y-119504460D01*
X205534260Y-119504460D01*
X205534260Y-104566720D01*
X205534260Y-104122220D01*
X205364080Y-103713280D01*
X205051660Y-103398320D01*
X204642720Y-103228140D01*
X204198220Y-103228140D01*
X203789280Y-103398320D01*
X203474320Y-103710740D01*
X203304140Y-104119680D01*
X203304140Y-104564180D01*
X203474320Y-104973120D01*
X203786740Y-105288080D01*
X204195680Y-105458260D01*
X204640180Y-105458260D01*
X205049120Y-105288080D01*
X205364080Y-104975660D01*
X205534260Y-104566720D01*
X205534260Y-119504460D01*
X203070460Y-119504460D01*
X203070460Y-56103520D01*
X203070460Y-55659020D01*
X202900280Y-55250080D01*
X202587860Y-54935120D01*
X202178920Y-54764940D01*
X201734420Y-54764940D01*
X201325480Y-54935120D01*
X201010520Y-55247540D01*
X200840340Y-55656480D01*
X200840340Y-56100980D01*
X201010520Y-56509920D01*
X201322940Y-56824880D01*
X201731880Y-56995060D01*
X202176380Y-56995060D01*
X202585320Y-56824880D01*
X202900280Y-56512460D01*
X203070460Y-56103520D01*
X203070460Y-119504460D01*
X200530460Y-119504460D01*
X200530460Y-56103520D01*
X200530460Y-55659020D01*
X200360280Y-55250080D01*
X200047860Y-54935120D01*
X199638920Y-54764940D01*
X199194420Y-54764940D01*
X198785480Y-54935120D01*
X198470520Y-55247540D01*
X198300340Y-55656480D01*
X198300340Y-56100980D01*
X198470520Y-56509920D01*
X198782940Y-56824880D01*
X199191880Y-56995060D01*
X199636380Y-56995060D01*
X200045320Y-56824880D01*
X200360280Y-56512460D01*
X200530460Y-56103520D01*
X200530460Y-119504460D01*
X200479660Y-119504460D01*
X200479660Y-104566720D01*
X200479660Y-104122220D01*
X200309480Y-103713280D01*
X199997060Y-103398320D01*
X199588120Y-103228140D01*
X199143620Y-103228140D01*
X198734680Y-103398320D01*
X198419720Y-103710740D01*
X198249540Y-104119680D01*
X198249540Y-104564180D01*
X198419720Y-104973120D01*
X198732140Y-105288080D01*
X199141080Y-105458260D01*
X199585580Y-105458260D01*
X199994520Y-105288080D01*
X200309480Y-104975660D01*
X200479660Y-104566720D01*
X200479660Y-119504460D01*
X198183500Y-119504460D01*
X198183500Y-104513380D01*
X198145400Y-103979980D01*
X198015860Y-103665020D01*
X197787260Y-103596440D01*
X197571360Y-103812340D01*
X197571360Y-103380540D01*
X197502780Y-103151940D01*
X196994780Y-102984300D01*
X196695060Y-103004620D01*
X196695060Y-56103520D01*
X196695060Y-55659020D01*
X196524880Y-55250080D01*
X196212460Y-54935120D01*
X195803520Y-54764940D01*
X195359020Y-54764940D01*
X194950080Y-54935120D01*
X194635120Y-55247540D01*
X194464940Y-55656480D01*
X194464940Y-56100980D01*
X194635120Y-56509920D01*
X194947540Y-56824880D01*
X195356480Y-56995060D01*
X195800980Y-56995060D01*
X196209920Y-56824880D01*
X196524880Y-56512460D01*
X196695060Y-56103520D01*
X196695060Y-103004620D01*
X196461380Y-103022400D01*
X196146420Y-103151940D01*
X196077840Y-103380540D01*
X196824600Y-104127300D01*
X197571360Y-103380540D01*
X197571360Y-103812340D01*
X197040500Y-104343200D01*
X197787260Y-105089960D01*
X198015860Y-105021380D01*
X198183500Y-104513380D01*
X198183500Y-119504460D01*
X197571360Y-119504460D01*
X197571360Y-105305860D01*
X196824600Y-104559100D01*
X196608700Y-104775000D01*
X196608700Y-104343200D01*
X195861940Y-103596440D01*
X195633340Y-103665020D01*
X195562220Y-103875840D01*
X195475860Y-103665020D01*
X195247260Y-103596440D01*
X195031360Y-103812340D01*
X194500500Y-104343200D01*
X195247260Y-105089960D01*
X195475860Y-105021380D01*
X195544440Y-104808020D01*
X195633340Y-105021380D01*
X195861940Y-105089960D01*
X196608700Y-104343200D01*
X196608700Y-104775000D01*
X196077840Y-105305860D01*
X196146420Y-105534460D01*
X196654420Y-105702100D01*
X197187820Y-105664000D01*
X197502780Y-105534460D01*
X197571360Y-105305860D01*
X197571360Y-119504460D01*
X195031360Y-119504460D01*
X195031360Y-105305860D01*
X194355720Y-104630220D01*
X194284600Y-104559100D01*
X194068700Y-104343200D01*
X194284600Y-104127300D01*
X194355720Y-104056180D01*
X195031360Y-103380540D01*
X194962780Y-103151940D01*
X194454780Y-102984300D01*
X194155060Y-103004620D01*
X194155060Y-56103520D01*
X194155060Y-55659020D01*
X193984880Y-55250080D01*
X193672460Y-54935120D01*
X193263520Y-54764940D01*
X192819020Y-54764940D01*
X192410080Y-54935120D01*
X192095120Y-55247540D01*
X191924940Y-55656480D01*
X191924940Y-56100980D01*
X192095120Y-56509920D01*
X192407540Y-56824880D01*
X192816480Y-56995060D01*
X193260980Y-56995060D01*
X193669920Y-56824880D01*
X193984880Y-56512460D01*
X194155060Y-56103520D01*
X194155060Y-103004620D01*
X193921380Y-103022400D01*
X193606420Y-103151940D01*
X193570860Y-103268780D01*
X193479420Y-103177340D01*
X193456560Y-103200200D01*
X193456560Y-103098600D01*
X193421000Y-102923340D01*
X193321940Y-102776020D01*
X193321940Y-102773480D01*
X193055240Y-102506780D01*
X193055240Y-89372440D01*
X193276220Y-89154000D01*
X193398140Y-88859360D01*
X193398140Y-88541860D01*
X193276220Y-88247220D01*
X193052700Y-88021160D01*
X192758060Y-87899240D01*
X192440560Y-87899240D01*
X192145920Y-88021160D01*
X191919860Y-88244680D01*
X191797940Y-88539320D01*
X191797940Y-88856820D01*
X191919860Y-89151460D01*
X192140840Y-89372440D01*
X192140840Y-102697280D01*
X192176400Y-102872540D01*
X192275460Y-103019860D01*
X192542160Y-103286560D01*
X192542160Y-103563420D01*
X192377060Y-103398320D01*
X191968120Y-103228140D01*
X191523620Y-103228140D01*
X191114680Y-103398320D01*
X191056260Y-103454200D01*
X191056260Y-103388160D01*
X191422020Y-103024940D01*
X191422020Y-103022400D01*
X191521080Y-102875080D01*
X191554100Y-102699820D01*
X191556640Y-102699820D01*
X191556640Y-90472260D01*
X191777620Y-90253820D01*
X191899540Y-89959180D01*
X191899540Y-89641680D01*
X191777620Y-89347040D01*
X191615060Y-89181940D01*
X191615060Y-56103520D01*
X191615060Y-55659020D01*
X191444880Y-55250080D01*
X191132460Y-54935120D01*
X190723520Y-54764940D01*
X190279020Y-54764940D01*
X189870080Y-54935120D01*
X189555120Y-55247540D01*
X189384940Y-55656480D01*
X189384940Y-56100980D01*
X189555120Y-56509920D01*
X189867540Y-56824880D01*
X190276480Y-56995060D01*
X190720980Y-56995060D01*
X191129920Y-56824880D01*
X191444880Y-56512460D01*
X191615060Y-56103520D01*
X191615060Y-89181940D01*
X191554100Y-89120980D01*
X191259460Y-88999060D01*
X190941960Y-88999060D01*
X190802260Y-89054940D01*
X190802260Y-79758540D01*
X190802260Y-79441040D01*
X190680340Y-79146400D01*
X190456820Y-78920340D01*
X190162180Y-78798420D01*
X189844680Y-78798420D01*
X189550040Y-78920340D01*
X189323980Y-79143860D01*
X189202060Y-79438500D01*
X189202060Y-79756000D01*
X189323980Y-80050640D01*
X189544960Y-80271620D01*
X189544960Y-87723980D01*
X189321440Y-87947500D01*
X189298580Y-88000840D01*
X189298580Y-87459820D01*
X189298580Y-87142320D01*
X189176660Y-86847680D01*
X188955680Y-86624160D01*
X188955680Y-81353660D01*
X189176660Y-81135220D01*
X189298580Y-80840580D01*
X189298580Y-80523080D01*
X189176660Y-80228440D01*
X189075060Y-80124300D01*
X189075060Y-56103520D01*
X189075060Y-55659020D01*
X188904880Y-55250080D01*
X188592460Y-54935120D01*
X188183520Y-54764940D01*
X187739020Y-54764940D01*
X187330080Y-54935120D01*
X187015120Y-55247540D01*
X186844940Y-55656480D01*
X186844940Y-56100980D01*
X187015120Y-56509920D01*
X187327540Y-56824880D01*
X187736480Y-56995060D01*
X188180980Y-56995060D01*
X188589920Y-56824880D01*
X188904880Y-56512460D01*
X189075060Y-56103520D01*
X189075060Y-80124300D01*
X188953140Y-80002380D01*
X188658500Y-79880460D01*
X188341000Y-79880460D01*
X188046360Y-80002380D01*
X187820300Y-80225900D01*
X187698380Y-80520540D01*
X187698380Y-80838040D01*
X187820300Y-81132680D01*
X188041280Y-81353660D01*
X188041280Y-86624160D01*
X187820300Y-86845140D01*
X187799980Y-86893400D01*
X187799980Y-86360000D01*
X187799980Y-86042500D01*
X187678060Y-85747860D01*
X187457080Y-85524340D01*
X187457080Y-82473800D01*
X187678060Y-82255360D01*
X187799980Y-81960720D01*
X187799980Y-81643220D01*
X187678060Y-81348580D01*
X187454540Y-81122520D01*
X187159900Y-81000600D01*
X186842400Y-81000600D01*
X186547760Y-81122520D01*
X186535060Y-81132680D01*
X186535060Y-56103520D01*
X186535060Y-55659020D01*
X186364880Y-55250080D01*
X186052460Y-54935120D01*
X185643520Y-54764940D01*
X185199020Y-54764940D01*
X184790080Y-54935120D01*
X184475120Y-55247540D01*
X184304940Y-55656480D01*
X184304940Y-56100980D01*
X184475120Y-56509920D01*
X184787540Y-56824880D01*
X185196480Y-56995060D01*
X185640980Y-56995060D01*
X186049920Y-56824880D01*
X186364880Y-56512460D01*
X186535060Y-56103520D01*
X186535060Y-81132680D01*
X186321700Y-81346040D01*
X186199780Y-81640680D01*
X186199780Y-81958180D01*
X186321700Y-82252820D01*
X186542680Y-82473800D01*
X186542680Y-85524340D01*
X186321700Y-85745320D01*
X186298840Y-85798660D01*
X186298840Y-85260180D01*
X186298840Y-84942680D01*
X186176920Y-84648040D01*
X185955940Y-84424520D01*
X185955940Y-83573620D01*
X186176920Y-83355180D01*
X186298840Y-83060540D01*
X186298840Y-82743040D01*
X186176920Y-82448400D01*
X185953400Y-82222340D01*
X185658760Y-82100420D01*
X185341260Y-82100420D01*
X185046620Y-82222340D01*
X184820560Y-82445860D01*
X184698640Y-82740500D01*
X184698640Y-83058000D01*
X184820560Y-83352640D01*
X185041540Y-83573620D01*
X185041540Y-84424520D01*
X184820560Y-84645500D01*
X184698640Y-84940140D01*
X184698640Y-85257640D01*
X184820560Y-85552280D01*
X185044080Y-85778340D01*
X185338720Y-85900260D01*
X185656220Y-85900260D01*
X185950860Y-85778340D01*
X186176920Y-85554820D01*
X186298840Y-85260180D01*
X186298840Y-85798660D01*
X186199780Y-86039960D01*
X186199780Y-86357460D01*
X186321700Y-86652100D01*
X186545220Y-86878160D01*
X186839860Y-87000080D01*
X187157360Y-87000080D01*
X187452000Y-86878160D01*
X187678060Y-86654640D01*
X187799980Y-86360000D01*
X187799980Y-86893400D01*
X187698380Y-87139780D01*
X187698380Y-87457280D01*
X187820300Y-87751920D01*
X188043820Y-87977980D01*
X188338460Y-88099900D01*
X188655960Y-88099900D01*
X188950600Y-87977980D01*
X189176660Y-87754460D01*
X189298580Y-87459820D01*
X189298580Y-88000840D01*
X189199520Y-88242140D01*
X189199520Y-88559640D01*
X189321440Y-88854280D01*
X189544960Y-89080340D01*
X189839600Y-89202260D01*
X190157100Y-89202260D01*
X190451740Y-89080340D01*
X190677800Y-88856820D01*
X190799720Y-88562180D01*
X190799720Y-88244680D01*
X190677800Y-87950040D01*
X190459360Y-87729060D01*
X190459360Y-80271620D01*
X190680340Y-80053180D01*
X190802260Y-79758540D01*
X190802260Y-89054940D01*
X190647320Y-89120980D01*
X190421260Y-89344500D01*
X190299340Y-89639140D01*
X190299340Y-89956640D01*
X190421260Y-90251280D01*
X190642240Y-90472260D01*
X190642240Y-102509320D01*
X190398400Y-102753160D01*
X190398400Y-102059740D01*
X190398400Y-101742240D01*
X190276480Y-101447600D01*
X190055500Y-101224080D01*
X190055500Y-91572080D01*
X190276480Y-91353640D01*
X190398400Y-91059000D01*
X190398400Y-90741500D01*
X190276480Y-90446860D01*
X190052960Y-90220800D01*
X189758320Y-90098880D01*
X189440820Y-90098880D01*
X189146180Y-90220800D01*
X188920120Y-90444320D01*
X188798200Y-90738960D01*
X188798200Y-91056460D01*
X188920120Y-91351100D01*
X189141100Y-91572080D01*
X189141100Y-101224080D01*
X188920120Y-101445060D01*
X188899800Y-101493320D01*
X188899800Y-100959920D01*
X188899800Y-100642420D01*
X188777880Y-100347780D01*
X188556900Y-100124260D01*
X188556900Y-92671900D01*
X188777880Y-92453460D01*
X188899800Y-92158820D01*
X188899800Y-91841320D01*
X188777880Y-91546680D01*
X188554360Y-91320620D01*
X188259720Y-91198700D01*
X187942220Y-91198700D01*
X187647580Y-91320620D01*
X187421520Y-91544140D01*
X187299600Y-91838780D01*
X187299600Y-92156280D01*
X187421520Y-92450920D01*
X187642500Y-92671900D01*
X187642500Y-100124260D01*
X187421520Y-100345240D01*
X187398660Y-100398580D01*
X187398660Y-99860100D01*
X187398660Y-99542600D01*
X187276740Y-99247960D01*
X187055760Y-99024440D01*
X187055760Y-93771720D01*
X187276740Y-93553280D01*
X187398660Y-93258640D01*
X187398660Y-92941140D01*
X187276740Y-92646500D01*
X187053220Y-92420440D01*
X186758580Y-92298520D01*
X186441080Y-92298520D01*
X186146440Y-92420440D01*
X185920380Y-92643960D01*
X185798460Y-92938600D01*
X185798460Y-93256100D01*
X185920380Y-93550740D01*
X186141360Y-93771720D01*
X186141360Y-99024440D01*
X185920380Y-99245420D01*
X185900060Y-99293680D01*
X185900060Y-98757740D01*
X185900060Y-98440240D01*
X185778140Y-98145600D01*
X185557160Y-97922080D01*
X185557160Y-94871540D01*
X185778140Y-94653100D01*
X185900060Y-94358460D01*
X185900060Y-94040960D01*
X185778140Y-93746320D01*
X185554620Y-93520260D01*
X185259980Y-93398340D01*
X184942480Y-93398340D01*
X184647840Y-93520260D01*
X184421780Y-93743780D01*
X184398920Y-93797120D01*
X184398920Y-89959180D01*
X184398920Y-89641680D01*
X184277000Y-89347040D01*
X184056020Y-89123520D01*
X184056020Y-76172060D01*
X184277000Y-75953620D01*
X184398920Y-75658980D01*
X184398920Y-75341480D01*
X184277000Y-75046840D01*
X184053480Y-74820780D01*
X183995060Y-74795380D01*
X183995060Y-56103520D01*
X183995060Y-55659020D01*
X183824880Y-55250080D01*
X183512460Y-54935120D01*
X183103520Y-54764940D01*
X182659020Y-54764940D01*
X182250080Y-54935120D01*
X181935120Y-55247540D01*
X181764940Y-55656480D01*
X181764940Y-56100980D01*
X181935120Y-56509920D01*
X182247540Y-56824880D01*
X182656480Y-56995060D01*
X183100980Y-56995060D01*
X183509920Y-56824880D01*
X183824880Y-56512460D01*
X183995060Y-56103520D01*
X183995060Y-74795380D01*
X183758840Y-74698860D01*
X183441340Y-74698860D01*
X183146700Y-74820780D01*
X182920640Y-75044300D01*
X182798720Y-75338940D01*
X182798720Y-75656440D01*
X182920640Y-75951080D01*
X183141620Y-76172060D01*
X183141620Y-89123520D01*
X182920640Y-89344500D01*
X182798720Y-89639140D01*
X182798720Y-89956640D01*
X182920640Y-90251280D01*
X183144160Y-90477340D01*
X183438800Y-90599260D01*
X183756300Y-90599260D01*
X184050940Y-90477340D01*
X184277000Y-90253820D01*
X184398920Y-89959180D01*
X184398920Y-93797120D01*
X184299860Y-94038420D01*
X184299860Y-94355920D01*
X184421780Y-94650560D01*
X184642760Y-94871540D01*
X184642760Y-97922080D01*
X184421780Y-98143060D01*
X184398920Y-98196400D01*
X184398920Y-97657920D01*
X184398920Y-97340420D01*
X184277000Y-97045780D01*
X184056020Y-96822260D01*
X184056020Y-95971360D01*
X184277000Y-95752920D01*
X184398920Y-95458280D01*
X184398920Y-95140780D01*
X184277000Y-94846140D01*
X184053480Y-94620080D01*
X183758840Y-94498160D01*
X183441340Y-94498160D01*
X183146700Y-94620080D01*
X182920640Y-94843600D01*
X182798720Y-95138240D01*
X182798720Y-95455740D01*
X182920640Y-95750380D01*
X183141620Y-95971360D01*
X183141620Y-96822260D01*
X182920640Y-97043240D01*
X182798720Y-97337880D01*
X182798720Y-97655380D01*
X182920640Y-97950020D01*
X183144160Y-98176080D01*
X183438800Y-98298000D01*
X183756300Y-98298000D01*
X184050940Y-98176080D01*
X184277000Y-97952560D01*
X184398920Y-97657920D01*
X184398920Y-98196400D01*
X184299860Y-98437700D01*
X184299860Y-98755200D01*
X184421780Y-99049840D01*
X184645300Y-99275900D01*
X184939940Y-99397820D01*
X185257440Y-99397820D01*
X185552080Y-99275900D01*
X185778140Y-99052380D01*
X185900060Y-98757740D01*
X185900060Y-99293680D01*
X185798460Y-99540060D01*
X185798460Y-99857560D01*
X185920380Y-100152200D01*
X186143900Y-100378260D01*
X186438540Y-100500180D01*
X186756040Y-100500180D01*
X187050680Y-100378260D01*
X187276740Y-100154740D01*
X187398660Y-99860100D01*
X187398660Y-100398580D01*
X187299600Y-100639880D01*
X187299600Y-100957380D01*
X187421520Y-101252020D01*
X187645040Y-101478080D01*
X187939680Y-101600000D01*
X188257180Y-101600000D01*
X188551820Y-101478080D01*
X188777880Y-101254560D01*
X188899800Y-100959920D01*
X188899800Y-101493320D01*
X188798200Y-101739700D01*
X188798200Y-102057200D01*
X188920120Y-102351840D01*
X189143640Y-102577900D01*
X189438280Y-102699820D01*
X189755780Y-102699820D01*
X190050420Y-102577900D01*
X190276480Y-102354380D01*
X190398400Y-102059740D01*
X190398400Y-102753160D01*
X190276480Y-102877620D01*
X190177420Y-103024940D01*
X190141860Y-103200200D01*
X190141860Y-103703120D01*
X189837060Y-103398320D01*
X189428120Y-103228140D01*
X188983620Y-103228140D01*
X188574680Y-103398320D01*
X188259720Y-103710740D01*
X188089540Y-104119680D01*
X188089540Y-104564180D01*
X188259720Y-104973120D01*
X188572140Y-105288080D01*
X188981080Y-105458260D01*
X189425580Y-105458260D01*
X189834520Y-105288080D01*
X190141860Y-104980740D01*
X190141860Y-106098340D01*
X190177420Y-106273600D01*
X190276480Y-106420920D01*
X190642240Y-106786680D01*
X190642240Y-111122460D01*
X190421260Y-111343440D01*
X190299340Y-111638080D01*
X190299340Y-111955580D01*
X190421260Y-112250220D01*
X190644780Y-112476280D01*
X190939420Y-112598200D01*
X191256920Y-112598200D01*
X191551560Y-112476280D01*
X191777620Y-112252760D01*
X191899540Y-111958120D01*
X191899540Y-111640620D01*
X191777620Y-111345980D01*
X191556640Y-111122460D01*
X191556640Y-106598720D01*
X191521080Y-106423460D01*
X191422020Y-106276140D01*
X191422020Y-106273600D01*
X191056260Y-105907840D01*
X191056260Y-105229660D01*
X191112140Y-105288080D01*
X191521080Y-105458260D01*
X191965580Y-105458260D01*
X192374520Y-105288080D01*
X192542160Y-105120440D01*
X192542160Y-106299000D01*
X192577720Y-106474260D01*
X192676780Y-106621580D01*
X193641980Y-107586780D01*
X193641980Y-114322860D01*
X193421000Y-114543840D01*
X193299080Y-114838480D01*
X193299080Y-115155980D01*
X193421000Y-115450620D01*
X193644520Y-115676680D01*
X193939160Y-115798600D01*
X194256660Y-115798600D01*
X194551300Y-115676680D01*
X194777360Y-115453160D01*
X194899280Y-115158520D01*
X194899280Y-114841020D01*
X194777360Y-114546380D01*
X194556380Y-114322860D01*
X194556380Y-107398820D01*
X194520820Y-107223560D01*
X194421760Y-107076240D01*
X194421760Y-107073700D01*
X193456560Y-106108500D01*
X193456560Y-105486200D01*
X193479420Y-105509060D01*
X193570860Y-105415080D01*
X193606420Y-105534460D01*
X194114420Y-105702100D01*
X194647820Y-105664000D01*
X194962780Y-105534460D01*
X195031360Y-105305860D01*
X195031360Y-119504460D01*
X194899280Y-119504460D01*
X187779660Y-119504460D01*
X187779660Y-104566720D01*
X187779660Y-104122220D01*
X187609480Y-103713280D01*
X187297060Y-103398320D01*
X186888120Y-103228140D01*
X186443620Y-103228140D01*
X186034680Y-103398320D01*
X185719720Y-103710740D01*
X185549540Y-104119680D01*
X185549540Y-104564180D01*
X185719720Y-104973120D01*
X186032140Y-105288080D01*
X186441080Y-105458260D01*
X186885580Y-105458260D01*
X187294520Y-105288080D01*
X187609480Y-104975660D01*
X187779660Y-104566720D01*
X187779660Y-119504460D01*
X185239660Y-119504460D01*
X185239660Y-104566720D01*
X185239660Y-104122220D01*
X185069480Y-103713280D01*
X184757060Y-103398320D01*
X184348120Y-103228140D01*
X183903620Y-103228140D01*
X183494680Y-103398320D01*
X183179720Y-103710740D01*
X183009540Y-104119680D01*
X183009540Y-104564180D01*
X183179720Y-104973120D01*
X183492140Y-105288080D01*
X183901080Y-105458260D01*
X184345580Y-105458260D01*
X184754520Y-105288080D01*
X185069480Y-104975660D01*
X185239660Y-104566720D01*
X185239660Y-119504460D01*
X182702200Y-119504460D01*
X182702200Y-77167740D01*
X182702200Y-76850240D01*
X182580280Y-76555600D01*
X182356760Y-76329540D01*
X182062120Y-76207620D01*
X181744620Y-76207620D01*
X181698900Y-76225400D01*
X181698900Y-56050180D01*
X181660800Y-55516780D01*
X181531260Y-55201820D01*
X181302660Y-55133240D01*
X181086760Y-55349140D01*
X181086760Y-54917340D01*
X181018180Y-54688740D01*
X180510180Y-54521100D01*
X179976780Y-54559200D01*
X179661820Y-54688740D01*
X179593240Y-54917340D01*
X180340000Y-55664100D01*
X181086760Y-54917340D01*
X181086760Y-55349140D01*
X180555900Y-55880000D01*
X181302660Y-56626760D01*
X181531260Y-56558180D01*
X181698900Y-56050180D01*
X181698900Y-76225400D01*
X181449980Y-76329540D01*
X181223920Y-76553060D01*
X181102000Y-76847700D01*
X181102000Y-77165200D01*
X181223920Y-77459840D01*
X181444900Y-77680820D01*
X181444900Y-90020140D01*
X181221380Y-90243660D01*
X181201060Y-90291920D01*
X181201060Y-78849220D01*
X181201060Y-78531720D01*
X181086760Y-78254860D01*
X181086760Y-56842660D01*
X180340000Y-56095900D01*
X180124100Y-56311800D01*
X180124100Y-55880000D01*
X179377340Y-55133240D01*
X179148740Y-55201820D01*
X178981100Y-55709820D01*
X179019200Y-56243220D01*
X179148740Y-56558180D01*
X179377340Y-56626760D01*
X180124100Y-55880000D01*
X180124100Y-56311800D01*
X179593240Y-56842660D01*
X179661820Y-57071260D01*
X180169820Y-57238900D01*
X180703220Y-57200800D01*
X181018180Y-57071260D01*
X181086760Y-56842660D01*
X181086760Y-78254860D01*
X181079140Y-78237080D01*
X180855620Y-78011020D01*
X180560980Y-77889100D01*
X180243480Y-77889100D01*
X179948840Y-78011020D01*
X179722780Y-78234540D01*
X179600860Y-78529180D01*
X179600860Y-78846680D01*
X179722780Y-79141320D01*
X179943760Y-79362300D01*
X179943760Y-91721940D01*
X179720240Y-91945460D01*
X179598320Y-92240100D01*
X179598320Y-92557600D01*
X179720240Y-92852240D01*
X179943760Y-93078300D01*
X180238400Y-93200220D01*
X180555900Y-93200220D01*
X180850540Y-93078300D01*
X181076600Y-92854780D01*
X181198520Y-92560140D01*
X181198520Y-92242640D01*
X181076600Y-91948000D01*
X180858160Y-91727020D01*
X180858160Y-79362300D01*
X181079140Y-79143860D01*
X181201060Y-78849220D01*
X181201060Y-90291920D01*
X181099460Y-90538300D01*
X181099460Y-90855800D01*
X181221380Y-91150440D01*
X181444900Y-91376500D01*
X181739540Y-91498420D01*
X182057040Y-91498420D01*
X182351680Y-91376500D01*
X182577740Y-91152980D01*
X182699660Y-90858340D01*
X182699660Y-90540840D01*
X182577740Y-90246200D01*
X182359300Y-90025220D01*
X182359300Y-77680820D01*
X182580280Y-77462380D01*
X182702200Y-77167740D01*
X182702200Y-119504460D01*
X182699660Y-119504460D01*
X182699660Y-104566720D01*
X182699660Y-104122220D01*
X182529480Y-103713280D01*
X182217060Y-103398320D01*
X181808120Y-103228140D01*
X181363620Y-103228140D01*
X180954680Y-103398320D01*
X180639720Y-103710740D01*
X180469540Y-104119680D01*
X180469540Y-104564180D01*
X180639720Y-104973120D01*
X180952140Y-105288080D01*
X181361080Y-105458260D01*
X181805580Y-105458260D01*
X182214520Y-105288080D01*
X182529480Y-104975660D01*
X182699660Y-104566720D01*
X182699660Y-119504460D01*
X179321460Y-119504460D01*
X179321460Y-81643220D01*
X178915060Y-80657700D01*
X178915060Y-56103520D01*
X178915060Y-55659020D01*
X178744880Y-55250080D01*
X178432460Y-54935120D01*
X178023520Y-54764940D01*
X177579020Y-54764940D01*
X177170080Y-54935120D01*
X176855120Y-55247540D01*
X176684940Y-55656480D01*
X176684940Y-56100980D01*
X176855120Y-56509920D01*
X177167540Y-56824880D01*
X177576480Y-56995060D01*
X178020980Y-56995060D01*
X178429920Y-56824880D01*
X178744880Y-56512460D01*
X178915060Y-56103520D01*
X178915060Y-80657700D01*
X178666140Y-80055720D01*
X177449480Y-78839060D01*
X176375060Y-78392020D01*
X176375060Y-56103520D01*
X176375060Y-55659020D01*
X176204880Y-55250080D01*
X175892460Y-54935120D01*
X175483520Y-54764940D01*
X175039020Y-54764940D01*
X174630080Y-54935120D01*
X174315120Y-55247540D01*
X174144940Y-55656480D01*
X174144940Y-56100980D01*
X174315120Y-56509920D01*
X174627540Y-56824880D01*
X175036480Y-56995060D01*
X175480980Y-56995060D01*
X175889920Y-56824880D01*
X176204880Y-56512460D01*
X176375060Y-56103520D01*
X176375060Y-78392020D01*
X175864520Y-78181200D01*
X174144940Y-78178660D01*
X173835060Y-78305660D01*
X173835060Y-56103520D01*
X173835060Y-55659020D01*
X173664880Y-55250080D01*
X173352460Y-54935120D01*
X172943520Y-54764940D01*
X172499020Y-54764940D01*
X172090080Y-54935120D01*
X171775120Y-55247540D01*
X171604940Y-55656480D01*
X171604940Y-56100980D01*
X171775120Y-56509920D01*
X172087540Y-56824880D01*
X172496480Y-56995060D01*
X172940980Y-56995060D01*
X173349920Y-56824880D01*
X173664880Y-56512460D01*
X173835060Y-56103520D01*
X173835060Y-78305660D01*
X172557440Y-78833980D01*
X171340780Y-80050640D01*
X170682920Y-81635600D01*
X170680380Y-83355180D01*
X171335700Y-84942680D01*
X172552360Y-86159340D01*
X174137320Y-86817200D01*
X175856900Y-86819740D01*
X177444400Y-86164420D01*
X178661060Y-84947760D01*
X179318920Y-83362800D01*
X179321460Y-81643220D01*
X179321460Y-119504460D01*
X167500300Y-119504460D01*
X167500300Y-59761120D01*
X167500300Y-59443620D01*
X167378380Y-59148980D01*
X167157400Y-58925460D01*
X167157400Y-51673760D01*
X167378380Y-51455320D01*
X167500300Y-51160680D01*
X167500300Y-50843180D01*
X167378380Y-50548540D01*
X167154860Y-50322480D01*
X166860220Y-50200560D01*
X166542720Y-50200560D01*
X166248080Y-50322480D01*
X166022020Y-50546000D01*
X165900100Y-50840640D01*
X165900100Y-51158140D01*
X166022020Y-51452780D01*
X166243000Y-51673760D01*
X166243000Y-53705760D01*
X166176960Y-53548280D01*
X165953440Y-53322220D01*
X165658800Y-53200300D01*
X165341300Y-53200300D01*
X165046660Y-53322220D01*
X164820600Y-53545740D01*
X164698680Y-53840380D01*
X164698680Y-54157880D01*
X164820600Y-54452520D01*
X165041580Y-54673500D01*
X165041580Y-59923680D01*
X164820600Y-60144660D01*
X164698680Y-60439300D01*
X164698680Y-60756800D01*
X164820600Y-61051440D01*
X165044120Y-61277500D01*
X165338760Y-61399420D01*
X165656260Y-61399420D01*
X165950900Y-61277500D01*
X166176960Y-61053980D01*
X166298880Y-60759340D01*
X166298880Y-60441840D01*
X166220140Y-60253880D01*
X166245540Y-60279280D01*
X166540180Y-60401200D01*
X166857680Y-60401200D01*
X167152320Y-60279280D01*
X167378380Y-60055760D01*
X167500300Y-59761120D01*
X167500300Y-119504460D01*
X164320220Y-119504460D01*
X164320220Y-104145080D01*
X164320220Y-89143840D01*
X164320220Y-74145140D01*
X164320220Y-59143900D01*
X163664900Y-57556400D01*
X162448240Y-56339740D01*
X160863280Y-55681880D01*
X159143700Y-55679340D01*
X157556200Y-56334660D01*
X156339540Y-57551320D01*
X155681680Y-59136280D01*
X155679140Y-60855860D01*
X156334460Y-62443360D01*
X157551120Y-63660020D01*
X159136080Y-64317880D01*
X160855660Y-64320420D01*
X162443160Y-63665100D01*
X163659820Y-62448440D01*
X164317680Y-60863480D01*
X164320220Y-59143900D01*
X164320220Y-74145140D01*
X163664900Y-72557640D01*
X162448240Y-71340980D01*
X160863280Y-70683120D01*
X159143700Y-70680580D01*
X157556200Y-71335900D01*
X156339540Y-72552560D01*
X155681680Y-74137520D01*
X155679140Y-75857100D01*
X156334460Y-77444600D01*
X157551120Y-78661260D01*
X159136080Y-79319120D01*
X160855660Y-79321660D01*
X162443160Y-78666340D01*
X163659820Y-77449680D01*
X164317680Y-75864720D01*
X164320220Y-74145140D01*
X164320220Y-89143840D01*
X163664900Y-87556340D01*
X162448240Y-86339680D01*
X160863280Y-85681820D01*
X159143700Y-85679280D01*
X157556200Y-86334600D01*
X156339540Y-87551260D01*
X155681680Y-89136220D01*
X155679140Y-90855800D01*
X156334460Y-92443300D01*
X157551120Y-93659960D01*
X159136080Y-94317820D01*
X160855660Y-94320360D01*
X162443160Y-93665040D01*
X163659820Y-92448380D01*
X164317680Y-90863420D01*
X164320220Y-89143840D01*
X164320220Y-104145080D01*
X163664900Y-102557580D01*
X162448240Y-101340920D01*
X160863280Y-100683060D01*
X159143700Y-100680520D01*
X157556200Y-101335840D01*
X156339540Y-102552500D01*
X155681680Y-104137460D01*
X155679140Y-105857040D01*
X156334460Y-107444540D01*
X157551120Y-108661200D01*
X159136080Y-109319060D01*
X160855660Y-109321600D01*
X162443160Y-108666280D01*
X163659820Y-107449620D01*
X164317680Y-105864660D01*
X164320220Y-104145080D01*
X164320220Y-119504460D01*
X154703780Y-119504460D01*
X154703780Y-112938560D01*
X154703780Y-112062260D01*
X154703780Y-52938680D01*
X154703780Y-52062380D01*
X154368500Y-51252120D01*
X153748740Y-50632360D01*
X152938480Y-50294540D01*
X152062180Y-50294540D01*
X151251920Y-50629820D01*
X150632160Y-51249580D01*
X150294340Y-52059840D01*
X150294340Y-52936140D01*
X150629620Y-53746400D01*
X151249380Y-54366160D01*
X152059640Y-54703980D01*
X152935940Y-54703980D01*
X153746200Y-54368700D01*
X154365960Y-53748940D01*
X154703780Y-52938680D01*
X154703780Y-112062260D01*
X154368500Y-111252000D01*
X153748740Y-110632240D01*
X152938480Y-110294420D01*
X152900380Y-110294420D01*
X152900380Y-100561140D01*
X152900380Y-100243640D01*
X152900380Y-66060320D01*
X152900380Y-65742820D01*
X152778460Y-65448180D01*
X152557480Y-65224660D01*
X152557480Y-58272680D01*
X152778460Y-58054240D01*
X152900380Y-57759600D01*
X152900380Y-57442100D01*
X152778460Y-57147460D01*
X152554940Y-56921400D01*
X152260300Y-56799480D01*
X151942800Y-56799480D01*
X151648160Y-56921400D01*
X151422100Y-57144920D01*
X151300180Y-57439560D01*
X151300180Y-57757060D01*
X151422100Y-58051700D01*
X151643080Y-58272680D01*
X151643080Y-65224660D01*
X151422100Y-65445640D01*
X151300180Y-65740280D01*
X151300180Y-65900300D01*
X151277320Y-65846960D01*
X151056340Y-65623440D01*
X151056340Y-59372500D01*
X151277320Y-59154060D01*
X151399240Y-58859420D01*
X151399240Y-58541920D01*
X151277320Y-58247280D01*
X151053800Y-58021220D01*
X150759160Y-57899300D01*
X150441660Y-57899300D01*
X150147020Y-58021220D01*
X149920960Y-58244740D01*
X149799040Y-58539380D01*
X149799040Y-58856880D01*
X149920960Y-59151520D01*
X150141940Y-59372500D01*
X150141940Y-65623440D01*
X149920960Y-65844420D01*
X149799040Y-66139060D01*
X149799040Y-66456560D01*
X149920960Y-66751200D01*
X150144480Y-66977260D01*
X150439120Y-67099180D01*
X150756620Y-67099180D01*
X151051260Y-66977260D01*
X151277320Y-66753740D01*
X151399240Y-66459100D01*
X151399240Y-66296540D01*
X151422100Y-66352420D01*
X151645620Y-66578480D01*
X151940260Y-66700400D01*
X152257760Y-66700400D01*
X152552400Y-66578480D01*
X152778460Y-66354960D01*
X152900380Y-66060320D01*
X152900380Y-100243640D01*
X152778460Y-99949000D01*
X152554940Y-99722940D01*
X152260300Y-99601020D01*
X151942800Y-99601020D01*
X151648160Y-99722940D01*
X151422100Y-99946460D01*
X151300180Y-100241100D01*
X151300180Y-100558600D01*
X151422100Y-100853240D01*
X151643080Y-101074220D01*
X151643080Y-106781600D01*
X151549100Y-106822240D01*
X151323040Y-107045760D01*
X151201120Y-107340400D01*
X151201120Y-107657900D01*
X151323040Y-107952540D01*
X151546560Y-108178600D01*
X151841200Y-108300520D01*
X152158700Y-108300520D01*
X152453340Y-108178600D01*
X152679400Y-107955080D01*
X152801320Y-107660440D01*
X152801320Y-107342940D01*
X152679400Y-107048300D01*
X152557480Y-106923840D01*
X152557480Y-101074220D01*
X152778460Y-100855780D01*
X152900380Y-100561140D01*
X152900380Y-110294420D01*
X152062180Y-110294420D01*
X151251920Y-110629700D01*
X151000460Y-110881160D01*
X151000460Y-107558840D01*
X151000460Y-107241340D01*
X150878540Y-106946700D01*
X150657560Y-106723180D01*
X150657560Y-100472240D01*
X150878540Y-100253800D01*
X151000460Y-99959160D01*
X151000460Y-99641660D01*
X150878540Y-99347020D01*
X150655020Y-99120960D01*
X150360380Y-98999040D01*
X150042880Y-98999040D01*
X149748240Y-99120960D01*
X149522180Y-99344480D01*
X149400260Y-99639120D01*
X149400260Y-99956620D01*
X149522180Y-100251260D01*
X149743160Y-100472240D01*
X149743160Y-106723180D01*
X149522180Y-106944160D01*
X149400260Y-107238800D01*
X149400260Y-107556300D01*
X149522180Y-107850940D01*
X149745700Y-108077000D01*
X150040340Y-108198920D01*
X150357840Y-108198920D01*
X150652480Y-108077000D01*
X150878540Y-107853480D01*
X151000460Y-107558840D01*
X151000460Y-110881160D01*
X150632160Y-111249460D01*
X150294340Y-112059720D01*
X150294340Y-112936020D01*
X150629620Y-113746280D01*
X151249380Y-114366040D01*
X152059640Y-114703860D01*
X152935940Y-114703860D01*
X153746200Y-114368580D01*
X154365960Y-113748820D01*
X154703780Y-112938560D01*
X154703780Y-119504460D01*
X149321520Y-119504460D01*
X149321520Y-104145080D01*
X149321520Y-89143840D01*
X149321520Y-74145140D01*
X149321520Y-59143900D01*
X148666200Y-57556400D01*
X147449540Y-56339740D01*
X145864580Y-55681880D01*
X144145000Y-55679340D01*
X142557500Y-56334660D01*
X141340840Y-57551320D01*
X140682980Y-59136280D01*
X140680440Y-60855860D01*
X141335760Y-62443360D01*
X142552420Y-63660020D01*
X144137380Y-64317880D01*
X145856960Y-64320420D01*
X147444460Y-63665100D01*
X148661120Y-62448440D01*
X149318980Y-60863480D01*
X149321520Y-59143900D01*
X149321520Y-74145140D01*
X148666200Y-72557640D01*
X147449540Y-71340980D01*
X145864580Y-70683120D01*
X144145000Y-70680580D01*
X142557500Y-71335900D01*
X141340840Y-72552560D01*
X140682980Y-74137520D01*
X140680440Y-75857100D01*
X141335760Y-77444600D01*
X142552420Y-78661260D01*
X144137380Y-79319120D01*
X145856960Y-79321660D01*
X147444460Y-78666340D01*
X148661120Y-77449680D01*
X149318980Y-75864720D01*
X149321520Y-74145140D01*
X149321520Y-89143840D01*
X148666200Y-87556340D01*
X147449540Y-86339680D01*
X145864580Y-85681820D01*
X144145000Y-85679280D01*
X142557500Y-86334600D01*
X141340840Y-87551260D01*
X140682980Y-89136220D01*
X140680440Y-90855800D01*
X141335760Y-92443300D01*
X142552420Y-93659960D01*
X144137380Y-94317820D01*
X145856960Y-94320360D01*
X147444460Y-93665040D01*
X148661120Y-92448380D01*
X149318980Y-90863420D01*
X149321520Y-89143840D01*
X149321520Y-104145080D01*
X148666200Y-102557580D01*
X147449540Y-101340920D01*
X145864580Y-100683060D01*
X144145000Y-100680520D01*
X142557500Y-101335840D01*
X141340840Y-102552500D01*
X140682980Y-104137460D01*
X140680440Y-105857040D01*
X141335760Y-107444540D01*
X142552420Y-108661200D01*
X144137380Y-109319060D01*
X145856960Y-109321600D01*
X147444460Y-108666280D01*
X148661120Y-107449620D01*
X149318980Y-105864660D01*
X149321520Y-104145080D01*
X149321520Y-119504460D01*
X138399520Y-119504460D01*
X138399520Y-115161060D01*
X138399520Y-114843560D01*
X138277600Y-114548920D01*
X138056620Y-114325400D01*
X138056620Y-99872800D01*
X138277600Y-99654360D01*
X138399520Y-99359720D01*
X138399520Y-99042220D01*
X138277600Y-98747580D01*
X138198860Y-98666300D01*
X138198860Y-66959480D01*
X138198860Y-66641980D01*
X138076940Y-66347340D01*
X137855960Y-66123820D01*
X137855960Y-51673760D01*
X138076940Y-51455320D01*
X138198860Y-51160680D01*
X138198860Y-50843180D01*
X138076940Y-50548540D01*
X137853420Y-50322480D01*
X137558780Y-50200560D01*
X137241280Y-50200560D01*
X136946640Y-50322480D01*
X136720580Y-50546000D01*
X136598660Y-50840640D01*
X136598660Y-51158140D01*
X136720580Y-51452780D01*
X136941560Y-51673760D01*
X136941560Y-66123820D01*
X136720580Y-66344800D01*
X136598660Y-66639440D01*
X136598660Y-66956940D01*
X136720580Y-67251580D01*
X136944100Y-67477640D01*
X137238740Y-67599560D01*
X137556240Y-67599560D01*
X137850880Y-67477640D01*
X138076940Y-67254120D01*
X138198860Y-66959480D01*
X138198860Y-98666300D01*
X138054080Y-98521520D01*
X137759440Y-98399600D01*
X137441940Y-98399600D01*
X137147300Y-98521520D01*
X136921240Y-98745040D01*
X136799320Y-99039680D01*
X136799320Y-99357180D01*
X136921240Y-99651820D01*
X137142220Y-99872800D01*
X137142220Y-114325400D01*
X136921240Y-114546380D01*
X136799320Y-114841020D01*
X136799320Y-115158520D01*
X136921240Y-115453160D01*
X137144760Y-115679220D01*
X137439400Y-115801140D01*
X137756900Y-115801140D01*
X138051540Y-115679220D01*
X138277600Y-115455700D01*
X138399520Y-115161060D01*
X138399520Y-119504460D01*
X136298940Y-119504460D01*
X136298940Y-67160140D01*
X136298940Y-66842640D01*
X136177020Y-66548000D01*
X135956040Y-66324480D01*
X135956040Y-54673500D01*
X136177020Y-54455060D01*
X136298940Y-54160420D01*
X136298940Y-53842920D01*
X136177020Y-53548280D01*
X135953500Y-53322220D01*
X135658860Y-53200300D01*
X135341360Y-53200300D01*
X135046720Y-53322220D01*
X134820660Y-53545740D01*
X134698740Y-53840380D01*
X134698740Y-54157880D01*
X134820660Y-54452520D01*
X135041640Y-54673500D01*
X135041640Y-66324480D01*
X134820660Y-66545460D01*
X134698740Y-66840100D01*
X134698740Y-67157600D01*
X134820660Y-67452240D01*
X135044180Y-67678300D01*
X135338820Y-67800220D01*
X135656320Y-67800220D01*
X135950960Y-67678300D01*
X136177020Y-67454780D01*
X136298940Y-67160140D01*
X136298940Y-119504460D01*
X135999220Y-119504460D01*
X135999220Y-112158780D01*
X135999220Y-111841280D01*
X135877300Y-111546640D01*
X135656320Y-111323120D01*
X135656320Y-99174300D01*
X135877300Y-98955860D01*
X135999220Y-98661220D01*
X135999220Y-98343720D01*
X135877300Y-98049080D01*
X135653780Y-97823020D01*
X135359140Y-97701100D01*
X135041640Y-97701100D01*
X134747000Y-97823020D01*
X134520940Y-98046540D01*
X134399020Y-98341180D01*
X134399020Y-98658680D01*
X134520940Y-98953320D01*
X134741920Y-99174300D01*
X134741920Y-111323120D01*
X134520940Y-111544100D01*
X134399020Y-111838740D01*
X134399020Y-112156240D01*
X134520940Y-112450880D01*
X134744460Y-112676940D01*
X135039100Y-112798860D01*
X135356600Y-112798860D01*
X135651240Y-112676940D01*
X135877300Y-112453420D01*
X135999220Y-112158780D01*
X135999220Y-119504460D01*
X134320280Y-119504460D01*
X134320280Y-104145080D01*
X134320280Y-89143840D01*
X134320280Y-74145140D01*
X134320280Y-59143900D01*
X133664960Y-57556400D01*
X132448300Y-56339740D01*
X130863340Y-55681880D01*
X129143760Y-55679340D01*
X127556260Y-56334660D01*
X126339600Y-57551320D01*
X125681740Y-59136280D01*
X125679200Y-60855860D01*
X126334520Y-62443360D01*
X127551180Y-63660020D01*
X129136140Y-64317880D01*
X130855720Y-64320420D01*
X132443220Y-63665100D01*
X133659880Y-62448440D01*
X134317740Y-60863480D01*
X134320280Y-59143900D01*
X134320280Y-74145140D01*
X133664960Y-72557640D01*
X132448300Y-71340980D01*
X130863340Y-70683120D01*
X129143760Y-70680580D01*
X127556260Y-71335900D01*
X126339600Y-72552560D01*
X125681740Y-74137520D01*
X125679200Y-75857100D01*
X126334520Y-77444600D01*
X127551180Y-78661260D01*
X129136140Y-79319120D01*
X130855720Y-79321660D01*
X132443220Y-78666340D01*
X133659880Y-77449680D01*
X134317740Y-75864720D01*
X134320280Y-74145140D01*
X134320280Y-89143840D01*
X133664960Y-87556340D01*
X132448300Y-86339680D01*
X130863340Y-85681820D01*
X129143760Y-85679280D01*
X127556260Y-86334600D01*
X126339600Y-87551260D01*
X125681740Y-89136220D01*
X125679200Y-90855800D01*
X126334520Y-92443300D01*
X127551180Y-93659960D01*
X129136140Y-94317820D01*
X130855720Y-94320360D01*
X132443220Y-93665040D01*
X133659880Y-92448380D01*
X134317740Y-90863420D01*
X134320280Y-89143840D01*
X134320280Y-104145080D01*
X133664960Y-102557580D01*
X132448300Y-101340920D01*
X130863340Y-100683060D01*
X129143760Y-100680520D01*
X127556260Y-101335840D01*
X126339600Y-102552500D01*
X125681740Y-104137460D01*
X125679200Y-105857040D01*
X126334520Y-107444540D01*
X127551180Y-108661200D01*
X129136140Y-109319060D01*
X130855720Y-109321600D01*
X132443220Y-108666280D01*
X133659880Y-107449620D01*
X134317740Y-105864660D01*
X134320280Y-104145080D01*
X134320280Y-119504460D01*
X123499880Y-119504460D01*
X123499880Y-115161060D01*
X123499880Y-114843560D01*
X123377960Y-114548920D01*
X123156980Y-114325400D01*
X123156980Y-98673920D01*
X123377960Y-98455480D01*
X123499880Y-98160840D01*
X123499880Y-97843340D01*
X123377960Y-97548700D01*
X123299220Y-97467420D01*
X123299220Y-67861180D01*
X123299220Y-67543680D01*
X123177300Y-67249040D01*
X122956320Y-67025520D01*
X122956320Y-51673760D01*
X123177300Y-51455320D01*
X123299220Y-51160680D01*
X123299220Y-50843180D01*
X123177300Y-50548540D01*
X122953780Y-50322480D01*
X122659140Y-50200560D01*
X122341640Y-50200560D01*
X122047000Y-50322480D01*
X121820940Y-50546000D01*
X121699020Y-50840640D01*
X121699020Y-51158140D01*
X121820940Y-51452780D01*
X122041920Y-51673760D01*
X122041920Y-67025520D01*
X121820940Y-67246500D01*
X121699020Y-67541140D01*
X121699020Y-67858640D01*
X121820940Y-68153280D01*
X122044460Y-68379340D01*
X122339100Y-68501260D01*
X122656600Y-68501260D01*
X122951240Y-68379340D01*
X123177300Y-68155820D01*
X123299220Y-67861180D01*
X123299220Y-97467420D01*
X123154440Y-97322640D01*
X122859800Y-97200720D01*
X122542300Y-97200720D01*
X122247660Y-97322640D01*
X122021600Y-97546160D01*
X121899680Y-97840800D01*
X121899680Y-98158300D01*
X122021600Y-98452940D01*
X122242580Y-98673920D01*
X122242580Y-114325400D01*
X122021600Y-114546380D01*
X121899680Y-114841020D01*
X121899680Y-115158520D01*
X122021600Y-115453160D01*
X122245120Y-115679220D01*
X122539760Y-115801140D01*
X122857260Y-115801140D01*
X123151900Y-115679220D01*
X123377960Y-115455700D01*
X123499880Y-115161060D01*
X123499880Y-119504460D01*
X121300240Y-119504460D01*
X121300240Y-68359020D01*
X121300240Y-68041520D01*
X121178320Y-67746880D01*
X120957340Y-67523360D01*
X120957340Y-54673500D01*
X121178320Y-54455060D01*
X121300240Y-54160420D01*
X121300240Y-53842920D01*
X121178320Y-53548280D01*
X120954800Y-53322220D01*
X120660160Y-53200300D01*
X120342660Y-53200300D01*
X120048020Y-53322220D01*
X119821960Y-53545740D01*
X119700040Y-53840380D01*
X119700040Y-54157880D01*
X119821960Y-54452520D01*
X120042940Y-54673500D01*
X120042940Y-67523360D01*
X119821960Y-67744340D01*
X119700040Y-68038980D01*
X119700040Y-68356480D01*
X119821960Y-68651120D01*
X120045480Y-68877180D01*
X120340120Y-68999100D01*
X120657620Y-68999100D01*
X120952260Y-68877180D01*
X121178320Y-68653660D01*
X121300240Y-68359020D01*
X121300240Y-119504460D01*
X121099580Y-119504460D01*
X121099580Y-112059720D01*
X121099580Y-111742220D01*
X120977660Y-111447580D01*
X120756680Y-111224060D01*
X120756680Y-98173540D01*
X120977660Y-97955100D01*
X121099580Y-97660460D01*
X121099580Y-97342960D01*
X120977660Y-97048320D01*
X120754140Y-96822260D01*
X120459500Y-96700340D01*
X120142000Y-96700340D01*
X119847360Y-96822260D01*
X119621300Y-97045780D01*
X119499380Y-97340420D01*
X119499380Y-97657920D01*
X119621300Y-97952560D01*
X119842280Y-98173540D01*
X119842280Y-111224060D01*
X119621300Y-111445040D01*
X119499380Y-111739680D01*
X119499380Y-112057180D01*
X119621300Y-112351820D01*
X119844820Y-112577880D01*
X120139460Y-112699800D01*
X120456960Y-112699800D01*
X120751600Y-112577880D01*
X120977660Y-112354360D01*
X121099580Y-112059720D01*
X121099580Y-119504460D01*
X119321580Y-119504460D01*
X119321580Y-104145080D01*
X119321580Y-89143840D01*
X119321580Y-74145140D01*
X119321580Y-59143900D01*
X118666260Y-57556400D01*
X117449600Y-56339740D01*
X115864640Y-55681880D01*
X114145060Y-55679340D01*
X112557560Y-56334660D01*
X111340900Y-57551320D01*
X110683040Y-59136280D01*
X110680500Y-60855860D01*
X111335820Y-62443360D01*
X112552480Y-63660020D01*
X114137440Y-64317880D01*
X115857020Y-64320420D01*
X117444520Y-63665100D01*
X118661180Y-62448440D01*
X119319040Y-60863480D01*
X119321580Y-59143900D01*
X119321580Y-74145140D01*
X118666260Y-72557640D01*
X117449600Y-71340980D01*
X115864640Y-70683120D01*
X114145060Y-70680580D01*
X112557560Y-71335900D01*
X111340900Y-72552560D01*
X110683040Y-74137520D01*
X110680500Y-75857100D01*
X111335820Y-77444600D01*
X112552480Y-78661260D01*
X114137440Y-79319120D01*
X115857020Y-79321660D01*
X117444520Y-78666340D01*
X118661180Y-77449680D01*
X119319040Y-75864720D01*
X119321580Y-74145140D01*
X119321580Y-89143840D01*
X118666260Y-87556340D01*
X117449600Y-86339680D01*
X115864640Y-85681820D01*
X114145060Y-85679280D01*
X112557560Y-86334600D01*
X111340900Y-87551260D01*
X110683040Y-89136220D01*
X110680500Y-90855800D01*
X111335820Y-92443300D01*
X112552480Y-93659960D01*
X114137440Y-94317820D01*
X115857020Y-94320360D01*
X117444520Y-93665040D01*
X118661180Y-92448380D01*
X119319040Y-90863420D01*
X119321580Y-89143840D01*
X119321580Y-104145080D01*
X118666260Y-102557580D01*
X117449600Y-101340920D01*
X115864640Y-100683060D01*
X114145060Y-100680520D01*
X112557560Y-101335840D01*
X111340900Y-102552500D01*
X110683040Y-104137460D01*
X110680500Y-105857040D01*
X111335820Y-107444540D01*
X112552480Y-108661200D01*
X114137440Y-109319060D01*
X115857020Y-109321600D01*
X117444520Y-108666280D01*
X118661180Y-107449620D01*
X119319040Y-105864660D01*
X119321580Y-104145080D01*
X119321580Y-119504460D01*
X109705140Y-119504460D01*
X109705140Y-112938560D01*
X109705140Y-112062260D01*
X109705140Y-52938680D01*
X109705140Y-52062380D01*
X109369860Y-51252120D01*
X108750100Y-50632360D01*
X107939840Y-50294540D01*
X107063540Y-50294540D01*
X106253280Y-50629820D01*
X105633520Y-51249580D01*
X105295700Y-52059840D01*
X105295700Y-52936140D01*
X105630980Y-53746400D01*
X106250740Y-54366160D01*
X107061000Y-54703980D01*
X107937300Y-54703980D01*
X108747560Y-54368700D01*
X109367320Y-53748940D01*
X109705140Y-52938680D01*
X109705140Y-112062260D01*
X109369860Y-111252000D01*
X108750100Y-110632240D01*
X108099860Y-110360460D01*
X108099860Y-68859400D01*
X108099860Y-68541900D01*
X107977940Y-68247260D01*
X107756960Y-68023740D01*
X107756960Y-58374280D01*
X107977940Y-58155840D01*
X108099860Y-57861200D01*
X108099860Y-57543700D01*
X107977940Y-57249060D01*
X107754420Y-57023000D01*
X107459780Y-56901080D01*
X107142280Y-56901080D01*
X106847640Y-57023000D01*
X106621580Y-57246520D01*
X106499660Y-57541160D01*
X106499660Y-57858660D01*
X106621580Y-58153300D01*
X106842560Y-58374280D01*
X106842560Y-68023740D01*
X106621580Y-68244720D01*
X106499660Y-68539360D01*
X106499660Y-68856860D01*
X106621580Y-69151500D01*
X106845100Y-69377560D01*
X107139740Y-69499480D01*
X107457240Y-69499480D01*
X107751880Y-69377560D01*
X107977940Y-69154040D01*
X108099860Y-68859400D01*
X108099860Y-110360460D01*
X107939840Y-110294420D01*
X107899200Y-110294420D01*
X107899200Y-107360720D01*
X107899200Y-107043220D01*
X107777280Y-106748580D01*
X107556300Y-106525060D01*
X107556300Y-97574100D01*
X107777280Y-97355660D01*
X107899200Y-97061020D01*
X107899200Y-96743520D01*
X107777280Y-96448880D01*
X107553760Y-96222820D01*
X107259120Y-96100900D01*
X106941620Y-96100900D01*
X106646980Y-96222820D01*
X106420920Y-96446340D01*
X106299000Y-96740980D01*
X106299000Y-97058480D01*
X106420920Y-97353120D01*
X106641900Y-97574100D01*
X106641900Y-106525060D01*
X106420920Y-106746040D01*
X106299000Y-107040680D01*
X106299000Y-107043220D01*
X106177080Y-106748580D01*
X105956100Y-106525060D01*
X105956100Y-97073720D01*
X106177080Y-96855280D01*
X106299000Y-96560640D01*
X106299000Y-96243140D01*
X106299000Y-69560440D01*
X106299000Y-69242940D01*
X106177080Y-68948300D01*
X105956100Y-68724780D01*
X105956100Y-58374280D01*
X106177080Y-58155840D01*
X106299000Y-57861200D01*
X106299000Y-57543700D01*
X106177080Y-57249060D01*
X105953560Y-57023000D01*
X105658920Y-56901080D01*
X105341420Y-56901080D01*
X105046780Y-57023000D01*
X104820720Y-57246520D01*
X104698800Y-57541160D01*
X104698800Y-57858660D01*
X104820720Y-58153300D01*
X105041700Y-58374280D01*
X105041700Y-68724780D01*
X104820720Y-68945760D01*
X104698800Y-69240400D01*
X104698800Y-69557900D01*
X104820720Y-69852540D01*
X105044240Y-70078600D01*
X105338880Y-70200520D01*
X105656380Y-70200520D01*
X105951020Y-70078600D01*
X106177080Y-69855080D01*
X106299000Y-69560440D01*
X106299000Y-96243140D01*
X106177080Y-95948500D01*
X105953560Y-95722440D01*
X105658920Y-95600520D01*
X105341420Y-95600520D01*
X105046780Y-95722440D01*
X104820720Y-95945960D01*
X104698800Y-96240600D01*
X104698800Y-96558100D01*
X104820720Y-96852740D01*
X105041700Y-97073720D01*
X105041700Y-106525060D01*
X104820720Y-106746040D01*
X104698800Y-107040680D01*
X104698800Y-107358180D01*
X104820720Y-107652820D01*
X105044240Y-107878880D01*
X105338880Y-108000800D01*
X105656380Y-108000800D01*
X105951020Y-107878880D01*
X106177080Y-107655360D01*
X106299000Y-107360720D01*
X106420920Y-107652820D01*
X106644440Y-107878880D01*
X106939080Y-108000800D01*
X107256580Y-108000800D01*
X107551220Y-107878880D01*
X107777280Y-107655360D01*
X107899200Y-107360720D01*
X107899200Y-110294420D01*
X107063540Y-110294420D01*
X106253280Y-110629700D01*
X105633520Y-111249460D01*
X105295700Y-112059720D01*
X105295700Y-112936020D01*
X105630980Y-113746280D01*
X106250740Y-114366040D01*
X107061000Y-114703860D01*
X107937300Y-114703860D01*
X108747560Y-114368580D01*
X109367320Y-113748820D01*
X109705140Y-112938560D01*
X109705140Y-119504460D01*
X104320340Y-119504460D01*
X104320340Y-104145080D01*
X104320340Y-89143840D01*
X104320340Y-74145140D01*
X104320340Y-59143900D01*
X103665020Y-57556400D01*
X102448360Y-56339740D01*
X100863400Y-55681880D01*
X99143820Y-55679340D01*
X97556320Y-56334660D01*
X96339660Y-57551320D01*
X95681800Y-59136280D01*
X95679260Y-60855860D01*
X96334580Y-62443360D01*
X97551240Y-63660020D01*
X99136200Y-64317880D01*
X100855780Y-64320420D01*
X102443280Y-63665100D01*
X103659940Y-62448440D01*
X104317800Y-60863480D01*
X104320340Y-59143900D01*
X104320340Y-74145140D01*
X103665020Y-72557640D01*
X102448360Y-71340980D01*
X100863400Y-70683120D01*
X99143820Y-70680580D01*
X97556320Y-71335900D01*
X96339660Y-72552560D01*
X95681800Y-74137520D01*
X95679260Y-75857100D01*
X96334580Y-77444600D01*
X97551240Y-78661260D01*
X99136200Y-79319120D01*
X100855780Y-79321660D01*
X102443280Y-78666340D01*
X103659940Y-77449680D01*
X104317800Y-75864720D01*
X104320340Y-74145140D01*
X104320340Y-89143840D01*
X103665020Y-87556340D01*
X102448360Y-86339680D01*
X100863400Y-85681820D01*
X99143820Y-85679280D01*
X97556320Y-86334600D01*
X96339660Y-87551260D01*
X95681800Y-89136220D01*
X95679260Y-90855800D01*
X96334580Y-92443300D01*
X97551240Y-93659960D01*
X99136200Y-94317820D01*
X100855780Y-94320360D01*
X102443280Y-93665040D01*
X103659940Y-92448380D01*
X104317800Y-90863420D01*
X104320340Y-89143840D01*
X104320340Y-104145080D01*
X103665020Y-102557580D01*
X102448360Y-101340920D01*
X100863400Y-100683060D01*
X99143820Y-100680520D01*
X97556320Y-101335840D01*
X96339660Y-102552500D01*
X95681800Y-104137460D01*
X95679260Y-105857040D01*
X96334580Y-107444540D01*
X97551240Y-108661200D01*
X99136200Y-109319060D01*
X100855780Y-109321600D01*
X102443280Y-108666280D01*
X103659940Y-107449620D01*
X104317800Y-105864660D01*
X104320340Y-104145080D01*
X104320340Y-119504460D01*
X93700600Y-119504460D01*
X93700600Y-115161060D01*
X93700600Y-114843560D01*
X93578680Y-114548920D01*
X93357700Y-114325400D01*
X93357700Y-96172020D01*
X93578680Y-95953580D01*
X93700600Y-95658940D01*
X93700600Y-95341440D01*
X93578680Y-95046800D01*
X93355160Y-94820740D01*
X93060520Y-94698820D01*
X92798900Y-94698820D01*
X92798900Y-70561200D01*
X92798900Y-70243700D01*
X92676980Y-69949060D01*
X92557600Y-69827140D01*
X92557600Y-67299840D01*
X92557600Y-67000120D01*
X92557600Y-51572160D01*
X92676980Y-51455320D01*
X92798900Y-51160680D01*
X92798900Y-50843180D01*
X92676980Y-50548540D01*
X92453460Y-50322480D01*
X92158820Y-50200560D01*
X91841320Y-50200560D01*
X91546680Y-50322480D01*
X91320620Y-50546000D01*
X91198700Y-50840640D01*
X91198700Y-51158140D01*
X91320620Y-51452780D01*
X91544140Y-51678840D01*
X91643200Y-51719480D01*
X91643200Y-67000120D01*
X91643200Y-67299840D01*
X91643200Y-69682360D01*
X91546680Y-69723000D01*
X91320620Y-69946520D01*
X91198700Y-70241160D01*
X91198700Y-70558660D01*
X91320620Y-70853300D01*
X91544140Y-71079360D01*
X91838780Y-71201280D01*
X92156280Y-71201280D01*
X92450920Y-71079360D01*
X92676980Y-70855840D01*
X92798900Y-70561200D01*
X92798900Y-94698820D01*
X92743020Y-94698820D01*
X92448380Y-94820740D01*
X92222320Y-95044260D01*
X92100400Y-95338900D01*
X92100400Y-95656400D01*
X92222320Y-95951040D01*
X92443300Y-96172020D01*
X92443300Y-114325400D01*
X92222320Y-114546380D01*
X92100400Y-114841020D01*
X92100400Y-115158520D01*
X92222320Y-115453160D01*
X92445840Y-115679220D01*
X92740480Y-115801140D01*
X93057980Y-115801140D01*
X93352620Y-115679220D01*
X93578680Y-115455700D01*
X93700600Y-115161060D01*
X93700600Y-119504460D01*
X91300300Y-119504460D01*
X91300300Y-79159100D01*
X91300300Y-78841600D01*
X91178380Y-78546960D01*
X90957400Y-78323440D01*
X90957400Y-54673500D01*
X91178380Y-54455060D01*
X91300300Y-54160420D01*
X91300300Y-53842920D01*
X91178380Y-53548280D01*
X90954860Y-53322220D01*
X90660220Y-53200300D01*
X90342720Y-53200300D01*
X90048080Y-53322220D01*
X89822020Y-53545740D01*
X89700100Y-53840380D01*
X89700100Y-54157880D01*
X89822020Y-54452520D01*
X90043000Y-54673500D01*
X90043000Y-78323440D01*
X89822020Y-78544420D01*
X89700100Y-78839060D01*
X89700100Y-79156560D01*
X89822020Y-79451200D01*
X90045540Y-79677260D01*
X90340180Y-79799180D01*
X90657680Y-79799180D01*
X90952320Y-79677260D01*
X91178380Y-79453740D01*
X91300300Y-79159100D01*
X91300300Y-119504460D01*
X91201240Y-119504460D01*
X91201240Y-112158780D01*
X91201240Y-111841280D01*
X91079320Y-111546640D01*
X90858340Y-111323120D01*
X90858340Y-85674200D01*
X91079320Y-85455760D01*
X91201240Y-85161120D01*
X91201240Y-84843620D01*
X91079320Y-84548980D01*
X90855800Y-84322920D01*
X90561160Y-84201000D01*
X90243660Y-84201000D01*
X89949020Y-84322920D01*
X89722960Y-84546440D01*
X89601040Y-84841080D01*
X89601040Y-85158580D01*
X89722960Y-85453220D01*
X89943940Y-85674200D01*
X89943940Y-111323120D01*
X89722960Y-111544100D01*
X89601040Y-111838740D01*
X89601040Y-112156240D01*
X89722960Y-112450880D01*
X89946480Y-112676940D01*
X90241120Y-112798860D01*
X90558620Y-112798860D01*
X90853260Y-112676940D01*
X91079320Y-112453420D01*
X91201240Y-112158780D01*
X91201240Y-119504460D01*
X89321640Y-119504460D01*
X89321640Y-104145080D01*
X89321640Y-89143840D01*
X89321640Y-74145140D01*
X89321640Y-59143900D01*
X88666320Y-57556400D01*
X87449660Y-56339740D01*
X85864700Y-55681880D01*
X84145120Y-55679340D01*
X82557620Y-56334660D01*
X81340960Y-57551320D01*
X80683100Y-59136280D01*
X80680560Y-60855860D01*
X81335880Y-62443360D01*
X82552540Y-63660020D01*
X84137500Y-64317880D01*
X85857080Y-64320420D01*
X87444580Y-63665100D01*
X88661240Y-62448440D01*
X89319100Y-60863480D01*
X89321640Y-59143900D01*
X89321640Y-74145140D01*
X88666320Y-72557640D01*
X87449660Y-71340980D01*
X85864700Y-70683120D01*
X84145120Y-70680580D01*
X82557620Y-71335900D01*
X81340960Y-72552560D01*
X80683100Y-74137520D01*
X80680560Y-75857100D01*
X81335880Y-77444600D01*
X82552540Y-78661260D01*
X84137500Y-79319120D01*
X85857080Y-79321660D01*
X87444580Y-78666340D01*
X88661240Y-77449680D01*
X89319100Y-75864720D01*
X89321640Y-74145140D01*
X89321640Y-89143840D01*
X88666320Y-87556340D01*
X87449660Y-86339680D01*
X85864700Y-85681820D01*
X84145120Y-85679280D01*
X82557620Y-86334600D01*
X81340960Y-87551260D01*
X80683100Y-89136220D01*
X80680560Y-90855800D01*
X81335880Y-92443300D01*
X82552540Y-93659960D01*
X84137500Y-94317820D01*
X85857080Y-94320360D01*
X87444580Y-93665040D01*
X88661240Y-92448380D01*
X89319100Y-90863420D01*
X89321640Y-89143840D01*
X89321640Y-104145080D01*
X88666320Y-102557580D01*
X87449660Y-101340920D01*
X85864700Y-100683060D01*
X84145120Y-100680520D01*
X82557620Y-101335840D01*
X81340960Y-102552500D01*
X80683100Y-104137460D01*
X80680560Y-105857040D01*
X81335880Y-107444540D01*
X82552540Y-108661200D01*
X84137500Y-109319060D01*
X85857080Y-109321600D01*
X87444580Y-108666280D01*
X88661240Y-107449620D01*
X89319100Y-105864660D01*
X89321640Y-104145080D01*
X89321640Y-119504460D01*
X78300580Y-119504460D01*
X78300580Y-115161060D01*
X78300580Y-114843560D01*
X78178660Y-114548920D01*
X77957680Y-114325400D01*
X77957680Y-85272880D01*
X78178660Y-85054440D01*
X78300580Y-84759800D01*
X78300580Y-84442300D01*
X78178660Y-84147660D01*
X77955140Y-83921600D01*
X77899260Y-83896200D01*
X77899260Y-79560420D01*
X77899260Y-79242920D01*
X77777340Y-78948280D01*
X77556360Y-78724760D01*
X77556360Y-51673760D01*
X77777340Y-51455320D01*
X77899260Y-51160680D01*
X77899260Y-50843180D01*
X77777340Y-50548540D01*
X77553820Y-50322480D01*
X77259180Y-50200560D01*
X76941680Y-50200560D01*
X76647040Y-50322480D01*
X76420980Y-50546000D01*
X76299060Y-50840640D01*
X76299060Y-51158140D01*
X76420980Y-51452780D01*
X76641960Y-51673760D01*
X76641960Y-78724760D01*
X76420980Y-78945740D01*
X76400660Y-78994000D01*
X76400660Y-54058820D01*
X76400660Y-53741320D01*
X76278740Y-53446680D01*
X76055220Y-53220620D01*
X75760580Y-53098700D01*
X75443080Y-53098700D01*
X75148440Y-53220620D01*
X74922380Y-53444140D01*
X74800460Y-53738780D01*
X74800460Y-54056280D01*
X74922380Y-54350920D01*
X75041760Y-54470300D01*
X75041760Y-79225140D01*
X74820780Y-79446120D01*
X74698860Y-79740760D01*
X74698860Y-80058260D01*
X74820780Y-80352900D01*
X75044300Y-80578960D01*
X75338940Y-80700880D01*
X75656440Y-80700880D01*
X75951080Y-80578960D01*
X76177140Y-80355440D01*
X76299060Y-80060800D01*
X76299060Y-79743300D01*
X76177140Y-79448660D01*
X75956160Y-79225140D01*
X75956160Y-54615080D01*
X76052680Y-54576980D01*
X76278740Y-54353460D01*
X76400660Y-54058820D01*
X76400660Y-78994000D01*
X76299060Y-79240380D01*
X76299060Y-79557880D01*
X76420980Y-79852520D01*
X76644500Y-80078580D01*
X76939140Y-80200500D01*
X77256640Y-80200500D01*
X77551280Y-80078580D01*
X77777340Y-79855060D01*
X77899260Y-79560420D01*
X77899260Y-83896200D01*
X77660500Y-83799680D01*
X77343000Y-83799680D01*
X77048360Y-83921600D01*
X76822300Y-84145120D01*
X76700380Y-84439760D01*
X76700380Y-84757260D01*
X76822300Y-85051900D01*
X77043280Y-85272880D01*
X77043280Y-114325400D01*
X76822300Y-114546380D01*
X76700380Y-114841020D01*
X76700380Y-115158520D01*
X76822300Y-115453160D01*
X77045820Y-115679220D01*
X77340460Y-115801140D01*
X77657960Y-115801140D01*
X77952600Y-115679220D01*
X78178660Y-115455700D01*
X78300580Y-115161060D01*
X78300580Y-119504460D01*
X76299060Y-119504460D01*
X76299060Y-112158780D01*
X76299060Y-111841280D01*
X76177140Y-111546640D01*
X75956160Y-111323120D01*
X75956160Y-84874100D01*
X76177140Y-84655660D01*
X76299060Y-84361020D01*
X76299060Y-84043520D01*
X76177140Y-83748880D01*
X75953620Y-83522820D01*
X75658980Y-83400900D01*
X75341480Y-83400900D01*
X75046840Y-83522820D01*
X74820780Y-83746340D01*
X74698860Y-84040980D01*
X74698860Y-84358480D01*
X74820780Y-84653120D01*
X75041760Y-84874100D01*
X75041760Y-111323120D01*
X74820780Y-111544100D01*
X74698860Y-111838740D01*
X74698860Y-112156240D01*
X74820780Y-112450880D01*
X75044300Y-112676940D01*
X75338940Y-112798860D01*
X75656440Y-112798860D01*
X75951080Y-112676940D01*
X76177140Y-112453420D01*
X76299060Y-112158780D01*
X76299060Y-119504460D01*
X74320400Y-119504460D01*
X74320400Y-104145080D01*
X74320400Y-89143840D01*
X74320400Y-74145140D01*
X74320400Y-59143900D01*
X73665080Y-57556400D01*
X72448420Y-56339740D01*
X70863460Y-55681880D01*
X69143880Y-55679340D01*
X67556380Y-56334660D01*
X66339720Y-57551320D01*
X65681860Y-59136280D01*
X65679320Y-60855860D01*
X66334640Y-62443360D01*
X67551300Y-63660020D01*
X69136260Y-64317880D01*
X70855840Y-64320420D01*
X72443340Y-63665100D01*
X73660000Y-62448440D01*
X74317860Y-60863480D01*
X74320400Y-59143900D01*
X74320400Y-74145140D01*
X73665080Y-72557640D01*
X72448420Y-71340980D01*
X70863460Y-70683120D01*
X69143880Y-70680580D01*
X67556380Y-71335900D01*
X66339720Y-72552560D01*
X65681860Y-74137520D01*
X65679320Y-75857100D01*
X66334640Y-77444600D01*
X67551300Y-78661260D01*
X69136260Y-79319120D01*
X70855840Y-79321660D01*
X72443340Y-78666340D01*
X73660000Y-77449680D01*
X74317860Y-75864720D01*
X74320400Y-74145140D01*
X74320400Y-89143840D01*
X73665080Y-87556340D01*
X72448420Y-86339680D01*
X70863460Y-85681820D01*
X69143880Y-85679280D01*
X67556380Y-86334600D01*
X66339720Y-87551260D01*
X65681860Y-89136220D01*
X65679320Y-90855800D01*
X66334640Y-92443300D01*
X67551300Y-93659960D01*
X69136260Y-94317820D01*
X70855840Y-94320360D01*
X72443340Y-93665040D01*
X73660000Y-92448380D01*
X74317860Y-90863420D01*
X74320400Y-89143840D01*
X74320400Y-104145080D01*
X73665080Y-102557580D01*
X72448420Y-101340920D01*
X70863460Y-100683060D01*
X69143880Y-100680520D01*
X67556380Y-101335840D01*
X66339720Y-102552500D01*
X65681860Y-104137460D01*
X65679320Y-105857040D01*
X66334640Y-107444540D01*
X67551300Y-108661200D01*
X69136260Y-109319060D01*
X70855840Y-109321600D01*
X72443340Y-108666280D01*
X73660000Y-107449620D01*
X74317860Y-105864660D01*
X74320400Y-104145080D01*
X74320400Y-119504460D01*
X62999620Y-119504460D01*
X62999620Y-51160680D01*
X62999620Y-50843180D01*
X62877700Y-50548540D01*
X62654180Y-50322480D01*
X62359540Y-50200560D01*
X62042040Y-50200560D01*
X61747400Y-50322480D01*
X61521340Y-50546000D01*
X61399420Y-50840640D01*
X61399420Y-51158140D01*
X61521340Y-51452780D01*
X61742320Y-51673760D01*
X61742320Y-79781400D01*
X61648340Y-79822040D01*
X61422280Y-80045560D01*
X61300360Y-80340200D01*
X61300360Y-80657700D01*
X61422280Y-80952340D01*
X61645800Y-81178400D01*
X61940440Y-81300320D01*
X62257940Y-81300320D01*
X62552580Y-81178400D01*
X62778640Y-80954880D01*
X62900560Y-80660240D01*
X62900560Y-80342740D01*
X62778640Y-80048100D01*
X62656720Y-79923640D01*
X62656720Y-51673760D01*
X62877700Y-51455320D01*
X62999620Y-51160680D01*
X62999620Y-119504460D01*
X62699900Y-119504460D01*
X62699900Y-84058760D01*
X62699900Y-83741260D01*
X62577980Y-83446620D01*
X62354460Y-83220560D01*
X62059820Y-83098640D01*
X61742320Y-83098640D01*
X61447680Y-83220560D01*
X61300360Y-83365340D01*
X61300360Y-82158840D01*
X61300360Y-81841340D01*
X61178440Y-81546700D01*
X60957460Y-81323180D01*
X60957460Y-54523640D01*
X61079380Y-54404260D01*
X61201300Y-54109620D01*
X61201300Y-53792120D01*
X61079380Y-53497480D01*
X60855860Y-53271420D01*
X60561220Y-53149500D01*
X60243720Y-53149500D01*
X59949080Y-53271420D01*
X59723020Y-53494940D01*
X59601100Y-53789580D01*
X59601100Y-54107080D01*
X59723020Y-54401720D01*
X59946540Y-54627780D01*
X60043060Y-54665880D01*
X60043060Y-81323180D01*
X59822080Y-81544160D01*
X59700160Y-81838800D01*
X59700160Y-82156300D01*
X59822080Y-82450940D01*
X59977020Y-82608420D01*
X59949080Y-82621120D01*
X59723020Y-82844640D01*
X59601100Y-83139280D01*
X59601100Y-83456780D01*
X59723020Y-83751420D01*
X59944000Y-83972400D01*
X59944000Y-111323120D01*
X59723020Y-111544100D01*
X59601100Y-111838740D01*
X59601100Y-112156240D01*
X59723020Y-112450880D01*
X59946540Y-112676940D01*
X60241180Y-112798860D01*
X60558680Y-112798860D01*
X60853320Y-112676940D01*
X61079380Y-112453420D01*
X61201300Y-112158780D01*
X61201300Y-111841280D01*
X61079380Y-111546640D01*
X60858400Y-111323120D01*
X60858400Y-83972400D01*
X61079380Y-83753960D01*
X61201300Y-83459320D01*
X61201300Y-83141820D01*
X61079380Y-82847180D01*
X60921900Y-82687160D01*
X60952380Y-82677000D01*
X61178440Y-82453480D01*
X61300360Y-82158840D01*
X61300360Y-83365340D01*
X61221620Y-83444080D01*
X61099700Y-83738720D01*
X61099700Y-84056220D01*
X61221620Y-84350860D01*
X61442600Y-84571840D01*
X61442600Y-114282220D01*
X61348620Y-114322860D01*
X61122560Y-114546380D01*
X61000640Y-114841020D01*
X61000640Y-115158520D01*
X61122560Y-115453160D01*
X61346080Y-115679220D01*
X61640720Y-115801140D01*
X61958220Y-115801140D01*
X62252860Y-115679220D01*
X62478920Y-115455700D01*
X62600840Y-115161060D01*
X62600840Y-114843560D01*
X62478920Y-114548920D01*
X62357000Y-114424460D01*
X62357000Y-84571840D01*
X62577980Y-84353400D01*
X62699900Y-84058760D01*
X62699900Y-119504460D01*
X59321700Y-119504460D01*
X59321700Y-104145080D01*
X59321700Y-89143840D01*
X59321700Y-74145140D01*
X59321700Y-59143900D01*
X58666380Y-57556400D01*
X57449720Y-56339740D01*
X55864760Y-55681880D01*
X54145180Y-55679340D01*
X52557680Y-56334660D01*
X51341020Y-57551320D01*
X50683160Y-59136280D01*
X50680620Y-60855860D01*
X51335940Y-62443360D01*
X52552600Y-63660020D01*
X54137560Y-64317880D01*
X55857140Y-64320420D01*
X57444640Y-63665100D01*
X58661300Y-62448440D01*
X59319160Y-60863480D01*
X59321700Y-59143900D01*
X59321700Y-74145140D01*
X58666380Y-72557640D01*
X57449720Y-71340980D01*
X55864760Y-70683120D01*
X54145180Y-70680580D01*
X52557680Y-71335900D01*
X51341020Y-72552560D01*
X50683160Y-74137520D01*
X50680620Y-75857100D01*
X51335940Y-77444600D01*
X52552600Y-78661260D01*
X54137560Y-79319120D01*
X55857140Y-79321660D01*
X57444640Y-78666340D01*
X58661300Y-77449680D01*
X59319160Y-75864720D01*
X59321700Y-74145140D01*
X59321700Y-89143840D01*
X58666380Y-87556340D01*
X57449720Y-86339680D01*
X55864760Y-85681820D01*
X54145180Y-85679280D01*
X52557680Y-86334600D01*
X51341020Y-87551260D01*
X50683160Y-89136220D01*
X50680620Y-90855800D01*
X51335940Y-92443300D01*
X52552600Y-93659960D01*
X54137560Y-94317820D01*
X55857140Y-94320360D01*
X57444640Y-93665040D01*
X58661300Y-92448380D01*
X59319160Y-90863420D01*
X59321700Y-89143840D01*
X59321700Y-104145080D01*
X58666380Y-102557580D01*
X57449720Y-101340920D01*
X55864760Y-100683060D01*
X54145180Y-100680520D01*
X52557680Y-101335840D01*
X51341020Y-102552500D01*
X50683160Y-104137460D01*
X50680620Y-105857040D01*
X51335940Y-107444540D01*
X52552600Y-108661200D01*
X54137560Y-109319060D01*
X55857140Y-109321600D01*
X57444640Y-108666280D01*
X58661300Y-107449620D01*
X59319160Y-105864660D01*
X59321700Y-104145080D01*
X59321700Y-119504460D01*
X49705260Y-119504460D01*
X49705260Y-112938560D01*
X49705260Y-112062260D01*
X49705260Y-52938680D01*
X49705260Y-52062380D01*
X49369980Y-51252120D01*
X48750220Y-50632360D01*
X47939960Y-50294540D01*
X47063660Y-50294540D01*
X46253400Y-50629820D01*
X45633640Y-51249580D01*
X45295820Y-52059840D01*
X45295820Y-52936140D01*
X45631100Y-53746400D01*
X46250860Y-54366160D01*
X47061120Y-54703980D01*
X47937420Y-54703980D01*
X48747680Y-54368700D01*
X49367440Y-53748940D01*
X49705260Y-52938680D01*
X49705260Y-112062260D01*
X49369980Y-111252000D01*
X48750220Y-110632240D01*
X47939960Y-110294420D01*
X47063660Y-110294420D01*
X46253400Y-110629700D01*
X45633640Y-111249460D01*
X45295820Y-112059720D01*
X45295820Y-112936020D01*
X45631100Y-113746280D01*
X46250860Y-114366040D01*
X47061120Y-114703860D01*
X47937420Y-114703860D01*
X48747680Y-114368580D01*
X49367440Y-113748820D01*
X49705260Y-112938560D01*
X49705260Y-119504460D01*
X38496240Y-119504460D01*
X38496240Y-49494440D01*
X234505500Y-49494440D01*
X234505500Y-119504460D01*
X234505500Y-119504460D01*
G37*
X234505500Y-119504460D02*
X229704900Y-119504460D01*
X229704900Y-112938560D01*
X229704900Y-112062260D01*
X229704900Y-52938680D01*
X229704900Y-52062380D01*
X229369620Y-51252120D01*
X228749860Y-50632360D01*
X227939600Y-50294540D01*
X227063300Y-50294540D01*
X226253040Y-50629820D01*
X225633280Y-51249580D01*
X225295460Y-52059840D01*
X225295460Y-52936140D01*
X225630740Y-53746400D01*
X226250500Y-54366160D01*
X227060760Y-54703980D01*
X227937060Y-54703980D01*
X228747320Y-54368700D01*
X229367080Y-53748940D01*
X229704900Y-52938680D01*
X229704900Y-112062260D01*
X229369620Y-111252000D01*
X228749860Y-110632240D01*
X227939600Y-110294420D01*
X227063300Y-110294420D01*
X226253040Y-110629700D01*
X225633280Y-111249460D01*
X225295460Y-112059720D01*
X225295460Y-112936020D01*
X225630740Y-113746280D01*
X226250500Y-114366040D01*
X227060760Y-114703860D01*
X227937060Y-114703860D01*
X228747320Y-114368580D01*
X229367080Y-113748820D01*
X229704900Y-112938560D01*
X229704900Y-119504460D01*
X224320100Y-119504460D01*
X224320100Y-87790020D01*
X224320100Y-87472520D01*
X224198180Y-87177880D01*
X223977200Y-86954360D01*
X223977200Y-53340000D01*
X223941640Y-53164740D01*
X223842580Y-53017420D01*
X223050100Y-52224940D01*
X223050100Y-51912520D01*
X222928180Y-51617880D01*
X222704660Y-51391820D01*
X222410020Y-51269900D01*
X222092520Y-51269900D01*
X221797880Y-51391820D01*
X221571820Y-51615340D01*
X221449900Y-51909980D01*
X221449900Y-52227480D01*
X221571820Y-52522120D01*
X221795340Y-52748180D01*
X222089980Y-52870100D01*
X222404940Y-52870100D01*
X223062800Y-53527960D01*
X223062800Y-86954360D01*
X223050100Y-86967060D01*
X223050100Y-86520020D01*
X223050100Y-86202520D01*
X222928180Y-85907880D01*
X222707200Y-85684360D01*
X222707200Y-54610000D01*
X222671640Y-54434740D01*
X222572580Y-54287420D01*
X221780100Y-53494940D01*
X221780100Y-53182520D01*
X221658180Y-52887880D01*
X221434660Y-52661820D01*
X221140020Y-52539900D01*
X220822520Y-52539900D01*
X220527880Y-52661820D01*
X220301820Y-52885340D01*
X220179900Y-53179980D01*
X220179900Y-53497480D01*
X220301820Y-53792120D01*
X220525340Y-54018180D01*
X220819980Y-54140100D01*
X221134940Y-54140100D01*
X221792800Y-54797960D01*
X221792800Y-85684360D01*
X221571820Y-85905340D01*
X221449900Y-86199980D01*
X221449900Y-86517480D01*
X221571820Y-86812120D01*
X221795340Y-87038180D01*
X222089980Y-87160100D01*
X222407480Y-87160100D01*
X222702120Y-87038180D01*
X222928180Y-86814660D01*
X223050100Y-86520020D01*
X223050100Y-86967060D01*
X222841820Y-87175340D01*
X222719900Y-87469980D01*
X222719900Y-87787480D01*
X222841820Y-88082120D01*
X223065340Y-88308180D01*
X223359980Y-88430100D01*
X223677480Y-88430100D01*
X223972120Y-88308180D01*
X224198180Y-88084660D01*
X224320100Y-87790020D01*
X224320100Y-119504460D01*
X221094300Y-119504460D01*
X221094300Y-82466180D01*
X221056200Y-81932780D01*
X220926660Y-81617820D01*
X220850460Y-81594960D01*
X220850460Y-79979520D01*
X220850460Y-79535020D01*
X220850460Y-77439520D01*
X220850460Y-76995020D01*
X220850460Y-74899520D01*
X220850460Y-74455020D01*
X220850460Y-72359520D01*
X220850460Y-71915020D01*
X220850460Y-69819520D01*
X220850460Y-69375020D01*
X220850460Y-67279520D01*
X220850460Y-66835020D01*
X220850460Y-64739520D01*
X220850460Y-64295020D01*
X220680280Y-63886080D01*
X220367860Y-63571120D01*
X219958920Y-63400940D01*
X219514420Y-63400940D01*
X219105480Y-63571120D01*
X218790520Y-63883540D01*
X218620340Y-64292480D01*
X218620340Y-64736980D01*
X218790520Y-65145920D01*
X219102940Y-65460880D01*
X219511880Y-65631060D01*
X219956380Y-65631060D01*
X220365320Y-65460880D01*
X220680280Y-65148460D01*
X220850460Y-64739520D01*
X220850460Y-66835020D01*
X220680280Y-66426080D01*
X220367860Y-66111120D01*
X219958920Y-65940940D01*
X219514420Y-65940940D01*
X219105480Y-66111120D01*
X218790520Y-66423540D01*
X218620340Y-66832480D01*
X218620340Y-67276980D01*
X218790520Y-67685920D01*
X219102940Y-68000880D01*
X219511880Y-68171060D01*
X219956380Y-68171060D01*
X220365320Y-68000880D01*
X220680280Y-67688460D01*
X220850460Y-67279520D01*
X220850460Y-69375020D01*
X220680280Y-68966080D01*
X220367860Y-68651120D01*
X219958920Y-68480940D01*
X219514420Y-68480940D01*
X219105480Y-68651120D01*
X218790520Y-68963540D01*
X218620340Y-69372480D01*
X218620340Y-69816980D01*
X218790520Y-70225920D01*
X219102940Y-70540880D01*
X219511880Y-70711060D01*
X219956380Y-70711060D01*
X220365320Y-70540880D01*
X220680280Y-70228460D01*
X220850460Y-69819520D01*
X220850460Y-71915020D01*
X220680280Y-71506080D01*
X220367860Y-71191120D01*
X219958920Y-71020940D01*
X219514420Y-71020940D01*
X219105480Y-71191120D01*
X218790520Y-71503540D01*
X218620340Y-71912480D01*
X218620340Y-72356980D01*
X218790520Y-72765920D01*
X219102940Y-73080880D01*
X219511880Y-73251060D01*
X219956380Y-73251060D01*
X220365320Y-73080880D01*
X220680280Y-72768460D01*
X220850460Y-72359520D01*
X220850460Y-74455020D01*
X220680280Y-74046080D01*
X220367860Y-73731120D01*
X219958920Y-73560940D01*
X219514420Y-73560940D01*
X219105480Y-73731120D01*
X218790520Y-74043540D01*
X218620340Y-74452480D01*
X218620340Y-74896980D01*
X218790520Y-75305920D01*
X219102940Y-75620880D01*
X219511880Y-75791060D01*
X219956380Y-75791060D01*
X220365320Y-75620880D01*
X220680280Y-75308460D01*
X220850460Y-74899520D01*
X220850460Y-76995020D01*
X220680280Y-76586080D01*
X220367860Y-76271120D01*
X219958920Y-76100940D01*
X219514420Y-76100940D01*
X219105480Y-76271120D01*
X218790520Y-76583540D01*
X218620340Y-76992480D01*
X218620340Y-77436980D01*
X218790520Y-77845920D01*
X219102940Y-78160880D01*
X219511880Y-78331060D01*
X219956380Y-78331060D01*
X220365320Y-78160880D01*
X220680280Y-77848460D01*
X220850460Y-77439520D01*
X220850460Y-79535020D01*
X220680280Y-79126080D01*
X220367860Y-78811120D01*
X219958920Y-78640940D01*
X219514420Y-78640940D01*
X219105480Y-78811120D01*
X218790520Y-79123540D01*
X218620340Y-79532480D01*
X218620340Y-79976980D01*
X218790520Y-80385920D01*
X219102940Y-80700880D01*
X219511880Y-80871060D01*
X219956380Y-80871060D01*
X220365320Y-80700880D01*
X220680280Y-80388460D01*
X220850460Y-79979520D01*
X220850460Y-81594960D01*
X220698060Y-81549240D01*
X220482160Y-81765140D01*
X220482160Y-81333340D01*
X220413580Y-81104740D01*
X219905580Y-80937100D01*
X219372180Y-80975200D01*
X219057220Y-81104740D01*
X218988640Y-81333340D01*
X219735400Y-82080100D01*
X220482160Y-81333340D01*
X220482160Y-81765140D01*
X219951300Y-82296000D01*
X220698060Y-83042760D01*
X220926660Y-82974180D01*
X221094300Y-82466180D01*
X221094300Y-119504460D01*
X220482160Y-119504460D01*
X220482160Y-83258660D01*
X219735400Y-82511900D01*
X219519500Y-82727800D01*
X219519500Y-82296000D01*
X218772740Y-81549240D01*
X218544140Y-81617820D01*
X218376500Y-82125820D01*
X218414600Y-82659220D01*
X218544140Y-82974180D01*
X218772740Y-83042760D01*
X219519500Y-82296000D01*
X219519500Y-82727800D01*
X218988640Y-83258660D01*
X219057220Y-83487260D01*
X219565220Y-83654900D01*
X220098620Y-83616800D01*
X220413580Y-83487260D01*
X220482160Y-83258660D01*
X220482160Y-119504460D01*
X218310460Y-119504460D01*
X218310460Y-82519520D01*
X218310460Y-82075020D01*
X218310460Y-79979520D01*
X218310460Y-79535020D01*
X218310460Y-77439520D01*
X218310460Y-76995020D01*
X218310460Y-74899520D01*
X218310460Y-74455020D01*
X218310460Y-72359520D01*
X218310460Y-71915020D01*
X218310460Y-69819520D01*
X218310460Y-69375020D01*
X218310460Y-67279520D01*
X218310460Y-66835020D01*
X218310460Y-65346580D01*
X218310460Y-65206880D01*
X218310460Y-63682880D01*
X218310460Y-56103520D01*
X218310460Y-55659020D01*
X218140280Y-55250080D01*
X217827860Y-54935120D01*
X217418920Y-54764940D01*
X216974420Y-54764940D01*
X216565480Y-54935120D01*
X216250520Y-55247540D01*
X216080340Y-55656480D01*
X216080340Y-56100980D01*
X216250520Y-56509920D01*
X216562940Y-56824880D01*
X216971880Y-56995060D01*
X217416380Y-56995060D01*
X217825320Y-56824880D01*
X218140280Y-56512460D01*
X218310460Y-56103520D01*
X218310460Y-63682880D01*
X218257120Y-63553340D01*
X218155520Y-63454280D01*
X218025980Y-63400940D01*
X217886280Y-63400940D01*
X216362280Y-63400940D01*
X216232740Y-63454280D01*
X216133680Y-63555880D01*
X216080340Y-63685420D01*
X216080340Y-63825120D01*
X216080340Y-65349120D01*
X216133680Y-65478660D01*
X216235280Y-65577720D01*
X216364820Y-65631060D01*
X216504520Y-65631060D01*
X218028520Y-65631060D01*
X218158060Y-65577720D01*
X218257120Y-65476120D01*
X218310460Y-65346580D01*
X218310460Y-66835020D01*
X218140280Y-66426080D01*
X217827860Y-66111120D01*
X217418920Y-65940940D01*
X216974420Y-65940940D01*
X216565480Y-66111120D01*
X216250520Y-66423540D01*
X216080340Y-66832480D01*
X216080340Y-67276980D01*
X216250520Y-67685920D01*
X216562940Y-68000880D01*
X216971880Y-68171060D01*
X217416380Y-68171060D01*
X217825320Y-68000880D01*
X218140280Y-67688460D01*
X218310460Y-67279520D01*
X218310460Y-69375020D01*
X218140280Y-68966080D01*
X217827860Y-68651120D01*
X217418920Y-68480940D01*
X216974420Y-68480940D01*
X216565480Y-68651120D01*
X216250520Y-68963540D01*
X216080340Y-69372480D01*
X216080340Y-69816980D01*
X216250520Y-70225920D01*
X216562940Y-70540880D01*
X216971880Y-70711060D01*
X217416380Y-70711060D01*
X217825320Y-70540880D01*
X218140280Y-70228460D01*
X218310460Y-69819520D01*
X218310460Y-71915020D01*
X218140280Y-71506080D01*
X217827860Y-71191120D01*
X217418920Y-71020940D01*
X216974420Y-71020940D01*
X216565480Y-71191120D01*
X216250520Y-71503540D01*
X216080340Y-71912480D01*
X216080340Y-72356980D01*
X216250520Y-72765920D01*
X216562940Y-73080880D01*
X216971880Y-73251060D01*
X217416380Y-73251060D01*
X217825320Y-73080880D01*
X218140280Y-72768460D01*
X218310460Y-72359520D01*
X218310460Y-74455020D01*
X218140280Y-74046080D01*
X217827860Y-73731120D01*
X217418920Y-73560940D01*
X216974420Y-73560940D01*
X216565480Y-73731120D01*
X216250520Y-74043540D01*
X216080340Y-74452480D01*
X216080340Y-74896980D01*
X216250520Y-75305920D01*
X216562940Y-75620880D01*
X216971880Y-75791060D01*
X217416380Y-75791060D01*
X217825320Y-75620880D01*
X218140280Y-75308460D01*
X218310460Y-74899520D01*
X218310460Y-76995020D01*
X218140280Y-76586080D01*
X217827860Y-76271120D01*
X217418920Y-76100940D01*
X216974420Y-76100940D01*
X216565480Y-76271120D01*
X216250520Y-76583540D01*
X216080340Y-76992480D01*
X216080340Y-77436980D01*
X216250520Y-77845920D01*
X216562940Y-78160880D01*
X216971880Y-78331060D01*
X217416380Y-78331060D01*
X217825320Y-78160880D01*
X218140280Y-77848460D01*
X218310460Y-77439520D01*
X218310460Y-79535020D01*
X218140280Y-79126080D01*
X217827860Y-78811120D01*
X217418920Y-78640940D01*
X216974420Y-78640940D01*
X216565480Y-78811120D01*
X216250520Y-79123540D01*
X216080340Y-79532480D01*
X216080340Y-79976980D01*
X216250520Y-80385920D01*
X216562940Y-80700880D01*
X216971880Y-80871060D01*
X217416380Y-80871060D01*
X217825320Y-80700880D01*
X218140280Y-80388460D01*
X218310460Y-79979520D01*
X218310460Y-82075020D01*
X218140280Y-81666080D01*
X217827860Y-81351120D01*
X217418920Y-81180940D01*
X216974420Y-81180940D01*
X216565480Y-81351120D01*
X216250520Y-81663540D01*
X216080340Y-82072480D01*
X216080340Y-82516980D01*
X216250520Y-82925920D01*
X216562940Y-83240880D01*
X216971880Y-83411060D01*
X217416380Y-83411060D01*
X217825320Y-83240880D01*
X218140280Y-82928460D01*
X218310460Y-82519520D01*
X218310460Y-119504460D01*
X218234260Y-119504460D01*
X218234260Y-104566720D01*
X218234260Y-104122220D01*
X218064080Y-103713280D01*
X217751660Y-103398320D01*
X217342720Y-103228140D01*
X216898220Y-103228140D01*
X216489280Y-103398320D01*
X216174320Y-103710740D01*
X216004140Y-104119680D01*
X216004140Y-104564180D01*
X216174320Y-104973120D01*
X216486740Y-105288080D01*
X216895680Y-105458260D01*
X217340180Y-105458260D01*
X217749120Y-105288080D01*
X218064080Y-104975660D01*
X218234260Y-104566720D01*
X218234260Y-119504460D01*
X215770460Y-119504460D01*
X215770460Y-56103520D01*
X215770460Y-55659020D01*
X215600280Y-55250080D01*
X215287860Y-54935120D01*
X214878920Y-54764940D01*
X214434420Y-54764940D01*
X214025480Y-54935120D01*
X213710520Y-55247540D01*
X213540340Y-55656480D01*
X213540340Y-56100980D01*
X213710520Y-56509920D01*
X214022940Y-56824880D01*
X214431880Y-56995060D01*
X214876380Y-56995060D01*
X215285320Y-56824880D01*
X215600280Y-56512460D01*
X215770460Y-56103520D01*
X215770460Y-119504460D01*
X215694260Y-119504460D01*
X215694260Y-104566720D01*
X215694260Y-104122220D01*
X215524080Y-103713280D01*
X215430100Y-103616760D01*
X215430100Y-99220020D01*
X215430100Y-98902520D01*
X215308180Y-98607880D01*
X215087200Y-98384360D01*
X215087200Y-88303100D01*
X215308180Y-88084660D01*
X215430100Y-87790020D01*
X215430100Y-87472520D01*
X215308180Y-87177880D01*
X215087200Y-86954360D01*
X215087200Y-78143100D01*
X215308180Y-77924660D01*
X215430100Y-77630020D01*
X215430100Y-77312520D01*
X215308180Y-77017880D01*
X215087200Y-76794360D01*
X215087200Y-69253100D01*
X215308180Y-69034660D01*
X215430100Y-68740020D01*
X215430100Y-68422520D01*
X215308180Y-68127880D01*
X215087200Y-67904360D01*
X215087200Y-65443100D01*
X215308180Y-65224660D01*
X215430100Y-64930020D01*
X215430100Y-64612520D01*
X215308180Y-64317880D01*
X215087200Y-64094360D01*
X215087200Y-60363100D01*
X215308180Y-60144660D01*
X215430100Y-59850020D01*
X215430100Y-59532520D01*
X215308180Y-59237880D01*
X215084660Y-59011820D01*
X214790020Y-58889900D01*
X214472520Y-58889900D01*
X214177880Y-59011820D01*
X213951820Y-59235340D01*
X213829900Y-59529980D01*
X213829900Y-59847480D01*
X213951820Y-60142120D01*
X214172800Y-60363100D01*
X214172800Y-64094360D01*
X213951820Y-64315340D01*
X213829900Y-64609980D01*
X213829900Y-64927480D01*
X213951820Y-65222120D01*
X214172800Y-65443100D01*
X214172800Y-66860420D01*
X214066120Y-66603880D01*
X213842600Y-66377820D01*
X213817200Y-66365120D01*
X213817200Y-61633100D01*
X214038180Y-61414660D01*
X214160100Y-61120020D01*
X214160100Y-60802520D01*
X214038180Y-60507880D01*
X213814660Y-60281820D01*
X213520020Y-60159900D01*
X213230460Y-60159900D01*
X213230460Y-56103520D01*
X213230460Y-55659020D01*
X213060280Y-55250080D01*
X212747860Y-54935120D01*
X212338920Y-54764940D01*
X211894420Y-54764940D01*
X211485480Y-54935120D01*
X211170520Y-55247540D01*
X211000340Y-55656480D01*
X211000340Y-56100980D01*
X211170520Y-56509920D01*
X211482940Y-56824880D01*
X211891880Y-56995060D01*
X212336380Y-56995060D01*
X212745320Y-56824880D01*
X213060280Y-56512460D01*
X213230460Y-56103520D01*
X213230460Y-60159900D01*
X213202520Y-60159900D01*
X212907880Y-60281820D01*
X212681820Y-60505340D01*
X212559900Y-60799980D01*
X212559900Y-61117480D01*
X212681820Y-61412120D01*
X212902800Y-61633100D01*
X212902800Y-65590420D01*
X212796120Y-65333880D01*
X212572600Y-65107820D01*
X212547200Y-65095120D01*
X212547200Y-62903100D01*
X212768180Y-62684660D01*
X212890100Y-62390020D01*
X212890100Y-62072520D01*
X212768180Y-61777880D01*
X212544660Y-61551820D01*
X212250020Y-61429900D01*
X211932520Y-61429900D01*
X211637880Y-61551820D01*
X211411820Y-61775340D01*
X211289900Y-62069980D01*
X211289900Y-62387480D01*
X211411820Y-62682120D01*
X211632800Y-62903100D01*
X211632800Y-65138300D01*
X211439760Y-65331340D01*
X211317840Y-65625980D01*
X211317840Y-65943480D01*
X211439760Y-66238120D01*
X211632800Y-66431160D01*
X211632800Y-71714360D01*
X211411820Y-71935340D01*
X211289900Y-72229980D01*
X211289900Y-72547480D01*
X211411820Y-72842120D01*
X211632800Y-73063100D01*
X211632800Y-81874360D01*
X211411820Y-82095340D01*
X211289900Y-82389980D01*
X211289900Y-82707480D01*
X211411820Y-83002120D01*
X211632800Y-83223100D01*
X211632800Y-92034360D01*
X211411820Y-92255340D01*
X211289900Y-92549980D01*
X211289900Y-92867480D01*
X211411820Y-93162120D01*
X211635340Y-93388180D01*
X211929980Y-93510100D01*
X212247480Y-93510100D01*
X212542120Y-93388180D01*
X212768180Y-93164660D01*
X212890100Y-92870020D01*
X212890100Y-92552520D01*
X212768180Y-92257880D01*
X212547200Y-92034360D01*
X212547200Y-83223100D01*
X212768180Y-83004660D01*
X212890100Y-82710020D01*
X212890100Y-82392520D01*
X212768180Y-82097880D01*
X212547200Y-81874360D01*
X212547200Y-73063100D01*
X212768180Y-72844660D01*
X212890100Y-72550020D01*
X212890100Y-72232520D01*
X212768180Y-71937880D01*
X212547200Y-71714360D01*
X212547200Y-66471800D01*
X212570060Y-66464180D01*
X212796120Y-66240660D01*
X212902800Y-65981580D01*
X212902800Y-66408300D01*
X212709760Y-66601340D01*
X212587840Y-66895980D01*
X212587840Y-67213480D01*
X212709760Y-67508120D01*
X212902800Y-67701160D01*
X212902800Y-70444360D01*
X212681820Y-70665340D01*
X212559900Y-70959980D01*
X212559900Y-71277480D01*
X212681820Y-71572120D01*
X212902800Y-71793100D01*
X212902800Y-80604360D01*
X212681820Y-80825340D01*
X212559900Y-81119980D01*
X212559900Y-81437480D01*
X212681820Y-81732120D01*
X212902800Y-81953100D01*
X212902800Y-90764360D01*
X212681820Y-90985340D01*
X212559900Y-91279980D01*
X212559900Y-91597480D01*
X212681820Y-91892120D01*
X212905340Y-92118180D01*
X213199980Y-92240100D01*
X213517480Y-92240100D01*
X213812120Y-92118180D01*
X214038180Y-91894660D01*
X214160100Y-91600020D01*
X214160100Y-91282520D01*
X214038180Y-90987880D01*
X213817200Y-90764360D01*
X213817200Y-81953100D01*
X214038180Y-81734660D01*
X214160100Y-81440020D01*
X214160100Y-81122520D01*
X214038180Y-80827880D01*
X213817200Y-80604360D01*
X213817200Y-71793100D01*
X214038180Y-71574660D01*
X214160100Y-71280020D01*
X214160100Y-70962520D01*
X214038180Y-70667880D01*
X213817200Y-70444360D01*
X213817200Y-67741800D01*
X213840060Y-67734180D01*
X214066120Y-67510660D01*
X214172800Y-67251580D01*
X214172800Y-67904360D01*
X213951820Y-68125340D01*
X213829900Y-68419980D01*
X213829900Y-68737480D01*
X213951820Y-69032120D01*
X214172800Y-69253100D01*
X214172800Y-76794360D01*
X213951820Y-77015340D01*
X213829900Y-77309980D01*
X213829900Y-77627480D01*
X213951820Y-77922120D01*
X214172800Y-78143100D01*
X214172800Y-86954360D01*
X213951820Y-87175340D01*
X213829900Y-87469980D01*
X213829900Y-87787480D01*
X213951820Y-88082120D01*
X214172800Y-88303100D01*
X214172800Y-98384360D01*
X213951820Y-98605340D01*
X213829900Y-98899980D01*
X213829900Y-99217480D01*
X213951820Y-99512120D01*
X214175340Y-99738180D01*
X214469980Y-99860100D01*
X214787480Y-99860100D01*
X215082120Y-99738180D01*
X215308180Y-99514660D01*
X215430100Y-99220020D01*
X215430100Y-103616760D01*
X215211660Y-103398320D01*
X214802720Y-103228140D01*
X214358220Y-103228140D01*
X213949280Y-103398320D01*
X213634320Y-103710740D01*
X213464140Y-104119680D01*
X213464140Y-104564180D01*
X213634320Y-104973120D01*
X213946740Y-105288080D01*
X214355680Y-105458260D01*
X214800180Y-105458260D01*
X215209120Y-105288080D01*
X215524080Y-104975660D01*
X215694260Y-104566720D01*
X215694260Y-119504460D01*
X213154260Y-119504460D01*
X213154260Y-104566720D01*
X213154260Y-104122220D01*
X212984080Y-103713280D01*
X212671660Y-103398320D01*
X212262720Y-103228140D01*
X211818220Y-103228140D01*
X211620100Y-103309420D01*
X211620100Y-94140020D01*
X211620100Y-93822520D01*
X211498180Y-93527880D01*
X211277200Y-93304360D01*
X211277200Y-84493100D01*
X211498180Y-84274660D01*
X211620100Y-83980020D01*
X211620100Y-83662520D01*
X211498180Y-83367880D01*
X211277200Y-83144360D01*
X211277200Y-74333100D01*
X211498180Y-74114660D01*
X211620100Y-73820020D01*
X211620100Y-73502520D01*
X211498180Y-73207880D01*
X211277200Y-72984360D01*
X211277200Y-64173100D01*
X211498180Y-63954660D01*
X211620100Y-63660020D01*
X211620100Y-63342520D01*
X211498180Y-63047880D01*
X211274660Y-62821820D01*
X210980020Y-62699900D01*
X210690460Y-62699900D01*
X210690460Y-56103520D01*
X210690460Y-55659020D01*
X210520280Y-55250080D01*
X210207860Y-54935120D01*
X209798920Y-54764940D01*
X209354420Y-54764940D01*
X208945480Y-54935120D01*
X208630520Y-55247540D01*
X208460340Y-55656480D01*
X208460340Y-56100980D01*
X208630520Y-56509920D01*
X208942940Y-56824880D01*
X209351880Y-56995060D01*
X209796380Y-56995060D01*
X210205320Y-56824880D01*
X210520280Y-56512460D01*
X210690460Y-56103520D01*
X210690460Y-62699900D01*
X210662520Y-62699900D01*
X210367880Y-62821820D01*
X210141820Y-63045340D01*
X210019900Y-63339980D01*
X210019900Y-63657480D01*
X210141820Y-63952120D01*
X210362800Y-64173100D01*
X210362800Y-69400420D01*
X210256120Y-69143880D01*
X210032600Y-68917820D01*
X210007200Y-68905120D01*
X210007200Y-65443100D01*
X210228180Y-65224660D01*
X210350100Y-64930020D01*
X210350100Y-64612520D01*
X210228180Y-64317880D01*
X210004660Y-64091820D01*
X209710020Y-63969900D01*
X209392520Y-63969900D01*
X209097880Y-64091820D01*
X208871820Y-64315340D01*
X208749900Y-64609980D01*
X208749900Y-64927480D01*
X208871820Y-65222120D01*
X209092800Y-65443100D01*
X209092800Y-68948300D01*
X208899760Y-69141340D01*
X208777840Y-69435980D01*
X208777840Y-69753480D01*
X208899760Y-70048120D01*
X209092800Y-70241160D01*
X209092800Y-74254360D01*
X208871820Y-74475340D01*
X208749900Y-74769980D01*
X208749900Y-75087480D01*
X208871820Y-75382120D01*
X209092800Y-75603100D01*
X209092800Y-84414360D01*
X208871820Y-84635340D01*
X208749900Y-84929980D01*
X208749900Y-85247480D01*
X208871820Y-85542120D01*
X209092800Y-85763100D01*
X209092800Y-94574360D01*
X209080100Y-94587060D01*
X209080100Y-86520020D01*
X209080100Y-86202520D01*
X208958180Y-85907880D01*
X208737200Y-85684360D01*
X208737200Y-61633100D01*
X208958180Y-61414660D01*
X209080100Y-61120020D01*
X209080100Y-60802520D01*
X208958180Y-60507880D01*
X208734660Y-60281820D01*
X208440020Y-60159900D01*
X208150460Y-60159900D01*
X208150460Y-56103520D01*
X208150460Y-55659020D01*
X207980280Y-55250080D01*
X207667860Y-54935120D01*
X207258920Y-54764940D01*
X206814420Y-54764940D01*
X206405480Y-54935120D01*
X206090520Y-55247540D01*
X205920340Y-55656480D01*
X205920340Y-56100980D01*
X206090520Y-56509920D01*
X206402940Y-56824880D01*
X206811880Y-56995060D01*
X207256380Y-56995060D01*
X207665320Y-56824880D01*
X207980280Y-56512460D01*
X208150460Y-56103520D01*
X208150460Y-60159900D01*
X208122520Y-60159900D01*
X207827880Y-60281820D01*
X207601820Y-60505340D01*
X207479900Y-60799980D01*
X207479900Y-61117480D01*
X207601820Y-61412120D01*
X207822800Y-61633100D01*
X207822800Y-85684360D01*
X207601820Y-85905340D01*
X207479900Y-86199980D01*
X207479900Y-86517480D01*
X207601820Y-86812120D01*
X207825340Y-87038180D01*
X208119980Y-87160100D01*
X208437480Y-87160100D01*
X208732120Y-87038180D01*
X208958180Y-86814660D01*
X209080100Y-86520020D01*
X209080100Y-94587060D01*
X208871820Y-94795340D01*
X208749900Y-95089980D01*
X208749900Y-95407480D01*
X208871820Y-95702120D01*
X209095340Y-95928180D01*
X209389980Y-96050100D01*
X209707480Y-96050100D01*
X210002120Y-95928180D01*
X210228180Y-95704660D01*
X210350100Y-95410020D01*
X210350100Y-95092520D01*
X210228180Y-94797880D01*
X210007200Y-94574360D01*
X210007200Y-85763100D01*
X210228180Y-85544660D01*
X210350100Y-85250020D01*
X210350100Y-84932520D01*
X210228180Y-84637880D01*
X210007200Y-84414360D01*
X210007200Y-75603100D01*
X210228180Y-75384660D01*
X210350100Y-75090020D01*
X210350100Y-74772520D01*
X210228180Y-74477880D01*
X210007200Y-74254360D01*
X210007200Y-70281800D01*
X210030060Y-70274180D01*
X210256120Y-70050660D01*
X210362800Y-69791580D01*
X210362800Y-72984360D01*
X210141820Y-73205340D01*
X210019900Y-73499980D01*
X210019900Y-73817480D01*
X210141820Y-74112120D01*
X210362800Y-74333100D01*
X210362800Y-83144360D01*
X210141820Y-83365340D01*
X210019900Y-83659980D01*
X210019900Y-83977480D01*
X210141820Y-84272120D01*
X210362800Y-84493100D01*
X210362800Y-93304360D01*
X210141820Y-93525340D01*
X210019900Y-93819980D01*
X210019900Y-94137480D01*
X210141820Y-94432120D01*
X210365340Y-94658180D01*
X210659980Y-94780100D01*
X210977480Y-94780100D01*
X211272120Y-94658180D01*
X211498180Y-94434660D01*
X211620100Y-94140020D01*
X211620100Y-103309420D01*
X211409280Y-103398320D01*
X211094320Y-103710740D01*
X210924140Y-104119680D01*
X210924140Y-104564180D01*
X211094320Y-104973120D01*
X211406740Y-105288080D01*
X211815680Y-105458260D01*
X212260180Y-105458260D01*
X212669120Y-105288080D01*
X212984080Y-104975660D01*
X213154260Y-104566720D01*
X213154260Y-119504460D01*
X210614260Y-119504460D01*
X210614260Y-104566720D01*
X210614260Y-104122220D01*
X210444080Y-103713280D01*
X210131660Y-103398320D01*
X209722720Y-103228140D01*
X209278220Y-103228140D01*
X208869280Y-103398320D01*
X208554320Y-103710740D01*
X208384140Y-104119680D01*
X208384140Y-104564180D01*
X208554320Y-104973120D01*
X208866740Y-105288080D01*
X209275680Y-105458260D01*
X209720180Y-105458260D01*
X210129120Y-105288080D01*
X210444080Y-104975660D01*
X210614260Y-104566720D01*
X210614260Y-119504460D01*
X208074260Y-119504460D01*
X208074260Y-104566720D01*
X208074260Y-104122220D01*
X207904080Y-103713280D01*
X207810100Y-103616760D01*
X207810100Y-97950020D01*
X207810100Y-97632520D01*
X207688180Y-97337880D01*
X207467200Y-97114360D01*
X207467200Y-81953100D01*
X207688180Y-81734660D01*
X207810100Y-81440020D01*
X207810100Y-81122520D01*
X207688180Y-80827880D01*
X207464660Y-80601820D01*
X207170020Y-80479900D01*
X206852520Y-80479900D01*
X206557880Y-80601820D01*
X206331820Y-80825340D01*
X206225140Y-81081880D01*
X206225140Y-76619100D01*
X206446120Y-76400660D01*
X206568040Y-76106020D01*
X206568040Y-75788520D01*
X206446120Y-75493880D01*
X206222600Y-75267820D01*
X205927960Y-75145900D01*
X205610460Y-75145900D01*
X205610460Y-56103520D01*
X205610460Y-55659020D01*
X205440280Y-55250080D01*
X205127860Y-54935120D01*
X204718920Y-54764940D01*
X204274420Y-54764940D01*
X203865480Y-54935120D01*
X203550520Y-55247540D01*
X203380340Y-55656480D01*
X203380340Y-56100980D01*
X203550520Y-56509920D01*
X203862940Y-56824880D01*
X204271880Y-56995060D01*
X204716380Y-56995060D01*
X205125320Y-56824880D01*
X205440280Y-56512460D01*
X205610460Y-56103520D01*
X205610460Y-75145900D01*
X205315820Y-75267820D01*
X205089760Y-75491340D01*
X204967840Y-75785980D01*
X204967840Y-76103480D01*
X205089760Y-76398120D01*
X205310740Y-76619100D01*
X205310740Y-90510360D01*
X205089760Y-90731340D01*
X204967840Y-91025980D01*
X204967840Y-91343480D01*
X205089760Y-91638120D01*
X205313280Y-91864180D01*
X205607920Y-91986100D01*
X205925420Y-91986100D01*
X206220060Y-91864180D01*
X206446120Y-91640660D01*
X206552800Y-91381580D01*
X206552800Y-97114360D01*
X206331820Y-97335340D01*
X206209900Y-97629980D01*
X206209900Y-97947480D01*
X206331820Y-98242120D01*
X206555340Y-98468180D01*
X206849980Y-98590100D01*
X207167480Y-98590100D01*
X207462120Y-98468180D01*
X207688180Y-98244660D01*
X207810100Y-97950020D01*
X207810100Y-103616760D01*
X207591660Y-103398320D01*
X207182720Y-103228140D01*
X206738220Y-103228140D01*
X206329280Y-103398320D01*
X206014320Y-103710740D01*
X205844140Y-104119680D01*
X205844140Y-104564180D01*
X206014320Y-104973120D01*
X206326740Y-105288080D01*
X206735680Y-105458260D01*
X207180180Y-105458260D01*
X207589120Y-105288080D01*
X207904080Y-104975660D01*
X208074260Y-104566720D01*
X208074260Y-119504460D01*
X205534260Y-119504460D01*
X205534260Y-104566720D01*
X205534260Y-104122220D01*
X205364080Y-103713280D01*
X205051660Y-103398320D01*
X204642720Y-103228140D01*
X204198220Y-103228140D01*
X203789280Y-103398320D01*
X203474320Y-103710740D01*
X203304140Y-104119680D01*
X203304140Y-104564180D01*
X203474320Y-104973120D01*
X203786740Y-105288080D01*
X204195680Y-105458260D01*
X204640180Y-105458260D01*
X205049120Y-105288080D01*
X205364080Y-104975660D01*
X205534260Y-104566720D01*
X205534260Y-119504460D01*
X203070460Y-119504460D01*
X203070460Y-56103520D01*
X203070460Y-55659020D01*
X202900280Y-55250080D01*
X202587860Y-54935120D01*
X202178920Y-54764940D01*
X201734420Y-54764940D01*
X201325480Y-54935120D01*
X201010520Y-55247540D01*
X200840340Y-55656480D01*
X200840340Y-56100980D01*
X201010520Y-56509920D01*
X201322940Y-56824880D01*
X201731880Y-56995060D01*
X202176380Y-56995060D01*
X202585320Y-56824880D01*
X202900280Y-56512460D01*
X203070460Y-56103520D01*
X203070460Y-119504460D01*
X200530460Y-119504460D01*
X200530460Y-56103520D01*
X200530460Y-55659020D01*
X200360280Y-55250080D01*
X200047860Y-54935120D01*
X199638920Y-54764940D01*
X199194420Y-54764940D01*
X198785480Y-54935120D01*
X198470520Y-55247540D01*
X198300340Y-55656480D01*
X198300340Y-56100980D01*
X198470520Y-56509920D01*
X198782940Y-56824880D01*
X199191880Y-56995060D01*
X199636380Y-56995060D01*
X200045320Y-56824880D01*
X200360280Y-56512460D01*
X200530460Y-56103520D01*
X200530460Y-119504460D01*
X200479660Y-119504460D01*
X200479660Y-104566720D01*
X200479660Y-104122220D01*
X200309480Y-103713280D01*
X199997060Y-103398320D01*
X199588120Y-103228140D01*
X199143620Y-103228140D01*
X198734680Y-103398320D01*
X198419720Y-103710740D01*
X198249540Y-104119680D01*
X198249540Y-104564180D01*
X198419720Y-104973120D01*
X198732140Y-105288080D01*
X199141080Y-105458260D01*
X199585580Y-105458260D01*
X199994520Y-105288080D01*
X200309480Y-104975660D01*
X200479660Y-104566720D01*
X200479660Y-119504460D01*
X198183500Y-119504460D01*
X198183500Y-104513380D01*
X198145400Y-103979980D01*
X198015860Y-103665020D01*
X197787260Y-103596440D01*
X197571360Y-103812340D01*
X197571360Y-103380540D01*
X197502780Y-103151940D01*
X196994780Y-102984300D01*
X196695060Y-103004620D01*
X196695060Y-56103520D01*
X196695060Y-55659020D01*
X196524880Y-55250080D01*
X196212460Y-54935120D01*
X195803520Y-54764940D01*
X195359020Y-54764940D01*
X194950080Y-54935120D01*
X194635120Y-55247540D01*
X194464940Y-55656480D01*
X194464940Y-56100980D01*
X194635120Y-56509920D01*
X194947540Y-56824880D01*
X195356480Y-56995060D01*
X195800980Y-56995060D01*
X196209920Y-56824880D01*
X196524880Y-56512460D01*
X196695060Y-56103520D01*
X196695060Y-103004620D01*
X196461380Y-103022400D01*
X196146420Y-103151940D01*
X196077840Y-103380540D01*
X196824600Y-104127300D01*
X197571360Y-103380540D01*
X197571360Y-103812340D01*
X197040500Y-104343200D01*
X197787260Y-105089960D01*
X198015860Y-105021380D01*
X198183500Y-104513380D01*
X198183500Y-119504460D01*
X197571360Y-119504460D01*
X197571360Y-105305860D01*
X196824600Y-104559100D01*
X196608700Y-104775000D01*
X196608700Y-104343200D01*
X195861940Y-103596440D01*
X195633340Y-103665020D01*
X195562220Y-103875840D01*
X195475860Y-103665020D01*
X195247260Y-103596440D01*
X195031360Y-103812340D01*
X194500500Y-104343200D01*
X195247260Y-105089960D01*
X195475860Y-105021380D01*
X195544440Y-104808020D01*
X195633340Y-105021380D01*
X195861940Y-105089960D01*
X196608700Y-104343200D01*
X196608700Y-104775000D01*
X196077840Y-105305860D01*
X196146420Y-105534460D01*
X196654420Y-105702100D01*
X197187820Y-105664000D01*
X197502780Y-105534460D01*
X197571360Y-105305860D01*
X197571360Y-119504460D01*
X195031360Y-119504460D01*
X195031360Y-105305860D01*
X194355720Y-104630220D01*
X194284600Y-104559100D01*
X194068700Y-104343200D01*
X194284600Y-104127300D01*
X194355720Y-104056180D01*
X195031360Y-103380540D01*
X194962780Y-103151940D01*
X194454780Y-102984300D01*
X194155060Y-103004620D01*
X194155060Y-56103520D01*
X194155060Y-55659020D01*
X193984880Y-55250080D01*
X193672460Y-54935120D01*
X193263520Y-54764940D01*
X192819020Y-54764940D01*
X192410080Y-54935120D01*
X192095120Y-55247540D01*
X191924940Y-55656480D01*
X191924940Y-56100980D01*
X192095120Y-56509920D01*
X192407540Y-56824880D01*
X192816480Y-56995060D01*
X193260980Y-56995060D01*
X193669920Y-56824880D01*
X193984880Y-56512460D01*
X194155060Y-56103520D01*
X194155060Y-103004620D01*
X193921380Y-103022400D01*
X193606420Y-103151940D01*
X193570860Y-103268780D01*
X193479420Y-103177340D01*
X193456560Y-103200200D01*
X193456560Y-103098600D01*
X193421000Y-102923340D01*
X193321940Y-102776020D01*
X193321940Y-102773480D01*
X193055240Y-102506780D01*
X193055240Y-89372440D01*
X193276220Y-89154000D01*
X193398140Y-88859360D01*
X193398140Y-88541860D01*
X193276220Y-88247220D01*
X193052700Y-88021160D01*
X192758060Y-87899240D01*
X192440560Y-87899240D01*
X192145920Y-88021160D01*
X191919860Y-88244680D01*
X191797940Y-88539320D01*
X191797940Y-88856820D01*
X191919860Y-89151460D01*
X192140840Y-89372440D01*
X192140840Y-102697280D01*
X192176400Y-102872540D01*
X192275460Y-103019860D01*
X192542160Y-103286560D01*
X192542160Y-103563420D01*
X192377060Y-103398320D01*
X191968120Y-103228140D01*
X191523620Y-103228140D01*
X191114680Y-103398320D01*
X191056260Y-103454200D01*
X191056260Y-103388160D01*
X191422020Y-103024940D01*
X191422020Y-103022400D01*
X191521080Y-102875080D01*
X191554100Y-102699820D01*
X191556640Y-102699820D01*
X191556640Y-90472260D01*
X191777620Y-90253820D01*
X191899540Y-89959180D01*
X191899540Y-89641680D01*
X191777620Y-89347040D01*
X191615060Y-89181940D01*
X191615060Y-56103520D01*
X191615060Y-55659020D01*
X191444880Y-55250080D01*
X191132460Y-54935120D01*
X190723520Y-54764940D01*
X190279020Y-54764940D01*
X189870080Y-54935120D01*
X189555120Y-55247540D01*
X189384940Y-55656480D01*
X189384940Y-56100980D01*
X189555120Y-56509920D01*
X189867540Y-56824880D01*
X190276480Y-56995060D01*
X190720980Y-56995060D01*
X191129920Y-56824880D01*
X191444880Y-56512460D01*
X191615060Y-56103520D01*
X191615060Y-89181940D01*
X191554100Y-89120980D01*
X191259460Y-88999060D01*
X190941960Y-88999060D01*
X190802260Y-89054940D01*
X190802260Y-79758540D01*
X190802260Y-79441040D01*
X190680340Y-79146400D01*
X190456820Y-78920340D01*
X190162180Y-78798420D01*
X189844680Y-78798420D01*
X189550040Y-78920340D01*
X189323980Y-79143860D01*
X189202060Y-79438500D01*
X189202060Y-79756000D01*
X189323980Y-80050640D01*
X189544960Y-80271620D01*
X189544960Y-87723980D01*
X189321440Y-87947500D01*
X189298580Y-88000840D01*
X189298580Y-87459820D01*
X189298580Y-87142320D01*
X189176660Y-86847680D01*
X188955680Y-86624160D01*
X188955680Y-81353660D01*
X189176660Y-81135220D01*
X189298580Y-80840580D01*
X189298580Y-80523080D01*
X189176660Y-80228440D01*
X189075060Y-80124300D01*
X189075060Y-56103520D01*
X189075060Y-55659020D01*
X188904880Y-55250080D01*
X188592460Y-54935120D01*
X188183520Y-54764940D01*
X187739020Y-54764940D01*
X187330080Y-54935120D01*
X187015120Y-55247540D01*
X186844940Y-55656480D01*
X186844940Y-56100980D01*
X187015120Y-56509920D01*
X187327540Y-56824880D01*
X187736480Y-56995060D01*
X188180980Y-56995060D01*
X188589920Y-56824880D01*
X188904880Y-56512460D01*
X189075060Y-56103520D01*
X189075060Y-80124300D01*
X188953140Y-80002380D01*
X188658500Y-79880460D01*
X188341000Y-79880460D01*
X188046360Y-80002380D01*
X187820300Y-80225900D01*
X187698380Y-80520540D01*
X187698380Y-80838040D01*
X187820300Y-81132680D01*
X188041280Y-81353660D01*
X188041280Y-86624160D01*
X187820300Y-86845140D01*
X187799980Y-86893400D01*
X187799980Y-86360000D01*
X187799980Y-86042500D01*
X187678060Y-85747860D01*
X187457080Y-85524340D01*
X187457080Y-82473800D01*
X187678060Y-82255360D01*
X187799980Y-81960720D01*
X187799980Y-81643220D01*
X187678060Y-81348580D01*
X187454540Y-81122520D01*
X187159900Y-81000600D01*
X186842400Y-81000600D01*
X186547760Y-81122520D01*
X186535060Y-81132680D01*
X186535060Y-56103520D01*
X186535060Y-55659020D01*
X186364880Y-55250080D01*
X186052460Y-54935120D01*
X185643520Y-54764940D01*
X185199020Y-54764940D01*
X184790080Y-54935120D01*
X184475120Y-55247540D01*
X184304940Y-55656480D01*
X184304940Y-56100980D01*
X184475120Y-56509920D01*
X184787540Y-56824880D01*
X185196480Y-56995060D01*
X185640980Y-56995060D01*
X186049920Y-56824880D01*
X186364880Y-56512460D01*
X186535060Y-56103520D01*
X186535060Y-81132680D01*
X186321700Y-81346040D01*
X186199780Y-81640680D01*
X186199780Y-81958180D01*
X186321700Y-82252820D01*
X186542680Y-82473800D01*
X186542680Y-85524340D01*
X186321700Y-85745320D01*
X186298840Y-85798660D01*
X186298840Y-85260180D01*
X186298840Y-84942680D01*
X186176920Y-84648040D01*
X185955940Y-84424520D01*
X185955940Y-83573620D01*
X186176920Y-83355180D01*
X186298840Y-83060540D01*
X186298840Y-82743040D01*
X186176920Y-82448400D01*
X185953400Y-82222340D01*
X185658760Y-82100420D01*
X185341260Y-82100420D01*
X185046620Y-82222340D01*
X184820560Y-82445860D01*
X184698640Y-82740500D01*
X184698640Y-83058000D01*
X184820560Y-83352640D01*
X185041540Y-83573620D01*
X185041540Y-84424520D01*
X184820560Y-84645500D01*
X184698640Y-84940140D01*
X184698640Y-85257640D01*
X184820560Y-85552280D01*
X185044080Y-85778340D01*
X185338720Y-85900260D01*
X185656220Y-85900260D01*
X185950860Y-85778340D01*
X186176920Y-85554820D01*
X186298840Y-85260180D01*
X186298840Y-85798660D01*
X186199780Y-86039960D01*
X186199780Y-86357460D01*
X186321700Y-86652100D01*
X186545220Y-86878160D01*
X186839860Y-87000080D01*
X187157360Y-87000080D01*
X187452000Y-86878160D01*
X187678060Y-86654640D01*
X187799980Y-86360000D01*
X187799980Y-86893400D01*
X187698380Y-87139780D01*
X187698380Y-87457280D01*
X187820300Y-87751920D01*
X188043820Y-87977980D01*
X188338460Y-88099900D01*
X188655960Y-88099900D01*
X188950600Y-87977980D01*
X189176660Y-87754460D01*
X189298580Y-87459820D01*
X189298580Y-88000840D01*
X189199520Y-88242140D01*
X189199520Y-88559640D01*
X189321440Y-88854280D01*
X189544960Y-89080340D01*
X189839600Y-89202260D01*
X190157100Y-89202260D01*
X190451740Y-89080340D01*
X190677800Y-88856820D01*
X190799720Y-88562180D01*
X190799720Y-88244680D01*
X190677800Y-87950040D01*
X190459360Y-87729060D01*
X190459360Y-80271620D01*
X190680340Y-80053180D01*
X190802260Y-79758540D01*
X190802260Y-89054940D01*
X190647320Y-89120980D01*
X190421260Y-89344500D01*
X190299340Y-89639140D01*
X190299340Y-89956640D01*
X190421260Y-90251280D01*
X190642240Y-90472260D01*
X190642240Y-102509320D01*
X190398400Y-102753160D01*
X190398400Y-102059740D01*
X190398400Y-101742240D01*
X190276480Y-101447600D01*
X190055500Y-101224080D01*
X190055500Y-91572080D01*
X190276480Y-91353640D01*
X190398400Y-91059000D01*
X190398400Y-90741500D01*
X190276480Y-90446860D01*
X190052960Y-90220800D01*
X189758320Y-90098880D01*
X189440820Y-90098880D01*
X189146180Y-90220800D01*
X188920120Y-90444320D01*
X188798200Y-90738960D01*
X188798200Y-91056460D01*
X188920120Y-91351100D01*
X189141100Y-91572080D01*
X189141100Y-101224080D01*
X188920120Y-101445060D01*
X188899800Y-101493320D01*
X188899800Y-100959920D01*
X188899800Y-100642420D01*
X188777880Y-100347780D01*
X188556900Y-100124260D01*
X188556900Y-92671900D01*
X188777880Y-92453460D01*
X188899800Y-92158820D01*
X188899800Y-91841320D01*
X188777880Y-91546680D01*
X188554360Y-91320620D01*
X188259720Y-91198700D01*
X187942220Y-91198700D01*
X187647580Y-91320620D01*
X187421520Y-91544140D01*
X187299600Y-91838780D01*
X187299600Y-92156280D01*
X187421520Y-92450920D01*
X187642500Y-92671900D01*
X187642500Y-100124260D01*
X187421520Y-100345240D01*
X187398660Y-100398580D01*
X187398660Y-99860100D01*
X187398660Y-99542600D01*
X187276740Y-99247960D01*
X187055760Y-99024440D01*
X187055760Y-93771720D01*
X187276740Y-93553280D01*
X187398660Y-93258640D01*
X187398660Y-92941140D01*
X187276740Y-92646500D01*
X187053220Y-92420440D01*
X186758580Y-92298520D01*
X186441080Y-92298520D01*
X186146440Y-92420440D01*
X185920380Y-92643960D01*
X185798460Y-92938600D01*
X185798460Y-93256100D01*
X185920380Y-93550740D01*
X186141360Y-93771720D01*
X186141360Y-99024440D01*
X185920380Y-99245420D01*
X185900060Y-99293680D01*
X185900060Y-98757740D01*
X185900060Y-98440240D01*
X185778140Y-98145600D01*
X185557160Y-97922080D01*
X185557160Y-94871540D01*
X185778140Y-94653100D01*
X185900060Y-94358460D01*
X185900060Y-94040960D01*
X185778140Y-93746320D01*
X185554620Y-93520260D01*
X185259980Y-93398340D01*
X184942480Y-93398340D01*
X184647840Y-93520260D01*
X184421780Y-93743780D01*
X184398920Y-93797120D01*
X184398920Y-89959180D01*
X184398920Y-89641680D01*
X184277000Y-89347040D01*
X184056020Y-89123520D01*
X184056020Y-76172060D01*
X184277000Y-75953620D01*
X184398920Y-75658980D01*
X184398920Y-75341480D01*
X184277000Y-75046840D01*
X184053480Y-74820780D01*
X183995060Y-74795380D01*
X183995060Y-56103520D01*
X183995060Y-55659020D01*
X183824880Y-55250080D01*
X183512460Y-54935120D01*
X183103520Y-54764940D01*
X182659020Y-54764940D01*
X182250080Y-54935120D01*
X181935120Y-55247540D01*
X181764940Y-55656480D01*
X181764940Y-56100980D01*
X181935120Y-56509920D01*
X182247540Y-56824880D01*
X182656480Y-56995060D01*
X183100980Y-56995060D01*
X183509920Y-56824880D01*
X183824880Y-56512460D01*
X183995060Y-56103520D01*
X183995060Y-74795380D01*
X183758840Y-74698860D01*
X183441340Y-74698860D01*
X183146700Y-74820780D01*
X182920640Y-75044300D01*
X182798720Y-75338940D01*
X182798720Y-75656440D01*
X182920640Y-75951080D01*
X183141620Y-76172060D01*
X183141620Y-89123520D01*
X182920640Y-89344500D01*
X182798720Y-89639140D01*
X182798720Y-89956640D01*
X182920640Y-90251280D01*
X183144160Y-90477340D01*
X183438800Y-90599260D01*
X183756300Y-90599260D01*
X184050940Y-90477340D01*
X184277000Y-90253820D01*
X184398920Y-89959180D01*
X184398920Y-93797120D01*
X184299860Y-94038420D01*
X184299860Y-94355920D01*
X184421780Y-94650560D01*
X184642760Y-94871540D01*
X184642760Y-97922080D01*
X184421780Y-98143060D01*
X184398920Y-98196400D01*
X184398920Y-97657920D01*
X184398920Y-97340420D01*
X184277000Y-97045780D01*
X184056020Y-96822260D01*
X184056020Y-95971360D01*
X184277000Y-95752920D01*
X184398920Y-95458280D01*
X184398920Y-95140780D01*
X184277000Y-94846140D01*
X184053480Y-94620080D01*
X183758840Y-94498160D01*
X183441340Y-94498160D01*
X183146700Y-94620080D01*
X182920640Y-94843600D01*
X182798720Y-95138240D01*
X182798720Y-95455740D01*
X182920640Y-95750380D01*
X183141620Y-95971360D01*
X183141620Y-96822260D01*
X182920640Y-97043240D01*
X182798720Y-97337880D01*
X182798720Y-97655380D01*
X182920640Y-97950020D01*
X183144160Y-98176080D01*
X183438800Y-98298000D01*
X183756300Y-98298000D01*
X184050940Y-98176080D01*
X184277000Y-97952560D01*
X184398920Y-97657920D01*
X184398920Y-98196400D01*
X184299860Y-98437700D01*
X184299860Y-98755200D01*
X184421780Y-99049840D01*
X184645300Y-99275900D01*
X184939940Y-99397820D01*
X185257440Y-99397820D01*
X185552080Y-99275900D01*
X185778140Y-99052380D01*
X185900060Y-98757740D01*
X185900060Y-99293680D01*
X185798460Y-99540060D01*
X185798460Y-99857560D01*
X185920380Y-100152200D01*
X186143900Y-100378260D01*
X186438540Y-100500180D01*
X186756040Y-100500180D01*
X187050680Y-100378260D01*
X187276740Y-100154740D01*
X187398660Y-99860100D01*
X187398660Y-100398580D01*
X187299600Y-100639880D01*
X187299600Y-100957380D01*
X187421520Y-101252020D01*
X187645040Y-101478080D01*
X187939680Y-101600000D01*
X188257180Y-101600000D01*
X188551820Y-101478080D01*
X188777880Y-101254560D01*
X188899800Y-100959920D01*
X188899800Y-101493320D01*
X188798200Y-101739700D01*
X188798200Y-102057200D01*
X188920120Y-102351840D01*
X189143640Y-102577900D01*
X189438280Y-102699820D01*
X189755780Y-102699820D01*
X190050420Y-102577900D01*
X190276480Y-102354380D01*
X190398400Y-102059740D01*
X190398400Y-102753160D01*
X190276480Y-102877620D01*
X190177420Y-103024940D01*
X190141860Y-103200200D01*
X190141860Y-103703120D01*
X189837060Y-103398320D01*
X189428120Y-103228140D01*
X188983620Y-103228140D01*
X188574680Y-103398320D01*
X188259720Y-103710740D01*
X188089540Y-104119680D01*
X188089540Y-104564180D01*
X188259720Y-104973120D01*
X188572140Y-105288080D01*
X188981080Y-105458260D01*
X189425580Y-105458260D01*
X189834520Y-105288080D01*
X190141860Y-104980740D01*
X190141860Y-106098340D01*
X190177420Y-106273600D01*
X190276480Y-106420920D01*
X190642240Y-106786680D01*
X190642240Y-111122460D01*
X190421260Y-111343440D01*
X190299340Y-111638080D01*
X190299340Y-111955580D01*
X190421260Y-112250220D01*
X190644780Y-112476280D01*
X190939420Y-112598200D01*
X191256920Y-112598200D01*
X191551560Y-112476280D01*
X191777620Y-112252760D01*
X191899540Y-111958120D01*
X191899540Y-111640620D01*
X191777620Y-111345980D01*
X191556640Y-111122460D01*
X191556640Y-106598720D01*
X191521080Y-106423460D01*
X191422020Y-106276140D01*
X191422020Y-106273600D01*
X191056260Y-105907840D01*
X191056260Y-105229660D01*
X191112140Y-105288080D01*
X191521080Y-105458260D01*
X191965580Y-105458260D01*
X192374520Y-105288080D01*
X192542160Y-105120440D01*
X192542160Y-106299000D01*
X192577720Y-106474260D01*
X192676780Y-106621580D01*
X193641980Y-107586780D01*
X193641980Y-114322860D01*
X193421000Y-114543840D01*
X193299080Y-114838480D01*
X193299080Y-115155980D01*
X193421000Y-115450620D01*
X193644520Y-115676680D01*
X193939160Y-115798600D01*
X194256660Y-115798600D01*
X194551300Y-115676680D01*
X194777360Y-115453160D01*
X194899280Y-115158520D01*
X194899280Y-114841020D01*
X194777360Y-114546380D01*
X194556380Y-114322860D01*
X194556380Y-107398820D01*
X194520820Y-107223560D01*
X194421760Y-107076240D01*
X194421760Y-107073700D01*
X193456560Y-106108500D01*
X193456560Y-105486200D01*
X193479420Y-105509060D01*
X193570860Y-105415080D01*
X193606420Y-105534460D01*
X194114420Y-105702100D01*
X194647820Y-105664000D01*
X194962780Y-105534460D01*
X195031360Y-105305860D01*
X195031360Y-119504460D01*
X194899280Y-119504460D01*
X187779660Y-119504460D01*
X187779660Y-104566720D01*
X187779660Y-104122220D01*
X187609480Y-103713280D01*
X187297060Y-103398320D01*
X186888120Y-103228140D01*
X186443620Y-103228140D01*
X186034680Y-103398320D01*
X185719720Y-103710740D01*
X185549540Y-104119680D01*
X185549540Y-104564180D01*
X185719720Y-104973120D01*
X186032140Y-105288080D01*
X186441080Y-105458260D01*
X186885580Y-105458260D01*
X187294520Y-105288080D01*
X187609480Y-104975660D01*
X187779660Y-104566720D01*
X187779660Y-119504460D01*
X185239660Y-119504460D01*
X185239660Y-104566720D01*
X185239660Y-104122220D01*
X185069480Y-103713280D01*
X184757060Y-103398320D01*
X184348120Y-103228140D01*
X183903620Y-103228140D01*
X183494680Y-103398320D01*
X183179720Y-103710740D01*
X183009540Y-104119680D01*
X183009540Y-104564180D01*
X183179720Y-104973120D01*
X183492140Y-105288080D01*
X183901080Y-105458260D01*
X184345580Y-105458260D01*
X184754520Y-105288080D01*
X185069480Y-104975660D01*
X185239660Y-104566720D01*
X185239660Y-119504460D01*
X182702200Y-119504460D01*
X182702200Y-77167740D01*
X182702200Y-76850240D01*
X182580280Y-76555600D01*
X182356760Y-76329540D01*
X182062120Y-76207620D01*
X181744620Y-76207620D01*
X181698900Y-76225400D01*
X181698900Y-56050180D01*
X181660800Y-55516780D01*
X181531260Y-55201820D01*
X181302660Y-55133240D01*
X181086760Y-55349140D01*
X181086760Y-54917340D01*
X181018180Y-54688740D01*
X180510180Y-54521100D01*
X179976780Y-54559200D01*
X179661820Y-54688740D01*
X179593240Y-54917340D01*
X180340000Y-55664100D01*
X181086760Y-54917340D01*
X181086760Y-55349140D01*
X180555900Y-55880000D01*
X181302660Y-56626760D01*
X181531260Y-56558180D01*
X181698900Y-56050180D01*
X181698900Y-76225400D01*
X181449980Y-76329540D01*
X181223920Y-76553060D01*
X181102000Y-76847700D01*
X181102000Y-77165200D01*
X181223920Y-77459840D01*
X181444900Y-77680820D01*
X181444900Y-90020140D01*
X181221380Y-90243660D01*
X181201060Y-90291920D01*
X181201060Y-78849220D01*
X181201060Y-78531720D01*
X181086760Y-78254860D01*
X181086760Y-56842660D01*
X180340000Y-56095900D01*
X180124100Y-56311800D01*
X180124100Y-55880000D01*
X179377340Y-55133240D01*
X179148740Y-55201820D01*
X178981100Y-55709820D01*
X179019200Y-56243220D01*
X179148740Y-56558180D01*
X179377340Y-56626760D01*
X180124100Y-55880000D01*
X180124100Y-56311800D01*
X179593240Y-56842660D01*
X179661820Y-57071260D01*
X180169820Y-57238900D01*
X180703220Y-57200800D01*
X181018180Y-57071260D01*
X181086760Y-56842660D01*
X181086760Y-78254860D01*
X181079140Y-78237080D01*
X180855620Y-78011020D01*
X180560980Y-77889100D01*
X180243480Y-77889100D01*
X179948840Y-78011020D01*
X179722780Y-78234540D01*
X179600860Y-78529180D01*
X179600860Y-78846680D01*
X179722780Y-79141320D01*
X179943760Y-79362300D01*
X179943760Y-91721940D01*
X179720240Y-91945460D01*
X179598320Y-92240100D01*
X179598320Y-92557600D01*
X179720240Y-92852240D01*
X179943760Y-93078300D01*
X180238400Y-93200220D01*
X180555900Y-93200220D01*
X180850540Y-93078300D01*
X181076600Y-92854780D01*
X181198520Y-92560140D01*
X181198520Y-92242640D01*
X181076600Y-91948000D01*
X180858160Y-91727020D01*
X180858160Y-79362300D01*
X181079140Y-79143860D01*
X181201060Y-78849220D01*
X181201060Y-90291920D01*
X181099460Y-90538300D01*
X181099460Y-90855800D01*
X181221380Y-91150440D01*
X181444900Y-91376500D01*
X181739540Y-91498420D01*
X182057040Y-91498420D01*
X182351680Y-91376500D01*
X182577740Y-91152980D01*
X182699660Y-90858340D01*
X182699660Y-90540840D01*
X182577740Y-90246200D01*
X182359300Y-90025220D01*
X182359300Y-77680820D01*
X182580280Y-77462380D01*
X182702200Y-77167740D01*
X182702200Y-119504460D01*
X182699660Y-119504460D01*
X182699660Y-104566720D01*
X182699660Y-104122220D01*
X182529480Y-103713280D01*
X182217060Y-103398320D01*
X181808120Y-103228140D01*
X181363620Y-103228140D01*
X180954680Y-103398320D01*
X180639720Y-103710740D01*
X180469540Y-104119680D01*
X180469540Y-104564180D01*
X180639720Y-104973120D01*
X180952140Y-105288080D01*
X181361080Y-105458260D01*
X181805580Y-105458260D01*
X182214520Y-105288080D01*
X182529480Y-104975660D01*
X182699660Y-104566720D01*
X182699660Y-119504460D01*
X179321460Y-119504460D01*
X179321460Y-81643220D01*
X178915060Y-80657700D01*
X178915060Y-56103520D01*
X178915060Y-55659020D01*
X178744880Y-55250080D01*
X178432460Y-54935120D01*
X178023520Y-54764940D01*
X177579020Y-54764940D01*
X177170080Y-54935120D01*
X176855120Y-55247540D01*
X176684940Y-55656480D01*
X176684940Y-56100980D01*
X176855120Y-56509920D01*
X177167540Y-56824880D01*
X177576480Y-56995060D01*
X178020980Y-56995060D01*
X178429920Y-56824880D01*
X178744880Y-56512460D01*
X178915060Y-56103520D01*
X178915060Y-80657700D01*
X178666140Y-80055720D01*
X177449480Y-78839060D01*
X176375060Y-78392020D01*
X176375060Y-56103520D01*
X176375060Y-55659020D01*
X176204880Y-55250080D01*
X175892460Y-54935120D01*
X175483520Y-54764940D01*
X175039020Y-54764940D01*
X174630080Y-54935120D01*
X174315120Y-55247540D01*
X174144940Y-55656480D01*
X174144940Y-56100980D01*
X174315120Y-56509920D01*
X174627540Y-56824880D01*
X175036480Y-56995060D01*
X175480980Y-56995060D01*
X175889920Y-56824880D01*
X176204880Y-56512460D01*
X176375060Y-56103520D01*
X176375060Y-78392020D01*
X175864520Y-78181200D01*
X174144940Y-78178660D01*
X173835060Y-78305660D01*
X173835060Y-56103520D01*
X173835060Y-55659020D01*
X173664880Y-55250080D01*
X173352460Y-54935120D01*
X172943520Y-54764940D01*
X172499020Y-54764940D01*
X172090080Y-54935120D01*
X171775120Y-55247540D01*
X171604940Y-55656480D01*
X171604940Y-56100980D01*
X171775120Y-56509920D01*
X172087540Y-56824880D01*
X172496480Y-56995060D01*
X172940980Y-56995060D01*
X173349920Y-56824880D01*
X173664880Y-56512460D01*
X173835060Y-56103520D01*
X173835060Y-78305660D01*
X172557440Y-78833980D01*
X171340780Y-80050640D01*
X170682920Y-81635600D01*
X170680380Y-83355180D01*
X171335700Y-84942680D01*
X172552360Y-86159340D01*
X174137320Y-86817200D01*
X175856900Y-86819740D01*
X177444400Y-86164420D01*
X178661060Y-84947760D01*
X179318920Y-83362800D01*
X179321460Y-81643220D01*
X179321460Y-119504460D01*
X167500300Y-119504460D01*
X167500300Y-59761120D01*
X167500300Y-59443620D01*
X167378380Y-59148980D01*
X167157400Y-58925460D01*
X167157400Y-51673760D01*
X167378380Y-51455320D01*
X167500300Y-51160680D01*
X167500300Y-50843180D01*
X167378380Y-50548540D01*
X167154860Y-50322480D01*
X166860220Y-50200560D01*
X166542720Y-50200560D01*
X166248080Y-50322480D01*
X166022020Y-50546000D01*
X165900100Y-50840640D01*
X165900100Y-51158140D01*
X166022020Y-51452780D01*
X166243000Y-51673760D01*
X166243000Y-53705760D01*
X166176960Y-53548280D01*
X165953440Y-53322220D01*
X165658800Y-53200300D01*
X165341300Y-53200300D01*
X165046660Y-53322220D01*
X164820600Y-53545740D01*
X164698680Y-53840380D01*
X164698680Y-54157880D01*
X164820600Y-54452520D01*
X165041580Y-54673500D01*
X165041580Y-59923680D01*
X164820600Y-60144660D01*
X164698680Y-60439300D01*
X164698680Y-60756800D01*
X164820600Y-61051440D01*
X165044120Y-61277500D01*
X165338760Y-61399420D01*
X165656260Y-61399420D01*
X165950900Y-61277500D01*
X166176960Y-61053980D01*
X166298880Y-60759340D01*
X166298880Y-60441840D01*
X166220140Y-60253880D01*
X166245540Y-60279280D01*
X166540180Y-60401200D01*
X166857680Y-60401200D01*
X167152320Y-60279280D01*
X167378380Y-60055760D01*
X167500300Y-59761120D01*
X167500300Y-119504460D01*
X164320220Y-119504460D01*
X164320220Y-104145080D01*
X164320220Y-89143840D01*
X164320220Y-74145140D01*
X164320220Y-59143900D01*
X163664900Y-57556400D01*
X162448240Y-56339740D01*
X160863280Y-55681880D01*
X159143700Y-55679340D01*
X157556200Y-56334660D01*
X156339540Y-57551320D01*
X155681680Y-59136280D01*
X155679140Y-60855860D01*
X156334460Y-62443360D01*
X157551120Y-63660020D01*
X159136080Y-64317880D01*
X160855660Y-64320420D01*
X162443160Y-63665100D01*
X163659820Y-62448440D01*
X164317680Y-60863480D01*
X164320220Y-59143900D01*
X164320220Y-74145140D01*
X163664900Y-72557640D01*
X162448240Y-71340980D01*
X160863280Y-70683120D01*
X159143700Y-70680580D01*
X157556200Y-71335900D01*
X156339540Y-72552560D01*
X155681680Y-74137520D01*
X155679140Y-75857100D01*
X156334460Y-77444600D01*
X157551120Y-78661260D01*
X159136080Y-79319120D01*
X160855660Y-79321660D01*
X162443160Y-78666340D01*
X163659820Y-77449680D01*
X164317680Y-75864720D01*
X164320220Y-74145140D01*
X164320220Y-89143840D01*
X163664900Y-87556340D01*
X162448240Y-86339680D01*
X160863280Y-85681820D01*
X159143700Y-85679280D01*
X157556200Y-86334600D01*
X156339540Y-87551260D01*
X155681680Y-89136220D01*
X155679140Y-90855800D01*
X156334460Y-92443300D01*
X157551120Y-93659960D01*
X159136080Y-94317820D01*
X160855660Y-94320360D01*
X162443160Y-93665040D01*
X163659820Y-92448380D01*
X164317680Y-90863420D01*
X164320220Y-89143840D01*
X164320220Y-104145080D01*
X163664900Y-102557580D01*
X162448240Y-101340920D01*
X160863280Y-100683060D01*
X159143700Y-100680520D01*
X157556200Y-101335840D01*
X156339540Y-102552500D01*
X155681680Y-104137460D01*
X155679140Y-105857040D01*
X156334460Y-107444540D01*
X157551120Y-108661200D01*
X159136080Y-109319060D01*
X160855660Y-109321600D01*
X162443160Y-108666280D01*
X163659820Y-107449620D01*
X164317680Y-105864660D01*
X164320220Y-104145080D01*
X164320220Y-119504460D01*
X154703780Y-119504460D01*
X154703780Y-112938560D01*
X154703780Y-112062260D01*
X154703780Y-52938680D01*
X154703780Y-52062380D01*
X154368500Y-51252120D01*
X153748740Y-50632360D01*
X152938480Y-50294540D01*
X152062180Y-50294540D01*
X151251920Y-50629820D01*
X150632160Y-51249580D01*
X150294340Y-52059840D01*
X150294340Y-52936140D01*
X150629620Y-53746400D01*
X151249380Y-54366160D01*
X152059640Y-54703980D01*
X152935940Y-54703980D01*
X153746200Y-54368700D01*
X154365960Y-53748940D01*
X154703780Y-52938680D01*
X154703780Y-112062260D01*
X154368500Y-111252000D01*
X153748740Y-110632240D01*
X152938480Y-110294420D01*
X152900380Y-110294420D01*
X152900380Y-100561140D01*
X152900380Y-100243640D01*
X152900380Y-66060320D01*
X152900380Y-65742820D01*
X152778460Y-65448180D01*
X152557480Y-65224660D01*
X152557480Y-58272680D01*
X152778460Y-58054240D01*
X152900380Y-57759600D01*
X152900380Y-57442100D01*
X152778460Y-57147460D01*
X152554940Y-56921400D01*
X152260300Y-56799480D01*
X151942800Y-56799480D01*
X151648160Y-56921400D01*
X151422100Y-57144920D01*
X151300180Y-57439560D01*
X151300180Y-57757060D01*
X151422100Y-58051700D01*
X151643080Y-58272680D01*
X151643080Y-65224660D01*
X151422100Y-65445640D01*
X151300180Y-65740280D01*
X151300180Y-65900300D01*
X151277320Y-65846960D01*
X151056340Y-65623440D01*
X151056340Y-59372500D01*
X151277320Y-59154060D01*
X151399240Y-58859420D01*
X151399240Y-58541920D01*
X151277320Y-58247280D01*
X151053800Y-58021220D01*
X150759160Y-57899300D01*
X150441660Y-57899300D01*
X150147020Y-58021220D01*
X149920960Y-58244740D01*
X149799040Y-58539380D01*
X149799040Y-58856880D01*
X149920960Y-59151520D01*
X150141940Y-59372500D01*
X150141940Y-65623440D01*
X149920960Y-65844420D01*
X149799040Y-66139060D01*
X149799040Y-66456560D01*
X149920960Y-66751200D01*
X150144480Y-66977260D01*
X150439120Y-67099180D01*
X150756620Y-67099180D01*
X151051260Y-66977260D01*
X151277320Y-66753740D01*
X151399240Y-66459100D01*
X151399240Y-66296540D01*
X151422100Y-66352420D01*
X151645620Y-66578480D01*
X151940260Y-66700400D01*
X152257760Y-66700400D01*
X152552400Y-66578480D01*
X152778460Y-66354960D01*
X152900380Y-66060320D01*
X152900380Y-100243640D01*
X152778460Y-99949000D01*
X152554940Y-99722940D01*
X152260300Y-99601020D01*
X151942800Y-99601020D01*
X151648160Y-99722940D01*
X151422100Y-99946460D01*
X151300180Y-100241100D01*
X151300180Y-100558600D01*
X151422100Y-100853240D01*
X151643080Y-101074220D01*
X151643080Y-106781600D01*
X151549100Y-106822240D01*
X151323040Y-107045760D01*
X151201120Y-107340400D01*
X151201120Y-107657900D01*
X151323040Y-107952540D01*
X151546560Y-108178600D01*
X151841200Y-108300520D01*
X152158700Y-108300520D01*
X152453340Y-108178600D01*
X152679400Y-107955080D01*
X152801320Y-107660440D01*
X152801320Y-107342940D01*
X152679400Y-107048300D01*
X152557480Y-106923840D01*
X152557480Y-101074220D01*
X152778460Y-100855780D01*
X152900380Y-100561140D01*
X152900380Y-110294420D01*
X152062180Y-110294420D01*
X151251920Y-110629700D01*
X151000460Y-110881160D01*
X151000460Y-107558840D01*
X151000460Y-107241340D01*
X150878540Y-106946700D01*
X150657560Y-106723180D01*
X150657560Y-100472240D01*
X150878540Y-100253800D01*
X151000460Y-99959160D01*
X151000460Y-99641660D01*
X150878540Y-99347020D01*
X150655020Y-99120960D01*
X150360380Y-98999040D01*
X150042880Y-98999040D01*
X149748240Y-99120960D01*
X149522180Y-99344480D01*
X149400260Y-99639120D01*
X149400260Y-99956620D01*
X149522180Y-100251260D01*
X149743160Y-100472240D01*
X149743160Y-106723180D01*
X149522180Y-106944160D01*
X149400260Y-107238800D01*
X149400260Y-107556300D01*
X149522180Y-107850940D01*
X149745700Y-108077000D01*
X150040340Y-108198920D01*
X150357840Y-108198920D01*
X150652480Y-108077000D01*
X150878540Y-107853480D01*
X151000460Y-107558840D01*
X151000460Y-110881160D01*
X150632160Y-111249460D01*
X150294340Y-112059720D01*
X150294340Y-112936020D01*
X150629620Y-113746280D01*
X151249380Y-114366040D01*
X152059640Y-114703860D01*
X152935940Y-114703860D01*
X153746200Y-114368580D01*
X154365960Y-113748820D01*
X154703780Y-112938560D01*
X154703780Y-119504460D01*
X149321520Y-119504460D01*
X149321520Y-104145080D01*
X149321520Y-89143840D01*
X149321520Y-74145140D01*
X149321520Y-59143900D01*
X148666200Y-57556400D01*
X147449540Y-56339740D01*
X145864580Y-55681880D01*
X144145000Y-55679340D01*
X142557500Y-56334660D01*
X141340840Y-57551320D01*
X140682980Y-59136280D01*
X140680440Y-60855860D01*
X141335760Y-62443360D01*
X142552420Y-63660020D01*
X144137380Y-64317880D01*
X145856960Y-64320420D01*
X147444460Y-63665100D01*
X148661120Y-62448440D01*
X149318980Y-60863480D01*
X149321520Y-59143900D01*
X149321520Y-74145140D01*
X148666200Y-72557640D01*
X147449540Y-71340980D01*
X145864580Y-70683120D01*
X144145000Y-70680580D01*
X142557500Y-71335900D01*
X141340840Y-72552560D01*
X140682980Y-74137520D01*
X140680440Y-75857100D01*
X141335760Y-77444600D01*
X142552420Y-78661260D01*
X144137380Y-79319120D01*
X145856960Y-79321660D01*
X147444460Y-78666340D01*
X148661120Y-77449680D01*
X149318980Y-75864720D01*
X149321520Y-74145140D01*
X149321520Y-89143840D01*
X148666200Y-87556340D01*
X147449540Y-86339680D01*
X145864580Y-85681820D01*
X144145000Y-85679280D01*
X142557500Y-86334600D01*
X141340840Y-87551260D01*
X140682980Y-89136220D01*
X140680440Y-90855800D01*
X141335760Y-92443300D01*
X142552420Y-93659960D01*
X144137380Y-94317820D01*
X145856960Y-94320360D01*
X147444460Y-93665040D01*
X148661120Y-92448380D01*
X149318980Y-90863420D01*
X149321520Y-89143840D01*
X149321520Y-104145080D01*
X148666200Y-102557580D01*
X147449540Y-101340920D01*
X145864580Y-100683060D01*
X144145000Y-100680520D01*
X142557500Y-101335840D01*
X141340840Y-102552500D01*
X140682980Y-104137460D01*
X140680440Y-105857040D01*
X141335760Y-107444540D01*
X142552420Y-108661200D01*
X144137380Y-109319060D01*
X145856960Y-109321600D01*
X147444460Y-108666280D01*
X148661120Y-107449620D01*
X149318980Y-105864660D01*
X149321520Y-104145080D01*
X149321520Y-119504460D01*
X138399520Y-119504460D01*
X138399520Y-115161060D01*
X138399520Y-114843560D01*
X138277600Y-114548920D01*
X138056620Y-114325400D01*
X138056620Y-99872800D01*
X138277600Y-99654360D01*
X138399520Y-99359720D01*
X138399520Y-99042220D01*
X138277600Y-98747580D01*
X138198860Y-98666300D01*
X138198860Y-66959480D01*
X138198860Y-66641980D01*
X138076940Y-66347340D01*
X137855960Y-66123820D01*
X137855960Y-51673760D01*
X138076940Y-51455320D01*
X138198860Y-51160680D01*
X138198860Y-50843180D01*
X138076940Y-50548540D01*
X137853420Y-50322480D01*
X137558780Y-50200560D01*
X137241280Y-50200560D01*
X136946640Y-50322480D01*
X136720580Y-50546000D01*
X136598660Y-50840640D01*
X136598660Y-51158140D01*
X136720580Y-51452780D01*
X136941560Y-51673760D01*
X136941560Y-66123820D01*
X136720580Y-66344800D01*
X136598660Y-66639440D01*
X136598660Y-66956940D01*
X136720580Y-67251580D01*
X136944100Y-67477640D01*
X137238740Y-67599560D01*
X137556240Y-67599560D01*
X137850880Y-67477640D01*
X138076940Y-67254120D01*
X138198860Y-66959480D01*
X138198860Y-98666300D01*
X138054080Y-98521520D01*
X137759440Y-98399600D01*
X137441940Y-98399600D01*
X137147300Y-98521520D01*
X136921240Y-98745040D01*
X136799320Y-99039680D01*
X136799320Y-99357180D01*
X136921240Y-99651820D01*
X137142220Y-99872800D01*
X137142220Y-114325400D01*
X136921240Y-114546380D01*
X136799320Y-114841020D01*
X136799320Y-115158520D01*
X136921240Y-115453160D01*
X137144760Y-115679220D01*
X137439400Y-115801140D01*
X137756900Y-115801140D01*
X138051540Y-115679220D01*
X138277600Y-115455700D01*
X138399520Y-115161060D01*
X138399520Y-119504460D01*
X136298940Y-119504460D01*
X136298940Y-67160140D01*
X136298940Y-66842640D01*
X136177020Y-66548000D01*
X135956040Y-66324480D01*
X135956040Y-54673500D01*
X136177020Y-54455060D01*
X136298940Y-54160420D01*
X136298940Y-53842920D01*
X136177020Y-53548280D01*
X135953500Y-53322220D01*
X135658860Y-53200300D01*
X135341360Y-53200300D01*
X135046720Y-53322220D01*
X134820660Y-53545740D01*
X134698740Y-53840380D01*
X134698740Y-54157880D01*
X134820660Y-54452520D01*
X135041640Y-54673500D01*
X135041640Y-66324480D01*
X134820660Y-66545460D01*
X134698740Y-66840100D01*
X134698740Y-67157600D01*
X134820660Y-67452240D01*
X135044180Y-67678300D01*
X135338820Y-67800220D01*
X135656320Y-67800220D01*
X135950960Y-67678300D01*
X136177020Y-67454780D01*
X136298940Y-67160140D01*
X136298940Y-119504460D01*
X135999220Y-119504460D01*
X135999220Y-112158780D01*
X135999220Y-111841280D01*
X135877300Y-111546640D01*
X135656320Y-111323120D01*
X135656320Y-99174300D01*
X135877300Y-98955860D01*
X135999220Y-98661220D01*
X135999220Y-98343720D01*
X135877300Y-98049080D01*
X135653780Y-97823020D01*
X135359140Y-97701100D01*
X135041640Y-97701100D01*
X134747000Y-97823020D01*
X134520940Y-98046540D01*
X134399020Y-98341180D01*
X134399020Y-98658680D01*
X134520940Y-98953320D01*
X134741920Y-99174300D01*
X134741920Y-111323120D01*
X134520940Y-111544100D01*
X134399020Y-111838740D01*
X134399020Y-112156240D01*
X134520940Y-112450880D01*
X134744460Y-112676940D01*
X135039100Y-112798860D01*
X135356600Y-112798860D01*
X135651240Y-112676940D01*
X135877300Y-112453420D01*
X135999220Y-112158780D01*
X135999220Y-119504460D01*
X134320280Y-119504460D01*
X134320280Y-104145080D01*
X134320280Y-89143840D01*
X134320280Y-74145140D01*
X134320280Y-59143900D01*
X133664960Y-57556400D01*
X132448300Y-56339740D01*
X130863340Y-55681880D01*
X129143760Y-55679340D01*
X127556260Y-56334660D01*
X126339600Y-57551320D01*
X125681740Y-59136280D01*
X125679200Y-60855860D01*
X126334520Y-62443360D01*
X127551180Y-63660020D01*
X129136140Y-64317880D01*
X130855720Y-64320420D01*
X132443220Y-63665100D01*
X133659880Y-62448440D01*
X134317740Y-60863480D01*
X134320280Y-59143900D01*
X134320280Y-74145140D01*
X133664960Y-72557640D01*
X132448300Y-71340980D01*
X130863340Y-70683120D01*
X129143760Y-70680580D01*
X127556260Y-71335900D01*
X126339600Y-72552560D01*
X125681740Y-74137520D01*
X125679200Y-75857100D01*
X126334520Y-77444600D01*
X127551180Y-78661260D01*
X129136140Y-79319120D01*
X130855720Y-79321660D01*
X132443220Y-78666340D01*
X133659880Y-77449680D01*
X134317740Y-75864720D01*
X134320280Y-74145140D01*
X134320280Y-89143840D01*
X133664960Y-87556340D01*
X132448300Y-86339680D01*
X130863340Y-85681820D01*
X129143760Y-85679280D01*
X127556260Y-86334600D01*
X126339600Y-87551260D01*
X125681740Y-89136220D01*
X125679200Y-90855800D01*
X126334520Y-92443300D01*
X127551180Y-93659960D01*
X129136140Y-94317820D01*
X130855720Y-94320360D01*
X132443220Y-93665040D01*
X133659880Y-92448380D01*
X134317740Y-90863420D01*
X134320280Y-89143840D01*
X134320280Y-104145080D01*
X133664960Y-102557580D01*
X132448300Y-101340920D01*
X130863340Y-100683060D01*
X129143760Y-100680520D01*
X127556260Y-101335840D01*
X126339600Y-102552500D01*
X125681740Y-104137460D01*
X125679200Y-105857040D01*
X126334520Y-107444540D01*
X127551180Y-108661200D01*
X129136140Y-109319060D01*
X130855720Y-109321600D01*
X132443220Y-108666280D01*
X133659880Y-107449620D01*
X134317740Y-105864660D01*
X134320280Y-104145080D01*
X134320280Y-119504460D01*
X123499880Y-119504460D01*
X123499880Y-115161060D01*
X123499880Y-114843560D01*
X123377960Y-114548920D01*
X123156980Y-114325400D01*
X123156980Y-98673920D01*
X123377960Y-98455480D01*
X123499880Y-98160840D01*
X123499880Y-97843340D01*
X123377960Y-97548700D01*
X123299220Y-97467420D01*
X123299220Y-67861180D01*
X123299220Y-67543680D01*
X123177300Y-67249040D01*
X122956320Y-67025520D01*
X122956320Y-51673760D01*
X123177300Y-51455320D01*
X123299220Y-51160680D01*
X123299220Y-50843180D01*
X123177300Y-50548540D01*
X122953780Y-50322480D01*
X122659140Y-50200560D01*
X122341640Y-50200560D01*
X122047000Y-50322480D01*
X121820940Y-50546000D01*
X121699020Y-50840640D01*
X121699020Y-51158140D01*
X121820940Y-51452780D01*
X122041920Y-51673760D01*
X122041920Y-67025520D01*
X121820940Y-67246500D01*
X121699020Y-67541140D01*
X121699020Y-67858640D01*
X121820940Y-68153280D01*
X122044460Y-68379340D01*
X122339100Y-68501260D01*
X122656600Y-68501260D01*
X122951240Y-68379340D01*
X123177300Y-68155820D01*
X123299220Y-67861180D01*
X123299220Y-97467420D01*
X123154440Y-97322640D01*
X122859800Y-97200720D01*
X122542300Y-97200720D01*
X122247660Y-97322640D01*
X122021600Y-97546160D01*
X121899680Y-97840800D01*
X121899680Y-98158300D01*
X122021600Y-98452940D01*
X122242580Y-98673920D01*
X122242580Y-114325400D01*
X122021600Y-114546380D01*
X121899680Y-114841020D01*
X121899680Y-115158520D01*
X122021600Y-115453160D01*
X122245120Y-115679220D01*
X122539760Y-115801140D01*
X122857260Y-115801140D01*
X123151900Y-115679220D01*
X123377960Y-115455700D01*
X123499880Y-115161060D01*
X123499880Y-119504460D01*
X121300240Y-119504460D01*
X121300240Y-68359020D01*
X121300240Y-68041520D01*
X121178320Y-67746880D01*
X120957340Y-67523360D01*
X120957340Y-54673500D01*
X121178320Y-54455060D01*
X121300240Y-54160420D01*
X121300240Y-53842920D01*
X121178320Y-53548280D01*
X120954800Y-53322220D01*
X120660160Y-53200300D01*
X120342660Y-53200300D01*
X120048020Y-53322220D01*
X119821960Y-53545740D01*
X119700040Y-53840380D01*
X119700040Y-54157880D01*
X119821960Y-54452520D01*
X120042940Y-54673500D01*
X120042940Y-67523360D01*
X119821960Y-67744340D01*
X119700040Y-68038980D01*
X119700040Y-68356480D01*
X119821960Y-68651120D01*
X120045480Y-68877180D01*
X120340120Y-68999100D01*
X120657620Y-68999100D01*
X120952260Y-68877180D01*
X121178320Y-68653660D01*
X121300240Y-68359020D01*
X121300240Y-119504460D01*
X121099580Y-119504460D01*
X121099580Y-112059720D01*
X121099580Y-111742220D01*
X120977660Y-111447580D01*
X120756680Y-111224060D01*
X120756680Y-98173540D01*
X120977660Y-97955100D01*
X121099580Y-97660460D01*
X121099580Y-97342960D01*
X120977660Y-97048320D01*
X120754140Y-96822260D01*
X120459500Y-96700340D01*
X120142000Y-96700340D01*
X119847360Y-96822260D01*
X119621300Y-97045780D01*
X119499380Y-97340420D01*
X119499380Y-97657920D01*
X119621300Y-97952560D01*
X119842280Y-98173540D01*
X119842280Y-111224060D01*
X119621300Y-111445040D01*
X119499380Y-111739680D01*
X119499380Y-112057180D01*
X119621300Y-112351820D01*
X119844820Y-112577880D01*
X120139460Y-112699800D01*
X120456960Y-112699800D01*
X120751600Y-112577880D01*
X120977660Y-112354360D01*
X121099580Y-112059720D01*
X121099580Y-119504460D01*
X119321580Y-119504460D01*
X119321580Y-104145080D01*
X119321580Y-89143840D01*
X119321580Y-74145140D01*
X119321580Y-59143900D01*
X118666260Y-57556400D01*
X117449600Y-56339740D01*
X115864640Y-55681880D01*
X114145060Y-55679340D01*
X112557560Y-56334660D01*
X111340900Y-57551320D01*
X110683040Y-59136280D01*
X110680500Y-60855860D01*
X111335820Y-62443360D01*
X112552480Y-63660020D01*
X114137440Y-64317880D01*
X115857020Y-64320420D01*
X117444520Y-63665100D01*
X118661180Y-62448440D01*
X119319040Y-60863480D01*
X119321580Y-59143900D01*
X119321580Y-74145140D01*
X118666260Y-72557640D01*
X117449600Y-71340980D01*
X115864640Y-70683120D01*
X114145060Y-70680580D01*
X112557560Y-71335900D01*
X111340900Y-72552560D01*
X110683040Y-74137520D01*
X110680500Y-75857100D01*
X111335820Y-77444600D01*
X112552480Y-78661260D01*
X114137440Y-79319120D01*
X115857020Y-79321660D01*
X117444520Y-78666340D01*
X118661180Y-77449680D01*
X119319040Y-75864720D01*
X119321580Y-74145140D01*
X119321580Y-89143840D01*
X118666260Y-87556340D01*
X117449600Y-86339680D01*
X115864640Y-85681820D01*
X114145060Y-85679280D01*
X112557560Y-86334600D01*
X111340900Y-87551260D01*
X110683040Y-89136220D01*
X110680500Y-90855800D01*
X111335820Y-92443300D01*
X112552480Y-93659960D01*
X114137440Y-94317820D01*
X115857020Y-94320360D01*
X117444520Y-93665040D01*
X118661180Y-92448380D01*
X119319040Y-90863420D01*
X119321580Y-89143840D01*
X119321580Y-104145080D01*
X118666260Y-102557580D01*
X117449600Y-101340920D01*
X115864640Y-100683060D01*
X114145060Y-100680520D01*
X112557560Y-101335840D01*
X111340900Y-102552500D01*
X110683040Y-104137460D01*
X110680500Y-105857040D01*
X111335820Y-107444540D01*
X112552480Y-108661200D01*
X114137440Y-109319060D01*
X115857020Y-109321600D01*
X117444520Y-108666280D01*
X118661180Y-107449620D01*
X119319040Y-105864660D01*
X119321580Y-104145080D01*
X119321580Y-119504460D01*
X109705140Y-119504460D01*
X109705140Y-112938560D01*
X109705140Y-112062260D01*
X109705140Y-52938680D01*
X109705140Y-52062380D01*
X109369860Y-51252120D01*
X108750100Y-50632360D01*
X107939840Y-50294540D01*
X107063540Y-50294540D01*
X106253280Y-50629820D01*
X105633520Y-51249580D01*
X105295700Y-52059840D01*
X105295700Y-52936140D01*
X105630980Y-53746400D01*
X106250740Y-54366160D01*
X107061000Y-54703980D01*
X107937300Y-54703980D01*
X108747560Y-54368700D01*
X109367320Y-53748940D01*
X109705140Y-52938680D01*
X109705140Y-112062260D01*
X109369860Y-111252000D01*
X108750100Y-110632240D01*
X108099860Y-110360460D01*
X108099860Y-68859400D01*
X108099860Y-68541900D01*
X107977940Y-68247260D01*
X107756960Y-68023740D01*
X107756960Y-58374280D01*
X107977940Y-58155840D01*
X108099860Y-57861200D01*
X108099860Y-57543700D01*
X107977940Y-57249060D01*
X107754420Y-57023000D01*
X107459780Y-56901080D01*
X107142280Y-56901080D01*
X106847640Y-57023000D01*
X106621580Y-57246520D01*
X106499660Y-57541160D01*
X106499660Y-57858660D01*
X106621580Y-58153300D01*
X106842560Y-58374280D01*
X106842560Y-68023740D01*
X106621580Y-68244720D01*
X106499660Y-68539360D01*
X106499660Y-68856860D01*
X106621580Y-69151500D01*
X106845100Y-69377560D01*
X107139740Y-69499480D01*
X107457240Y-69499480D01*
X107751880Y-69377560D01*
X107977940Y-69154040D01*
X108099860Y-68859400D01*
X108099860Y-110360460D01*
X107939840Y-110294420D01*
X107899200Y-110294420D01*
X107899200Y-107360720D01*
X107899200Y-107043220D01*
X107777280Y-106748580D01*
X107556300Y-106525060D01*
X107556300Y-97574100D01*
X107777280Y-97355660D01*
X107899200Y-97061020D01*
X107899200Y-96743520D01*
X107777280Y-96448880D01*
X107553760Y-96222820D01*
X107259120Y-96100900D01*
X106941620Y-96100900D01*
X106646980Y-96222820D01*
X106420920Y-96446340D01*
X106299000Y-96740980D01*
X106299000Y-97058480D01*
X106420920Y-97353120D01*
X106641900Y-97574100D01*
X106641900Y-106525060D01*
X106420920Y-106746040D01*
X106299000Y-107040680D01*
X106299000Y-107043220D01*
X106177080Y-106748580D01*
X105956100Y-106525060D01*
X105956100Y-97073720D01*
X106177080Y-96855280D01*
X106299000Y-96560640D01*
X106299000Y-96243140D01*
X106299000Y-69560440D01*
X106299000Y-69242940D01*
X106177080Y-68948300D01*
X105956100Y-68724780D01*
X105956100Y-58374280D01*
X106177080Y-58155840D01*
X106299000Y-57861200D01*
X106299000Y-57543700D01*
X106177080Y-57249060D01*
X105953560Y-57023000D01*
X105658920Y-56901080D01*
X105341420Y-56901080D01*
X105046780Y-57023000D01*
X104820720Y-57246520D01*
X104698800Y-57541160D01*
X104698800Y-57858660D01*
X104820720Y-58153300D01*
X105041700Y-58374280D01*
X105041700Y-68724780D01*
X104820720Y-68945760D01*
X104698800Y-69240400D01*
X104698800Y-69557900D01*
X104820720Y-69852540D01*
X105044240Y-70078600D01*
X105338880Y-70200520D01*
X105656380Y-70200520D01*
X105951020Y-70078600D01*
X106177080Y-69855080D01*
X106299000Y-69560440D01*
X106299000Y-96243140D01*
X106177080Y-95948500D01*
X105953560Y-95722440D01*
X105658920Y-95600520D01*
X105341420Y-95600520D01*
X105046780Y-95722440D01*
X104820720Y-95945960D01*
X104698800Y-96240600D01*
X104698800Y-96558100D01*
X104820720Y-96852740D01*
X105041700Y-97073720D01*
X105041700Y-106525060D01*
X104820720Y-106746040D01*
X104698800Y-107040680D01*
X104698800Y-107358180D01*
X104820720Y-107652820D01*
X105044240Y-107878880D01*
X105338880Y-108000800D01*
X105656380Y-108000800D01*
X105951020Y-107878880D01*
X106177080Y-107655360D01*
X106299000Y-107360720D01*
X106420920Y-107652820D01*
X106644440Y-107878880D01*
X106939080Y-108000800D01*
X107256580Y-108000800D01*
X107551220Y-107878880D01*
X107777280Y-107655360D01*
X107899200Y-107360720D01*
X107899200Y-110294420D01*
X107063540Y-110294420D01*
X106253280Y-110629700D01*
X105633520Y-111249460D01*
X105295700Y-112059720D01*
X105295700Y-112936020D01*
X105630980Y-113746280D01*
X106250740Y-114366040D01*
X107061000Y-114703860D01*
X107937300Y-114703860D01*
X108747560Y-114368580D01*
X109367320Y-113748820D01*
X109705140Y-112938560D01*
X109705140Y-119504460D01*
X104320340Y-119504460D01*
X104320340Y-104145080D01*
X104320340Y-89143840D01*
X104320340Y-74145140D01*
X104320340Y-59143900D01*
X103665020Y-57556400D01*
X102448360Y-56339740D01*
X100863400Y-55681880D01*
X99143820Y-55679340D01*
X97556320Y-56334660D01*
X96339660Y-57551320D01*
X95681800Y-59136280D01*
X95679260Y-60855860D01*
X96334580Y-62443360D01*
X97551240Y-63660020D01*
X99136200Y-64317880D01*
X100855780Y-64320420D01*
X102443280Y-63665100D01*
X103659940Y-62448440D01*
X104317800Y-60863480D01*
X104320340Y-59143900D01*
X104320340Y-74145140D01*
X103665020Y-72557640D01*
X102448360Y-71340980D01*
X100863400Y-70683120D01*
X99143820Y-70680580D01*
X97556320Y-71335900D01*
X96339660Y-72552560D01*
X95681800Y-74137520D01*
X95679260Y-75857100D01*
X96334580Y-77444600D01*
X97551240Y-78661260D01*
X99136200Y-79319120D01*
X100855780Y-79321660D01*
X102443280Y-78666340D01*
X103659940Y-77449680D01*
X104317800Y-75864720D01*
X104320340Y-74145140D01*
X104320340Y-89143840D01*
X103665020Y-87556340D01*
X102448360Y-86339680D01*
X100863400Y-85681820D01*
X99143820Y-85679280D01*
X97556320Y-86334600D01*
X96339660Y-87551260D01*
X95681800Y-89136220D01*
X95679260Y-90855800D01*
X96334580Y-92443300D01*
X97551240Y-93659960D01*
X99136200Y-94317820D01*
X100855780Y-94320360D01*
X102443280Y-93665040D01*
X103659940Y-92448380D01*
X104317800Y-90863420D01*
X104320340Y-89143840D01*
X104320340Y-104145080D01*
X103665020Y-102557580D01*
X102448360Y-101340920D01*
X100863400Y-100683060D01*
X99143820Y-100680520D01*
X97556320Y-101335840D01*
X96339660Y-102552500D01*
X95681800Y-104137460D01*
X95679260Y-105857040D01*
X96334580Y-107444540D01*
X97551240Y-108661200D01*
X99136200Y-109319060D01*
X100855780Y-109321600D01*
X102443280Y-108666280D01*
X103659940Y-107449620D01*
X104317800Y-105864660D01*
X104320340Y-104145080D01*
X104320340Y-119504460D01*
X93700600Y-119504460D01*
X93700600Y-115161060D01*
X93700600Y-114843560D01*
X93578680Y-114548920D01*
X93357700Y-114325400D01*
X93357700Y-96172020D01*
X93578680Y-95953580D01*
X93700600Y-95658940D01*
X93700600Y-95341440D01*
X93578680Y-95046800D01*
X93355160Y-94820740D01*
X93060520Y-94698820D01*
X92798900Y-94698820D01*
X92798900Y-70561200D01*
X92798900Y-70243700D01*
X92676980Y-69949060D01*
X92557600Y-69827140D01*
X92557600Y-67299840D01*
X92557600Y-67000120D01*
X92557600Y-51572160D01*
X92676980Y-51455320D01*
X92798900Y-51160680D01*
X92798900Y-50843180D01*
X92676980Y-50548540D01*
X92453460Y-50322480D01*
X92158820Y-50200560D01*
X91841320Y-50200560D01*
X91546680Y-50322480D01*
X91320620Y-50546000D01*
X91198700Y-50840640D01*
X91198700Y-51158140D01*
X91320620Y-51452780D01*
X91544140Y-51678840D01*
X91643200Y-51719480D01*
X91643200Y-67000120D01*
X91643200Y-67299840D01*
X91643200Y-69682360D01*
X91546680Y-69723000D01*
X91320620Y-69946520D01*
X91198700Y-70241160D01*
X91198700Y-70558660D01*
X91320620Y-70853300D01*
X91544140Y-71079360D01*
X91838780Y-71201280D01*
X92156280Y-71201280D01*
X92450920Y-71079360D01*
X92676980Y-70855840D01*
X92798900Y-70561200D01*
X92798900Y-94698820D01*
X92743020Y-94698820D01*
X92448380Y-94820740D01*
X92222320Y-95044260D01*
X92100400Y-95338900D01*
X92100400Y-95656400D01*
X92222320Y-95951040D01*
X92443300Y-96172020D01*
X92443300Y-114325400D01*
X92222320Y-114546380D01*
X92100400Y-114841020D01*
X92100400Y-115158520D01*
X92222320Y-115453160D01*
X92445840Y-115679220D01*
X92740480Y-115801140D01*
X93057980Y-115801140D01*
X93352620Y-115679220D01*
X93578680Y-115455700D01*
X93700600Y-115161060D01*
X93700600Y-119504460D01*
X91300300Y-119504460D01*
X91300300Y-79159100D01*
X91300300Y-78841600D01*
X91178380Y-78546960D01*
X90957400Y-78323440D01*
X90957400Y-54673500D01*
X91178380Y-54455060D01*
X91300300Y-54160420D01*
X91300300Y-53842920D01*
X91178380Y-53548280D01*
X90954860Y-53322220D01*
X90660220Y-53200300D01*
X90342720Y-53200300D01*
X90048080Y-53322220D01*
X89822020Y-53545740D01*
X89700100Y-53840380D01*
X89700100Y-54157880D01*
X89822020Y-54452520D01*
X90043000Y-54673500D01*
X90043000Y-78323440D01*
X89822020Y-78544420D01*
X89700100Y-78839060D01*
X89700100Y-79156560D01*
X89822020Y-79451200D01*
X90045540Y-79677260D01*
X90340180Y-79799180D01*
X90657680Y-79799180D01*
X90952320Y-79677260D01*
X91178380Y-79453740D01*
X91300300Y-79159100D01*
X91300300Y-119504460D01*
X91201240Y-119504460D01*
X91201240Y-112158780D01*
X91201240Y-111841280D01*
X91079320Y-111546640D01*
X90858340Y-111323120D01*
X90858340Y-85674200D01*
X91079320Y-85455760D01*
X91201240Y-85161120D01*
X91201240Y-84843620D01*
X91079320Y-84548980D01*
X90855800Y-84322920D01*
X90561160Y-84201000D01*
X90243660Y-84201000D01*
X89949020Y-84322920D01*
X89722960Y-84546440D01*
X89601040Y-84841080D01*
X89601040Y-85158580D01*
X89722960Y-85453220D01*
X89943940Y-85674200D01*
X89943940Y-111323120D01*
X89722960Y-111544100D01*
X89601040Y-111838740D01*
X89601040Y-112156240D01*
X89722960Y-112450880D01*
X89946480Y-112676940D01*
X90241120Y-112798860D01*
X90558620Y-112798860D01*
X90853260Y-112676940D01*
X91079320Y-112453420D01*
X91201240Y-112158780D01*
X91201240Y-119504460D01*
X89321640Y-119504460D01*
X89321640Y-104145080D01*
X89321640Y-89143840D01*
X89321640Y-74145140D01*
X89321640Y-59143900D01*
X88666320Y-57556400D01*
X87449660Y-56339740D01*
X85864700Y-55681880D01*
X84145120Y-55679340D01*
X82557620Y-56334660D01*
X81340960Y-57551320D01*
X80683100Y-59136280D01*
X80680560Y-60855860D01*
X81335880Y-62443360D01*
X82552540Y-63660020D01*
X84137500Y-64317880D01*
X85857080Y-64320420D01*
X87444580Y-63665100D01*
X88661240Y-62448440D01*
X89319100Y-60863480D01*
X89321640Y-59143900D01*
X89321640Y-74145140D01*
X88666320Y-72557640D01*
X87449660Y-71340980D01*
X85864700Y-70683120D01*
X84145120Y-70680580D01*
X82557620Y-71335900D01*
X81340960Y-72552560D01*
X80683100Y-74137520D01*
X80680560Y-75857100D01*
X81335880Y-77444600D01*
X82552540Y-78661260D01*
X84137500Y-79319120D01*
X85857080Y-79321660D01*
X87444580Y-78666340D01*
X88661240Y-77449680D01*
X89319100Y-75864720D01*
X89321640Y-74145140D01*
X89321640Y-89143840D01*
X88666320Y-87556340D01*
X87449660Y-86339680D01*
X85864700Y-85681820D01*
X84145120Y-85679280D01*
X82557620Y-86334600D01*
X81340960Y-87551260D01*
X80683100Y-89136220D01*
X80680560Y-90855800D01*
X81335880Y-92443300D01*
X82552540Y-93659960D01*
X84137500Y-94317820D01*
X85857080Y-94320360D01*
X87444580Y-93665040D01*
X88661240Y-92448380D01*
X89319100Y-90863420D01*
X89321640Y-89143840D01*
X89321640Y-104145080D01*
X88666320Y-102557580D01*
X87449660Y-101340920D01*
X85864700Y-100683060D01*
X84145120Y-100680520D01*
X82557620Y-101335840D01*
X81340960Y-102552500D01*
X80683100Y-104137460D01*
X80680560Y-105857040D01*
X81335880Y-107444540D01*
X82552540Y-108661200D01*
X84137500Y-109319060D01*
X85857080Y-109321600D01*
X87444580Y-108666280D01*
X88661240Y-107449620D01*
X89319100Y-105864660D01*
X89321640Y-104145080D01*
X89321640Y-119504460D01*
X78300580Y-119504460D01*
X78300580Y-115161060D01*
X78300580Y-114843560D01*
X78178660Y-114548920D01*
X77957680Y-114325400D01*
X77957680Y-85272880D01*
X78178660Y-85054440D01*
X78300580Y-84759800D01*
X78300580Y-84442300D01*
X78178660Y-84147660D01*
X77955140Y-83921600D01*
X77899260Y-83896200D01*
X77899260Y-79560420D01*
X77899260Y-79242920D01*
X77777340Y-78948280D01*
X77556360Y-78724760D01*
X77556360Y-51673760D01*
X77777340Y-51455320D01*
X77899260Y-51160680D01*
X77899260Y-50843180D01*
X77777340Y-50548540D01*
X77553820Y-50322480D01*
X77259180Y-50200560D01*
X76941680Y-50200560D01*
X76647040Y-50322480D01*
X76420980Y-50546000D01*
X76299060Y-50840640D01*
X76299060Y-51158140D01*
X76420980Y-51452780D01*
X76641960Y-51673760D01*
X76641960Y-78724760D01*
X76420980Y-78945740D01*
X76400660Y-78994000D01*
X76400660Y-54058820D01*
X76400660Y-53741320D01*
X76278740Y-53446680D01*
X76055220Y-53220620D01*
X75760580Y-53098700D01*
X75443080Y-53098700D01*
X75148440Y-53220620D01*
X74922380Y-53444140D01*
X74800460Y-53738780D01*
X74800460Y-54056280D01*
X74922380Y-54350920D01*
X75041760Y-54470300D01*
X75041760Y-79225140D01*
X74820780Y-79446120D01*
X74698860Y-79740760D01*
X74698860Y-80058260D01*
X74820780Y-80352900D01*
X75044300Y-80578960D01*
X75338940Y-80700880D01*
X75656440Y-80700880D01*
X75951080Y-80578960D01*
X76177140Y-80355440D01*
X76299060Y-80060800D01*
X76299060Y-79743300D01*
X76177140Y-79448660D01*
X75956160Y-79225140D01*
X75956160Y-54615080D01*
X76052680Y-54576980D01*
X76278740Y-54353460D01*
X76400660Y-54058820D01*
X76400660Y-78994000D01*
X76299060Y-79240380D01*
X76299060Y-79557880D01*
X76420980Y-79852520D01*
X76644500Y-80078580D01*
X76939140Y-80200500D01*
X77256640Y-80200500D01*
X77551280Y-80078580D01*
X77777340Y-79855060D01*
X77899260Y-79560420D01*
X77899260Y-83896200D01*
X77660500Y-83799680D01*
X77343000Y-83799680D01*
X77048360Y-83921600D01*
X76822300Y-84145120D01*
X76700380Y-84439760D01*
X76700380Y-84757260D01*
X76822300Y-85051900D01*
X77043280Y-85272880D01*
X77043280Y-114325400D01*
X76822300Y-114546380D01*
X76700380Y-114841020D01*
X76700380Y-115158520D01*
X76822300Y-115453160D01*
X77045820Y-115679220D01*
X77340460Y-115801140D01*
X77657960Y-115801140D01*
X77952600Y-115679220D01*
X78178660Y-115455700D01*
X78300580Y-115161060D01*
X78300580Y-119504460D01*
X76299060Y-119504460D01*
X76299060Y-112158780D01*
X76299060Y-111841280D01*
X76177140Y-111546640D01*
X75956160Y-111323120D01*
X75956160Y-84874100D01*
X76177140Y-84655660D01*
X76299060Y-84361020D01*
X76299060Y-84043520D01*
X76177140Y-83748880D01*
X75953620Y-83522820D01*
X75658980Y-83400900D01*
X75341480Y-83400900D01*
X75046840Y-83522820D01*
X74820780Y-83746340D01*
X74698860Y-84040980D01*
X74698860Y-84358480D01*
X74820780Y-84653120D01*
X75041760Y-84874100D01*
X75041760Y-111323120D01*
X74820780Y-111544100D01*
X74698860Y-111838740D01*
X74698860Y-112156240D01*
X74820780Y-112450880D01*
X75044300Y-112676940D01*
X75338940Y-112798860D01*
X75656440Y-112798860D01*
X75951080Y-112676940D01*
X76177140Y-112453420D01*
X76299060Y-112158780D01*
X76299060Y-119504460D01*
X74320400Y-119504460D01*
X74320400Y-104145080D01*
X74320400Y-89143840D01*
X74320400Y-74145140D01*
X74320400Y-59143900D01*
X73665080Y-57556400D01*
X72448420Y-56339740D01*
X70863460Y-55681880D01*
X69143880Y-55679340D01*
X67556380Y-56334660D01*
X66339720Y-57551320D01*
X65681860Y-59136280D01*
X65679320Y-60855860D01*
X66334640Y-62443360D01*
X67551300Y-63660020D01*
X69136260Y-64317880D01*
X70855840Y-64320420D01*
X72443340Y-63665100D01*
X73660000Y-62448440D01*
X74317860Y-60863480D01*
X74320400Y-59143900D01*
X74320400Y-74145140D01*
X73665080Y-72557640D01*
X72448420Y-71340980D01*
X70863460Y-70683120D01*
X69143880Y-70680580D01*
X67556380Y-71335900D01*
X66339720Y-72552560D01*
X65681860Y-74137520D01*
X65679320Y-75857100D01*
X66334640Y-77444600D01*
X67551300Y-78661260D01*
X69136260Y-79319120D01*
X70855840Y-79321660D01*
X72443340Y-78666340D01*
X73660000Y-77449680D01*
X74317860Y-75864720D01*
X74320400Y-74145140D01*
X74320400Y-89143840D01*
X73665080Y-87556340D01*
X72448420Y-86339680D01*
X70863460Y-85681820D01*
X69143880Y-85679280D01*
X67556380Y-86334600D01*
X66339720Y-87551260D01*
X65681860Y-89136220D01*
X65679320Y-90855800D01*
X66334640Y-92443300D01*
X67551300Y-93659960D01*
X69136260Y-94317820D01*
X70855840Y-94320360D01*
X72443340Y-93665040D01*
X73660000Y-92448380D01*
X74317860Y-90863420D01*
X74320400Y-89143840D01*
X74320400Y-104145080D01*
X73665080Y-102557580D01*
X72448420Y-101340920D01*
X70863460Y-100683060D01*
X69143880Y-100680520D01*
X67556380Y-101335840D01*
X66339720Y-102552500D01*
X65681860Y-104137460D01*
X65679320Y-105857040D01*
X66334640Y-107444540D01*
X67551300Y-108661200D01*
X69136260Y-109319060D01*
X70855840Y-109321600D01*
X72443340Y-108666280D01*
X73660000Y-107449620D01*
X74317860Y-105864660D01*
X74320400Y-104145080D01*
X74320400Y-119504460D01*
X62999620Y-119504460D01*
X62999620Y-51160680D01*
X62999620Y-50843180D01*
X62877700Y-50548540D01*
X62654180Y-50322480D01*
X62359540Y-50200560D01*
X62042040Y-50200560D01*
X61747400Y-50322480D01*
X61521340Y-50546000D01*
X61399420Y-50840640D01*
X61399420Y-51158140D01*
X61521340Y-51452780D01*
X61742320Y-51673760D01*
X61742320Y-79781400D01*
X61648340Y-79822040D01*
X61422280Y-80045560D01*
X61300360Y-80340200D01*
X61300360Y-80657700D01*
X61422280Y-80952340D01*
X61645800Y-81178400D01*
X61940440Y-81300320D01*
X62257940Y-81300320D01*
X62552580Y-81178400D01*
X62778640Y-80954880D01*
X62900560Y-80660240D01*
X62900560Y-80342740D01*
X62778640Y-80048100D01*
X62656720Y-79923640D01*
X62656720Y-51673760D01*
X62877700Y-51455320D01*
X62999620Y-51160680D01*
X62999620Y-119504460D01*
X62699900Y-119504460D01*
X62699900Y-84058760D01*
X62699900Y-83741260D01*
X62577980Y-83446620D01*
X62354460Y-83220560D01*
X62059820Y-83098640D01*
X61742320Y-83098640D01*
X61447680Y-83220560D01*
X61300360Y-83365340D01*
X61300360Y-82158840D01*
X61300360Y-81841340D01*
X61178440Y-81546700D01*
X60957460Y-81323180D01*
X60957460Y-54523640D01*
X61079380Y-54404260D01*
X61201300Y-54109620D01*
X61201300Y-53792120D01*
X61079380Y-53497480D01*
X60855860Y-53271420D01*
X60561220Y-53149500D01*
X60243720Y-53149500D01*
X59949080Y-53271420D01*
X59723020Y-53494940D01*
X59601100Y-53789580D01*
X59601100Y-54107080D01*
X59723020Y-54401720D01*
X59946540Y-54627780D01*
X60043060Y-54665880D01*
X60043060Y-81323180D01*
X59822080Y-81544160D01*
X59700160Y-81838800D01*
X59700160Y-82156300D01*
X59822080Y-82450940D01*
X59977020Y-82608420D01*
X59949080Y-82621120D01*
X59723020Y-82844640D01*
X59601100Y-83139280D01*
X59601100Y-83456780D01*
X59723020Y-83751420D01*
X59944000Y-83972400D01*
X59944000Y-111323120D01*
X59723020Y-111544100D01*
X59601100Y-111838740D01*
X59601100Y-112156240D01*
X59723020Y-112450880D01*
X59946540Y-112676940D01*
X60241180Y-112798860D01*
X60558680Y-112798860D01*
X60853320Y-112676940D01*
X61079380Y-112453420D01*
X61201300Y-112158780D01*
X61201300Y-111841280D01*
X61079380Y-111546640D01*
X60858400Y-111323120D01*
X60858400Y-83972400D01*
X61079380Y-83753960D01*
X61201300Y-83459320D01*
X61201300Y-83141820D01*
X61079380Y-82847180D01*
X60921900Y-82687160D01*
X60952380Y-82677000D01*
X61178440Y-82453480D01*
X61300360Y-82158840D01*
X61300360Y-83365340D01*
X61221620Y-83444080D01*
X61099700Y-83738720D01*
X61099700Y-84056220D01*
X61221620Y-84350860D01*
X61442600Y-84571840D01*
X61442600Y-114282220D01*
X61348620Y-114322860D01*
X61122560Y-114546380D01*
X61000640Y-114841020D01*
X61000640Y-115158520D01*
X61122560Y-115453160D01*
X61346080Y-115679220D01*
X61640720Y-115801140D01*
X61958220Y-115801140D01*
X62252860Y-115679220D01*
X62478920Y-115455700D01*
X62600840Y-115161060D01*
X62600840Y-114843560D01*
X62478920Y-114548920D01*
X62357000Y-114424460D01*
X62357000Y-84571840D01*
X62577980Y-84353400D01*
X62699900Y-84058760D01*
X62699900Y-119504460D01*
X59321700Y-119504460D01*
X59321700Y-104145080D01*
X59321700Y-89143840D01*
X59321700Y-74145140D01*
X59321700Y-59143900D01*
X58666380Y-57556400D01*
X57449720Y-56339740D01*
X55864760Y-55681880D01*
X54145180Y-55679340D01*
X52557680Y-56334660D01*
X51341020Y-57551320D01*
X50683160Y-59136280D01*
X50680620Y-60855860D01*
X51335940Y-62443360D01*
X52552600Y-63660020D01*
X54137560Y-64317880D01*
X55857140Y-64320420D01*
X57444640Y-63665100D01*
X58661300Y-62448440D01*
X59319160Y-60863480D01*
X59321700Y-59143900D01*
X59321700Y-74145140D01*
X58666380Y-72557640D01*
X57449720Y-71340980D01*
X55864760Y-70683120D01*
X54145180Y-70680580D01*
X52557680Y-71335900D01*
X51341020Y-72552560D01*
X50683160Y-74137520D01*
X50680620Y-75857100D01*
X51335940Y-77444600D01*
X52552600Y-78661260D01*
X54137560Y-79319120D01*
X55857140Y-79321660D01*
X57444640Y-78666340D01*
X58661300Y-77449680D01*
X59319160Y-75864720D01*
X59321700Y-74145140D01*
X59321700Y-89143840D01*
X58666380Y-87556340D01*
X57449720Y-86339680D01*
X55864760Y-85681820D01*
X54145180Y-85679280D01*
X52557680Y-86334600D01*
X51341020Y-87551260D01*
X50683160Y-89136220D01*
X50680620Y-90855800D01*
X51335940Y-92443300D01*
X52552600Y-93659960D01*
X54137560Y-94317820D01*
X55857140Y-94320360D01*
X57444640Y-93665040D01*
X58661300Y-92448380D01*
X59319160Y-90863420D01*
X59321700Y-89143840D01*
X59321700Y-104145080D01*
X58666380Y-102557580D01*
X57449720Y-101340920D01*
X55864760Y-100683060D01*
X54145180Y-100680520D01*
X52557680Y-101335840D01*
X51341020Y-102552500D01*
X50683160Y-104137460D01*
X50680620Y-105857040D01*
X51335940Y-107444540D01*
X52552600Y-108661200D01*
X54137560Y-109319060D01*
X55857140Y-109321600D01*
X57444640Y-108666280D01*
X58661300Y-107449620D01*
X59319160Y-105864660D01*
X59321700Y-104145080D01*
X59321700Y-119504460D01*
X49705260Y-119504460D01*
X49705260Y-112938560D01*
X49705260Y-112062260D01*
X49705260Y-52938680D01*
X49705260Y-52062380D01*
X49369980Y-51252120D01*
X48750220Y-50632360D01*
X47939960Y-50294540D01*
X47063660Y-50294540D01*
X46253400Y-50629820D01*
X45633640Y-51249580D01*
X45295820Y-52059840D01*
X45295820Y-52936140D01*
X45631100Y-53746400D01*
X46250860Y-54366160D01*
X47061120Y-54703980D01*
X47937420Y-54703980D01*
X48747680Y-54368700D01*
X49367440Y-53748940D01*
X49705260Y-52938680D01*
X49705260Y-112062260D01*
X49369980Y-111252000D01*
X48750220Y-110632240D01*
X47939960Y-110294420D01*
X47063660Y-110294420D01*
X46253400Y-110629700D01*
X45633640Y-111249460D01*
X45295820Y-112059720D01*
X45295820Y-112936020D01*
X45631100Y-113746280D01*
X46250860Y-114366040D01*
X47061120Y-114703860D01*
X47937420Y-114703860D01*
X48747680Y-114368580D01*
X49367440Y-113748820D01*
X49705260Y-112938560D01*
X49705260Y-119504460D01*
X38496240Y-119504460D01*
X38496240Y-49494440D01*
X234505500Y-49494440D01*
X234505500Y-119504460D01*
M02*
