G04 #@! TF.GenerationSoftware,KiCad,Pcbnew,(2018-02-14 revision 6afdf1cf8)-makepkg*
G04 #@! TF.CreationDate,2018-02-15T17:49:41+13:00*
G04 #@! TF.ProjectId,patch-shield-digital,70617463682D736869656C642D646967,rev?*
G04 #@! TF.SameCoordinates,Original*
G04 #@! TF.FileFunction,Soldermask,Top*
G04 #@! TF.FilePolarity,Negative*
%FSLAX46Y46*%
G04 Gerber Fmt 4.6, Leading zero omitted, Abs format (unit mm)*
G04 Created by KiCad (PCBNEW (2018-02-14 revision 6afdf1cf8)-makepkg) date 02/15/18 17:49:41*
%MOMM*%
%LPD*%
G01*
G04 APERTURE LIST*
%ADD10C,7.929880*%
%ADD11C,3.797300*%
%ADD12R,0.635000X1.143000*%
%ADD13R,1.143000X0.635000*%
%ADD14R,1.524000X1.524000*%
%ADD15C,1.524000*%
%ADD16R,1.501140X0.701040*%
%ADD17R,0.889000X1.397000*%
%ADD18R,1.397000X0.889000*%
%ADD19R,0.797560X0.797560*%
%ADD20R,1.270000X0.381000*%
%ADD21C,2.001520*%
G04 APERTURE END LIST*
D10*
X55001160Y-59999880D03*
X69999860Y-59999880D03*
X85001100Y-59999880D03*
X99999800Y-59999880D03*
X115001040Y-59999880D03*
X129999740Y-59999880D03*
X145000980Y-59999880D03*
X159999680Y-59999880D03*
X55001160Y-75001120D03*
X69999860Y-75001120D03*
X85001100Y-75001120D03*
X99999800Y-75001120D03*
X115001040Y-75001120D03*
X129999740Y-75001120D03*
X145000980Y-75001120D03*
X159999680Y-75001120D03*
X159999680Y-89999820D03*
X145000980Y-89999820D03*
X129999740Y-89999820D03*
X115001040Y-89999820D03*
X99999800Y-89999820D03*
X85001100Y-89999820D03*
X69999860Y-89999820D03*
X55001160Y-89999820D03*
X55001160Y-105001060D03*
X69999860Y-105001060D03*
X85001100Y-105001060D03*
X99999800Y-105001060D03*
X115001040Y-105001060D03*
X129999740Y-105001060D03*
X145000980Y-105001060D03*
X159999680Y-105001060D03*
D11*
X47500540Y-52499260D03*
X107500420Y-52499260D03*
X152499060Y-52499260D03*
X227500180Y-52499260D03*
X227500180Y-112499140D03*
X152499060Y-112499140D03*
X107500420Y-112499140D03*
X47500540Y-112499140D03*
D10*
X175000920Y-82499200D03*
D12*
X205867000Y-96520000D03*
X204343000Y-96520000D03*
X205867000Y-86360000D03*
X204343000Y-86360000D03*
D13*
X202565000Y-68707000D03*
X202565000Y-67183000D03*
D12*
X229616000Y-74676000D03*
X231140000Y-74676000D03*
X229870000Y-69596000D03*
X231394000Y-69596000D03*
X229743000Y-72136000D03*
X231267000Y-72136000D03*
X229870000Y-67056000D03*
X231394000Y-67056000D03*
X229870000Y-64516000D03*
X231394000Y-64516000D03*
D14*
X217195400Y-64516000D03*
D15*
X219735400Y-64516000D03*
X217195400Y-67056000D03*
X219735400Y-67056000D03*
X217195400Y-69596000D03*
X219735400Y-69596000D03*
X217195400Y-72136000D03*
X219735400Y-72136000D03*
X217195400Y-74676000D03*
X219735400Y-74676000D03*
D16*
X217170000Y-95885000D03*
X217170000Y-97155000D03*
X217170000Y-98425000D03*
X217170000Y-99695000D03*
X224790000Y-99695000D03*
X224790000Y-98425000D03*
X224790000Y-97155000D03*
X224790000Y-95885000D03*
D17*
X220027500Y-90170000D03*
X221932500Y-90170000D03*
X217487500Y-86360000D03*
X219392500Y-86360000D03*
D12*
X220218000Y-92710000D03*
X221742000Y-92710000D03*
D15*
X181584600Y-104343200D03*
X184124600Y-104343200D03*
X186664600Y-104343200D03*
X189204600Y-104343200D03*
X191744600Y-104343200D03*
X194284600Y-104343200D03*
X196824600Y-104343200D03*
X199364600Y-104343200D03*
X204419200Y-104343200D03*
X206959200Y-104343200D03*
X209499200Y-104343200D03*
X212039200Y-104343200D03*
X214579200Y-104343200D03*
X217119200Y-104343200D03*
X217195400Y-77216000D03*
X217195400Y-79756000D03*
X217195400Y-82296000D03*
X219735400Y-82296000D03*
X219735400Y-79756000D03*
X219735400Y-77216000D03*
X217195400Y-55880000D03*
X214655400Y-55880000D03*
X212115400Y-55880000D03*
X209575400Y-55880000D03*
X207035400Y-55880000D03*
X204495400Y-55880000D03*
X201955400Y-55880000D03*
X199415400Y-55880000D03*
X195580000Y-55880000D03*
X193040000Y-55880000D03*
X190500000Y-55880000D03*
X187960000Y-55880000D03*
X185420000Y-55880000D03*
X182880000Y-55880000D03*
X180340000Y-55880000D03*
X177800000Y-55880000D03*
X175260000Y-55880000D03*
X172720000Y-55880000D03*
D18*
X202565000Y-77787500D03*
X202565000Y-79692500D03*
D12*
X197612000Y-78105000D03*
X196088000Y-78105000D03*
X197612000Y-67945000D03*
X196088000Y-67945000D03*
D18*
X205105000Y-68262500D03*
X205105000Y-70167500D03*
X202565000Y-87947500D03*
X202565000Y-89852500D03*
D12*
X197612000Y-88265000D03*
X196088000Y-88265000D03*
X197612000Y-98425000D03*
X196088000Y-98425000D03*
D18*
X202565000Y-98107500D03*
X202565000Y-100012500D03*
D12*
X222758000Y-60960000D03*
X224282000Y-60960000D03*
D19*
X224269300Y-58420000D03*
X222770700Y-58420000D03*
D20*
X194050920Y-70749160D03*
X194050920Y-71399400D03*
X194050920Y-72049640D03*
X194050920Y-72699880D03*
X194050920Y-73350120D03*
X194050920Y-74000360D03*
X194050920Y-74650600D03*
X194050920Y-75300840D03*
X199649080Y-75300840D03*
X199649080Y-74650600D03*
X199649080Y-74000360D03*
X199649080Y-73350120D03*
X199649080Y-72699880D03*
X199649080Y-72049640D03*
X199649080Y-71399400D03*
X199649080Y-70749160D03*
X194050920Y-60589160D03*
X194050920Y-61239400D03*
X194050920Y-61889640D03*
X194050920Y-62539880D03*
X194050920Y-63190120D03*
X194050920Y-63840360D03*
X194050920Y-64490600D03*
X194050920Y-65140840D03*
X199649080Y-65140840D03*
X199649080Y-64490600D03*
X199649080Y-63840360D03*
X199649080Y-63190120D03*
X199649080Y-62539880D03*
X199649080Y-61889640D03*
X199649080Y-61239400D03*
X199649080Y-60589160D03*
X194050920Y-80909160D03*
X194050920Y-81559400D03*
X194050920Y-82209640D03*
X194050920Y-82859880D03*
X194050920Y-83510120D03*
X194050920Y-84160360D03*
X194050920Y-84810600D03*
X194050920Y-85460840D03*
X199649080Y-85460840D03*
X199649080Y-84810600D03*
X199649080Y-84160360D03*
X199649080Y-83510120D03*
X199649080Y-82859880D03*
X199649080Y-82209640D03*
X199649080Y-81559400D03*
X199649080Y-80909160D03*
X194050920Y-91069160D03*
X194050920Y-91719400D03*
X194050920Y-92369640D03*
X194050920Y-93019880D03*
X194050920Y-93670120D03*
X194050920Y-94320360D03*
X194050920Y-94970600D03*
X194050920Y-95620840D03*
X199649080Y-95620840D03*
X199649080Y-94970600D03*
X199649080Y-94320360D03*
X199649080Y-93670120D03*
X199649080Y-93019880D03*
X199649080Y-92369640D03*
X199649080Y-91719400D03*
X199649080Y-91069160D03*
D19*
X115750340Y-54000400D03*
X114251740Y-54000400D03*
X115750340Y-51000660D03*
X114251740Y-51000660D03*
D13*
X108501180Y-61262260D03*
X108501180Y-59738260D03*
X125498860Y-54762400D03*
X125498860Y-53238400D03*
D19*
X130749040Y-51000660D03*
X129250440Y-51000660D03*
X130749040Y-54000400D03*
X129250440Y-54000400D03*
X160748980Y-54000400D03*
X159250380Y-54000400D03*
X160748980Y-51000660D03*
X159250380Y-51000660D03*
D13*
X153499820Y-60761880D03*
X153499820Y-59237880D03*
X140500100Y-54762400D03*
X140500100Y-53238400D03*
D19*
X145750280Y-51000660D03*
X144251680Y-51000660D03*
X145750280Y-54000400D03*
X144251680Y-54000400D03*
X85750400Y-54000400D03*
X84251800Y-54000400D03*
X85750400Y-51000660D03*
X84251800Y-51000660D03*
D13*
X80500220Y-54262020D03*
X80500220Y-52738020D03*
X95999300Y-54262020D03*
X95999300Y-52738020D03*
D19*
X100749100Y-51000660D03*
X99250500Y-51000660D03*
X100749100Y-54000400D03*
X99250500Y-54000400D03*
X70749160Y-54000400D03*
X69250560Y-54000400D03*
X70749160Y-51000660D03*
X69250560Y-51000660D03*
D13*
X65999360Y-54262020D03*
X65999360Y-52738020D03*
X47500540Y-60761880D03*
X47500540Y-59237880D03*
D19*
X55750460Y-51000660D03*
X54251860Y-51000660D03*
X55750460Y-54000400D03*
X54251860Y-54000400D03*
X55750460Y-111998760D03*
X54251860Y-111998760D03*
X55750460Y-115001040D03*
X54251860Y-115001040D03*
D12*
X52237640Y-117500400D03*
X53761640Y-117500400D03*
D13*
X64500760Y-115262660D03*
X64500760Y-113738660D03*
D19*
X70749160Y-115001040D03*
X69250560Y-115001040D03*
X70749160Y-111998760D03*
X69250560Y-111998760D03*
X100749100Y-111998760D03*
X99250500Y-111998760D03*
X100749100Y-115001040D03*
X99250500Y-115001040D03*
D13*
X95498920Y-115262660D03*
X95498920Y-113738660D03*
X80500220Y-115262660D03*
X80500220Y-113738660D03*
D19*
X85750400Y-115001040D03*
X84251800Y-115001040D03*
X85750400Y-111998760D03*
X84251800Y-111998760D03*
X145750280Y-111998760D03*
X144251680Y-111998760D03*
X145750280Y-115001040D03*
X144251680Y-115001040D03*
D13*
X140500100Y-115262660D03*
X140500100Y-113738660D03*
D12*
X157238700Y-117500400D03*
X158762700Y-117500400D03*
D19*
X160848040Y-114998500D03*
X159349440Y-114998500D03*
X160848040Y-111998760D03*
X159349440Y-111998760D03*
X130749040Y-111998760D03*
X129250440Y-111998760D03*
X130749040Y-115001040D03*
X129250440Y-115001040D03*
D13*
X125498860Y-115262660D03*
X125498860Y-113738660D03*
D12*
X112237520Y-117500400D03*
X113761520Y-117500400D03*
D19*
X115750340Y-115001040D03*
X114251740Y-115001040D03*
X115750340Y-111998760D03*
X114251740Y-111998760D03*
D21*
X47500540Y-105001060D03*
X47500540Y-67500500D03*
X192498980Y-67500500D03*
M02*
