M48
;DRILL file {KiCad (2018-02-14 revision 6afdf1cf8)-makepkg} date 02/15/18 17:49:49
;FORMAT={2:4/ absolute / inch / suppress leading zeros}
FMAT,2
INCH,TZ
T1C0.1495
T2C0.3122
%
G90
G05
M72
T1
X18701Y-44291
X60039Y-20669
X89567Y-20669
X42323Y-20669
X42323Y-44291
X60039Y-44291
X18701Y-20669
X89567Y-44291
T2
X51181Y-23622
X21654Y-29528
X33465Y-29528
X45276Y-23622
X21654Y-41339
X27559Y-35433
X33465Y-35433
X27559Y-23622
X21654Y-23622
X57087Y-41339
X45276Y-35433
X45276Y-41339
X21654Y-35433
X39370Y-23622
X33465Y-23622
X57087Y-35433
X62992Y-29528
X57087Y-29528
X57087Y-23622
X68898Y-32480
X39370Y-35433
X51181Y-35433
X62992Y-35433
X39370Y-41339
X33465Y-41339
X51181Y-29528
X51181Y-41339
X62992Y-41339
X27559Y-41339
X45276Y-29528
X39370Y-29528
X27559Y-29528
X62992Y-23622
T0
M30
